<svg xmlns="http://www.w3.org/2000/svg" width="92.112" height="70.136" viewBox="0 0 92.112 70.136">
  <g id="Grupo_1177623" data-name="Grupo 1177623" transform="translate(-369.693 -362.196)">
    <path id="Trazado_994332" data-name="Trazado 994332" d="M523.871,457.78v1.353q0,6.686,0,13.373c0,2.057-.6,2.669-2.638,2.67-9.369,0-18.739-.034-28.107.03a2.454,2.454,0,0,1-2.757-2.78c.084-4.415.028-8.832.028-13.249v-1.539c-.846,0-1.615.022-2.381,0-1.367-.047-1.77-.77-1.035-1.939,1.559-2.479,3.171-4.923,4.733-7.4a1.835,1.835,0,0,1,1.77-.867c3.962.023,7.925.01,11.887.01,5.077,0,10.154.023,15.23-.019a2.262,2.262,0,0,1,2.219,1.193c1.437,2.359,2.979,4.653,4.459,6.986.83,1.309.45,2-1.09,2.041-.659.018-1.318.028-1.977.044A2.876,2.876,0,0,0,523.871,457.78Zm-19.119-5.173-.184.061v20.269H521.7v-15.3H520.27c-3.544,0-7.09-.055-10.631.03a2.524,2.524,0,0,1-2.574-1.444C506.37,454.977,505.529,453.81,504.752,452.607Zm-12.083,5.033v15.3h9.549v-20.57c-.978,1.507-1.873,2.743-2.609,4.066a2.21,2.21,0,0,1-2.315,1.227C495.78,457.588,494.262,457.64,492.669,457.64Zm12.737-8.023c1.177,1.838,2.251,3.441,3.241,5.094a1.611,1.611,0,0,0,1.617.828c4.415-.028,8.831-.012,13.246-.018.31,0,.62-.052,1.113-.1-1.137-1.763-2.215-3.359-3.2-5.009a1.489,1.489,0,0,0-1.488-.811c-2.806.033-5.612.014-8.418.014Zm-15.618,5.676c.226.127.293.2.362.2,2.3.014,4.608.011,6.912.039.557.007.777-.339,1.027-.734.922-1.461,1.867-2.906,2.794-4.363a7.59,7.59,0,0,0,.379-.812c-2.534,0-4.918-.014-7.3.019a1.131,1.131,0,0,0-.806.424C492.02,451.771,490.929,453.509,489.789,455.293Z" transform="translate(-87.777 -63.927)" fill="#122253" stroke="#122253" stroke-width="0.5"/>
    <path id="Trazado_994333" data-name="Trazado 994333" d="M403.28,412.5c-.372,0-.743.007-1.115,0a2.124,2.124,0,0,1-2.419-1.945,2.147,2.147,0,0,0-.549-1.023,1.992,1.992,0,0,1-.727-1.758,4.664,4.664,0,0,0-2.024-4.492,9.33,9.33,0,0,1-2.929-10.438,9.8,9.8,0,0,1,7.974-7.094,10.222,10.222,0,0,1,11.229,5.968,10.1,10.1,0,0,1-3.407,12.344,2.41,2.41,0,0,0-1.134,2.161c.006.5,0,.991-.018,1.486-.015.328.047.763-.134.961a13.421,13.421,0,0,0-1.6,2.951c-.238.439-.979.688-1.542.844a6.183,6.183,0,0,1-1.6.029Zm2.8-7.814a4.878,4.878,0,0,1,2.1-2.42,8.092,8.092,0,1,0-12.549-9.071,7.944,7.944,0,0,0,2.619,8.892,6.1,6.1,0,0,1,2.26,2.561h1.615a1.465,1.465,0,0,0,.11-.329c.011-1.321,0-2.641.029-3.961a1.655,1.655,0,0,0-.9-1.8,3.221,3.221,0,0,1-1.336-3.792,3.492,3.492,0,0,1,3.275-2.392,3.43,3.43,0,0,1,1.879,6.293c-.307.217-.757.531-.77.817-.072,1.713-.036,3.431-.036,5.2Zm-.2,2.2c-1.548,0-3.145-.007-4.741,0-.531,0-.609.307-.366.866,1.547,0,3.145.008,4.743,0C406.043,407.751,406.136,407.454,405.885,406.889Zm-2.522-9.829a1.284,1.284,0,0,0,1.211-1.317,1.26,1.26,0,1,0-2.518.1A1.277,1.277,0,0,0,403.364,397.06Z" transform="translate(-17.349 -17.394)" fill="#122253" stroke="#122253" stroke-width="0.5"/>
    <path id="Trazado_994334" data-name="Trazado 994334" d="M535.14,394.923c1.048-1.257,1.915-2.3,2.785-3.339.212-.253.395-.63.663-.712a2.083,2.083,0,0,1,1.361-.038c.5.238.471.822.252,1.314a2.275,2.275,0,0,1-.364.5c-1.533,1.838-3.059,3.681-4.6,5.507-.873,1.031-1.4,1.023-2.282-.021-1.516-1.8-3.015-3.609-4.522-5.415-.053-.063-.115-.119-.164-.185-.47-.634-.5-1.286-.086-1.677a1.189,1.189,0,0,1,1.726.293c.783.9,1.544,1.828,2.3,2.755.155.19.244.433.479.551a29.717,29.717,0,0,0-5.3-14.9A31.641,31.641,0,0,0,505.4,365.747a32.011,32.011,0,0,0-25.641,6.827c-.1.077-.192.157-.294.226-.666.451-1.289.44-1.661-.026a1.121,1.121,0,0,1,.325-1.621,57.19,57.19,0,0,1,5.089-3.495,32.986,32.986,0,0,1,21.823-4.2c13.077,2.024,22.319,9.224,27.592,21.411a32.327,32.327,0,0,1,2.276,8.7C534.954,393.94,535.031,394.3,535.14,394.923Z" transform="translate(-80.979 -0.466)" fill="#122253" stroke="#122253" stroke-width="0.5"/>
    <path id="Trazado_994335" data-name="Trazado 994335" d="M413.152,503.273c-.939,1.115-1.784,2.121-2.633,3.124a8.426,8.426,0,0,1-.741.828,1,1,0,0,1-1.448.022.938.938,0,0,1-.1-1.426c.41-.517.831-1.025,1.254-1.532,1.188-1.425,2.372-2.854,3.571-4.27.909-1.073,1.462-1.067,2.383.026,1.488,1.766,2.962,3.543,4.441,5.316.132.158.253.326.377.49a.952.952,0,0,1-.131,1.427.965.965,0,0,1-1.441-.055c-.6-.625-1.133-1.308-1.692-1.968a5.922,5.922,0,0,0-1.413-1.328,11.86,11.86,0,0,0,.105,1.373c2.395,12.512,9.4,21.33,21.436,25.615,11,3.915,21.345,2.067,30.778-4.819.3-.218.6-.443.914-.631.543-.321.948-.037,1.286.366a.837.837,0,0,1-.057,1.226,12.861,12.861,0,0,1-1.427,1.178,34.86,34.86,0,0,1-54.173-18.629C413.9,507.6,413.6,505.515,413.152,503.273Z" transform="translate(-28.593 -102.9)" fill="#122253" stroke="#122253" stroke-width="0.5"/>
    <path id="Trazado_994336" data-name="Trazado 994336" d="M649.993,512.559a7.712,7.712,0,0,1,1.02-.4c.575-.133.762-.477.842-1.044.238-1.684.349-1.753,2.041-1.757.66,0,1.32-.013,1.979,0,1.132.028,1.318.2,1.519,1.347.064.363.12.728.188,1.142l1.744.711c.366-.267.719-.546,1.093-.8.742-.5,1.1-.485,1.756.119.605.559,1.175,1.156,1.751,1.747.87.893.933,1.253.139,2.215a1.548,1.548,0,0,0-.261,1.769,1.341,1.341,0,0,0,1.347.984c1.33.113,1.526.381,1.54,1.722.008.783-.008,1.567,0,2.351a1.17,1.17,0,0,1-1.1,1.368,2.756,2.756,0,0,1-.362.076,1.391,1.391,0,0,0-1.516,1.282,4.2,4.2,0,0,1-.239.619c.263.355.545.705.795,1.077a1.166,1.166,0,0,1-.124,1.761c-.649.69-1.339,1.342-2.012,2.01-.517.512-1.138.644-1.639.1-.947-1.018-1.866-.7-2.91-.042-.069.4-.167.879-.233,1.362a1.087,1.087,0,0,1-1.144,1.062c-1.03.021-2.063.044-3.092,0-.818-.039-1.043-.348-1.236-1.414a1.742,1.742,0,0,0-1.585-1.667,1.591,1.591,0,0,0-.962.369c-1.319.919-1.454.92-2.6-.211-.469-.464-.942-.923-1.4-1.4-.856-.886-.93-1.165-.142-2.094a1.589,1.589,0,0,0,.243-1.984,1.3,1.3,0,0,0-1.106-.785c-1.7-.315-1.708-.36-1.711-2.1,0-.619-.009-1.237,0-1.856.022-1.191.245-1.544,1.4-1.584a1.58,1.58,0,0,0,1.575-1.232,1.221,1.221,0,0,0-.2-1.346c-1.021-1.366-1-1.423.228-2.656.407-.409.814-.819,1.227-1.222,1.006-.982,1.223-.991,2.407-.126C649.485,512.212,649.725,512.372,649.993,512.559Zm4.063-.974a2.759,2.759,0,0,0-.187.646,1.615,1.615,0,0,1-1.453,1.7,4.305,4.305,0,0,0-1.366.554,1.7,1.7,0,0,1-2.346-.182,3.865,3.865,0,0,0-.674-.387l-.812.783c1.052,1.832,1.052,1.832.294,3.606a1.556,1.556,0,0,0-.135.344,2.084,2.084,0,0,1-2.338,2c-.059,0-.12.1-.22.187v1.09a3.79,3.79,0,0,0,.724.209,1.622,1.622,0,0,1,1.677,1.475,4.635,4.635,0,0,0,.689,1.576,1.413,1.413,0,0,1-.162,1.9,7.306,7.306,0,0,0-.507.715l.9,1.131c1.091-1.366,2.187-1.372,3.359-.517a.988.988,0,0,0,.445.206,2.108,2.108,0,0,1,2.042,2.308c0,.065.093.126.143.191h1.313a1.976,1.976,0,0,1,1.938-2.5,1.263,1.263,0,0,0,.559-.255,2.068,2.068,0,0,1,3.049.276c.041.041.152.013.315.021l.761-.837a2.923,2.923,0,0,0-.305-.491,1.68,1.68,0,0,1-.193-2.433,1.266,1.266,0,0,0,.215-.442c.342-1.406.917-2.565,2.659-2.432v-1.351a3.418,3.418,0,0,0-.645-.125,1.515,1.515,0,0,1-1.659-1.324,4.969,4.969,0,0,0-.6-1.478,1.681,1.681,0,0,1,.186-2.339,3.915,3.915,0,0,0,.4-.681l-.786-.846a4.886,4.886,0,0,0-.735.437,1.683,1.683,0,0,1-2.35.146,1.637,1.637,0,0,0-.554-.266c-1.4-.3-2.507-.869-2.308-2.622Z" transform="translate(-205.14 -110.52)" fill="#122253" stroke="#122253" stroke-width="0.5"/>
    <path id="Trazado_994337" data-name="Trazado 994337" d="M371.97,424.643a8.757,8.757,0,0,1-1.1-.009,1.033,1.033,0,0,1,.032-2.058,15.307,15.307,0,0,1,2.209-.005.97.97,0,0,1,.979,1.052,1,1,0,0,1-1.012,1.029,10.265,10.265,0,0,1-1.1.007Z" transform="translate(0 -45.206)" fill="#122253" stroke="#122253" stroke-width="0.5"/>
    <path id="Trazado_994338" data-name="Trazado 994338" d="M391.183,460.746a3.559,3.559,0,0,1-.387.739c-.473.511-.959,1.013-1.479,1.475a.981.981,0,0,1-1.438-.007.943.943,0,0,1-.073-1.425,11.11,11.11,0,0,1,1.676-1.615,1.316,1.316,0,0,1,1.113.011C390.865,460.05,391,460.47,391.183,460.746Z" transform="translate(-13.22 -73.238)" fill="#122253" stroke="#122253" stroke-width="0.5"/>
    <path id="Trazado_994339" data-name="Trazado 994339" d="M484.689,424.811a10.781,10.781,0,0,1-1.212-.106.9.9,0,0,1-.749-.991c0-.515.236-.945.747-.987a15.975,15.975,0,0,1,2.585,0c.515.041.751.486.752.988a.906.906,0,0,1-.754.992A12.652,12.652,0,0,1,484.689,424.811Z" transform="translate(-84.851 -45.312)" fill="#122253" stroke="#122253" stroke-width="0.5"/>
    <path id="Trazado_994340" data-name="Trazado 994340" d="M390.135,383.566a3.641,3.641,0,0,1-.75-.389,18.768,18.768,0,0,1-1.471-1.469,1.012,1.012,0,0,1,0-1.519.977.977,0,0,1,1.431-.008,11.137,11.137,0,0,1,1.538,1.57,1.317,1.317,0,0,1,.117,1.112C390.869,383.17,390.427,383.344,390.135,383.566Z" transform="translate(-13.262 -13.111)" fill="#122253" stroke="#122253" stroke-width="0.5"/>
    <path id="Trazado_994341" data-name="Trazado 994341" d="M470.025,379.872c.765.016,1.359.906.93,1.5a10.131,10.131,0,0,1-1.881,1.916,1.113,1.113,0,0,1-1.088-.094c-.258-.259-.479-.955-.323-1.155a20.42,20.42,0,0,1,2.047-2.077C469.786,379.886,469.941,379.893,470.025,379.872Z" transform="translate(-73.478 -13.11)" fill="#122253" stroke="#122253" stroke-width="0.5"/>
    <path id="Trazado_994342" data-name="Trazado 994342" d="M468.531,459.088a2.923,2.923,0,0,1,.764.329,21.168,21.168,0,0,1,1.562,1.55,1.038,1.038,0,0,1-1.46,1.471,10.436,10.436,0,0,1-1.543-1.564,1.4,1.4,0,0,1-.085-1.129C467.868,459.466,468.274,459.3,468.531,459.088Z" transform="translate(-73.538 -72.707)" fill="#122253" stroke="#122253" stroke-width="0.5"/>
    <path id="Trazado_994343" data-name="Trazado 994343" d="M432.533,364.529a9.8,9.8,0,0,1-.008,1.113.959.959,0,0,1-.994.913.9.9,0,0,1-1.025-.854,18.176,18.176,0,0,1-.014-2.345.9.9,0,0,1,.979-.909.969.969,0,0,1,1.064.97c.033.369.006.742.006,1.113Z" transform="translate(-45.528)" fill="#122253" stroke="#122253" stroke-width="0.5"/>
    <path id="Trazado_994344" data-name="Trazado 994344" d="M567.13,536.485c.7,0,1.4-.027,2.1.006.766.036,1.132.378,1.164,1a.977.977,0,0,1-1.059,1.106c-1.522.057-3.05.056-4.573.005-.773-.026-1.11-.431-1.1-1.065s.363-1,1.118-1.042C565.562,536.455,566.347,536.486,567.13,536.485Z" transform="translate(-145.74 -130.927)" fill="#122253" stroke="#122253" stroke-width="0.5"/>
    <path id="Trazado_994345" data-name="Trazado 994345" d="M675.891,537.394a5.05,5.05,0,1,1,.017,10.1,5.05,5.05,0,1,1-.017-10.1Zm.026,2.194a2.822,2.822,0,0,0-2.948,2.813,2.912,2.912,0,0,0,2.846,2.955,2.858,2.858,0,0,0,2.928-2.849A2.762,2.762,0,0,0,675.917,539.587Z" transform="translate(-226.351 -131.618)" fill="#122253" stroke="#122253" stroke-width="0.5"/>
  </g>
</svg>
