<svg xmlns="http://www.w3.org/2000/svg" width="74.786" height="74.594" viewBox="0 0 74.786 74.594">
  <g id="Grupo_1177625" data-name="Grupo 1177625" transform="translate(-278.345 -298.414)">
    <path id="Trazado_994353" data-name="Trazado 994353" d="M290.543,322.459c0-.828,0-1.651,0-2.474,0-1.521-.014-3.042,0-4.562a11.432,11.432,0,0,1,6.221-10.5,11.579,11.579,0,0,1,12.127.358c.178.105.35.222.526.329a1.631,1.631,0,0,0,.266.055c0-1.035-.064-2.048.021-3.047a5.717,5.717,0,0,1,.518-2.178,3.269,3.269,0,0,1,3.066-1.77q17.99.007,35.98.009a3.428,3.428,0,0,1,3.567,3.611q.027,7.1,0,14.205a3.533,3.533,0,0,1-3.544,3.676c-.345.019-.691.009-1.037.009H314.529v2.214a22,22,0,0,1,2.988.809,7.67,7.67,0,0,1,4.871,6.446c.49,3.8.914,7.611,1.368,11.417.02.165.053.329.087.535,1.484,0,2.931.067,4.365-.035a3.337,3.337,0,0,0,1.567-.734,11.737,11.737,0,0,0,5.057-9.1c.125-2.032.049-4.077.057-6.116a2.831,2.831,0,0,1,1.746-2.808,2.757,2.757,0,0,1,3.306.717,7.2,7.2,0,0,1,2.1,5.038c.015,2.557.005,5.115.01,7.673,0,1.477.37,1.853,1.812,1.857,1.59,0,3.18.032,4.769-.007a3.779,3.779,0,0,1,3.768,1.868,3.6,3.6,0,0,1-.4,4.108,3.736,3.736,0,0,1,.026,4.754c1.117,2.093,1.117,2.923.032,4.762a9.989,9.989,0,0,1,.708,1.7,3.589,3.589,0,0,1-3.618,4.371c-1.658.035-3.318.007-4.977.007-3.94,0-7.88-.008-11.821,0a10.845,10.845,0,0,1-4.323-.9,12.809,12.809,0,0,0-2.238-.487c.124,1.082.22,1.922.318,2.762.108.926.212,1.853.326,2.779a7.9,7.9,0,0,1-7.675,8.914q-16.227.073-32.454,0A7.713,7.713,0,0,1,278.6,364.9c.046-2.374.422-4.743.693-7.11.575-5.009,1.18-10.014,1.769-15.021.5-4.253.985-8.507,1.493-12.759a8,8,0,0,1,6.879-7.349C289.766,322.592,290.1,322.537,290.543,322.459Zm11.91,47.964q7.88,0,15.76,0a5.641,5.641,0,0,0,5.838-6.193c-.185-1.682-.369-3.364-.569-5.044-.65-5.451-1.317-10.9-1.961-16.353-.5-4.253-.962-8.51-1.478-12.761a5.478,5.478,0,0,0-5.554-5.094q-11.976-.038-23.951,0a5.457,5.457,0,0,0-5.523,4.99q-.471,3.96-.95,7.919-.769,6.429-1.536,12.857-.714,6.018-1.411,12.037a11.749,11.749,0,0,0-.153,2.575,5.637,5.637,0,0,0,5.936,5.06C292.083,370.433,297.268,370.423,302.452,370.423ZM348.1,342.845a11.02,11.02,0,0,0,1.346-.01,1.139,1.139,0,0,0,1.035-1.118,1.177,1.177,0,0,0-1.076-1.181,6.316,6.316,0,0,0-.827-.025c-1.624,0-3.249-.053-4.87.011a3.757,3.757,0,0,1-4.019-3.981c.108-2.482.024-4.973.023-7.46a5.351,5.351,0,0,0-1.207-3.55,3.04,3.04,0,0,0-.828-.5,2.994,2.994,0,0,0-.385.954c-.04,1.692.008,3.385-.026,5.077a14.414,14.414,0,0,1-5.71,11.451,6.972,6.972,0,0,1-4.693,1.6c-.888-.025-1.777,0-2.755,0l1.4,11.861a6.031,6.031,0,0,0,.888.069,6.118,6.118,0,0,1,2.889.589,7.345,7.345,0,0,0,2.7.549c5.6.048,11.191.025,16.787.024a5.035,5.035,0,0,0,.621-.016,1.206,1.206,0,0,0,1.1-1.165,1.192,1.192,0,0,0-1.133-1.13c-.4-.034-.8-.006-1.208-.006v-2.426c1.782-.1,2.405-.4,2.329-1.2-.143-1.491-1.416-1.069-2.339-1.214v-2.41c.351,0,.626.008.9,0,.889-.032,1.436-.464,1.451-1.14s-.541-1.151-1.4-1.188c-.326-.014-.653,0-.988,0ZM314.47,317.724c.369.018.606.039.842.039q16.734,0,33.468,0c1.334,0,1.723-.39,1.727-1.732.009-2.97,0-5.941,0-8.911,0-1.451.007-2.9,0-4.352-.009-1.365-.423-1.762-1.814-1.776H314.085c-.173,0-.346-.006-.518,0-1.015.051-1.418.451-1.427,1.486-.016,1.727-.026,3.454.012,5.18a2.318,2.318,0,0,0,.361,1.142,11.658,11.658,0,0,1,1.959,6.649C314.458,316.173,314.47,316.894,314.47,317.724Zm-7.162,4.81c0-2.518.061-4.894-.016-7.266a4.779,4.779,0,0,0-4.813-4.688,4.876,4.876,0,0,0-4.787,4.747c-.04.93-.01,1.862-.011,2.793,0,1.438,0,2.876,0,4.354.273.027.438.057.6.057C301.248,322.535,304.211,322.534,307.308,322.534Zm-11.959-.053v-1.06c0-2.039-.025-4.079.017-6.117a7.16,7.16,0,1,1,14.318.182c.017,2.039,0,4.078.006,6.117,0,.3.037.593.055.856h2.374c0-2.557.109-5.046-.023-7.522a9.55,9.55,0,0,0-9.166-9.129,9.415,9.415,0,0,0-9.822,8c-.259,2.218-.162,4.478-.217,6.72-.016.645,0,1.29,0,1.955Z" transform="translate(0 0)" fill="#122253" stroke="#122253" stroke-width="0.5"/>
    <path id="Trazado_994354" data-name="Trazado 994354" d="M337.96,479.518c-1-2.473-1.929-4.757-2.849-7.045s-1.843-4.605-2.754-6.881h-1.971l-5.609,13.946-3.243-8.009h-7.285l6.322-10.118a14.283,14.283,0,0,1-3.828-13.33,13.83,13.83,0,0,1,5.329-8.266,14.371,14.371,0,0,1,19.6,20.8l6.774,10.83c-.381.035-.636.079-.892.08-1.866.006-3.732.024-5.6-.009a.945.945,0,0,0-1.063.711c-.838,2.19-1.731,4.359-2.6,6.536C338.217,478.949,338.132,479.126,337.96,479.518ZM318.8,451.152A11.962,11.962,0,1,0,330.9,439.307,11.951,11.951,0,0,0,318.8,451.152Zm21.2,11.342-5.217,2.725,3.174,7.881,1.594-3.91H344.2Zm-15.224,10.592,3.041-7.583-5.478-2.4-3.82,6.118h4.655Z" transform="translate(-28.258 -109.545)" fill="#122253" stroke="#122253" stroke-width="0.5"/>
    <path id="Trazado_994355" data-name="Trazado 994355" d="M479.1,332.242a10.212,10.212,0,0,0-1.143.851,1.091,1.091,0,0,1-1.569.134c-.141-.1-.3-.179-.441-.272-1.67-1.067-1.774-1.342-1.239-3.241.055-.2.11-.392.18-.644l-1.15-.887c-.231.159-.421.307-.626.429a.87.87,0,0,0-.4,1.21c.594,1.722.5,1.926-.984,2.975-1.325.936-1.391.935-2.682-.025-.22-.164-.445-.321-.739-.532a10.205,10.205,0,0,0-1.145.853,1.1,1.1,0,0,1-1.57.134c-.141-.1-.3-.179-.441-.272-1.678-1.073-1.782-1.346-1.238-3.244.056-.2.109-.391.179-.64l-1.153-.892c-.23.161-.417.312-.623.432a.871.871,0,0,0-.4,1.21c.586,1.728.494,1.932-.985,2.977-1.326.937-1.388.935-2.682-.026-.22-.163-.445-.32-.739-.531a10.508,10.508,0,0,0-1.145.853,1.093,1.093,0,0,1-1.569.132c-.084-.06-.178-.106-.267-.159-1.844-1.109-1.973-1.431-1.386-3.46.046-.161.1-.321.16-.531a12.805,12.805,0,0,0-1.241-.944,1.082,1.082,0,0,1-.514-1.4c.049-.166.086-.334.128-.5.548-2.216.671-2.317,2.9-2.4.1,0,.2-.032.44-.071.125-1.62.958-2.313,2.728-2.311,1.742,0,1.972,1.123,2.3,2.258.928.424,2.276-.5,2.745,1.275.587-1.632,1.838-1.013,2.848-1.178.334-.7.5-1.627,1.049-2.016a4.006,4.006,0,0,1,2.211-.248c1.165.031,1.164.075,1.988,2.192.859.4,2.247-.519,2.727,1.265.565-1.734,1.891-.95,2.988-1.251.143-1.533.875-2.3,2.639-2.3,1.743,0,2.1,1.047,2.406,2.335a3.764,3.764,0,0,0,.875.045c1.105-.221,1.675.313,1.972,1.3.108.361.3.7.4,1.061.386,1.378.408,1.423-.759,2.222-.686.47-.937.921-.515,1.7a1.6,1.6,0,0,1-.617,2.3c-.171.116-.318.266-.487.385-1.324.939-1.386.937-2.68-.024C479.621,332.61,479.4,332.454,479.1,332.242Zm-9.87-5.907-.9-2.494-.937,2.517h-2.438l-.079.22c.5.392.981.805,1.5,1.169a.8.8,0,0,1,.332,1.13,17.794,17.794,0,0,0-.572,1.951l2.194-1.575,1.925,1.381.15-.118-.659-2.315,2-1.627-.092-.24Zm9.887-2.484-.93,2.51H475.73l-.063.232c.507.394,1,.805,1.523,1.178a.765.765,0,0,1,.328,1.047c-.228.57-.361,1.179-.534,1.771l.175.082,1.949-1.416,1.936,1.367.147-.13-.661-2.274,2-1.653-.106-.247h-2.414Zm-20.665,2.5-.938-2.477-.92,2.495h-2.442l-.073.218c.446.352.872.735,1.344,1.049.524.349.769.7.453,1.355a11.335,11.335,0,0,0-.508,1.817l2.17-1.549,1.917,1.385.154-.137-.664-2.281,2-1.658-.1-.216Z" transform="translate(-137.02 -18.059)" fill="#122253" stroke="#122253" stroke-width="0.5"/>
    <path id="Trazado_994356" data-name="Trazado 994356" d="M357.113,478.949a9.625,9.625,0,0,1-9.6-9.542,9.62,9.62,0,1,1,19.24.036A9.625,9.625,0,0,1,357.113,478.949Zm-7.141-9.52a7.166,7.166,0,1,0,14.332-.055,7.166,7.166,0,0,0-14.332.055Z" transform="translate(-54.62 -127.714)" fill="#122253" stroke="#122253" stroke-width="0.5"/>
  </g>
</svg>
