<svg xmlns="http://www.w3.org/2000/svg" width="123.885" height="123.885" viewBox="0 0 123.885 123.885">
  <g id="Grupo_1178367" data-name="Grupo 1178367" transform="translate(-580.244 -5120.646)">
    <g id="Grupo_1176949" data-name="Grupo 1176949" transform="translate(580.244 5120.646)">
      <g id="Grupo_1176953" data-name="Grupo 1176953" transform="translate(0 0)">
        <path id="Trazado_993120" data-name="Trazado 993120" d="M123.885,61.943A61.942,61.942,0,1,1,61.942,0a61.942,61.942,0,0,1,61.943,61.943" transform="translate(0 0)" fill="#e8ebf3"/>
      </g>
    </g>
    <g id="Grupo_1177624" data-name="Grupo 1177624" transform="translate(251.215 4811.178)">
      <path id="Trazado_994346" data-name="Trazado 994346" d="M370.1,341.468c-2.064,0-3.944-.032-5.822.014a1.508,1.508,0,0,0-1.537,1.525,12.381,12.381,0,0,0-.032,1.257q0,31.023,0,62.045c0,.252-.006.5,0,.755.052,1.532.539,2.034,2.076,2.04,3.817.015,7.635.005,11.452.006,2.349,0,4.7,0,7.048,0,.376,0,.85-.1,1.106.09a2.891,2.891,0,0,1,1.13,1.3c.215.744-.358,1.254-1.056,1.472a3.852,3.852,0,0,1-1.122.076q-9.124.006-18.248,0c-3.5,0-5.283-1.772-5.283-5.249q0-31.526,0-63.052c0-3.489,1.761-5.22,5.289-5.225,1.592,0,3.184,0,5,0,0-1-.007-1.947,0-2.891.025-3.045,1.826-4.885,4.844-4.887q21.521-.014,43.041,0a4.459,4.459,0,0,1,4.8,4.787q.014,31.967,0,63.933A4.447,4.447,0,0,1,418,404.263c-1.76.015-3.52,0-5.492,0,0,.966.007,1.868,0,2.771-.027,3.134-1.888,5.008-5.021,5.016q-8.369.019-16.738,0c-.334,0-.771.088-.98-.084-.451-.37-1.111-.905-1.081-1.331.036-.51.635-1.064,1.119-1.428.278-.209.81-.1,1.228-.1q8.054-.007,16.109,0c1.981,0,2.452-.469,2.468-2.426.006-.748,0-1.5,0-2.415h-1.568q-16.486,0-32.972,0c-2.471,0-4.053-1.042-4.744-3.154a5.241,5.241,0,0,1-.215-1.6q-.017-20.891-.008-41.783a3.892,3.892,0,0,1,.046-.877c.175-.747.708-1.267,1.431-1.1a2.385,2.385,0,0,1,1.319,1.081,3.214,3.214,0,0,1,.1,1.482q0,20.136,0,40.273a9.951,9.951,0,0,0,.032,1.257,1.5,1.5,0,0,0,1.561,1.485q.566.016,1.132.016h41.531c.294,0,.588.009.881-.008,1.251-.074,1.694-.528,1.758-1.809.017-.335.006-.671.006-1.007q0-31.023,0-62.045c0-.419.013-.841-.022-1.257a1.462,1.462,0,0,0-1.521-1.509c-.335-.015-.671-.012-1.006-.012H375.566c-2.222,0-2.566.338-2.568,2.524q0,6.922,0,13.844c0,.336.013.672-.011,1.006-.071,1.007-.593,1.569-1.436,1.568a1.436,1.436,0,0,1-1.437-1.563c-.035-1.509-.013-3.02-.014-4.53C370.1,344.91,370.1,343.278,370.1,341.468Z" fill="#122253"/>
      <path id="Trazado_994347" data-name="Trazado 994347" d="M431.432,361.885v28.431c.391.028.751.077,1.112.077,5.786,0,11.573-.015,17.359.024.859.006,1.141-.281,1.489-1.068.73-1.652,1.728-3.186,2.761-5.029-1.234-1.2-2.73-2.656-4.22-4.115-.359-.351-.729-.7-1.052-1.08a1.285,1.285,0,0,1,.091-1.912,1.393,1.393,0,0,1,1.939-.087,3.679,3.679,0,0,1,.46.426q5.793,5.766,11.581,11.536c1.335,1.335,1.288,3.043-.146,3.8a4.021,4.021,0,0,1-1.818.314q-14.718.028-29.435.013c-.126,0-.252,0-.378,0-1.865-.027-2.63-.731-2.633-2.577-.015-10.021,0-20.043-.014-30.064a2.3,2.3,0,0,1,4.075-1.687q6.552,6.52,13.106,13.039c.838.836.91,1.688.273,2.312s-1.478.557-2.317-.272q-5.545-5.481-11.068-10.984C432.28,362.67,431.947,362.371,431.432,361.885Zm25.045,24.908a5.879,5.879,0,0,0-2.325,3.486h5.6Z" transform="translate(-51.421 -20.407)" fill="#122253"/>
      <path id="Trazado_994348" data-name="Trazado 994348" d="M456.292,535.328c-2.559,0-5.118-.012-7.676.007a2.057,2.057,0,0,1-2.251-1.216,2.031,2.031,0,0,1,.716-2.35q7.9-7.843,15.785-15.7a2.083,2.083,0,0,1,2.374-.672,2.027,2.027,0,0,1,1.183,2.163c0,5.159.018,10.319-.01,15.478-.009,1.638-.691,2.277-2.319,2.288C461.494,535.341,458.893,535.328,456.292,535.328Zm-5.34-2.967H463.4V519.78Z" transform="translate(-64.657 -138.057)" fill="#122253"/>
      <path id="Trazado_994349" data-name="Trazado 994349" d="M540.538,531.65c.291-.092.592-.3.826-.239.528.132,1.238.261,1.473.64a1.718,1.718,0,0,1-.068,1.593,24.53,24.53,0,0,1-2.819,2.859,1.429,1.429,0,0,1-2.126-.22c-.745-.737-1.469-1.5-2.227-2.219a1.536,1.536,0,0,1-.478-2.013c.455-.808,1.188-.819,1.973-.542a4.156,4.156,0,0,0,.43.094v-7.875c-.249.1-.431.162-.61.235a1.211,1.211,0,0,1-1.7-.591,2.026,2.026,0,0,1,.13-1.707,24.215,24.215,0,0,1,2.735-2.768,1.357,1.357,0,0,1,2.023.1c.728.694,1.423,1.422,2.153,2.115.688.653,1.218,1.382.592,2.3-.562.826-1.38.859-2.3.185Z" transform="translate(-131.022 -140.484)" fill="#122253"/>
      <path id="Trazado_994350" data-name="Trazado 994350" d="M502.685,361.653c3.269,0,6.538.009,9.806-.006.878,0,1.59.206,1.835,1.152a1.376,1.376,0,0,1-1.094,1.69,6.227,6.227,0,0,1-1.251.073q-9.366.006-18.732,0c-.209,0-.419,0-.628,0-1.206-.047-1.793-.528-1.792-1.463s.592-1.436,1.8-1.441C495.98,361.645,499.333,361.653,502.685,361.653Z" transform="translate(-98.038 -23.124)" fill="#122253"/>
      <path id="Trazado_994351" data-name="Trazado 994351" d="M520.927,390.035c-2.432,0-4.865.008-7.3,0-1.212-.006-1.815-.481-1.85-1.4-.037-.982.582-1.531,1.857-1.535q7.234-.024,14.468,0c1.243,0,1.953.576,1.949,1.481s-.722,1.453-1.957,1.458C525.707,390.042,523.317,390.036,520.927,390.035Z" transform="translate(-113.713 -42.156)" fill="#122253"/>
      <path id="Trazado_994352" data-name="Trazado 994352" d="M538.886,412.714c1.549,0,3.1-.013,4.647,0,1.122.012,1.819.593,1.813,1.465a1.529,1.529,0,0,1-1.706,1.467q-4.835.049-9.671,0c-1.133-.011-1.8-.665-1.75-1.551.048-.842.694-1.369,1.769-1.382C535.62,412.7,537.254,412.714,538.886,412.714Z" transform="translate(-129.006 -61.331)" fill="#122253"/>
    </g>
  </g>
</svg>
