<svg xmlns="http://www.w3.org/2000/svg" width="88.852" height="88.543" viewBox="0 0 88.852 88.543">
  <g id="Grupo_1177676" data-name="Grupo 1177676" transform="translate(-536.485 -526.094)">
    <path id="Trazado_994423" data-name="Trazado 994423" d="M608.2,599.5a40.388,40.388,0,0,1-24.3,10.633c0,.874.013,1.675,0,2.476-.03,1.541-.44,1.97-1.989,2.01a43.15,43.15,0,0,1-24.642-6.806,43.626,43.626,0,0,1-17.814-21.64,42.337,42.337,0,0,1-2.368-22.624c2.372-14.144,9.911-24.754,22.282-31.867a42.037,42.037,0,0,1,22.42-5.575c1.715.045,2.093.439,2.114,2.152.008.721,0,1.441,0,2.326a40.434,40.434,0,0,1,24.3,10.651c.632-.7,1.171-1.357,1.776-1.947a1.588,1.588,0,0,1,2.633.05,44.116,44.116,0,0,1,10.773,18.049A44.279,44.279,0,0,1,612.608,601.4a1.591,1.591,0,0,1-2.635.042C609.37,600.847,608.828,600.193,608.2,599.5Zm-27.354,12.147V596.983a4.64,4.64,0,0,0-.544-.076,26.162,26.162,0,0,1-13.44-3.97,3.42,3.42,0,0,0-1.683-.4c-4.948-.03-9.9-.011-14.844-.022-1.472,0-1.935-.454-1.937-1.893q-.014-9.921,0-19.841c0-1.433.4-1.835,1.818-1.845,2.431-.016,4.863,0,7.294-.008.367,0,.734-.047,1.164-.076v-1.516q0-8.512,0-17.025c0-1.563.521-2.08,2.057-2.093,1.493-.013,2.988.044,4.478-.026A3.975,3.975,0,0,0,567,547.7a26.193,26.193,0,0,1,13.085-3.865c.244,0,.487-.05.736-.077v-14.7a41.295,41.295,0,1,0,.03,82.59Zm1.59-42.727h1.287c2.432,0,4.864-.015,7.3.009,1.271.013,1.66.429,1.693,1.708.019.725,0,1.451,0,2.176q0,8.834,0,17.669c0,.746.017,1.514-.832,1.825a4.076,4.076,0,0,1-1.37.2q-7.936.02-15.872.008h-1.289a19.555,19.555,0,0,0,8.524,1.473c1.546-.02,2,.408,2.029,1.941.014.711,0,1.421,0,2.279A28.015,28.015,0,0,0,599.8,591.1c-.644-.574-1.208-1.032-1.721-1.541-1.1-1.091-1.11-1.7-.1-2.827.342-.381.7-.746,1.025-1.143a23.181,23.181,0,0,0,4.445-22.447A22.846,22.846,0,0,0,598,553.994c-1.049-1.112-1.018-1.736.057-2.828.526-.535,1.061-1.062,1.65-1.651a27.986,27.986,0,0,0-15.8-6.994c0,.6,0,.975,0,1.353,0,.427.021.855-.011,1.28a1.443,1.443,0,0,1-1.626,1.56c-.682.023-1.368-.048-2.047,0a19.671,19.671,0,0,0-6.9,1.415c2.312.084,4.614.079,6.915.085,1.707,0,2.192.49,2.195,2.209q.009,6.85,0,13.7Zm28.8,29.443c14.788-14.956,14.832-41.021.1-55.923l-10.354,10.4a26.685,26.685,0,0,1-.058,35.1C604.412,591.468,607.825,594.915,611.236,598.364Zm-59.881-26.491v17.556H569V571.877h-4.4c0,.533,0,.992,0,1.452,0,2.346.02,4.693-.009,7.038-.019,1.573-.952,2.148-2.354,1.5a3.5,3.5,0,0,1-.572-.284,2.253,2.253,0,0,0-2.917-.021,2.56,2.56,0,0,1-.462.217c-1.593.752-2.48.229-2.495-1.511-.021-2.388,0-4.777-.008-7.166,0-.409-.033-.818-.052-1.233Zm20.7,17.57h17.669V571.911h-4.418v1.125c0,2.431-.012,4.863.005,7.294.006.851-.2,1.592-1.118,1.747a2.147,2.147,0,0,1-1.424-.334,2.958,2.958,0,0,0-3.741.025.656.656,0,0,1-.113.06c-1.491.7-2.4.143-2.417-1.519-.024-2.047-.006-4.095-.007-6.143v-2.261H572.06Zm2.957-38.229v1.359q0,3.2,0,6.4c0,2.517-.9,3.09-3.132,1.853a2.267,2.267,0,0,0-2.7.036,3.223,3.223,0,0,1-.571.283c-1.531.684-2.511.093-2.53-1.577-.027-2.345-.007-4.69-.007-7.036v-1.252H561.8v17.537h17.484v-17.6Zm8.944,55.862c8.328-.544,17.14-4.677,21.791-9.6l-4.07-4.1a31.264,31.264,0,0,1-17.721,7.831Zm-.021-67.563a33.541,33.541,0,0,1,9.565,2.535,32.573,32.573,0,0,1,8.173,5.281l4.162-4.173a36.68,36.68,0,0,0-21.9-9.543ZM561.653,571.9h-2.922v6.34a2.725,2.725,0,0,1,2.922-.059Zm17.844-.049v6.55c1.006-1,1.931-.592,2.857-.233V571.85Zm-7.563-14.6v-6h-2.74v6Z" fill="#122253"/>
    <path id="Trazado_994424" data-name="Trazado 994424" d="M830.2,675.394l1.779,1.9-10.2,10.255-1.731-1.9Z" transform="translate(-210.986 -111.089)" fill="#122253"/>
    <path id="Trazado_994425" data-name="Trazado 994425" d="M851.94,712.094a1.429,1.429,0,1,1-1.445-1.457A1.442,1.442,0,0,1,851.94,712.094Z" transform="translate(-232.593 -137.312)" fill="#122253"/>
    <path id="Trazado_994426" data-name="Trazado 994426" d="M828.8,677.526a1.431,1.431,0,1,1-1.4-1.5A1.443,1.443,0,0,1,828.8,677.526Z" transform="translate(-215.373 -111.561)" fill="#122253"/>
  </g>
</svg>
