<svg xmlns="http://www.w3.org/2000/svg" width="78.921" height="78.009" viewBox="0 0 78.921 78.009">
  <g id="Grupo_1177777" data-name="Grupo 1177777" transform="translate(-366.949 -303.917)">
    <path id="Trazado_994499" data-name="Trazado 994499" d="M406,349.764c-.889-1.977-1.717-3.912-2.652-5.793-.134-.27-.783-.4-1.195-.4q-13.748-.033-27.5-.017c-2.744,0-2.771-.026-2.771-2.747q0-17.4,0-34.8c0-1.744.334-2.088,2.034-2.088h65.518c1.716,0,2.051.339,2.051,2.073q0,17.776,0,35.552c0,1.692-.313,2.009-2,2.009-8.879,0-17.758.012-26.637-.017-.843,0-1.253.188-1.5,1.069-.493,1.785-1.152,3.524-1.77,5.361a6.872,6.872,0,0,1,4.14,2.941.609.609,0,0,0,.552.155,23.191,23.191,0,0,0,4.086-1.467c2.023-1.133,3.911-2.51,5.839-3.81a10.029,10.029,0,0,1,5.97-1.758,60.467,60.467,0,0,1,7.277.253c2.547.368,4.5,2.126,6.357,3.791a3.761,3.761,0,0,1,.84,3.713,3.444,3.444,0,0,0,.211,1.459,11.157,11.157,0,0,1,.762,2.635c.006,1.713.674,3.47-.21,5.16-.1.2.054.547.116.82a4.762,4.762,0,0,1-1.236,4.649,24.25,24.25,0,0,1-10.729,6.835,11.777,11.777,0,0,1-5.518.275c-2.179-.393-4.412-.569-6.542-1.137a16.416,16.416,0,0,1-4-1.963,6.689,6.689,0,0,0-4.558-1.255c.276,1.832-1,2.056-2.353,2.271-1.34.213-2.668.51-3.994.8-1.751.384-2.134.157-2.548-1.672-2.383.376-4.775.747-7.165,1.132-6.071.979-12.138,1.982-18.215,2.924a1.627,1.627,0,0,0-1.422,1.064c-.48,1.077-1.077,2.1-1.569,3.172a1.538,1.538,0,0,1-1.609.973c-1.861-.031-3.723,0-5.585-.014-1.11-.009-1.522-.387-1.523-1.467q-.015-15.2,0-30.4c0-1.387.876-1.866,2.176-1.222,3.684,1.825,7.357,3.672,11.046,5.486a2.925,2.925,0,0,0,1.32.325q9.177-.294,18.352-.657c.272-.011.712-.16.778-.348.8-2.277,2.657-3.152,4.774-3.707C405.569,349.882,405.734,349.836,406,349.764Zm1.757-2.209c.621-1.846,1.2-3.407,1.665-5a1.848,1.848,0,0,1,2.106-1.491c8.7.038,17.4.021,26.095.021h1.261V306.465H374.512v34.617h1.349c9.164,0,18.327.012,27.491-.017a1.9,1.9,0,0,1,2.056,1.305C406.088,344.038,406.891,345.656,407.762,347.555Zm33.319,20.678c-.759-1.007-1.45-1.961-2.189-2.877a1.165,1.165,0,0,0-.791-.472c-1.492.159-2.974.4-4.46.61q.02.184.039.368h2.77v2.492c-1.228,0-2.373.043-3.512-.024a1.635,1.635,0,0,1-1.114-.513,7.754,7.754,0,0,1-1.458-5.965c.031-.2.138-.489.287-.551,1.152-.48.814-1.484.94-2.366a2.669,2.669,0,0,1,.719-1.609,1.316,1.316,0,0,0,.574-1.232c-.021-.843.05-1.689.091-2.772-.33.286-.753.5-.942.84-1.633,2.954-3.321,5.862-6.072,7.953a5.305,5.305,0,0,1-4.653,1.22c.146-.655.25-1.289.442-1.894.067-.211.348-.5.537-.5a4.47,4.47,0,0,0,3.479-2.083,57.087,57.087,0,0,0,4.11-6.249c.664-1.2,1.329-1.785,2.723-1.668s2.8-.047,4.184.052a9.168,9.168,0,0,1,2.54.612c.972.368,1.885.889,2.823,1.344l.3-.307a7.174,7.174,0,0,0-1.049-1.41c-.74-.612-1.607-1.068-2.388-1.635a5.536,5.536,0,0,0-3.514-1.08c-1.824.045-3.651.039-5.476,0a7.646,7.646,0,0,0-4.536,1.385c-2.076,1.4-4.16,2.787-6.267,4.139a5.936,5.936,0,0,1-1.743.766c-1.811.449-3.74.654-4.558,2.742-.036.091-.183.138-.22.229a2.61,2.61,0,0,0-.325.951c.064,2.289.187,4.577.264,6.866.034,1.02.006,2.042.006,3.149a10.394,10.394,0,0,1,6.816,2.106,11.769,11.769,0,0,0,3.768,1.352c1.737.408,3.516.647,5.284.906a9.667,9.667,0,0,0,2.651.178C435.021,372.76,438.142,370.745,441.08,368.233ZM404,370.143l-.6-10.907c-.926-.936-1.849-1.874-2.785-2.8-.052-.052-.207,0-.315,0-5.9.226-11.8.459-17.7.667-.676.024-.974.215-1.1.948-.738,4.145-1.55,8.277-2.331,12.415-.228,1.2-.439,2.412-.687,3.778Zm-34.482,9.36c1.27,0,2.477.011,3.683-.011a.7.7,0,0,0,.538-.253,23.634,23.634,0,0,0,1.962-4.378c.808-3.323,1.353-6.711,1.985-10.077.511-2.725.991-5.456,1.485-8.184l-9.652-4.8Zm37.093-7.715c1.106-.22,2.006-.465,2.921-.562.73-.077.851-.421.819-1.057-.119-2.425-.191-4.851-.3-7.276-.051-1.164-.142-2.326-.212-3.434l-3.944.234C406.136,363.717,406.37,367.691,406.612,371.788Zm.828-19.817-.112.281a5.241,5.241,0,0,0-3.6,1.121,1.574,1.574,0,0,0-.027,2.648,6.289,6.289,0,0,0,7.207.016c.988-.869,1.047-1.988-.082-2.684A21.013,21.013,0,0,0,407.439,351.971Zm35.742,9.615a1.229,1.229,0,0,0-.64-1.875c-1.409-.7-2.806-1.415-4.224-2.092a1.232,1.232,0,0,0-.9-.115c-1.15.526-2.267,1.126-3.4,1.7a.986.986,0,0,0,.827-.125,2.834,2.834,0,0,1,3.381.014C439.807,359.992,441.471,360.734,443.181,361.586Zm-7.9-6.219.143.249a1.859,1.859,0,0,0,.543-.189c1.27-.972,2.467-.7,3.732.07.974.594,2.046,1.028,3.074,1.534l.162-.3c-1.365-1.551-3.354-2.1-5.139-2.968-.046-.023-.142.022-.2.059Q436.442,354.591,435.285,355.367Zm-2.294,7.432.084.252,5.619-.812c-.774-.483-1.666-1.143-2.393-1A14.556,14.556,0,0,0,432.991,362.8Zm9.775,3.482c1.119-1.751.228-2.252-2.491-3.183Z" fill="#122253"/>
    <path id="Trazado_994500" data-name="Trazado 994500" d="M509.127,335.257c0,2.719-.029,5.44.016,8.158a1.791,1.791,0,0,1-1.152,1.835c-4.679,2.307-9.329,4.674-14.025,6.945a2.467,2.467,0,0,1-1.892-.006c-4.729-2.285-9.415-4.659-14.123-6.986a1.663,1.663,0,0,1-1.066-1.667q.037-8.32,0-16.639a1.478,1.478,0,0,1,1.3-1.654c4.753-1.162,9.484-2.419,14.257-3.493a7.131,7.131,0,0,1,3.011.408c4.1.992,8.173,2.054,12.268,3.046a1.579,1.579,0,0,1,1.419,1.787C509.1,329.746,509.127,332.5,509.127,335.257ZM506.7,328.4l-10.482,3.709c1.657,1.113,3.171,2.112,4.663,3.141,1.128.778,1.1,1.733-.074,2.408-1.642.943-3.274,1.917-4.977,2.738a2.327,2.327,0,0,0-1.576,2.613c.147,1.632.035,3.288.035,4.934V349.3c4.1-2.045,8.008-3.97,11.88-5.958a1.484,1.484,0,0,0,.507-1.133c.038-3.577.023-7.155.023-10.733Zm-15.018,14.364c-.52.277-.924.489-1.326.707-1.46.791-2.276.33-2.281-1.309a72.033,72.033,0,0,1,.052-7.291c.211-2.14-.5-3.2-2.523-3.841-2.088-.666-4.063-1.686-6.114-2.562a1.606,1.606,0,0,0-.148.394c-.008,4.542-.027,9.085.02,13.627a1.481,1.481,0,0,0,.751.979c1.442.786,2.926,1.493,4.4,2.224,2.356,1.171,4.714,2.338,7.171,3.556Zm-3.7-13.273c.319-1.846,1.158-2.288,2.494-1.119a5.292,5.292,0,0,0,6.459.817,70.681,70.681,0,0,1,6.694-2.453c-2.924-.72-5.555-1.365-8.185-2.018a6.649,6.649,0,0,0-3.658-.351c-2.121.623-4.285,1.1-6.43,1.642-1.008.255-2.014.521-3.021.783l0,.227Zm2.617,1.894V340.5l7.479-4.155Z" transform="translate(-86.32 -13.955)" fill="#122253"/>
    <path id="Trazado_994501" data-name="Trazado 994501" d="M407.765,321.23h2.327v28.454h-2.327Z" transform="translate(-32.048 -13.594)" fill="#122253"/>
    <path id="Trazado_994502" data-name="Trazado 994502" d="M685.3,321.217h2.328v28.458H685.3Z" transform="translate(-249.963 -13.584)" fill="#122253"/>
    <path id="Trazado_994503" data-name="Trazado 994503" d="M430.966,327.081h2.289v24.665h-2.289Z" transform="translate(-50.265 -18.188)" fill="#122253"/>
    <path id="Trazado_994504" data-name="Trazado 994504" d="M664.492,351.864H662.2V327.231h2.292Z" transform="translate(-231.823 -18.306)" fill="#122253"/>
    <path id="Trazado_994505" data-name="Trazado 994505" d="M456.4,338.995v19.692h-2.3V338.995Z" transform="translate(-68.426 -27.542)" fill="#122253"/>
    <path id="Trazado_994506" data-name="Trazado 994506" d="M641.466,358.634h-2.283V338.9h2.283Z" transform="translate(-213.751 -27.472)" fill="#122253"/>
  </g>
</svg>
