<svg xmlns="http://www.w3.org/2000/svg" width="59.512" height="80.013" viewBox="0 0 59.512 80.013">
  <g id="Grupo_1177660" data-name="Grupo 1177660" transform="translate(-521.498 -445.657)">
    <path id="Trazado_994393" data-name="Trazado 994393" d="M540.875,481.768c0-1.963-.019-3.731.01-5.5.01-.614-.344-.658-.8-.756a36.056,36.056,0,0,1-11.783-4.443,16.5,16.5,0,0,1-5.007-4.565,9,9,0,0,1,.227-11.074c2.508-3.317,5.987-5.276,9.774-6.719a51.413,51.413,0,0,1,21.714-2.931,45.532,45.532,0,0,1,15.644,3.521,20.968,20.968,0,0,1,7.755,5.4c3.5,4.065,3.475,8.926-.077,12.943a22.772,22.772,0,0,1-10.007,6.207c-1.972.679-4.024,1.125-6.026,1.719-.26.077-.624.409-.631.632-.051,1.8-.029,3.6-.029,5.565h4.046c1.264,0,2.529-.023,3.792.01a3.811,3.811,0,0,1,3.935,3.667c.511,6.8.976,13.613,1.462,20.42.3,4.249.633,8.5.9,12.749a3.212,3.212,0,0,1-.422,1.719,9.89,9.89,0,0,1-8.777,5.262q-15.331.15-30.665,0a9.964,9.964,0,0,1-8.879-5.472,2.493,2.493,0,0,1-.3-1.328c.477-6.915.99-13.828,1.485-20.742.3-4.142.55-8.287.873-12.426a3.852,3.852,0,0,1,4.207-3.847C535.776,481.753,538.26,481.768,540.875,481.768Zm10.411,2.607c-1.228,0-2.46-.064-3.68.034a1.848,1.848,0,0,0-1.253.714c-2.971,4.65-5.881,9.339-8.836,14a1.266,1.266,0,0,0-.02,1.473q4.5,8.268,8.945,16.563a1.218,1.218,0,0,0,1.263.744c2.382-.03,4.766-.035,7.148,0a1.218,1.218,0,0,0,1.237-.788q4.42-8.248,8.9-16.463a1.42,1.42,0,0,0-.079-1.662c-2.835-4.48-5.661-8.967-8.437-13.484a1.956,1.956,0,0,0-2.049-1.154C553.388,484.45,552.333,484.375,551.286,484.375Zm-.024-25.81H526.779c-2.428,0-2.779.368-2.65,2.864.026.5.174.991.248,1.489.091.613.428.8,1.042.8,6.284-.02,12.567,0,18.85-.04a1.534,1.534,0,0,0,1.052-.636,4.064,4.064,0,0,1,3.434-1.937c1.66-.035,3.322-.03,4.983,0a3.6,3.6,0,0,1,3.275,1.773,1.543,1.543,0,0,0,1.644.839c5.742-.017,11.483-.009,17.225-.009,2.238,0,2.528-.289,2.509-2.582,0-.465-.115-.928-.158-1.393-.088-.937-.58-1.188-1.513-1.184C568.235,458.581,559.749,458.565,551.263,458.565Zm-7.379,59.272L531.3,494.529l-.271.051-1.665,23.258Zm27.6-23.219-.282-.077-12.548,23.251h14.489Zm.51,25.915h-41.5a7.549,7.549,0,0,0,5.327,2.483q15.426.072,30.853,0A7.387,7.387,0,0,0,572,520.533Zm-28.291-36.128c-3.776,0-7.335-.03-10.891.045a1.494,1.494,0,0,0-1.046.982c-.316,2.089-.656,4.189.816,6.093a20.716,20.716,0,0,1,1.558,2.84c.488.9.99,1.783,1.564,2.815ZM566.824,497.2c1.033-1.914,1.84-3.734,2.938-5.358a7.687,7.687,0,0,0,1.094-5.846c-.215-1.361-.4-1.61-1.774-1.615-3.139-.012-6.279-.006-9.418,0a6.419,6.419,0,0,0-.806.117Zm-23.27-15.508h15.4v-5.465c-2.611.135-5.157.37-7.7.369s-5.088-.236-7.695-.372Zm11.575-7.812c0-3.067.014-5.952-.009-8.837a1.218,1.218,0,0,0-1.292-1.315q-2.6-.047-5.2.007a1.177,1.177,0,0,0-1.233,1.252c-.028,2.919-.011,5.838-.011,8.893Zm.24-17.952-4.124-6.552-4.081,6.552Zm-12.942.008-3.531-5.654c-.463-.742-.86-.451-1.207.1-.887,1.4-1.763,2.806-2.638,4.213-.252.4-.488.819-.8,1.344Zm25.871-.015c-1.246-1.987-2.369-3.787-3.5-5.581-.454-.719-.855-.609-1.269.07-.9,1.476-1.833,2.932-2.747,4.4-.212.34-.4.694-.643,1.113Zm-23.507-1.1,4.151-6.649-7.732.924Zm12.933,0,3.59-5.745-7.737-.888Zm-21.787,11.519h-9.408a19.881,19.881,0,0,0,6.731,4.3Zm40.058-.022h-9.438l2.723,4.35A20.792,20.792,0,0,0,575.994,466.315Zm-15.48,6.985,6.326-1.638-2.647-4.223Zm-22.2-5.862-2.662,4.25,6.325,1.586Zm30.121-16.173c1.02,1.622,1.869,2.981,2.731,4.333.091.142.253.338.385.341,1.4.025,2.8.015,4.194.015A18.056,18.056,0,0,0,568.439,451.265Zm-34.543.28a17.7,17.7,0,0,0-7.415,4.425c1.65,0,3,.012,4.347-.015a.757.757,0,0,0,.5-.341C532.2,454.266,533.043,452.9,533.9,451.545Zm10.621,20.9.18-.1v-6h-4.007Zm13.281-.087.208.082,3.822-6.122H557.8Z" fill="#122253"/>
    <path id="Trazado_994394" data-name="Trazado 994394" d="M621.343,684.56a13.268,13.268,0,0,1-7.982-2.289c-3.284-2.42-3.251-6.133.151-8.417a14.216,14.216,0,0,1,10.809-1.906,10.829,10.829,0,0,1,5.38,2.375c2.632,2.289,2.6,5.37-.051,7.635A13.021,13.021,0,0,1,621.343,684.56Zm-.008-10.311a10.96,10.96,0,0,0-6.3,1.681c-1.983,1.378-1.96,3.027.025,4.4,3.169,2.192,9.325,2.2,12.476.015,1.991-1.38,2.022-3.022.051-4.406A10.866,10.866,0,0,0,621.335,674.249Z" transform="translate(-70.044 -176.995)" fill="#122253"/>
    <path id="Trazado_994395" data-name="Trazado 994395" d="M654.142,543.5c-.78-.1-1.367-.58-1.192-1.326a1.894,1.894,0,0,1,1.224-1.195,1.129,1.129,0,0,1,1.29,1.242A1.241,1.241,0,0,1,654.142,543.5Z" transform="translate(-102.931 -74.644)" fill="#122253"/>
  </g>
</svg>
