<svg xmlns="http://www.w3.org/2000/svg" width="68.397" height="73.026" viewBox="0 0 68.397 73.026">
  <g id="Grupo_1178190" data-name="Grupo 1178190" transform="translate(-576.644 -646.263)">
    <path id="Trazado_995088" data-name="Trazado 995088" d="M610.869,719.289H578.792c-1.9,0-2.147-.245-2.147-2.106q0-28.331.023-56.662a4.311,4.311,0,0,1,.555-2.074c2.127-3.64,4.354-7.222,6.478-10.864a2.4,2.4,0,0,1,2.37-1.32q24.8.047,49.593,0a2.32,2.32,0,0,1,2.29,1.274c2.148,3.669,4.389,7.283,6.538,10.951a4.1,4.1,0,0,1,.526,1.978q.041,28.437.021,56.874c0,1.651-.3,1.948-1.988,1.948Q626.96,719.291,610.869,719.289Zm-7.381-58.305H579.22v55.833h63.25v-55.84H618.2v1.2c0,4.608.024,9.216-.03,13.824a2.477,2.477,0,0,1-.687,1.719c-.643.524-1.3-.052-1.858-.5-1.58-1.274-3.169-2.537-4.777-3.822-1.617,1.289-3.157,2.51-4.69,3.74-.58.465-1.148,1.04-1.966.628s-.7-1.212-.7-1.952q0-4.7,0-9.392Zm.157-2.6.952-9.606a4.97,4.97,0,0,0-.543-.074c-5.837,0-11.674-.018-17.51.028a1.616,1.616,0,0,0-1.074.752c-1.666,2.686-3.281,5.4-4.9,8.116-.134.224-.223.475-.366.784Zm14.393-.027h23.473c-.173-.333-.285-.578-.422-.807-1.607-2.681-3.242-5.346-4.811-8.05a1.489,1.489,0,0,0-1.512-.815c-5.52.026-11.041.014-16.562.014h-1.129C617.4,651.98,617.716,655.122,618.038,658.352Zm-2.378,2.638h-9.589v13.079c1.271-1.005,2.454-1.88,3.565-2.838a1.6,1.6,0,0,1,2.411-.006c1.127.965,2.324,1.848,3.613,2.863Zm-.071-2.625-.966-9.588h-7.571l-.944,9.588Z" fill="#edf8fd"/>
    <path id="Trazado_995089" data-name="Trazado 995089" d="M609.461,743.945c-2.637,0-5.274,0-7.911,0-1.4,0-1.816-.415-1.818-1.818q-.008-6.7,0-13.4c0-1.445.428-1.862,1.9-1.863q7.911-.005,15.822,0c1.45,0,1.871.426,1.872,1.888q.006,6.645,0,13.291c0,1.522-.39,1.9-1.951,1.9Q613.416,743.949,609.461,743.945Zm7.291-2.5v-12H602.3v12Z" transform="translate(-18.211 -63.587)" fill="#edf8fd"/>
    <path id="Trazado_995090" data-name="Trazado 995090" d="M746,903.2c.882,0,1.615-.008,2.348,0a1.188,1.188,0,1,1-.022,2.372q-3.586.01-7.172,0a1.1,1.1,0,0,1-1.24-1.24c.023-.777.51-1.118,1.246-1.131s1.467,0,2.337,0a20.65,20.65,0,0,0-.026-2.127.976.976,0,0,0-.554-.6c-3.045-1.306-4.27-3.133-4.273-6.436q0-2,0-4.008c0-.935.425-1.439,1.406-1.436q4.693.014,9.387,0c.8,0,1.4.36,1.4,1.114a45.493,45.493,0,0,1-.258,6.506,4.9,4.9,0,0,1-3.328,3.927,1.592,1.592,0,0,0-1.256,1.986A9.011,9.011,0,0,1,746,903.2Zm-4.9-12.184c0,.955,0,1.795,0,2.634,0,.491-.013.985.035,1.472a3.694,3.694,0,0,0,3.5,3.205,3.617,3.617,0,0,0,3.667-2.988c.131-1.414.027-2.849.027-4.322Z" transform="translate(-127.802 -191.178)" fill="#edf8fd"/>
    <path id="Trazado_995091" data-name="Trazado 995091" d="M605.9,897.113c-1.606,0-3.077.014-4.548,0-1.175-.015-1.645-.571-1.531-1.745a7.343,7.343,0,0,1,14.618-.155c.159,1.381-.281,1.895-1.659,1.9-1.4.009-2.807,0-4.346,0,0,1.75-.061,3.459.051,5.156.022.34.678.842,1.086.889.346.04.774-.448,1.126-.749.1-.087.052-.338.1-.506.211-.77.67-1.29,1.516-1.07a1.281,1.281,0,0,1,.919,1.654,3.681,3.681,0,0,1-7.321-.491C605.857,900.42,605.9,898.84,605.9,897.113Zm5.874-2.488a4.816,4.816,0,0,0-4.706-3.614c-1.78.047-4.175,1.349-4.5,3.614Z" transform="translate(-18.269 -191.211)" fill="#edf8fd"/>
    <path id="Trazado_995092" data-name="Trazado 995092" d="M812.124,897.015a14.442,14.442,0,0,1-2.3-.032,1.785,1.785,0,0,1-1.23-.733,1.566,1.566,0,0,1,.32-1.377c1.919-2,3.906-3.941,5.877-5.892a1.233,1.233,0,0,1,1.94.014c1.948,1.927,3.908,3.841,5.806,5.816a1.579,1.579,0,0,1,.4,1.357,1.953,1.953,0,0,1-1.284.812,12.314,12.314,0,0,1-2.261.034c0,1.3,0,2.552,0,3.8,0,1.089.016,2.179-.007,3.267s-.353,1.418-1.491,1.432q-2.161.027-4.321,0c-1.1-.016-1.434-.354-1.441-1.474C812.114,901.76,812.124,899.478,812.124,897.015Zm4.756,6.084a.977.977,0,0,0,.1-.254q.014-3.111.02-6.222c0-1.672.06-1.75,1.47-2.128l-2.631-2.755-2.955,2.741c1.416.33,1.586.506,1.61,1.658.007.351,0,.7,0,1.055V903.1Z" transform="translate(-182.941 -191.114)" fill="#edf8fd"/>
    <path id="Trazado_995093" data-name="Trazado 995093" d="M623.546,778.772c1.511,0,3.023-.006,4.534,0,.83,0,1.491.29,1.5,1.24s-.657,1.247-1.487,1.249q-4.587.011-9.173,0c-.839,0-1.471-.341-1.443-1.291.026-.887.647-1.187,1.435-1.193C620.453,778.763,622,778.772,623.546,778.772Z" transform="translate(-32.208 -104.534)" fill="#edf8fd"/>
    <path id="Trazado_995094" data-name="Trazado 995094" d="M623.526,764.133c-1.508,0-3.016-.01-4.524,0-.827.008-1.511-.185-1.53-1.164s.627-1.22,1.474-1.218q4.577.013,9.154,0c.845,0,1.493.244,1.477,1.214s-.7,1.175-1.526,1.167C626.543,764.123,625.034,764.133,623.526,764.133Z" transform="translate(-32.209 -91.112)" fill="#edf8fd"/>
    <path id="Trazado_995095" data-name="Trazado 995095" d="M623.539,744.388c1.509,0,3.017.005,4.526,0,.843,0,1.494.258,1.479,1.223s-.693,1.185-1.522,1.183q-4.526-.01-9.052,0c-.827,0-1.485-.2-1.537-1.174q-.066-1.216,1.581-1.227C620.521,744.379,622.03,744.388,623.539,744.388Z" transform="translate(-32.175 -77.408)" fill="#edf8fd"/>
  </g>
</svg>
