<svg xmlns="http://www.w3.org/2000/svg" width="123.885" height="123.885" viewBox="0 0 123.885 123.885">
  <g id="Grupo_1178371" data-name="Grupo 1178371" transform="translate(-251.057 -9040.486)">
    <g id="Grupo_1178370" data-name="Grupo 1178370">
      <g id="Grupo_1177095" data-name="Grupo 1177095" transform="translate(251.057 9040.486)">
        <g id="Grupo_1176953" data-name="Grupo 1176953" transform="translate(0 0)">
          <path id="Trazado_993120" data-name="Trazado 993120" d="M123.885,61.943A61.942,61.942,0,1,1,61.942,0a61.942,61.942,0,0,1,61.943,61.943" transform="translate(0 0)" fill="#e8ebf3"/>
        </g>
      </g>
      <g id="Grupo_1177656" data-name="Grupo 1177656" transform="translate(-191.859 8678.497)">
        <path id="Trazado_994376" data-name="Trazado 994376" d="M521.351,407.73c1.413.541,2.782,1.076,4.159,1.589,1.537.572,1.651.725,1.686,2.41.006.279.038.557.055.8,1.4.369,2.783.607,4.07,1.089,7.143,2.68,11.446,7.818,12.439,15.375a18.35,18.35,0,0,1-11.97,19.741c-6.974,2.5-13.375,1.291-19.035-3.511a10.312,10.312,0,0,0-2.894-1.789c-.759-.3-1.5-.653-2.235-1.011a1.139,1.139,0,0,0-1.158.039,27.175,27.175,0,0,1-6.328,2.627,1.463,1.463,0,0,0-1.059,1.055c-.456,1.227-.937,2.444-1.407,3.666-.448,1.165-.684,1.36-1.884,1.366q-4.239.021-8.479,0c-1.222-.005-1.462-.188-1.907-1.331-.459-1.181-.935-2.358-1.355-3.553a1.765,1.765,0,0,0-1.32-1.279,24.326,24.326,0,0,1-5.99-2.482,1.475,1.475,0,0,0-1.5-.033c-1.11.522-2.233,1.016-3.353,1.518-1.429.641-1.74.594-2.817-.477q-2.832-2.815-5.65-5.644c-1-1-1.029-1.162-.467-2.468.629-1.462,1.277-2.916,1.923-4.388a31.915,31.915,0,0,1-2.984-7.006,1.139,1.139,0,0,0-.8-.823c-1.342-.5-2.658-1.064-4.006-1.54a1.689,1.689,0,0,1-1.231-1.861c.038-2.786.009-5.573.015-8.359,0-1.317.2-1.574,1.478-2.055,1.415-.534,2.828-1.075,4.145-1.577l3.285-7.9c-.594-1.345-1.237-2.891-1.961-4.4a1.57,1.57,0,0,1,.346-2q3.087-3.08,6.173-6.161a1.626,1.626,0,0,1,2.09-.4c1.284.63,2.624,1.146,3.921,1.751a1.222,1.222,0,0,0,1.258-.007,28.51,28.51,0,0,1,6.213-2.592,1.6,1.6,0,0,0,1.17-1.1c.454-1.271.979-2.516,1.435-3.786a1.638,1.638,0,0,1,1.753-1.213q4.362.044,8.725,0a1.643,1.643,0,0,1,1.742,1.233c.427,1.193.926,2.362,1.333,3.562a1.871,1.871,0,0,0,1.4,1.354,26.484,26.484,0,0,1,5.989,2.492,1.315,1.315,0,0,0,1.366.05c1.255-.6,2.565-1.082,3.807-1.7a1.752,1.752,0,0,1,2.289.465c1.692,1.724,3.415,3.418,5.125,5.124l.174.173c1.643,1.643,1.64,1.642.653,3.793-.46,1-.9,2.017-1.37,3.016a.994.994,0,0,0,.011,1.031A31.648,31.648,0,0,1,521.351,407.73ZM487.89,382.808c-.583,1.478-1.179,2.91-1.707,4.366a1.922,1.922,0,0,1-1.446,1.336,27.518,27.518,0,0,0-7.564,3.136,1.88,1.88,0,0,1-1.957.11c-1.4-.663-2.829-1.262-4.207-1.87l-5.215,5.292c.575,1.3,1.156,2.7,1.813,4.055a1.98,1.98,0,0,1-.1,2.077,26.847,26.847,0,0,0-3.13,7.566,1.753,1.753,0,0,1-1.163,1.311q-.574.216-1.145.44c-1.134.447-2.268.9-3.348,1.323v7.314l4.2,1.6a1.951,1.951,0,0,1,1.434,1.365,27.426,27.426,0,0,0,3.228,7.79,1.7,1.7,0,0,1,.094,1.738c-.67,1.444-1.291,2.912-1.963,4.442l5.177,5.141c1.446-.633,2.775-1.168,4.06-1.794a2.245,2.245,0,0,1,2.413.09,18.647,18.647,0,0,0,2.952,1.493c1.362.547,2.76,1.013,4.167,1.435a2.239,2.239,0,0,1,1.782,1.645,12.891,12.891,0,0,0,.6,1.607c.345.861.7,1.717,1.029,2.519h7.294c.546-1.394,1.124-2.747,1.6-4.134a2.2,2.2,0,0,1,1.679-1.584,26.787,26.787,0,0,0,7.553-3.158,1.641,1.641,0,0,1,1.41-.19c.249.078.5.152.67.2l-1.79-6.41a23.017,23.017,0,0,1-29.1.279,22.779,22.779,0,0,1,15.813-40.487,22.017,22.017,0,0,1,12.912,5.091,22.763,22.763,0,0,1,8.484,17.774,53.239,53.239,0,0,1,4.882-2.172c1.642-.55,3.385-.8,5.277-1.221a3.741,3.741,0,0,0-.707-.556c-1.211-.493-2.423-.992-3.659-1.417a2.251,2.251,0,0,1-1.629-1.792,14.621,14.621,0,0,0-.853-2.684q-1-2.3-2.173-4.529a2.069,2.069,0,0,1-.128-2.069c.676-1.392,1.264-2.828,1.788-4.018L512,389.909c-1.23.546-2.529,1.056-3.763,1.69a2.5,2.5,0,0,1-2.738-.158,22.93,22.93,0,0,0-5.83-2.54c-2.438-.708-2.43-.714-3.348-3.167-.369-.986-.777-1.958-1.162-2.926Zm23.587,32.756.121-.01c-.141-1.218-.246-2.441-.435-3.651a15.654,15.654,0,0,0-.557-2.259,20,20,0,0,0-38.94,3.629,18.885,18.885,0,0,0,4,14.414,20.076,20.076,0,0,0,30.32,1.691,2.68,2.68,0,0,0,.76-1.489,17.255,17.255,0,0,1,3.585-7.973,4.434,4.434,0,0,0,1.149-3.124C511.463,416.384,511.477,415.974,511.477,415.564Zm13.765-.138a15.854,15.854,0,1,0,15.852,15.842A15.82,15.82,0,0,0,525.242,415.426Z" transform="translate(0 0)" fill="#122253"/>
        <path id="Trazado_994377" data-name="Trazado 994377" d="M665.648,666.4c0-2.811,0-5.428,0-8.045a9.147,9.147,0,0,1,.014-.982,1.415,1.415,0,0,1,2.81-.135,5.441,5.441,0,0,1,.051.977q.006,3.315,0,6.629v1.367c.321-.132.515-.228.718-.291a1.362,1.362,0,0,1,1.644.441,1.319,1.319,0,0,1,.075,1.611c-.916,1.253-1.868,2.486-2.886,3.657a1.289,1.289,0,0,1-2.121-.11c-.947-1.125-1.845-2.294-2.72-3.477a1.244,1.244,0,0,1,.019-1.687,1.342,1.342,0,0,1,1.754-.391A5,5,0,0,1,665.648,666.4Z" transform="translate(-156.182 -208.214)" fill="#122253"/>
        <path id="Trazado_994378" data-name="Trazado 994378" d="M784.95,666.327a6.6,6.6,0,0,1,.877-.445,1.311,1.311,0,0,1,1.516.5,1.157,1.157,0,0,1,.109,1.477c-.981,1.306-1.961,2.618-3.017,3.862a1.278,1.278,0,0,1-1.876-.015,5.666,5.666,0,0,1-.634-.745c-.71-.9-1.427-1.791-2.117-2.7a1.412,1.412,0,0,1-.111-1.9c.445-.562,1-.655,1.866-.312l.428.171c.024-.4.061-.748.062-1.1.005-2.291,0-4.582,0-6.874a5.9,5.9,0,0,1,.036-.979,1.425,1.425,0,0,1,2.813-.025,6.086,6.086,0,0,1,.042,1.1C784.952,660.955,784.95,663.571,784.95,666.327Z" transform="translate(-244.03 -208.221)" fill="#122253"/>
        <path id="Trazado_994379" data-name="Trazado 994379" d="M726.74,682.52a5.862,5.862,0,0,1,.63-.357,1.437,1.437,0,0,1,1.691.3,1.361,1.361,0,0,1,.066,1.8c-.387.576-.844,1.1-1.271,1.653s-.837,1.112-1.284,1.644a1.461,1.461,0,0,1-2.486.03c-.837-1.005-1.637-2.044-2.423-3.09-.615-.818-.631-1.419-.132-2,.478-.558,1.078-.605,1.988-.159.072.035.149.061.311.127.022-.379.058-.727.059-1.074q.008-3.438,0-6.876c0-.286-.016-.575.009-.859.083-.923.555-1.414,1.359-1.438.859-.026,1.372.477,1.467,1.459.028.284.01.573.01.859q0,3.315,0,6.63Z" transform="translate(-200.129 -220.415)" fill="#122253"/>
        <path id="Trazado_994380" data-name="Trazado 994380" d="M569.317,471.614c0,2.5-.032,5,.016,7.494a2.1,2.1,0,0,1-1.22,2.059q-6.4,3.633-12.76,7.342a2.34,2.34,0,0,1-2.629.014q-6.356-3.713-12.76-7.342a2.2,2.2,0,0,1-1.247-2.17q.053-7.433,0-14.866a2.1,2.1,0,0,1,1.18-2.077q6.46-3.656,12.859-7.419a2.324,2.324,0,0,1,2.626.048q6.408,3.746,12.858,7.419A1.926,1.926,0,0,1,569.326,464C569.3,466.536,569.317,469.075,569.317,471.614Zm-13.793,13.449c.356-.175.575-.269.781-.387,3.116-1.792,6.22-3.605,9.354-5.365a1.526,1.526,0,0,0,.89-1.544c-.035-3.559-.016-7.118-.016-10.677v-1.048l-11.01,6.338Zm-14-18.877c0,4.056.018,7.983-.017,11.91-.006.689.392.916.863,1.186q4.681,2.685,9.357,5.378a7.089,7.089,0,0,0,.775.325V472.36l-1.973-1.074c0,1.333,0,2.433,0,3.532,0,.713-.235,1.357-.977,1.515a2.265,2.265,0,0,1-1.395-.2c-1.237-.631-2.428-1.353-3.631-2.049a1.68,1.68,0,0,1-.893-1.622c.03-1.145.007-2.292.007-3.439,0-1.863,0-1.864-1.63-2.7A3.357,3.357,0,0,0,541.529,466.186Zm3.48-1.42c3.173-1.571,10.308-5.807,10.88-6.473l-1.869-1.06c-1.88,1.076-3.692,2.1-5.5,3.147-1.788,1.032-3.568,2.077-5.524,3.217Zm18-2.377c-1.873,1.073-3.7,2.091-5.492,3.154s-3.667,2.036-5.539,3.251l2.078,1.159c3.647-2.133,7.275-4.141,10.99-6.368ZM560,460.836a1.206,1.206,0,0,0-1.812-.345c-3.132,1.842-6.29,3.642-9.435,5.462-.225.13-.427.3-.716.509l1.066.651Zm-13.534,8.126c0,.825-.011,1.5,0,2.177.019.913.027.913,1.136,1.216v-2.827Z" transform="translate(-62.499 -56.012)" fill="#122253"/>
        <path id="Trazado_994381" data-name="Trazado 994381" d="M695.191,559.848a13.914,13.914,0,1,1,13.933-13.9A13.9,13.9,0,0,1,695.191,559.848Zm.01-2.87a11.067,11.067,0,1,0-11.119-11.034A11.13,11.13,0,0,0,695.2,556.978Z" transform="translate(-169.998 -114.662)" fill="#122253"/>
        <path id="Trazado_994382" data-name="Trazado 994382" d="M722.954,552.822a5.42,5.42,0,0,1,3.34,2.768,1.466,1.466,0,0,1,.021,1.52,1.368,1.368,0,0,1-2.281.2c-.184-.215-.3-.49-.461-.723a2.591,2.591,0,0,0-3.587-.68,1.276,1.276,0,0,0,.041,2.344,6.812,6.812,0,0,0,1.272.415,27.453,27.453,0,0,1,3.027.955,3.966,3.966,0,0,1,2.495,4.126c-.1,1.863-1.3,2.921-2.922,3.585-.3.123-.616.2-.907.293-.431,1.543-.789,1.925-1.713,1.852-.817-.065-1.113-.45-1.35-1.777-.567-.273-1.17-.518-1.725-.841a4.5,4.5,0,0,1-2.081-2.636,1.419,1.419,0,1,1,2.631-1.042,3.2,3.2,0,0,0,4.659,1.226,1.158,1.158,0,0,0,.085-1.959,9.131,9.131,0,0,0-2.022-.813c-.961-.331-1.973-.538-2.895-.952a4.069,4.069,0,0,1-.188-7.146,11.774,11.774,0,0,1,1.348-.685,10.67,10.67,0,0,1,.822-1.624,1.27,1.27,0,0,1,.9-.278C722.293,550.929,722.632,551.366,722.954,552.822Z" transform="translate(-196.231 -128.938)" fill="#122253"/>
      </g>
    </g>
  </g>
</svg>
