<svg xmlns="http://www.w3.org/2000/svg" width="78.142" height="79.168" viewBox="0 0 78.142 79.168">
  <g id="Grupo_1178266" data-name="Grupo 1178266" transform="translate(-621.567 -529.832)">
    <path id="Trazado_995246" data-name="Trazado 995246" d="M647.686,553.687c2.13,2.116,4.223,4.307,6.447,6.355a3.861,3.861,0,0,1,1.49,3.653,9.085,9.085,0,0,0-.009,1.279h16.208c.541-1.288-.494-2.938.853-4.119,1.1-.965,2.122-2.021,3.179-3.036l-.122-.334c-1.244,0-2.489.015-3.733-.006a10.691,10.691,0,0,1-2.02-.146,2.628,2.628,0,0,1-2.2-2.623c-.034-5.984-.016-11.967-.028-17.951,0-.974.5-1.355,1.416-1.35,1.835.009,3.67-.02,5.5.011a1.182,1.182,0,0,0,1.361-.832,23.928,23.928,0,0,1,1.175-2.483,3.76,3.76,0,0,1,3.52-2.26q2.992-.026,5.984,0a3.768,3.768,0,0,1,3.529,2.244.509.509,0,0,1,.049.109c.671,2.82,2.472,3.736,5.239,3.238a15.917,15.917,0,0,1,2.867-.021,1.162,1.162,0,0,1,1.309,1.332c-.01,5.984.007,11.968-.022,17.951a2.659,2.659,0,0,1-2.189,2.636,7.607,7.607,0,0,1-1.661.146c-5.066.011-10.133.023-15.2-.011a2.448,2.448,0,0,0-1.986.829,30.921,30.921,0,0,1-3.145,3.109c-1.223.984-1.3,2.152-1.036,3.611.446.02.871.055,1.3.055q5.386.007,10.771,0c4.152,0,6.2,2.03,6.2,6.147q0,13.464,0,26.927v1.642c1.053,0,2.028-.012,3,0,1.369.02,1.744.359,1.732,1.689a24.219,24.219,0,0,1-.2,3.926,4.371,4.371,0,0,1-4.1,3.573c-.317.025-.638.018-.957.018q-28.423,0-56.846-.023a6.986,6.986,0,0,1-2.761-.561,3.913,3.913,0,0,1-2.39-3.467c-.084-1.231-.048-2.471-.067-3.707-.015-1,.486-1.461,1.471-1.452,1.025.009,2.05,0,3.2,0v-1.55q0-13.583,0-27.167c0-3.856,2.135-5.991,6-6,4.067-.009,8.133,0,12.247,0a3.358,3.358,0,0,0-.9-3.584c-2.069-1.916-3.964-4.021-6-6.12a14.5,14.5,0,0,1-12.486,4.015,13.9,13.9,0,0,1-8.91-5.141,14.3,14.3,0,0,1,.573-18.734,14.489,14.489,0,0,1,18.649-2.212C649.18,536.744,653.216,545.111,647.686,553.687Zm37.79,46.037v-27.4H642.1v27.4ZM635.939,533.1a12.108,12.108,0,1,0,12.152,12.153A12.175,12.175,0,0,0,635.939,533.1Zm54.472,66.622c.029-.423.069-.736.069-1.049q0-13.883,0-27.766c0-2.481-1.1-3.539-3.617-3.54q-23.039-.006-46.078,0c-2.655,0-3.637,1.01-3.638,3.723q0,13.7,0,27.407c0,.388.035.777.056,1.188h2.589v-1.52q0-13.046,0-26.091c0-1.927.137-2.068,2.018-2.068q21.962,0,43.923,0c1.917,0,2.055.135,2.056,2.031q0,13.105,0,26.21v1.474ZM669.98,541.187c0,4.526,0,8.819,0,13.112,0,.864.585.906,1.229.906q12.5-.005,25,.012c1,0,1.327-.381,1.314-1.348-.039-2.91-.014-5.821-.014-8.732v-3.862c-4.227,2.034-7.452,6.022-12.622,4.988-.112,1.043.123,2.11-1.109,2.155-1.414.051-1-1.235-1.23-2.094-.369,0-.683-.024-.993,0a9.309,9.309,0,0,1-6.283-1.826C673.636,543.376,671.905,542.385,669.98,541.187Zm2.452,60.932c-.324,2.318-1.093,3.317-2.807,3.344-3.908.061-7.818.051-11.727,0a2.608,2.608,0,0,1-2.592-2.361c-.054-.31-.1-.62-.149-.918H632.378c0,.536,0,.972,0,1.408,0,2.4.733,3.14,3.143,3.141q28.245.006,56.489,0a2.647,2.647,0,0,0,1.292-.1c.661-.424,1.508-.923,1.731-1.578a9.55,9.55,0,0,0,.073-2.927Zm-2.318-64.4-.277.287a4.427,4.427,0,0,0,.817.932c2.315,1.478,4.664,2.9,6.985,4.373,1.562.99,3.242.79,4.928.721.169-.9-.163-2.01,1.071-2.081,1.474-.085,1.057,1.264,1.377,2.385,1.548-.3,3.2-.281,4.5-.942,2.582-1.31,4.984-2.981,7.433-4.543.3-.19.434-.632.759-1.133Zm19.136-2.4a12.87,12.87,0,0,1-.62-1.406,2.418,2.418,0,0,0-2.9-1.831c-1.265.1-2.544.021-3.817.021-2.334,0-3.165.757-3.5,3.217Zm-19.018,67.214-.293-.39H657.59c-.165.756.067,1.15.817,1.15,3.579,0,7.159.023,10.737-.032C669.51,603.259,669.87,602.79,670.232,602.536Z" transform="translate(0)" fill="#edf8fd"/>
    <path id="Trazado_995247" data-name="Trazado 995247" d="M771.32,724.235a12.224,12.224,0,1,1-12.2-12.713A12.442,12.442,0,0,1,771.32,724.235Zm-8.635-2.74c-2.309,0-4.373-.025-6.434.033a1.018,1.018,0,0,0-.674.724c-.071,1.308-.064,2.624-.008,3.933.011.25.365.691.57.7,2.133.051,4.267.032,6.547.032Zm2.318,0v5.423c1.089,0,2.16.039,3.224-.03a.922.922,0,0,0,.633-.635c.061-1.342.069-2.69,0-4.03a1.026,1.026,0,0,0-.712-.695C767.123,721.445,766.09,721.494,765,721.494Zm-11.779,5.424v-5.424c-1.084,0-2.115-.048-3.135.033a1.028,1.028,0,0,0-.724.681,37.346,37.346,0,0,0,0,4.021,1.022,1.022,0,0,0,.733.658C751.113,726.965,752.142,726.918,753.224,726.918Zm2.822-7.728H762.2l-2.84-4.9-.508.01Zm6.135,10.136h-6.14l2.846,4.855.467-.006Zm-6.2-15.021a10.036,10.036,0,0,0-5.6,4.95c1.074,0,1.947.052,2.809-.028a1.236,1.236,0,0,0,.839-.6C754.691,717.274,755.277,715.886,755.981,714.305Zm11.832,4.867a9.92,9.92,0,0,0-5.674-4.889c.535,1.03.971,1.813,1.356,2.621C764.7,719.431,764.691,719.435,767.813,719.173Zm.023,10.06c-1.144,0-2.084-.028-3.02.022a.873.873,0,0,0-.579.466c-.662,1.419-1.286,2.857-1.993,4.45A10.152,10.152,0,0,0,767.836,729.233ZM756,734.17c-.705-1.573-1.307-2.952-1.949-4.313-.117-.247-.387-.579-.6-.593-.957-.065-1.92-.028-3.072-.028A10.371,10.371,0,0,0,756,734.17Z" transform="translate(-95.324 -138.197)" fill="#edf8fd"/>
    <path id="Trazado_995248" data-name="Trazado 995248" d="M663.091,572.747c-1.151-.364-2.216-.675-3.261-1.04-.7-.245-1.247-.726-.937-1.529.322-.836,1-.872,1.788-.548,1.679.693,3.4,1.2,5.212.53.8-.3,1.777-.734,1.486-1.7a2.987,2.987,0,0,0-1.7-1.545,16.551,16.551,0,0,0-3.044-.525,4.032,4.032,0,0,1-1.138-.344c-1.5-.768-2.7-1.869-2.609-3.672.091-1.877,1.324-2.992,3.036-3.605.37-.132.746-.249,1.156-.385.1-.82,0-1.843,1.2-1.852s1.063,1.063,1.239,1.742c1.155.388,2.25.729,3.325,1.127.672.249,1.085.741.77,1.488-.333.788-.932.751-1.692.544-1.29-.35-2.621-.552-3.939-.793a1.526,1.526,0,0,0-.71.063c-.943.3-2.072.522-2.06,1.8.011,1.189,1.063,1.484,1.985,1.737a14.032,14.032,0,0,0,1.776.218,9.125,9.125,0,0,1,1.4.26c2.044.623,3.426,2.208,3.4,3.858-.026,1.669-1.42,3.178-3.444,3.845a1.479,1.479,0,0,0-.862.839c-.187.68-.4,1.258-1.193,1.241-.851-.019-1.14-.6-1.138-1.38A3.339,3.339,0,0,0,663.091,572.747Z" transform="translate(-28.324 -20.31)" fill="#edf8fd"/>
  </g>
</svg>
