<svg xmlns="http://www.w3.org/2000/svg" width="76.917" height="73.454" viewBox="0 0 76.917 73.454">
  <g id="Grupo_1177998" data-name="Grupo 1177998" transform="translate(-593.244 -570.765)">
    <path id="Trazado_994691" data-name="Trazado 994691" d="M600.952,607.5v34.919c0,.277.014.555-.005.831-.043.626-.267.912-.882.921q-2.96.043-5.921,0c-.629-.008-.84-.272-.888-.909-.019-.241-.005-.485-.005-.727q0-35.075,0-70.151c0-.139,0-.277,0-.416.022-1.03.162-1.172,1.243-1.177q2.6-.012,5.194,0c1.123.006,1.262.143,1.263,1.267q.006,9.405,0,18.811Q600.952,599.189,600.952,607.5Z" transform="translate(0 -0.02)" fill="#122253"/>
    <path id="Trazado_994692" data-name="Trazado 994692" d="M926.336,607.522V572.6c0-.312,0-.624.005-.935a.775.775,0,0,1,.847-.842q3.013-.015,6.026,0a.769.769,0,0,1,.822.862c.006.242,0,.485,0,.727q0,35.076,0,70.151c0,.242.013.486-.006.727-.05.635-.261.9-.893.906q-2.96.039-5.921,0c-.614-.009-.836-.3-.878-.924-.018-.276-.005-.554-.005-.831Z" transform="translate(-263.882 -0.042)" fill="#122253"/>
    <path id="Trazado_994693" data-name="Trazado 994693" d="M818.1,601.213q0-14.4,0-28.8c0-1.617,0-1.618,1.618-1.618s3.256-.009,4.884,0c.965.007,1.141.195,1.174,1.156.008.242,0,.485,0,.728v57.074c0,1.835,0,1.836-1.863,1.836-1.524,0-3.048.007-4.573,0-1.123-.007-1.24-.122-1.241-1.27q-.008-9.876,0-19.752Z" transform="translate(-178.136 -0.023)" fill="#122253"/>
    <path id="Trazado_994694" data-name="Trazado 994694" d="M879.079,601.147q0-14.341,0-28.682c0-1.669,0-1.669,1.682-1.67.935,0,1.87-.011,2.8,0s1.132.218,1.162,1.175c.005.173,0,.346,0,.52q0,28.682,0,57.364c0,.1,0,.208,0,.312-.011,1.277-.15,1.416-1.451,1.421-1,0-2.008.011-3.012,0s-1.155-.177-1.184-1.135c-.008-.277,0-.554,0-.831Z" transform="translate(-226.445 -0.02)" fill="#122253"/>
    <path id="Trazado_994695" data-name="Trazado 994695" d="M715.355,601.086q0-14.236,0-28.473c0-.312-.013-.625.008-.935a.8.8,0,0,1,.851-.849c1.281-.009,2.562-.005,3.843,0a.812.812,0,0,1,.861.844,8.279,8.279,0,0,1,.011.831q0,28.733,0,57.465c0,.208.011.417,0,.623-.055.753-.277,1-1.016,1.017q-1.765.037-3.532,0c-.743-.016-.971-.267-1.018-1.011-.018-.276,0-.554,0-.831Z" transform="translate(-96.736 -0.046)" fill="#122253"/>
    <path id="Trazado_994696" data-name="Trazado 994696" d="M766.639,601.046V572.789c0-.277-.006-.554,0-.831.027-.983.19-1.159,1.15-1.172q1.558-.021,3.116,0c.971.013,1.109.167,1.133,1.172,0,.208,0,.416,0,.623q0,28.621,0,57.241c0,1.756,0,1.756-1.807,1.757-.831,0-1.662.015-2.492-.005-.894-.022-1.065-.21-1.1-1.129-.01-.277,0-.554,0-.831Z" transform="translate(-137.366 -0.009)" fill="#122253"/>
    <path id="Trazado_994697" data-name="Trazado 994697" d="M663.921,601.146v28.576c0,.277.009.555,0,.831-.035.815-.184.987-.973,1.01q-1.3.037-2.6,0c-.772-.023-.944-.22-.986-1.013-.011-.207,0-.416,0-.623q0-28.732,0-57.465c0-.208-.006-.416,0-.623.034-.85.207-1.04,1.043-1.059s1.662-.019,2.493,0,1,.189,1.022,1.063c.008.242,0,.485,0,.727Z" transform="translate(-52.376)" fill="#122253"/>
    <path id="Trazado_994698" data-name="Trazado 994698" d="M646.749,883.956c.137-.763.206-1.454.391-2.113a3.672,3.672,0,0,1,6.913-.421,6.559,6.559,0,0,1-.165,5.246,3.354,3.354,0,0,1-3.622,1.854,3.188,3.188,0,0,1-3.008-2.306A21.377,21.377,0,0,1,646.749,883.956Zm6.6-.3a12.3,12.3,0,0,0-.519-1.976,2.2,2.2,0,0,0-2.393-1.272,2.224,2.224,0,0,0-2.082,1.6,6.151,6.151,0,0,0,.014,3.782,2.059,2.059,0,0,0,1.6,1.479,2.449,2.449,0,0,0,3.161-2.038C653.221,884.789,653.251,884.337,653.344,883.652Z" transform="translate(-42.388 -244.339)" fill="#122253"/>
    <path id="Trazado_994699" data-name="Trazado 994699" d="M725.665,883.884a21.624,21.624,0,0,1,.382-2.144,3.684,3.684,0,0,1,7,0,7.684,7.684,0,0,1,0,4.3,3.692,3.692,0,0,1-7-.015A21.554,21.554,0,0,1,725.665,883.884Zm1.266-.02a16.2,16.2,0,0,0,.2,1.614,2.2,2.2,0,0,0,2.082,1.846,2.259,2.259,0,0,0,2.619-1.55,5.927,5.927,0,0,0,.016-3.779,2.269,2.269,0,0,0-2.513-1.575,2.246,2.246,0,0,0-2.165,1.765A14.08,14.08,0,0,0,726.931,883.864Z" transform="translate(-104.908 -244.358)" fill="#122253"/>
    <path id="Trazado_994700" data-name="Trazado 994700" d="M883.353,880.385v2.309c.428-.049.794-.1,1.163-.13a3.118,3.118,0,0,1,3.107,1.649,3.187,3.187,0,0,1-.587,3.385,4.186,4.186,0,0,1-5.174.029.73.73,0,0,1-.158-.635.716.716,0,0,1,.562-.328c.259,0,.508.2.774.254a9.373,9.373,0,0,0,2.017.328,1.583,1.583,0,0,0,1.563-1.725,1.367,1.367,0,0,0-1.347-1.634,7.2,7.2,0,0,0-2.041.144c-.941.155-1.105.065-1.122-.9-.018-1-.021-2.01,0-3.014.018-.775.16-.917.917-.93,1.212-.02,2.424,0,3.637-.006.451,0,.9.069.873.631s-.494.578-.927.577c-.727,0-1.455,0-2.182,0Z" transform="translate(-228.507 -244.331)" fill="#122253"/>
    <path id="Trazado_994701" data-name="Trazado 994701" d="M821.492,880.368c-.92,0-1.608,0-2.295,0a1.685,1.685,0,0,1-.714-.046c-.206-.107-.457-.372-.455-.565a.743.743,0,0,1,.466-.545,6.812,6.812,0,0,1,1.342-.049c.864,0,1.73-.026,2.593.014.278.013.719.134.782.312a1.165,1.165,0,0,1-.181.914c-.417.591-.922,1.119-1.387,1.677-.173.207-.331.427-.545.705.326.107.58.183.828.274a2.558,2.558,0,0,1,1.844,2.383,2.847,2.847,0,0,1-1.677,2.754,4.418,4.418,0,0,1-3.9-.26c-.351-.185-.675-.419-.416-.893.249-.457.641-.373.982-.169a3.479,3.479,0,0,0,2.309.372,1.678,1.678,0,0,0,1.493-1.712,1.52,1.52,0,0,0-1.5-1.438c-.375-.05-.76-.027-1.138-.064-.83-.08-1.041-.515-.531-1.162C820.01,882.087,820.672,881.34,821.492,880.368Z" transform="translate(-177.809 -244.313)" fill="#122253"/>
    <path id="Trazado_994702" data-name="Trazado 994702" d="M786.38,887.246c1.194,0,2.218,0,3.241,0a1.806,1.806,0,0,1,.809.09.886.886,0,0,1,.4.622c.011.148-.262.358-.45.466a1.11,1.11,0,0,1-.51.039c-1.488,0-2.976.02-4.463-.015a1.261,1.261,0,0,1-.879-.35c-.266-.341-.024-.707.249-1.01,1.045-1.154,2.094-2.3,3.114-3.48a5.894,5.894,0,0,0,.937-1.355c.485-1.058-.037-1.836-1.206-1.933a2.9,2.9,0,0,0-1.757.517c-.177.106-.326.325-.5.345-.241.027-.6-.009-.719-.164a.738.738,0,0,1,.044-.725,5.414,5.414,0,0,1,1.371-.9,3.318,3.318,0,0,1,2.817.024,2.2,2.2,0,0,1,1.237,2.839,7.707,7.707,0,0,1-1.146,1.945c-.657.844-1.417,1.609-2.127,2.412C786.707,886.758,786.606,886.929,786.38,887.246Z" transform="translate(-151.448 -244.264)" fill="#122253"/>
    <path id="Trazado_994703" data-name="Trazado 994703" d="M855.429,884.746c.556.232,1.308-.009,1.3.768-.009.76-.754.515-1.3.7,0,.554,0,1.1,0,1.643,0,.4-.154.689-.583.706s-.61-.295-.628-.671c-.026-.546-.007-1.095-.007-1.78-1.055,0-2.011.009-2.968,0-1.115-.014-1.359-.434-.8-1.416.9-1.593,1.825-3.174,2.739-4.76.052-.09.108-.177.159-.267.194-.339.474-.542.853-.352.448.225.391.606.182.974-.6,1.05-1.208,2.094-1.809,3.142-.238.415-.467.835-.764,1.366h2.4c0-.418,0-.822,0-1.227,0-.207-.006-.416.01-.622.03-.384.19-.692.621-.682s.6.287.6.693C855.427,883.538,855.429,884.122,855.429,884.746Z" transform="translate(-203.53 -244.38)" fill="#122253"/>
    <path id="Trazado_994704" data-name="Trazado 994704" d="M764.751,880.365c-.521,0-.866.02-1.209-.006-.363-.027-.615-.268-.54-.613a.8.8,0,0,1,.508-.533,11.385,11.385,0,0,1,1.861-.019c.418.021.579.327.581.72q.006,1.089.006,2.177,0,2.592,0,5.185a1.746,1.746,0,0,1-.041.715c-.1.21-.353.474-.545.479a.809.809,0,0,1-.57-.446,2.106,2.106,0,0,1-.05-.818q0-2.852,0-5.7Z" transform="translate(-134.478 -244.324)" fill="#122253"/>
    <path id="Trazado_994705" data-name="Trazado 994705" d="M686.153,880.458a6.154,6.154,0,0,1-1.3-.1.762.762,0,0,1-.456-.556.731.731,0,0,1,.464-.546,11.394,11.394,0,0,1,1.963-.013c.43.03.515.394.515.77,0,.761,0,1.521,0,2.282q0,2.49,0,4.979a1.871,1.871,0,0,1-.036.717.975.975,0,0,1-.521.524c-.371.1-.562-.194-.605-.537a6.674,6.674,0,0,1-.025-.828q0-2.8,0-5.6Z" transform="translate(-72.214 -244.36)" fill="#122253"/>
    <path id="Trazado_994706" data-name="Trazado 994706" d="M708.793,903.044c-.38,0-.76.012-1.139,0-.35-.014-.6-.178-.617-.558a.525.525,0,0,1,.583-.579c.793-.014,1.59-.036,2.38.02.206.015.391.307.586.471-.183.212-.334.55-.557.608a5.049,5.049,0,0,1-1.235.028Z" transform="translate(-90.15 -262.325)" fill="#122253"/>
  </g>
</svg>
