<svg xmlns="http://www.w3.org/2000/svg" width="89.79" height="89.359" viewBox="0 0 89.79 89.359">
  <g id="Grupo_1177779" data-name="Grupo 1177779" transform="translate(-361.121 -289.304)">
    <path id="Trazado_994507" data-name="Trazado 994507" d="M450.826,349.752c-.138.057-.178.091-.209.084-2.261-.481-3.2.768-3.781,2.718-.426,1.422-1.15,2.752-1.677,4.148a.9.9,0,0,1-1.187.67,16.555,16.555,0,0,0-2.04-.266,4.4,4.4,0,0,0-.991.156,4.206,4.206,0,0,0,.249,1.061c.431.812.93,1.587,1.344,2.279l-9.778,9.834c-.785-.461-1.6-.973-2.453-1.421-.279-.147-.776-.28-.939-.142-.2.172-.218.63-.217.965a3.216,3.216,0,0,0,.176,1.193c.556,1.35-.093,1.885-1.287,2.35-3.383,1.318-6.734,2.719-10.07,4.151-.835.358-1.407.4-1.879-.475a5.853,5.853,0,0,0-.862-1.167,8.689,8.689,0,0,0-.966-.794,5.769,5.769,0,0,0-.69,1.144c-.251.764-.394,1.563-.6,2.423H399.1c-.248-.936-.48-1.906-.773-2.857-.081-.264-.32-.634-.527-.663-.233-.033-.516.26-.769.423-.063.041-.094.13-.143.194-1.7,2.239-1.694,2.217-4.344,1.1-3.011-1.269-6.031-2.519-9.069-3.722-.823-.326-1.156-.7-.862-1.609a8.587,8.587,0,0,0,.317-2.03c.052-.718-.3-1-.968-.622-.913.51-1.806,1.054-2.905,1.7-2.059-2.117-4.108-4.232-6.167-6.336-.9-.924-1.782-1.883-2.761-2.723a1.087,1.087,0,0,1-.17-1.729c.4-.556.725-1.165,1.07-1.758.448-.77.114-1.059-.662-.98-1.037.106-2.069.258-3.16.4-.87-2.078-1.8-4.053-2.517-6.1-.421-1.2-1.037-1.7-2.279-1.489a6.307,6.307,0,0,1-1.07.009c-1-5.988,1.671-11.522,7.471-13.827,1.317-.523,1.384-.8.354-1.75a6.939,6.939,0,0,1-2.23-4.642c-.55,0-1.1.031-1.648-.006a4.269,4.269,0,0,1-4.126-4.255q-.077-3.7,0-7.4a5.726,5.726,0,0,1,4.115-5.405,1.978,1.978,0,0,0,.953-.443,7.4,7.4,0,0,1,4.461-2.681l-1.162-2.076,9.786-9.826c.713.42,1.524.927,2.366,1.378a4,4,0,0,0,.978.241,3.851,3.851,0,0,0,.216-1.092c-.089-.915-.268-1.822-.42-2.785,4.09-1.7,8.1-3.383,12.142-5.01a1.29,1.29,0,0,1,1.061.334c.437.4.716.976,1.125,1.419a8.083,8.083,0,0,0,1.06.834,7.156,7.156,0,0,0,.642-1.2c.243-.762.395-1.553.6-2.381h13.86c.266,1.006.519,1.975.78,2.943s.745.858,1.255.221c.6-.754,1.155-1.551,1.817-2.448q1.665.683,3.321,1.363c2.872,1.184,5.734,2.392,8.621,3.539.7.28.923.627.733,1.358a12.773,12.773,0,0,0-.351,2.148c-.064.767.264,1.085,1.021.664.177-.1.351-.2.525-.3,2.21-1.311,2.213-1.313,3.984.46,2.626,2.629,5.248,5.261,7.95,7.97l-1.18,2.125c.972.257,1.911.439,2.8.753a9.871,9.871,0,0,1,6.644,9.112c.079,5.05.048,10.1.007,15.154a9.794,9.794,0,0,1-2.149,5.9C450.757,343.11,451.109,346.34,450.826,349.752Zm-25.925.072c-.234-3.114-.052-6.055,1.591-8.728.316-.514.5-.907.074-1.5a10.046,10.046,0,0,1-1.742-6.066c.011-3.638.055-7.277-.012-10.914-.067-3.6,0-7.136,2.737-9.906-11.821-12.194-31.855-11.739-42.98-.061,2.5,3.791,2.64,4.251,2.64,8.934,0,.97,0,1.94,0,2.91-.01,3.49-1.44,5-4.953,5.157-.651.029-.913.221-1,.884a6.23,6.23,0,0,1-2.148,3.826c-.9.816-.812,1.21.313,1.652a12.2,12.2,0,0,1,7.637,13.857h-6.747c4.271,7.84,15.095,15.614,28.858,14.287,9.013-.869,21.37-8.665,22.443-14.33Zm19.944.046c-2.927,0-5.7.037-8.479-.022a1.677,1.677,0,0,0-1.687,1,33.342,33.342,0,0,1-57.4-.067c-.223-.367-.642-.865-.979-.873-2.982-.068-5.966-.04-9.1-.04.4.974.75,1.821,1.1,2.669.7,1.705.7,1.681,2.562,1.5.561-.053,1.4-.15,1.66.156a8.984,8.984,0,0,1,2.051,3.228c.173.639-.781,1.581-1.221,2.39-.089.165-.153.344-.111.248l6.519,6.741c1.46-.769,2.537-1.923,4.648-.536,2.167,1.424,1.449,2.926,1.244,4.609,2.6,1.075,5.109,2.066,7.575,3.164.85.378,1.349.251,1.741-.541.7-1.408,1.65-1.732,3.284-1.4,1.676.342,2.772.833,2.857,2.65.045.97.582,1.14,1.44,1.117,2.019-.054,4.041-.017,6.061-.017,2.043,0,2.024-.005,2.589-1.988.133-.466.356-1.172.685-1.27a10.17,10.17,0,0,1,3.776-.652c.623.065,1.128,1.25,1.692,1.924.151.18.322.343.508.539,2.086-.853,4.144-1.675,6.186-2.535,2.28-.961,2.253-.974,1.98-3.461a1.46,1.46,0,0,1,.375-1.118c1.772-1.486,3.611-2.769,5.774-.585.046.046.144.041.212.059l6.516-6.579a4.917,4.917,0,0,0-.5-.867c-1.06-1.238-.873-2.233-.009-3.664a2.937,2.937,0,0,1,3.734-1.529,1.277,1.277,0,0,0,1.117-.465C443.829,352.487,444.281,351.24,444.844,349.869Zm-62.717-39.058c6.664-6.469,14.554-9.972,23.858-9.986,9.348-.014,17.265,3.517,23.894,9.954a10.591,10.591,0,0,1,6.414-1.294c1.474.055,2.248-.481,2.518-1.6l-6.522-6.726c-1.442.85-2.532,1.891-4.635.563-2.221-1.4-1.451-2.927-1.263-4.621-2.584-1.072-5.094-2.066-7.56-3.163-.84-.374-1.347-.267-1.747.529-.7,1.394-1.641,1.717-3.283,1.42-1.789-.323-2.755-.991-2.893-2.766-.066-.848-.511-1.026-1.284-1.008-1.979.046-3.96.015-5.94.015-2.308,0-2.288.006-2.917,2.208-.117.411-.393,1-.713,1.089a8.885,8.885,0,0,1-3.652.615c-.716-.122-1.238-1.367-1.852-2.1a4.548,4.548,0,0,0-.383-.36l-8.539,3.533c.239,1.714.886,3.138-1.185,4.576-2.143,1.489-3.26.26-4.73-.525l-6.523,6.625a2.145,2.145,0,0,0,2.609,1.692A10.4,10.4,0,0,1,382.128,310.811Zm51.628,30.371c2.6,0,5.1.039,7.6-.053.286-.011.669-.724.786-1.17.161-.61.22-1.3-.726-1.476-.7-.128-1.693-.144-1.99-.588-.361-.54-.133-1.476-.148-2.241-.011-.525.036-1.055-.011-1.576a1.253,1.253,0,0,1,.832-1.405,3.61,3.61,0,0,0,2.1-3.417c.014-1.617.031-3.235-.016-4.85a1.3,1.3,0,0,0-.471-.962,4.589,4.589,0,0,1-2.433-3.936,1.282,1.282,0,0,0-1.377-1.366,1.368,1.368,0,0,0-1.462,1.323c-.067.468-.073.945-.11,1.465-.268.024-.462.051-.658.058-1.817.066-2.162.42-2.167,2.253,0,1.94,0,3.881,0,5.822a3.3,3.3,0,0,0,1.559,3.219A2.351,2.351,0,0,1,436.411,335a9.1,9.1,0,0,0,0,1.817c.119.994-.2,1.412-1.263,1.533-1.757.2-1.77.319-1.527,2.087C433.652,340.637,433.694,340.832,433.756,341.182Zm-49.6-20.192c.7-4.111-1.681-7.821-5.767-8.436a40.112,40.112,0,0,0-7.125-.18,3.368,3.368,0,0,0-2.98,2,1.378,1.378,0,0,1-1.4.869,2.744,2.744,0,0,0-2.79,2.379c-.111,1.153-.023,2.326-.023,3.364.852,0,1.614.039,2.369-.019a1.592,1.592,0,0,0,.9-.4c.912-.858,1.78-1.763,2.826-2.812l-.371-2.475h2.821a2.4,2.4,0,0,1,.138.384c.523,3.4,2.686,5.3,6.1,5.32C380.617,321,382.381,320.99,384.154,320.99Zm43.7.005c1.758.193,3.34.121,4.206-1.709.15-.317.642-.465.959-.711a3.409,3.409,0,0,0,.872-.765c1.255-2.045,2.922-2.922,4.893-2.512,1.948.405,3.147,1.834,3.421,4.147a1.508,1.508,0,0,0,1.649,1.543q2.032,0,4.062,0c.526-5.1-2.641-8.662-7.7-8.684q-2.363-.011-4.726,0C430.426,312.33,427.24,315.959,427.85,321Zm-53.691,16.568c1.467-.7,1.613-1.94,1.47-3.289a1.732,1.732,0,0,1,.918-1.729,4.516,4.516,0,0,0,1.805-2.526,44.537,44.537,0,0,0,.083-6.046,10.309,10.309,0,0,1-5.868-2.4,2.063,2.063,0,0,0-1.786-.391,2.144,2.144,0,0,0-.91,1.611c-.1,2.175-.052,4.359-.034,6.538a3.433,3.433,0,0,0,1.951,3.248,1.526,1.526,0,0,1,.97,1.807C372.606,335.708,372.773,336.894,374.159,337.564Zm-1.411,9.363c0-2.115.083-4.168-.03-6.21a2.468,2.468,0,0,0-3.2-1.779,14.617,14.617,0,0,0-3.287,2.388,7.713,7.713,0,0,0-2.148,5.6Zm2.888.067c2.779,0,5.361,0,7.942,0a4.038,4.038,0,0,0,.567-.078c.3-3.231-2.018-6.669-5.376-8.033a2.469,2.469,0,0,0-3.113,1.928C375.58,342.817,375.637,344.831,375.637,346.994Zm69.478-17.272a7.12,7.12,0,0,1-2.615,4.9c-.459.376-.535.891.168,1.227,1.366.653,2.722,1.325,4.156,2.025,1.782-2.545,1.024-5.472,1.154-8.325Zm-17.377-.037c.228,2.768-.624,5.689,1.175,8.213,1.336-.675,2.571-1.338,3.841-1.926.919-.425.96-.77.272-1.564-.705-.813-1.7-1.667-1.845-2.614C430.859,329.69,429.683,329.357,427.738,329.684Zm2.685,11.058a8.28,8.28,0,0,0-2.629,6.164h5.352Zm12.125,6.185h5.464a8.753,8.753,0,0,0-2.7-6.145Zm-7.2-2.8-.259.426c.966.7,1.922,1.929,2.9,1.946.853.015,1.731-1.333,2.6-2.078l-.244-.293ZM366.913,323.94c-1.065.009-2.155-.352-2.68.773-.18.387-.12,1.255.13,1.4a13.549,13.549,0,0,0,2.55.927Zm78.193,2.846c1.06-.015,2.133.272,2.662-.81.2-.407.13-1.358-.123-1.5a11.767,11.767,0,0,0-2.539-.75Zm-63.621-.046c1.065.087,2.08.26,2.585-.743.2-.4.118-1.352-.156-1.517a10.081,10.081,0,0,0-2.428-.746Zm49.031.361v-3.47a11.048,11.048,0,0,0-2.475.954,1.56,1.56,0,0,0,0,1.49A11.15,11.15,0,0,0,430.515,327.1Z" transform="translate(0 0)" fill="#122253"/>
    <path id="Trazado_994508" data-name="Trazado 994508" d="M501.108,429.575c2.087,0,4.18.1,6.261-.02,4.3-.237,5.058,1.313,4.853,4.943-.018.322.014.649-.022.968a2.863,2.863,0,0,1-2.265,2.668.983.983,0,0,0-.919,1.013c-.273,2.243-.581,4.482-.884,6.721a4.22,4.22,0,0,1-4.337,3.9q-7.513.059-15.027,0a4.219,4.219,0,0,1-4.392-3.972c-.332-2.475-.659-4.95-.983-7.385-2.551-.778-3.015-1.521-3.119-4.1-.133-3.336.6-4.984,4.7-4.753a35.827,35.827,0,0,0,6.555-.262l-7.71-5.781,1.726-2.3,10.721,7.991,10.683-7.973,1.764,2.271-7.693,5.777Zm-14.78,8.738c.326,2.561.59,5.041.986,7.5.119.74.732,1.2,1.725.984v-5.6h2.922v5.641h2.878V441.18h2.891v5.628h2.917v-5.637h2.879v5.669l.4.248c.435-.428,1.169-.805,1.254-1.294.424-2.449.677-4.928,1-7.48Zm-2.953-5.744v2.656h8.611v-2.656Zm17.161-.02v2.7h8.67v-2.7Zm-4.7,2.781c1.314-.091,1.875-.569,1.848-1.474a1.285,1.285,0,0,0-1.417-1.329c-.92,0-1.545.551-1.4,1.418C494.954,434.51,495.58,434.987,495.837,435.331Z" transform="translate(-90.24 -99.913)" fill="#122253"/>
  </g>
</svg>
