<svg xmlns="http://www.w3.org/2000/svg" width="88.379" height="84.248" viewBox="0 0 88.379 84.248">
  <g id="Grupo_1177781" data-name="Grupo 1177781" transform="translate(-452.649 -376.509)">
    <path id="Trazado_994509" data-name="Trazado 994509" d="M460.351,542.153c-.794.182-1.589.358-2.381.547-1,.239-1.2.179-1.712-.695a30.744,30.744,0,0,1-3.05-7.357,1.158,1.158,0,0,1,.584-1.432,16.455,16.455,0,0,0,2.52-1.939,4.154,4.154,0,0,0,.18-5.98,13.284,13.284,0,0,0-2.432-2.041c-1.024-.727-1.088-.766-.736-2a30.022,30.022,0,0,1,2.836-6.785c.619-1.076.787-1.157,1.972-.794a8.335,8.335,0,0,0,3.394.38,4.022,4.022,0,0,0,3.555-3.1,8.69,8.69,0,0,0-.115-4.138c-.264-1.215-.256-1.323.738-1.907a24.581,24.581,0,0,1,6.88-2.9c1.284-.3,1.426-.218,2.053.915a7.452,7.452,0,0,0,2.226,2.586,3.968,3.968,0,0,0,5.016-.068,8.187,8.187,0,0,0,2.267-2.714c.5-.9.675-1,1.67-.755a26,26,0,0,1,7.342,3.067c.831.5.852.659.526,1.743a6.773,6.773,0,0,0,.047,4.692A3.877,3.877,0,0,0,497.347,514a12.385,12.385,0,0,0,3.023-.359c1.164-.239,1.28-.247,1.925.73a20.524,20.524,0,0,1,2.962,7.1c.22,1.034.138,1.107-.719,1.68a12.945,12.945,0,0,0-2.493,1.957,4.385,4.385,0,0,0-.143,5.953,12.128,12.128,0,0,0,2.414,2.055c.914.652.975.682.683,1.791a28.7,28.7,0,0,1-2.669,6.587c-.825,1.495-.889,1.475-2.5,1.073a9.608,9.608,0,0,0-2.78-.3,3.958,3.958,0,0,0-3.691,3.236,8.376,8.376,0,0,0,.181,4.013c.288,1.122.227,1.314-.776,1.9a24.927,24.927,0,0,1-6.648,2.831c-1.53.369-1.58.344-2.343-.986a7.291,7.291,0,0,0-2.074-2.4,3.884,3.884,0,0,0-5.194.12,12.775,12.775,0,0,0-2.093,2.534c-.66.955-.76,1.077-1.891.792a27.235,27.235,0,0,1-7.013-2.916c-1.006-.584-.983-.736-.714-1.883a10.923,10.923,0,0,0,.339-2.788C465.041,543.845,463.258,542.218,460.351,542.153Zm31.264,7.812c-.087-1.18-.236-2.2-.225-3.213a6.189,6.189,0,0,1,7.782-6.23c.472.1.948.182,1.455.278a25.6,25.6,0,0,0,2.542-6.162c-.388-.288-.757-.543-1.105-.824a7.175,7.175,0,0,1-3.024-5.267,6.884,6.884,0,0,1,3.119-6.067c.415-.317.852-.605,1.271-.9a18.29,18.29,0,0,0-2.632-6.123c-2.779.715-5.441.745-7.515-1.424-2.057-2.151-2.215-4.817-1.4-7.631a21.459,21.459,0,0,0-6.2-2.534c-3.575,5.685-9.156,5.7-12.684.054a15.133,15.133,0,0,0-6.2,2.582c.048.282.12.6.152.919a10.034,10.034,0,0,1-.314,4.613,6.222,6.222,0,0,1-7.06,3.828c-.636-.1-1.263-.246-1.914-.375a24.71,24.71,0,0,0-2.518,6.182c.659.525,1.3.967,1.863,1.5a6.742,6.742,0,0,1,2.417,4.8c.071,2.557-1.238,4.334-3.143,5.8-.379.293-.773.566-1.178.862a25.191,25.191,0,0,0,2.611,6.2c2.762-.706,5.414-.72,7.492,1.442s2.115,4.845,1.433,7.559a15.357,15.357,0,0,0,6.234,2.483c2.879-4.875,8.585-6.245,12.678.138A20.368,20.368,0,0,0,491.615,549.966Z" transform="translate(0 -94.113)" fill="#122253" stroke="#122253" stroke-width="1"/>
    <path id="Trazado_994510" data-name="Trazado 994510" d="M664.495,407.224c.811-.85,1.643-1.755,2.512-2.624s1.164-.854,2.035,0q2.192,2.158,4.358,4.344c.865.875.857,1.149-.016,2.026-1.216,1.22-2.43,2.442-3.677,3.63a1.4,1.4,0,0,0-.417,1.509A16.965,16.965,0,0,1,658.7,435.658a17.361,17.361,0,0,1-15.057-1.137,1.825,1.825,0,0,0-1.824-.083c-1.6.726-3.24,1.38-4.863,2.064a5.146,5.146,0,0,1-.566.236c-.415.118-.879.154-1.1-.264a1.516,1.516,0,0,1-.1-1.019,13,13,0,0,1,.652-1.588c.541-1.284,1.059-2.577,1.628-3.848a1.665,1.665,0,0,0-.08-1.709,16.7,16.7,0,0,1-2.3-7.446,16.38,16.38,0,0,1,9.591-16.427c6.761-3,13.089-2.19,18.938,2.341q.242.188.492.366A2.221,2.221,0,0,0,664.495,407.224Zm-1.559,1.306c-5.111-4.113-10.655-5.195-16.74-2.781a14.708,14.708,0,0,0-9.107,16.465,15.134,15.134,0,0,0,2.235,5.8,1.74,1.74,0,0,1,.159,1.935c-.466.908-.818,1.875-1.208,2.821-.161.389-.292.79-.519,1.411,1.55-.647,2.842-1.147,4.1-1.726a2.091,2.091,0,0,1,2.167.176,15.667,15.667,0,0,0,12.638,1.791,15.081,15.081,0,0,0,11.168-14.74c0-.9-.143-1.805-.24-2.945-.555.536-.907.871-1.253,1.212q-6.253,6.18-12.506,12.361c-.953.941-1.2.979-2.027.173q-5.105-4.979-10.178-9.992c-.747-.737-.739-1.1.01-1.86q2.2-2.234,4.436-4.43c.854-.839,1.154-.83,2.045.044,1.288,1.263,2.555,2.547,3.837,3.816.251.249.529.471.8.706Zm-10.207,20.317,18.942-18.752-3.819-3.915c-1.376,1.423-2.751,2.881-4.166,4.3q-4.906,4.92-9.843,9.809c-.99.984-1.251.986-2.216.04-.761-.746-1.5-1.511-2.26-2.261s-1.5-1.473-2.24-2.2l-3.767,3.8Z" transform="translate(-137.129 -19.338)" fill="#122253" stroke="#122253" stroke-width="1"/>
    <path id="Trazado_994511" data-name="Trazado 994511" d="M522.728,382.84c1.592-1.633,3.17-3.238,4.73-4.86,1.068-1.111,1.395-1.463,2.742-.018,1.033,1.108,2.145,2.143,3.212,3.22.906.915.913,1.242.015,2.127-1.926,1.9-3.866,3.783-5.8,5.675-.116.114-.218.243-.373.418a13.5,13.5,0,0,1-1.35,10.389,12.616,12.616,0,0,1-6.585,5.469,12.9,12.9,0,0,1-14.133-20.73C508.822,380.487,515.749,378.265,522.728,382.84Zm2.866,8.182c-.351.326-.624.568-.885.822q-3.656,3.563-7.308,7.129c-1.207,1.178-1.424,1.183-2.586.024q-3.006-3-6-6c-.638-.637-1.295-1.257-1.913-1.913s-.636-1.013.008-1.673q1.888-1.937,3.834-3.82c.621-.6.941-.6,1.576.008,1.041.987,2.039,2.019,3.065,3.023a5.479,5.479,0,0,0,.564.454L521.006,384a11.029,11.029,0,0,0-14.078,1.339A11.087,11.087,0,0,0,519.6,403.165C524.858,400.692,526.728,394.67,525.594,391.022Zm-9.409,6.59,15.554-15.188-2.916-3.172c-.37.349-.7.648-1.018.962q-5.137,5.121-10.269,10.247c-.261.26-.517.527-.795.77a.919.919,0,0,1-1.329-.008c-.278-.242-.528-.515-.79-.775l-3.017-2.992-2.794,2.72Z" transform="translate(-36.751 0)" fill="#122253" stroke="#122253" stroke-width="1"/>
    <path id="Trazado_994512" data-name="Trazado 994512" d="M699.748,560.833l4.45-4.363c.2-.2.406-.406.623-.593a.892.892,0,0,1,1.322.016c1.378,1.348,2.757,2.7,4.091,4.087.535.557.469.914-.185,1.584-1.117,1.145-2.262,2.262-3.4,3.391-.7.695-1.382,1.4-2.1,2.078a1.334,1.334,0,0,0-.445,1.4,12.86,12.86,0,0,1-10.433,15.3,12.583,12.583,0,0,1-14.5-9.113,12.921,12.921,0,0,1,8.738-15.935,12.592,12.592,0,0,1,11.047,1.683c.2.138.406.276.612.41A.978.978,0,0,0,699.748,560.833Zm-1.648,1.289c-2.4-2.461-8.719-3.362-13.169.043a11.275,11.275,0,0,0-2.792,14.782,10.933,10.933,0,0,0,14.005,4.126c5.118-2.35,7.186-8.143,6.112-11.693-.347.33-.673.63-.987.943q-3.793,3.775-7.586,7.549c-.753.744-1.16.761-1.876.054q-4.241-4.2-8.445-8.43c-.668-.673-.661-.989,0-1.668q1.886-1.941,3.834-3.821c.593-.574.978-.567,1.594-.007.789.717,1.539,1.475,2.314,2.206.526.5,1.067.978,1.686,1.544Zm-5.432,13.941L708,560.673l-2.636-2.793q-2.371,2.323-4.741,4.645-3.378,3.321-6.751,6.647c-1.025,1.005-1.255,1-2.317-.007-.833-.791-1.653-1.6-2.483-2.389-.347-.331-.705-.65-.98-.9l-2.82,2.718Z" transform="translate(-170.029 -134.618)" fill="#122253" stroke="#122253" stroke-width="1"/>
    <path id="Trazado_994513" data-name="Trazado 994513" d="M525.752,559.2a16.023,16.023,0,1,1-15.914-16.169A16.105,16.105,0,0,1,525.752,559.2Zm-30.185-.007a14.194,14.194,0,1,0,14.23-14.348A14.135,14.135,0,0,0,495.567,559.193Z" transform="translate(-30.587 -125.15)" fill="#122253" stroke="#122253" stroke-width="1"/>
    <path id="Trazado_994514" data-name="Trazado 994514" d="M666.385,420.989a1.263,1.263,0,0,1-1.007.906,8.52,8.52,0,0,0-3.59,2.046c-.792.755-1.458,1.643-2.173,2.477a4.167,4.167,0,0,0-.257.417c-.507.759-.991.966-1.48.635-.461-.312-.487-.909-.041-1.647a12.835,12.835,0,0,1,6.4-5.473,4.03,4.03,0,0,1,1.305-.274A.876.876,0,0,1,666.385,420.989Z" transform="translate(-154.069 -32.465)" fill="#122253" stroke="#122253" stroke-width="1"/>
    <path id="Trazado_994515" data-name="Trazado 994515" d="M699.834,419.346a6,6,0,0,1-.981-.01.9.9,0,0,1-.832-.918.855.855,0,0,1,.862-.876,18.183,18.183,0,0,1,2.088.007.818.818,0,0,1,.817.9.879.879,0,0,1-.849.894,9.3,9.3,0,0,1-1.105.009Z" transform="translate(-184.602 -30.535)" fill="#122253" stroke="#122253" stroke-width="1"/>
    <path id="Trazado_994516" data-name="Trazado 994516" d="M746.723,432.786a3.853,3.853,0,0,1-.473.659q-2.409,2.353-4.85,4.671a1.18,1.18,0,0,1-.737.354,1.121,1.121,0,0,1-.818-.372,1.249,1.249,0,0,1,0-.9c.063-.212.3-.38.473-.55q2.243-2.172,4.495-4.334a2.952,2.952,0,0,1,.672-.522C746.089,431.484,746.775,431.956,746.723,432.786Z" transform="translate(-216.065 -41.224)" fill="#122253" stroke="#122253" stroke-width="1"/>
    <path id="Trazado_994517" data-name="Trazado 994517" d="M726.358,465.478a.842.842,0,0,1-.822-1.248,5.289,5.289,0,0,1,1.26-1.454.849.849,0,0,1,1.312.7A3.061,3.061,0,0,1,726.358,465.478Z" transform="translate(-205.257 -64.534)" fill="#122253" stroke="#122253" stroke-width="1"/>
    <path id="Trazado_994518" data-name="Trazado 994518" d="M587.459,403.125a.941.941,0,0,1-.961-1.255,2.338,2.338,0,0,1,.519-.667q1.813-1.829,3.643-3.64a2.4,2.4,0,0,1,.557-.472.77.77,0,0,1,1.09.195,1.623,1.623,0,0,1,.084,1.011c-.037.206-.289.381-.461.554-1.212,1.215-2.422,2.433-3.648,3.633A7.825,7.825,0,0,1,587.459,403.125Z" transform="translate(-100.482 -15.036)" fill="#122253" stroke="#122253" stroke-width="1"/>
    <path id="Trazado_994519" data-name="Trazado 994519" d="M576.285,422.9c.639-.023,1.165.618.825,1.14a4.539,4.539,0,0,1-1.455,1.412.793.793,0,0,1-1.121-.847A2.8,2.8,0,0,1,576.285,422.9Z" transform="translate(-91.514 -34.592)" fill="#122253" stroke="#122253" stroke-width="1"/>
    <path id="Trazado_994520" data-name="Trazado 994520" d="M768.706,576.013a4.541,4.541,0,0,1-.491.793c-1.378,1.4-2.758,2.8-4.17,4.161-.527.509-1.009.484-1.395.056a.9.9,0,0,1,.124-1.308c1.372-1.405,2.753-2.8,4.181-4.15a1.454,1.454,0,0,1,1.1-.228C768.3,575.376,768.477,575.759,768.706,576.013Z" transform="translate(-233.147 -149.486)" fill="#122253" stroke="#122253" stroke-width="1"/>
    <path id="Trazado_994521" data-name="Trazado 994521" d="M753.19,601.547c-.018.476-.833,1.593-1.3,1.659a1.183,1.183,0,0,1-.885-.2.94.94,0,0,1-.209-.86,4.445,4.445,0,0,1,1.142-1.39A.824.824,0,0,1,753.19,601.547Z" transform="translate(-224.353 -168.556)" fill="#122253" stroke="#122253" stroke-width="1"/>
    <path id="Trazado_994522" data-name="Trazado 994522" d="M521.23,567.257c.029-.622.025-1.073.077-1.518a1.988,1.988,0,0,1,1.954-2,39.653,39.653,0,0,1,4.783-.008,2.032,2.032,0,0,1,2.019,2.188c.021.4,0,.8,0,1.331.882,0,1.65-.031,2.414.01a7.052,7.052,0,0,1,1.687.251,3.459,3.459,0,0,1,2.56,3.371c.047,2.826.007,5.653.026,8.48a3.978,3.978,0,0,1-3.716,3.708c-4.793-.039-9.586.018-14.378-.027a3.576,3.576,0,0,1-3.705-3.632c-.1-2.782-.126-5.571-.059-8.354a3.862,3.862,0,0,1,3.9-3.8C519.569,567.227,520.342,567.257,521.23,567.257Zm-4.472,8.527c0,1.057-.025,2.237.006,3.415a1.873,1.873,0,0,0,2.081,2.051q7,.034,14,0a2.005,2.005,0,0,0,2.083-1.856c.088-1.294.021-2.6.021-3.979-2.181.863-4.39.16-6.53.552-.054,1.045-.427,1.852-1.506,1.982a12.4,12.4,0,0,1-2.447.008,1.532,1.532,0,0,1-1.406-1.192c-.078-.268-.139-.542-.25-.981Zm6.052-1.746c.585-1.785.886-2,2.7-2.012a10.862,10.862,0,0,1,1.1.026c1.092.1,1.442.423,1.76,1.539a3.472,3.472,0,0,0,.2.45c1.511,0,2.983.029,4.454-.011.922-.025,1.6-.465,1.654-1.172.075-1.022.457-2.159-.5-3a2.178,2.178,0,0,0-1.017-.356,5.437,5.437,0,0,0-.98-.019H519.412c-2.351,0-2.7.365-2.63,2.717.038,1.207.5,1.772,1.682,1.822C519.892,574.085,521.323,574.039,522.81,574.039Zm.372-6.887h4.976v-1.546a15.814,15.814,0,0,0-4.976.118Zm3.367,6.792H524.88v2.109h1.669Z" transform="translate(-46.53 -140.704)" fill="#122253" stroke="#122253" stroke-width="1"/>
  </g>
</svg>
