<svg xmlns="http://www.w3.org/2000/svg" width="79.295" height="79.083" viewBox="0 0 79.295 79.083">
  <g id="Grupo_1177783" data-name="Grupo 1177783" transform="translate(-601.209 -370.33)">
    <path id="Trazado_994523" data-name="Trazado 994523" d="M621.592,436.658v-20.24c-.118-.07-.176-.132-.237-.136-2.166-.154-2.212-.2-2.213-2.432,0-1.107-.008-2.214,0-3.321.014-1.629.25-1.876,1.864-1.878q9.856-.009,19.713,0h1.349V394.7c-.058-.036-.114-.1-.173-.1-2.3-.142-2.328-.17-2.328-2.541,0-1.143-.009-2.286,0-3.428.013-1.238.424-1.655,1.664-1.716.285-.014.571,0,.857,0h20.484c0-.509,0-.923,0-1.337.034-3.14-.07-6.29.145-9.418a5.96,5.96,0,0,1,6.042-5.759c3.424-.117,6.856-.038,10.284-.036a1.3,1.3,0,0,1,1.456,1.462q.011,2.2,0,4.393c-.008,1.4-.375,1.787-1.775,1.8-2.393.017-4.785.005-7.178.005h-1.3v1.235q0,26.034-.017,52.068a1.69,1.69,0,0,0,.92,1.7,8.72,8.72,0,0,1,4.074,9.085,9,9,0,0,1-6.79,7.081,8.764,8.764,0,0,1-9.4-3.793,2.06,2.06,0,0,0-2.019-1.115q-18.856.051-37.712.006a1.612,1.612,0,0,0-1.612.889,8.848,8.848,0,0,1-10.016,3.9,8.9,8.9,0,0,1,.146-17.154,8.733,8.733,0,0,1,9.784,3.742,1.762,1.762,0,0,0,1.873,1.012C620.143,436.6,620.821,436.658,621.592,436.658Zm2.719-5.165c.3.03.537.076.777.076,8.783,0,17.566-.006,26.349.019.781,0,.951-.284.947-1-.025-4.463-.011-8.926-.017-13.389a8.613,8.613,0,0,0-.086-.881h-27.97Zm38.207-20.356h-2.324c-2.717,0-2.717,0-2.719,2.731,0,2.194-.073,2.27-2.229,2.414-.061,0-.118.066-.216.123v20.253c.767,0,1.476-.051,2.174.013a1.835,1.835,0,0,0,1.8-.964,15.869,15.869,0,0,1,2.789-2.728,1.652,1.652,0,0,0,.8-1.453c-.028-6.455-.016-12.91-.018-19.365C662.574,411.88,662.544,411.6,662.518,411.137ZM672.782,372.9c-1.089,0-2.054.06-3.01-.011-2.943-.218-4.664,1.655-4.652,4.64.06,15.894.028,31.788.028,47.682v1.2H667.7c0-.517,0-.971,0-1.425q0-22.93,0-45.861a11.483,11.483,0,0,1,.024-1.177,2.513,2.513,0,0,1,2.688-2.465c.774-.017,1.549,0,2.365,0Zm-10.268,21.732H644.767v8.835h17.746Zm-4.974,44.658h-38.47v2.4h38.47ZM621.7,413.641h33.2v-2.408H621.7Zm44.722,20.53a6.228,6.228,0,0,0-6.342,6.38,6.293,6.293,0,0,0,6.321,6.321,6.357,6.357,0,0,0,6.418-6.356A6.28,6.28,0,0,0,666.425,434.17Zm-56.254,0a6.288,6.288,0,0,0-6.393,6.357,6.39,6.39,0,0,0,12.78.012A6.294,6.294,0,0,0,610.172,434.171Zm42.142.036h-28v2.374h28ZM642.186,391.97h20.29v-2.418h-20.29Zm2.546,16.607h17.781v-2.416H644.733Zm30.683-33.171h2.438v-2.44h-2.438ZM665.2,431.563h2.422v-2.438H665.2Z" transform="translate(-0.006 0)" fill="#122253"/>
    <path id="Trazado_994524" data-name="Trazado 994524" d="M619.164,406.155a17.851,17.851,0,1,1,17.845-17.981A17.968,17.968,0,0,1,619.164,406.155Zm9.747-29.535a15.255,15.255,0,0,0-21.133,1.388c-5.907,6.352-4.837,15.589-.436,20.056l8.426-8.442c-2.251-1.007-3.209-2.22-3-4.176.314-2.97,2.474-3.6,5.083-3.581V379.5h2.591v2.41c.635,0,1.163.034,1.685-.009.622-.051,1.443.055,1.821-.294C625.668,380.022,627.266,378.3,628.911,376.62Zm-19.69,23.345a15.384,15.384,0,0,0,20.5-.63c5.779-5.484,6.337-15.038,1.083-20.956l-8.712,8.5c2.633,1.061,3.631,2.378,3.344,4.444-.4,2.844-2.462,3.478-4.967,3.354-.045.905-.084,1.7-.122,2.481H617.81v-2.5c-.846,0-1.591-.029-2.331.012a2.023,2.023,0,0,0-1.183.273C612.591,396.566,610.944,398.247,609.221,399.965Zm8.044-8.11.122.26c1.45,0,2.9.058,4.347-.039a1.473,1.473,0,0,0,1.057-.826,1.662,1.662,0,0,0-.323-1.336c-.476-.583-2.614-.5-3.191.031C618.6,390.571,617.934,391.217,617.264,391.855Zm3.666-7.061-.142-.264c-1.454,0-2.913-.058-4.361.04a1.427,1.427,0,0,0-1.012.85c-.106.383.173,1.25.366,1.275a6.832,6.832,0,0,0,3.056-.011C619.655,386.387,620.242,385.449,620.93,384.794Z" transform="translate(0 -0.097)" fill="#122253"/>
    <path id="Trazado_994525" data-name="Trazado 994525" d="M746.161,596.482c1.248,0,2.5-.03,3.744.007a3.844,3.844,0,0,1,3.854,3.79,3.8,3.8,0,0,1-3.875,3.864q-3.8.067-7.595,0a3.83,3.83,0,1,1,.021-7.658C743.593,596.457,744.878,596.482,746.161,596.482Zm0,2.576c-1.247,0-2.494,0-3.741,0-.823,0-1.41.33-1.425,1.228-.016.954.589,1.3,1.46,1.3,2.423,0,4.845.006,7.268,0,.811,0,1.414-.323,1.431-1.228.017-.965-.6-1.295-1.465-1.3C748.513,599.053,747.337,599.058,746.161,599.059Z" transform="translate(-107.772 -177.677)" fill="#122253"/>
    <path id="Trazado_994526" data-name="Trazado 994526" d="M835.886,498.179H828.47v-2.451h7.417Z" transform="translate(-178.556 -98.524)" fill="#122253"/>
    <path id="Trazado_994527" data-name="Trazado 994527" d="M895.3,683.836a3.678,3.678,0,0,1-3.812,3.749,3.731,3.731,0,0,1-3.821-3.775,3.776,3.776,0,0,1,3.9-3.825A3.714,3.714,0,0,1,895.3,683.836Zm-3.81-1.305a1.188,1.188,0,0,0-1.243,1.29,1.136,1.136,0,0,0,1.3,1.211,1.122,1.122,0,0,0,1.187-1.216A1.171,1.171,0,0,0,891.489,682.531Z" transform="translate(-225.066 -243.293)" fill="#122253"/>
    <path id="Trazado_994528" data-name="Trazado 994528" d="M629.028,687.572a3.8,3.8,0,0,1-.053-7.6,3.778,3.778,0,0,1,3.883,3.842A3.729,3.729,0,0,1,629.028,687.572ZM629,685.036a1.2,1.2,0,0,0,1.289-1.293,1.258,1.258,0,0,0-2.515.022A1.179,1.179,0,0,0,629,685.036Z" transform="translate(-18.868 -243.279)" fill="#122253"/>
    <path id="Trazado_994529" data-name="Trazado 994529" d="M627.919,407.249h-2.375c-.783-6.218,6.345-13.321,12.6-12.555v2.375a10.4,10.4,0,0,0-10.227,10.18Z" transform="translate(-19.073 -19.098)" fill="#122253"/>
    <path id="Trazado_994530" data-name="Trazado 994530" d="M685.115,466.344v-2.469a10.578,10.578,0,0,0,5.646-1.79,9.844,9.844,0,0,0,4.407-7.254c.112-1.008.429-1.3,1.347-1.184a9.264,9.264,0,0,0,1.141.008C698.229,459.22,692.937,466.436,685.115,466.344Z" transform="translate(-65.924 -65.444)" fill="#122253"/>
  </g>
</svg>
