<svg xmlns="http://www.w3.org/2000/svg" width="76.389" height="71.466" viewBox="0 0 76.389 71.466">
  <g id="Grupo_1178131" data-name="Grupo 1178131" transform="translate(-567.555 -498.027)">
    <path id="Trazado_995015" data-name="Trazado 995015" d="M605.659,569.242H569.73c-1.758,0-1.925-.17-1.925-1.955q0-33.53,0-67.059c0-1.783.165-1.95,1.929-1.95h72.092c1.677,0,1.868.195,1.868,1.9q0,33.588,0,67.176c0,1.695-.2,1.893-1.872,1.893ZM570,500.434v66.609h71.485v-66.6H615.132c-.016.352-.042.655-.042.958q0,10.007,0,20.014c0,1.585-.577,1.983-2.042,1.395-2.168-.87-4.312-1.8-6.493-2.638a2.336,2.336,0,0,0-1.53-.025c-2.147.814-4.259,1.722-6.387,2.589-1.689.689-2.224.335-2.225-1.474q0-9.773,0-19.546v-1.286Zm42.984.055H598.6v20.026c1.842-.74,3.611-1.345,5.281-2.155a3.947,3.947,0,0,1,3.744-.005c1.7.812,3.489,1.428,5.363,2.177V500.489Z" transform="translate(0 0)" fill="#122253" stroke="#122253" stroke-width="0.5"/>
    <path id="Trazado_995016" data-name="Trazado 995016" d="M609.2,664.783v7.991c.817,0,1.584,0,2.351,0,.69,0,1.287.193,1.3,1.009s-.57,1.051-1.265,1.054q-3.511.014-7.023,0c-.719,0-1.334-.374-1.192-1.091.077-.387.747-.829,1.216-.927a12.151,12.151,0,0,1,2.387-.041v-7.889a27.525,27.525,0,0,1-3.257-1.175,9.223,9.223,0,0,1-5.449-8.253c-.153-3.9-.05-7.8-.058-11.7,0-.918.453-1.344,1.375-1.343q8.544.013,17.088,0c.794,0,1.313.352,1.309,1.158-.02,4.25.181,8.521-.188,12.742-.383,4.382-3.647,7.475-7.988,8.326C609.621,664.678,609.439,664.727,609.2,664.783Zm-3.8-12.809c-1.073,0-2,0-2.93,0-1.826-.006-2.141-.5-1.455-2.215s1.343-3.425,2.03-5.181h-2.673a1.036,1.036,0,0,0-.107.274c-.011,3.2-.042,6.394-.007,9.591a11.422,11.422,0,0,0,.354,2.651,7.824,7.824,0,0,0,8.135,5.673c3.57-.248,6.893-3.258,7.081-6.806.2-3.731.046-7.481.04-11.223,0-.057-.095-.114-.194-.227h-4.74c-1.788,0-2.161.358-2.357,2.311,1.173,0,2.341-.011,3.509,0,1.488.016,1.882.719,1.116,2.007-1.055,1.775-2.13,3.537-3.2,5.306-1.105,1.836-2.176,3.693-3.339,5.491-.223.345-.937.736-1.184.616-.375-.184-.588-.777-.774-1.236-.09-.223.044-.533.071-.8C604.983,656.191,605.182,654.177,605.4,651.974Zm1.769-7.726c-.894.3-1.788.324-1.975.7-.766,1.55-1.317,3.207-1.994,4.945,1.112,0,2.078.007,3.044,0,.934-.009,1.363.43,1.279,1.372-.088.989-.16,1.979-.239,2.969l.206.081,3.264-5.422c-1.392,0-2.545.032-3.7-.009-1.135-.041-1.527-.657-1.119-1.709C606.274,646.315,606.653,645.472,607.169,644.248Z" transform="translate(-23.267 -110.399)" fill="#122253" stroke="#122253" stroke-width="0.5"/>
    <path id="Trazado_995017" data-name="Trazado 995017" d="M753.852,651.854c0,1.642,0,3.114,0,4.585,0,2.3-.016,4.6.007,6.893.009.9-.333,1.421-1.276,1.425q-2.57.01-5.141,0c-1.022,0-1.3-.611-1.3-1.533.021-3.31.008-6.621.008-9.931v-1.437a18.73,18.73,0,0,1-1.912-.012c-1.024-.11-1.427-.993-.734-1.75,1.865-2.04,3.771-4.044,5.743-5.978a1.53,1.53,0,0,1,1.5-.006c1.974,1.932,3.876,3.94,5.749,5.972a1,1,0,0,1-.7,1.758A17.621,17.621,0,0,1,753.852,651.854ZM751.8,662.677c0-3.762.012-7.424-.008-11.085-.005-.974.033-1.853,1.507-1.81-.316-.385-.47-.6-.648-.785-.852-.9-1.71-1.8-2.523-2.653-.975.936-1.876,1.793-2.766,2.66a8.092,8.092,0,0,0-.524.622c1.367.5,1.407.555,1.408,2.029q0,3.278,0,6.555v4.466Z" transform="translate(-134.313 -111.551)" fill="#122253" stroke="#122253" stroke-width="0.5"/>
    <path id="Trazado_995018" data-name="Trazado 995018" d="M810.812,651.231c-.708,0-1.288.045-1.858-.01-1.1-.1-1.508-.987-.771-1.79,1.844-2.01,3.742-3.97,5.64-5.931a1.087,1.087,0,0,1,1.738.061c1.833,1.914,3.677,3.818,5.466,5.773a1.434,1.434,0,0,1,.318,1.224c-.135.322-.687.563-1.1.652a8.854,8.854,0,0,1-1.728.026V653.7c0,2.963-.022,5.926.011,8.889.012,1.093-.443,1.574-1.53,1.556q-2.339-.039-4.678,0c-1.089.019-1.534-.451-1.521-1.552.037-3.313.013-6.628.013-9.942Zm7.231-2.088-3.4-3.549-3.365,3.555c1.392.015,1.625.71,1.619,1.65-.017,3.041-.006,6.082-.006,9.123v2.1h3.568v-1.347c0-3.236.015-6.472-.009-9.707C816.447,650,816.478,649.124,818.043,649.143Z" transform="translate(-183.828 -110.921)" fill="#122253" stroke="#122253" stroke-width="0.5"/>
    <path id="Trazado_995019" data-name="Trazado 995019" d="M757.416,752.48q-5.966,0-11.933,0a2.17,2.17,0,0,1-1.031-.082c-.32-.194-.726-.622-.7-.913a1.638,1.638,0,0,1,.75-1c.251-.164.681-.067,1.031-.067q11.933,0,23.867,0l.585,0c.714,0,1.263.264,1.252,1.058-.012.812-.613,1-1.3,1.006-.273,0-.546,0-.819,0Z" transform="translate(-134.763 -193.098)" fill="#122253" stroke="#122253" stroke-width="0.5"/>
    <path id="Trazado_995020" data-name="Trazado 995020" d="M757.371,766.37q6.086,0,12.171,0c.794,0,1.6.055,1.57,1.087-.024.942-.794,1.017-1.539,1.017q-12.23,0-24.46,0c-.764,0-1.5-.115-1.511-1.047s.7-1.063,1.48-1.061C749.178,766.377,753.275,766.37,757.371,766.37Z" transform="translate(-134.649 -205.337)" fill="#122253" stroke="#122253" stroke-width="0.5"/>
    <path id="Trazado_995021" data-name="Trazado 995021" d="M712.213,522.282c0,1.793,0,3.585,0,5.378,0,.7-.174,1.274-1,1.278s-1.037-.562-1.037-1.261q0-5.378,0-10.755c0-.706.237-1.279,1.025-1.29s1.023.56,1.02,1.272C712.208,518.7,712.213,520.49,712.213,522.282Z" transform="translate(-109.043 -13.293)" fill="#122253" stroke="#122253" stroke-width="0.5"/>
  </g>
</svg>
