<svg xmlns="http://www.w3.org/2000/svg" width="86.926" height="73.048" viewBox="0 0 86.926 73.048">
  <g id="Grupo_1177626" data-name="Grupo 1177626" transform="translate(-267.935 -301.181)">
    <path id="Trazado_994357" data-name="Trazado 994357" d="M297.154,416.473a15.1,15.1,0,0,1,17.007-10.133,14.841,14.841,0,0,1,.325,29.118c-6.231,1.435-14.289-1.6-17.378-10.14A15.172,15.172,0,0,1,287.592,435a14.353,14.353,0,0,1-9.455.037,14.845,14.845,0,0,1,1.619-28.634C285.3,405.162,293.6,407.321,297.154,416.473Zm14.2,16.761a12.306,12.306,0,1,0-12.3-12.349A12.36,12.36,0,0,0,311.359,433.234Zm-28.623,0a12.307,12.307,0,1,0-12.21-12.392A12.356,12.356,0,0,0,282.735,433.233Z" transform="translate(0 -85.99)" fill="#122253"/>
    <path id="Trazado_994358" data-name="Trazado 994358" d="M607.629,517.521V522.9H590.145v-5.38c-.993,0-1.846.026-2.7-.006a2.633,2.633,0,0,1-2.722-2.764c-.018-7.439-.006-14.877,0-22.316,0-.116.03-.231.068-.512h16.19v-9.376h7.969c.02.423.055.84.056,1.256,0,3.054.02,6.108-.011,9.161a2.069,2.069,0,0,0,.672,1.651c1.437,1.384,2.856,2.789,4.226,4.239a2.132,2.132,0,0,1,.555,1.315c.039,4.737.013,9.474.03,14.212.007,1.913-.955,3.3-3.158,3.157C610.16,517.459,608.991,517.521,607.629,517.521ZM587.347,494.5v20.511h5.382v5.354h12.408v-5.409h6.6c.094-.212.152-.281.152-.351q.018-6.814.017-13.627a1.185,1.185,0,0,0-.229-.75c-.782-.839-1.608-1.639-2.418-2.452l-.278.116v3.3H606.4V485.07h-2.822v16.1h-2.607v-6.649h-2.874v6.67h-2.573v-6.648h-2.862v6.623h-2.565V494.5Z" transform="translate(-259.675 -148.668)" fill="#122253"/>
    <path id="Trazado_994359" data-name="Trazado 994359" d="M598.526,357.911l-.186,2.361c-5.967.025-11.973-5.473-13.212-11.991a14.9,14.9,0,0,1,27.418-10.335c3.737,6.177,2.24,13.91-2.109,17.935l-1.653-1.789a12.215,12.215,0,0,0,3.233-10.076,11.83,11.83,0,0,0-3.2-6.78,12.354,12.354,0,0,0-21.3,9.663C588.1,351.8,591.548,356.807,598.526,357.911Z" transform="translate(-259.809 -24.251)" fill="#122253"/>
    <path id="Trazado_994360" data-name="Trazado 994360" d="M637.709,414.417h10.609c-.07,1.9.311,3.771-.3,5.592a5.312,5.312,0,0,1-5.587,3.566,5.155,5.155,0,0,1-4.683-4.389A39.31,39.31,0,0,1,637.709,414.417ZM640.168,417c-.109,1.581.036,2.934,1.461,3.7a2.691,2.691,0,0,0,3-.193c1.2-.88,1.265-2.131,1.059-3.5Z" transform="translate(-303.065 -92.823)" fill="#122253"/>
    <path id="Trazado_994361" data-name="Trazado 994361" d="M582.689,301.2v2.367c-7.85.4-13.362,4.241-16.627,11.422l-2.171-.821C565.847,307.284,574.247,300.777,582.689,301.2Z" transform="translate(-242.604 0)" fill="#122253"/>
    <path id="Trazado_994362" data-name="Trazado 994362" d="M681.7,379.94c-.261-.737-.664-1.427-1.606-1.376-.808.043-1.218.611-1.4,1.407h-2.307c-.545-1.6,1.364-3.668,3.141-3.919a3.96,3.96,0,0,1,4.6,3.888Z" transform="translate(-334.739 -61.339)" fill="#122253"/>
    <path id="Trazado_994363" data-name="Trazado 994363" d="M623.86,379.99h-2.2c-1.328-1.882-2.278-1.907-3.252.014h-2.244a3.7,3.7,0,0,1,3.758-3.939A3.792,3.792,0,0,1,623.86,379.99Z" transform="translate(-285.443 -61.384)" fill="#122253"/>
    <path id="Trazado_994364" data-name="Trazado 994364" d="M615.275,422.179h2.568v2.4h-2.568Z" transform="translate(-284.725 -99.186)" fill="#122253"/>
    <path id="Trazado_994365" data-name="Trazado 994365" d="M708.4,422.216v2.365h-2.6v-2.365Z" transform="translate(-358.934 -99.216)" fill="#122253"/>
    <path id="Trazado_994366" data-name="Trazado 994366" d="M479.366,514.826V512.4h10.709v2.428Z" transform="translate(-173.316 -173.141)" fill="#122253"/>
    <path id="Trazado_994367" data-name="Trazado 994367" d="M464.755,467v2.4h-8V467Z" transform="translate(-154.782 -135.924)" fill="#122253"/>
    <path id="Trazado_994368" data-name="Trazado 994368" d="M517.245,467h7.972v2.411h-7.972Z" transform="translate(-204.367 -135.925)" fill="#122253"/>
    <path id="Trazado_994369" data-name="Trazado 994369" d="M459.379,497.447V499.8h-2.553v-2.351Z" transform="translate(-154.839 -160.885)" fill="#122253"/>
    <path id="Trazado_994370" data-name="Trazado 994370" d="M547.191,499.69v-2.4h2.556v2.4Z" transform="translate(-228.914 -160.755)" fill="#122253"/>
    <path id="Trazado_994371" data-name="Trazado 994371" d="M330.94,504.459H320.228c.07-1.517-.213-2.994.332-4.429a5.346,5.346,0,0,1,10.364,1.392C331.022,502.383,330.94,503.363,330.94,504.459Zm-8.086-2.55h5.474a2.74,2.74,0,1,0-5.474,0Z" transform="translate(-42.856 -160.099)" fill="#122253"/>
    <path id="Trazado_994372" data-name="Trazado 994372" d="M358.912,450.93H361.3a4.485,4.485,0,0,0,4.186,4.192v2.306C362.094,457.807,358.916,454.687,358.912,450.93Z" transform="translate(-74.576 -122.754)" fill="#122253"/>
    <path id="Trazado_994373" data-name="Trazado 994373" d="M309.5,451.06h2.389a6.264,6.264,0,0,1-6.472,6.5c-.029-.249-.079-.51-.086-.772-.014-.5,0-1,0-1.545C307.789,454.886,309.219,453.578,309.5,451.06Z" transform="translate(-30.647 -122.86)" fill="#122253"/>
    <path id="Trazado_994374" data-name="Trazado 994374" d="M391.311,499.734h-2.587v-2.387h2.587Z" transform="translate(-99.015 -160.803)" fill="#122253"/>
    <path id="Trazado_994375" data-name="Trazado 994375" d="M298.2,497.231h2.554v2.4H298.2Z" transform="translate(-24.811 -160.708)" fill="#122253"/>
  </g>
</svg>
