<svg xmlns="http://www.w3.org/2000/svg" width="74.73" height="75.329" viewBox="0 0 74.73 75.329">
  <g id="Grupo_1178262" data-name="Grupo 1178262" transform="translate(-645.619 -592.485)">
    <path id="Trazado_995233" data-name="Trazado 995233" d="M676.108,652.167H647.64c-1.736,0-2.02-.282-2.02-2.005q0-22.2,0-44.4c0-1.723.283-2,2.021-2.009q2-.009,4.007-.024a1.923,1.923,0,0,0,.344-.1c0-1.52,0-3.09,0-4.659,0-.949-.014-1.9,0-2.848.022-1.116.42-1.525,1.536-1.529,3.34-.013,6.68-.005,10.019-.005q7.014,0,14.027,0c1.493,0,1.8.3,1.8,1.782,0,2.416,0,4.833,0,7.387h1.239c1.863,0,3.729-.052,5.589.021a1.545,1.545,0,0,0,1.846-1.166,5.033,5.033,0,0,1,4.85-3.421c1.614-.079,3.236-.086,4.85-.019a7.65,7.65,0,0,0,3.456-.712c4.407-1.921,8.834-3.8,13.253-5.692,1.518-.651,2.257-.16,2.262,1.513,0,1.512.025,3.024-.01,4.535a1.232,1.232,0,0,0,.7,1.25,5.58,5.58,0,0,1-.088,9.877c-.625.351-.6.766-.6,1.283q0,19.353,0,38.707c0,2.01-.228,2.24-2.224,2.24H686.2a10.212,10.212,0,0,0,3.165,7,1.949,1.949,0,0,0,1.222.411c2.179.04,4.359.011,6.539.022,1.236.007,1.636.409,1.645,1.648.013,1.687.016,3.375,0,5.062-.012,1.144-.375,1.5-1.537,1.5q-16.084.008-32.168,0c-1.136,0-1.512-.383-1.521-1.52q-.022-2.584,0-5.168c.011-1.087.443-1.514,1.555-1.522,2.215-.017,4.43.026,6.644-.031a2.185,2.185,0,0,0,1.363-.557A10.062,10.062,0,0,0,676.108,652.167Zm38.06-11.244a5.665,5.665,0,0,0,.08-.654c0-7.489-.007-14.977.022-22.466,0-.71-.4-.885-.893-1.095q-3.973-1.688-7.943-3.385c-1.44-.613-2.882-1.22-4.476-1.894,0,1.337,0,2.487,0,3.637,0,1.663-.253,1.917-1.873,1.921q-1.9,0-3.8,0c-1.549,0-1.892-.351-1.9-1.937-.007-1.395,0-2.79,0-4.154-3.5-.615-4.288-1.23-5.647-4.195a1.143,1.143,0,0,0-.864-.485c-1.686-.047-3.375-.023-5.062-.023H679.38c0,2.678.01,5.171,0,7.665-.007,1.113-.422,1.557-1.526,1.559q-12.129.018-24.259,0c-1.15,0-1.585-.456-1.594-1.615-.016-2.145,0-4.289-.007-6.434,0-.371-.032-.742-.05-1.118h-3.8v34.671ZM648.1,649.649h66.071v-6.232H648.1Zm28.756-52.61h-22.3V612.9h22.3Zm-10.81,68.344h30.24v-3.22h-30.24Zm43.2-53.093V597.656c-2.706,1.155-5.309,2.248-7.887,3.4-.217.1-.372.559-.38.857a42.086,42.086,0,0,1-.054,4.309c-.256,1.944.4,2.976,2.3,3.574C705.244,610.426,707.155,611.405,709.244,612.289Zm-10.763-3.976v-6.559c-2.151,0-4.226-.154-6.265.051-1.481.149-2.394,1.813-2.261,3.452a3.075,3.075,0,0,0,2.7,3.031C694.573,608.39,696.5,608.314,698.481,608.314Zm-19.919,43.893a13.49,13.49,0,0,1-2.6,7.307h10.418a13.69,13.69,0,0,1-2.67-7.307Zm35.626-56.633a13.277,13.277,0,0,0-1.81.774,1.327,1.327,0,0,0-.619.9c-.038,5.157-.032,10.315-.012,15.473a1.015,1.015,0,0,0,.357.773,22.507,22.507,0,0,0,2.084.9ZM698.5,614.487v-3.609h-2.584v3.609ZM716.8,602.657v4.54C718.235,606.023,718.26,604.135,716.8,602.657Z" transform="translate(0 0)" fill="#fff3ea"/>
    <path id="Trazado_995234" data-name="Trazado 995234" d="M690.98,722.1q6.641,0,13.282,0c1.66,0,1.919.254,1.919,1.872q0,7.537,0,15.074c0,1.43-.294,1.724-1.731,1.725q-13.44.006-26.88,0c-1.381,0-1.744-.368-1.745-1.749q-.007-7.589,0-15.179c0-1.359.387-1.738,1.768-1.74Q684.287,722.089,690.98,722.1Zm-12.626,16.2H703.7V725.942c-.39.285-.675.479-.944.692q-4.826,3.832-9.648,7.668c-1.59,1.263-2.564,1.266-4.131.019q-4.494-3.573-8.988-7.146c-.5-.4-1.022-.775-1.638-1.241Zm2.269-13.733,10.409,8.27,10.408-8.27Z" transform="translate(-23.83 -102.269)" fill="#fff3ea"/>
    <path id="Trazado_995235" data-name="Trazado 995235" d="M850.665,748.2q-5.058,0-10.115,0c-1.481,0-1.781-.306-1.782-1.793q-.005-6.586,0-13.171c0-1.4.329-1.72,1.748-1.72q10.22,0,20.441,0c1.432,0,1.716.281,1.719,1.74q.012,6.638,0,13.276c0,1.382-.3,1.664-1.684,1.667C857.548,748.206,854.107,748.2,850.665,748.2Zm9.575-14.235H841.258v11.767H860.24Z" transform="translate(-152.4 -109.7)" fill="#fff3ea"/>
    <path id="Trazado_995236" data-name="Trazado 995236" d="M784.506,843.146c2.105,0,4.21-.006,6.315,0,1.083,0,1.665.425,1.611,1.2-.071,1.014-.781,1.195-1.641,1.192-4.21-.01-8.42,0-12.63-.007-1.119,0-1.618-.386-1.589-1.213.038-1.065.773-1.184,1.619-1.18C780.3,843.154,782.4,843.146,784.506,843.146Z" transform="translate(-103.326 -197.78)" fill="#fff3ea"/>
    <path id="Trazado_995237" data-name="Trazado 995237" d="M718.293,629.243c0-1.509-.023-3.018.007-4.526.029-1.392.9-1.9,2.111-1.21q3.889,2.2,7.745,4.46c1.27.744,1.272,1.745.021,2.473q-3.863,2.247-7.75,4.452c-1.28.725-2.1.25-2.128-1.228S718.292,630.717,718.293,629.243Zm2.486-2.712v5.351l4.654-2.665Z" transform="translate(-57.336 -24.238)" fill="#fff3ea"/>
    <path id="Trazado_995238" data-name="Trazado 995238" d="M888.352,757.91c-.314-.023-.715.068-.923-.093a2.4,2.4,0,0,1-.963-1.148c-.137-.662.357-1.106,1.048-1.178.451-.047.911-.018,1.367-.02.817,0,1.382.337,1.4,1.208.021.841-.551,1.146-1.3,1.2-.209.016-.421,0-.631,0Z" transform="translate(-190.021 -128.598)" fill="#fff3ea"/>
    <path id="Trazado_995239" data-name="Trazado 995239" d="M861.629,755.391c.28,0,.648-.113.823.023.422.329.986.742,1.046,1.183.046.335-.524.929-.947,1.108a3.908,3.908,0,0,1-1.658.071,1.094,1.094,0,0,1-1.183-1.19c.019-.816.5-1.184,1.289-1.205.21-.006.42,0,.631,0Z" transform="translate(-168.927 -128.506)" fill="#fff3ea"/>
  </g>
</svg>
