<svg xmlns="http://www.w3.org/2000/svg" width="81.046" height="85.132" viewBox="0 0 81.046 85.132">
  <g id="Grupo_1178000" data-name="Grupo 1178000" transform="translate(-633.019 -587.782)">
    <path id="Trazado_994707" data-name="Trazado 994707" d="M656.223,587.782h4.8c.252.862.293,47.039.041,48.213l-1.409.13a15.251,15.251,0,0,1,2.432,7.955,14.365,14.365,0,0,1-2.357,8.07,14.833,14.833,0,0,1-6.382,5.377c0,1.273,0,2.5,0,3.729-.008,2.077.036,4.156-.048,6.23a5.42,5.42,0,0,1-3.1,4.787,5.646,5.646,0,0,1-8.231-4.6c-.126-2.841-.041-5.692-.049-8.539,0-.5,0-1,0-1.534-.559-.308-1.095-.593-1.62-.9a13.388,13.388,0,0,1-4.845-4.676c-.477-.786-.976-1.222-1.9-1.066a2.169,2.169,0,0,1-.526-.061V587.839h8.3v43.218l4.934-1.365V587.837h4.986v42.225l4.979,2.356ZM658.3,644.43a10.681,10.681,0,0,0-21.357-.3,10.68,10.68,0,1,0,21.357.3Z" fill="#122253"/>
    <path id="Trazado_994708" data-name="Trazado 994708" d="M777.277,587.809h15.277v48.074c-.75.247-13.838.321-15.277.064Z" transform="translate(-110.981 -0.021)" fill="#122253"/>
    <path id="Trazado_994709" data-name="Trazado 994709" d="M898.986,587.864h9.8v48.175h-9.8Z" transform="translate(-204.615 -0.063)" fill="#122253"/>
    <path id="Trazado_994710" data-name="Trazado 994710" d="M963.658,587.818h4.776v63.11h-4.776Z" transform="translate(-254.369 -0.028)" fill="#122253"/>
    <path id="Trazado_994711" data-name="Trazado 994711" d="M863.411,587.865H866.9v48.262h-3.488Z" transform="translate(-177.247 -0.064)" fill="#122253"/>
    <path id="Trazado_994712" data-name="Trazado 994712" d="M781.362,818.469a4.716,4.716,0,0,1,.86,1.031,4.859,4.859,0,0,1,.42,1.755,2.55,2.55,0,0,1-1.811,2.547,3.935,3.935,0,0,1-4.036-.458,2.735,2.735,0,0,1-.846-3.131,9.225,9.225,0,0,1,1.072-1.737,2.853,2.853,0,0,0-.21-.3,2.436,2.436,0,0,1,1.114-4.055,5.128,5.128,0,0,1,2.475-.059A2.467,2.467,0,0,1,781.362,818.469Zm-2.148.97a1.441,1.441,0,0,0-1.4,1.614,1.371,1.371,0,0,0,1.458,1.419c.906-.012,1.4-.592,1.366-1.595A1.344,1.344,0,0,0,779.214,819.44Zm.021-1.531a1.2,1.2,0,0,0,1.256-1.2,1.147,1.147,0,0,0-1.227-1.2,1.063,1.063,0,0,0-1.218,1.175A1.108,1.108,0,0,0,779.235,817.909Z" transform="translate(-109.823 -173.986)" fill="#122253"/>
    <path id="Trazado_994713" data-name="Trazado 994713" d="M920.778,815.916c-.836.075-1.6.293-2.245-.6-.411-.573-1.5-.3-1.851.392a15.168,15.168,0,0,0-.647,1.968c.453-.23.66-.346.876-.443a2.915,2.915,0,0,1,4.117,2.331,5.416,5.416,0,0,1-.055,1.6,2.913,2.913,0,0,1-2.555,2.45,3.154,3.154,0,0,1-3.564-1.7,3.976,3.976,0,0,1-.317-.862,9.127,9.127,0,0,1,.348-5.753,3.286,3.286,0,0,1,4.87-1.333A2.016,2.016,0,0,1,920.778,815.916Zm-3.041,6.126c.859,0,1.405-.682,1.39-1.738a1.483,1.483,0,1,0-2.929-.047A1.667,1.667,0,0,0,917.737,822.042Z" transform="translate(-216.348 -173.55)" fill="#122253"/>
    <path id="Trazado_994714" data-name="Trazado 994714" d="M873.527,821.962h3.966v1.6h-6.676a4,4,0,0,1,1.331-3.055c.812-.7,1.653-1.376,2.493-2.046a2.135,2.135,0,0,0,.885-1.785,1.25,1.25,0,0,0-1.175-1.328,1.219,1.219,0,0,0-1.441,1c-.061.218-.078.448-.128.752h-1.674c-.483-2.307,1.565-4.018,4.2-3.27a3.105,3.105,0,0,1,1.459,5.089,13.281,13.281,0,0,1-1.661,1.412c-.558.448-1.132.875-1.7,1.312Z" transform="translate(-182.944 -173.771)" fill="#122253"/>
    <path id="Trazado_994715" data-name="Trazado 994715" d="M825.434,813.951v6.077l1.086.217c.019.4.038.811.06,1.292l-1.113.239v1.96H823.6c-.03-.633-.06-1.268-.1-2.015H819.78a3.161,3.161,0,0,1,.331-2.6c.9-1.383,1.792-2.779,2.563-4.235a1.6,1.6,0,0,1,1.838-.981C824.769,813.94,825.033,813.932,825.434,813.951Zm-1.937,2.43-.212-.043-2.158,3.724h2.37Z" transform="translate(-143.581 -173.941)" fill="#122253"/>
    <path id="Trazado_994716" data-name="Trazado 994716" d="M679.673,802.419c.1.083.267.233.444.375a5.031,5.031,0,0,1,1.817,5.053,4.911,4.911,0,0,1-3.563,4,7.934,7.934,0,0,1-4.985.027,5.122,5.122,0,0,1-3.419-6.015,4.741,4.741,0,0,1,2.257-3.308,13.136,13.136,0,0,1-1.46-2.216,4.337,4.337,0,0,1,2.92-5.826A7.914,7.914,0,0,1,678,794.45a4.4,4.4,0,0,1,3.083,6.035A10.008,10.008,0,0,1,679.673,802.419Zm-3.7,1.576a2.361,2.361,0,0,0-2.536,2.612c0,1.515.822,2.823,2.5,2.8,1.949-.03,2.483-1.232,2.536-2.764A2.31,2.31,0,0,0,675.973,803.995Zm2.154-4.918a2.016,2.016,0,0,0-2.19-2.129,2.168,2.168,0,1,0,.083,4.333A1.99,1.99,0,0,0,678.127,799.076Z" transform="translate(-28.327 -158.787)" fill="#122253"/>
  </g>
</svg>
