<svg xmlns="http://www.w3.org/2000/svg" width="101.365" height="61.066" viewBox="0 0 101.365 61.066">
  <g id="Grupo_1177939" data-name="Grupo 1177939" transform="translate(-547.663 -630.091)">
    <path id="Trazado_994650" data-name="Trazado 994650" d="M605.85,646.84c.594,0,.954-.009,1.315,0a4.688,4.688,0,0,1,4.868,4.916c.021,3,.013,6,0,9a4.672,4.672,0,0,1-4.571,5.07c-.49.051-.983.081-1.615.132,0,.689,0,1.315,0,1.943,0,3.636.019,7.272-.011,10.907a3.719,3.719,0,0,1-2.722,3.79,3.778,3.778,0,0,1-4.989-3.332,1.643,1.643,0,0,0-1.332-1.7q-8.915-3.364-17.789-6.832a2.543,2.543,0,0,0-2.295.025,4.046,4.046,0,0,1-5.347-1.876,5.865,5.865,0,0,0-.83-.925,4.449,4.449,0,0,0-.71,1.077,12.9,12.9,0,0,0,.092,7.522c.618,2.039,1.414,4.023,2.074,6.049a15.713,15.713,0,0,1,.652,2.775,4.738,4.738,0,0,1-4.208,5.387,36.931,36.931,0,0,1-5.983.036c-3.151-.239-4.976-1.966-5.533-5.067a19.967,19.967,0,0,1-.262-3.388q-.04-6.817.005-13.634a1.763,1.763,0,0,0-.861-1.791,5.053,5.053,0,0,1-2.261-3.97c-.8,0-1.52.022-2.236,0a3.266,3.266,0,0,1-3.363-3.366c-.048-2.089-.031-4.181-.008-6.271a3.389,3.389,0,0,1,3.285-3.641c.718-.087,1.448-.076,2.249-.114l.264-.878a5.41,5.41,0,0,1,5.362-4.021c3.907-.023,7.815-.006,11.813-.006.1-.211.212-.444.328-.674a4.2,4.2,0,0,1,5.654-2.019,2.345,2.345,0,0,0,2.041.026q8.821-3.418,17.672-6.76c.906-.342,1.474-.7,1.571-1.844a3.608,3.608,0,0,1,4.049-3.028,3.55,3.55,0,0,1,3.593,3.538c.069,3.725.03,7.453.035,11.179C605.851,645.608,605.85,646.144,605.85,646.84Zm-7.878,28.65V637.215l-18.744,7.237v23.856ZM570.825,665.6V647.109c-4.179,0-8.26-.05-12.339.026A2.78,2.78,0,0,0,555.924,650c-.025,1.177-.023,2.354-.016,3.531.017,2.859.089,5.719.055,8.578-.026,2.21,1.015,3.439,3.212,3.48,2.18.041,4.361.01,6.542.011Zm29.58-8.953H600.4q0,9.467,0,18.934c0,1.133-.034,2.269.046,3.4a1.384,1.384,0,0,0,1.525,1.4,1.5,1.5,0,0,0,1.555-1.406,2.817,2.817,0,0,0,.02-.544q0-21.862,0-43.725c0-1.329-.659-2.112-1.641-2.057-.938.052-1.5.835-1.5,2.075Q600.407,645.689,600.4,656.65ZM567.681,668h-8.615v13.576h10.028C567.38,677.142,565.967,672.786,567.681,668Zm5.615-11.75h-.017q0,4.7,0,9.4c0,.454-.012.91.021,1.362a1.718,1.718,0,0,0,1.859,1.73,1.644,1.644,0,0,0,1.681-1.755c.038-2.362.017-4.724.017-7.086q0-6.541,0-13.082c0-.363.016-.728-.008-1.09a1.873,1.873,0,0,0-1.79-1.855,1.814,1.814,0,0,0-1.753,1.881C573.279,649.256,573.3,652.754,573.3,656.252Zm32.642,7.039c2.356.432,3.6-.25,3.641-2.076.064-3.086.089-6.177,0-9.262-.072-2.393-1.189-3.09-3.638-2.479Zm-46.772,20.746c-.1,2.092.728,3.744,2.229,4.137a14.851,14.851,0,0,0,6.854.165c1.628-.342,2.175-1.221,1.977-2.845-.059-.481-.208-.951-.322-1.457Zm-5.7-31.919c-.531-.033-.889-.072-1.247-.075-1.694-.018-1.884.165-1.889,1.82-.005,1.581,0,3.163,0,4.744,0,1.933.231,2.152,2.2,2.063a7.825,7.825,0,0,0,.935-.157Z" transform="translate(0 0)" fill="#122253" stroke="#e8ebf3" stroke-width="0.5"/>
    <path id="Trazado_994651" data-name="Trazado 994651" d="M793.453,687.616c-1.557.414-2.952.794-4.351,1.154-.67.173-1.356.325-1.858-.37-.483-.67-.034-1.2.281-1.741,1.751-3.025,3.468-6.071,5.281-9.058a1.466,1.466,0,0,0-.09-1.906,14.8,14.8,0,1,1,24.629-16.407c3.328,5.435,3.213,10.938-.265,16.284a1.75,1.75,0,0,0-.014,2.177c1.742,2.924,3.453,5.868,5.158,8.815.331.572.815,1.157.279,1.872-.52.693-1.209.49-1.868.32-1.4-.362-2.8-.751-4.3-1.158-.4,1.5-.784,2.892-1.124,4.294-.169.7-.373,1.384-1.164,1.5-.81.124-1.181-.524-1.529-1.129-1.767-3.068-3.565-6.119-5.289-9.211a2.056,2.056,0,0,0-1.916-1.083,2.909,2.909,0,0,0-3.253,1.9c-1.4,2.694-3.006,5.286-4.527,7.919a3.319,3.319,0,0,1-.574.917c-.357.3-.889.73-1.218.64a1.825,1.825,0,0,1-1.019-1.087C794.246,690.807,793.9,689.306,793.453,687.616ZM792.439,667.3a12.451,12.451,0,0,0,24.9-.19,12.451,12.451,0,0,0-24.9.19Zm16.7,14.367,4.2,7.3a2.26,2.26,0,0,0,.22-.372c.177-.655.331-1.315.518-1.967.457-1.6.841-1.83,2.445-1.467.765.173,1.521.383,2.559.648l-4.235-7.261ZM796.4,689.071l4.241-7.388-5.708-3.133-4.207,7.277c1.271-.321,2.18-.575,3.1-.775a1.275,1.275,0,0,1,1.714,1.061C795.759,687.026,796.058,687.919,796.4,689.071Z" transform="translate(-173.93 -16.085)" fill="#122253" stroke="#e8ebf3" stroke-width="0.5"/>
    <path id="Trazado_994652" data-name="Trazado 994652" d="M590.987,739.906h3.665c.82,0,1.474.272,1.463,1.206s-.661,1.2-1.48,1.2c-2.488,0-4.977.017-7.466-.006-1.077-.01-1.6-.471-1.531-1.281.082-.948.751-1.129,1.548-1.126C588.453,739.909,589.72,739.905,590.987,739.906Z" transform="translate(-27.438 -79.689)" fill="#122253" stroke="#e8ebf3" stroke-width="0.5"/>
    <path id="Trazado_994653" data-name="Trazado 994653" d="M590.887,723.643c-1.227,0-2.454-.005-3.681,0-.8.005-1.5-.151-1.536-1.125s.611-1.242,1.429-1.245c2.545-.01,5.091-.026,7.635.007.984.013,1.483.507,1.411,1.27-.082.869-.676,1.095-1.441,1.092C593.432,723.638,592.16,723.642,590.887,723.643Z" transform="translate(-27.464 -66.129)" fill="#122253" stroke="#e8ebf3" stroke-width="0.5"/>
    <path id="Trazado_994654" data-name="Trazado 994654" d="M590.961,702.8c1.271,0,2.543,0,3.815,0,.8,0,1.33.329,1.351,1.179.019.812-.538,1.14-1.238,1.146q-4.018.039-8.038,0c-.714-.007-1.234-.356-1.207-1.168.029-.868.573-1.158,1.366-1.154C588.327,702.8,589.644,702.8,590.961,702.8Z" transform="translate(-27.446 -52.697)" fill="#122253" stroke="#e8ebf3" stroke-width="0.5"/>
    <path id="Trazado_994655" data-name="Trazado 994655" d="M835.3,679.179a10.359,10.359,0,1,1-10.478-10.28A10.407,10.407,0,0,1,835.3,679.179ZM824.873,687.2a7.973,7.973,0,1,0-7.953-8A7.978,7.978,0,0,0,824.873,687.2Z" transform="translate(-193.97 -28.042)" fill="#122253" stroke="#e8ebf3" stroke-width="0.5"/>
    <path id="Trazado_994656" data-name="Trazado 994656" d="M837.287,697.582c1.57-1.667,2.838-3.018,4.11-4.364.249-.263.5-.521.774-.763a1.115,1.115,0,0,1,1.69-.018,1.037,1.037,0,0,1-.053,1.656q-1.527,1.547-3.057,3.091-1.148,1.158-2.3,2.314a1.235,1.235,0,0,1-1.82.192,21.076,21.076,0,0,1-2.575-2.6,1.565,1.565,0,0,1,.087-1.423.944.944,0,0,1,1.534-.124A24.461,24.461,0,0,1,837.287,697.582Z" transform="translate(-208.037 -44.887)" fill="#122253" stroke="#e8ebf3" stroke-width="0.5"/>
  </g>
</svg>
