<svg xmlns="http://www.w3.org/2000/svg" width="79.778" height="79.601" viewBox="0 0 79.778 79.601">
  <g id="Grupo_1178004" data-name="Grupo 1178004" transform="translate(-639.614 -561.296)">
    <path id="Trazado_994729" data-name="Trazado 994729" d="M696.556,609.845v1.4q0,12.824-.012,25.647a5.508,5.508,0,0,1-.277,1.8,2.461,2.461,0,0,1-2.194,1.674,10.726,10.726,0,0,1-1.189.035q-18.933,0-37.865,0c-.325,0-.65.007-.973-.015a2.716,2.716,0,0,1-2.638-2.523,10.066,10.066,0,0,1-.021-1.081q0-12.77,0-25.539V609.9c-.446-.02-.8-.05-1.146-.05-2.885,0-5.77,0-8.655,0-1.228,0-1.471-.239-1.471-1.444q-.006-17.8,0-35.6c0-1.17.2-1.369,1.412-1.374,2.849-.012,5.7,0,8.547,0h1.242c.028-.4.067-.715.068-1.026.006-1.8-.006-3.607.005-5.411.013-2.078,1.071-3.176,3.112-3.177q19.473-.012,38.947,0a2.863,2.863,0,0,1,3.1,3.107c.026,1.767.006,3.535.006,5.3,0,.356,0,.712,0,1.2h20.4c.325,0,.65,0,.973.016a.9.9,0,0,1,.953.953c.011.252.006.505.006.758q0,17.477,0,34.954c0,.253.006.505-.008.757a.947.947,0,0,1-.949.977c-.286.027-.577.013-.865.013H696.556Zm-2.007,19.039V573.316h-41.2v55.568Zm2.062-52.448c.913,0,1.735-.013,2.556,0,1.072.021,1.319.271,1.326,1.368.012,1.875,0,3.75,0,5.625q0,7.518,0,15.035c0,1.51-.15,1.653-1.689,1.659-.712,0-1.423,0-2.176,0v2.093c.461,0,.851,0,1.241,0,.577,0,1.155-.018,1.729.021a.859.859,0,0,1,.862.923.827.827,0,0,1-.816.85c-.465.044-.935.036-1.4.041-.53.006-1.06,0-1.624,0v3.781h20.306V573.314H696.612Zm-1.978-5.071c0-2.271.018-4.432-.009-6.592-.01-.81-.31-1.052-1.148-1.094-.288-.014-.577,0-.865,0H661.576c-2.271,0-4.542-.005-6.813,0-1.312,0-1.48.18-1.486,1.52-.006,1.478,0,2.957,0,4.435v1.734Zm0,59.518H653.28c0,2.266,0,4.459,0,6.652,0,.67.384.975,1.016,1.01.288.016.577.011.865.011H692.7c.289,0,.579.016.865-.009.763-.066,1.054-.319,1.064-1.081C694.651,635.307,694.633,633.147,694.633,630.883ZM651.3,607.865V573.324h-9.242v34.541Zm47.174-9.621V578.338h-1.821v19.907Z" fill="#122253" stroke="#122253" stroke-width="1"/>
    <path id="Trazado_994730" data-name="Trazado 994730" d="M740.177,667.071q0,3.731,0,7.462c0,1.338-.181,1.525-1.473,1.53-1.73.007-3.46.012-5.189,0-1.076-.009-1.328-.262-1.33-1.355q-.012-7.678,0-15.356c0-1.2.246-1.427,1.483-1.434q2.541-.015,5.081,0c1.211.009,1.425.233,1.428,1.477C740.181,661.953,740.176,664.512,740.177,667.071Zm-1.93,7.049V659.868h-4.094v14.252Z" transform="translate(-72.145 -75.316)" fill="#122253" stroke="#122253" stroke-width="1"/>
    <path id="Trazado_994731" data-name="Trazado 994731" d="M835.22,667.068c0,2.489,0,4.977,0,7.466,0,1.3-.218,1.516-1.5,1.522-1.695.007-3.39.01-5.084,0-1.123-.007-1.407-.282-1.409-1.408q-.012-7.683,0-15.365c0-1.059.3-1.36,1.349-1.37q2.65-.026,5.3,0c1.049.01,1.34.307,1.344,1.366C835.227,661.874,835.219,664.471,835.22,667.068Zm-6.021-7.242v14.287h4.02V659.825Z" transform="translate(-146.62 -75.308)" fill="#122253" stroke="#122253" stroke-width="1"/>
    <path id="Trazado_994732" data-name="Trazado 994732" d="M792.947,666.965q0-3.728,0-7.456c0-1.385.2-1.586,1.538-1.6.972-.007,1.945-.013,2.917,0,1.085.017,1.4.328,1.4,1.437q.013,7.672,0,15.345c0,1.046-.319,1.348-1.353,1.363s-2.089.013-3.133,0c-1.157-.014-1.365-.225-1.369-1.423C792.941,672.079,792.947,669.522,792.947,666.965Zm3.867,7.16V659.883h-1.905v14.241Z" transform="translate(-119.765 -75.313)" fill="#122253" stroke="#122253" stroke-width="1"/>
    <path id="Trazado_994733" data-name="Trazado 994733" d="M748.689,824.9c-.937,0-1.874.017-2.81,0-.888-.021-1.161-.272-1.174-1.177q-.04-2.81,0-5.621c.012-.9.291-1.18,1.169-1.192q2.809-.038,5.62,0c.87.012,1.178.317,1.19,1.185q.04,2.81,0,5.621c-.013.873-.323,1.162-1.185,1.184C750.562,824.918,749.625,824.9,748.689,824.9Zm2.072-1.937v-4.071h-4.143v4.071Z" transform="translate(-81.948 -199.896)" fill="#122253" stroke="#122253" stroke-width="1"/>
    <path id="Trazado_994734" data-name="Trazado 994734" d="M776.763,667.095q0-3.679,0-7.358a4.692,4.692,0,0,1,.057-.968.769.769,0,0,1,.947-.667,1.663,1.663,0,0,1,.785.738c.117.183.047.491.047.743q0,7.575,0,15.149a5.406,5.406,0,0,1-.022.648.817.817,0,0,1-.864.791.832.832,0,0,1-.909-.747,5.327,5.327,0,0,1-.041-.862Q776.76,670.828,776.763,667.095Z" transform="translate(-107.084 -75.446)" fill="#122253" stroke="#122253" stroke-width="1"/>
    <path id="Trazado_994735" data-name="Trazado 994735" d="M800.828,824.791c-1.4,0-2.805,0-4.208,0a1.7,1.7,0,0,1-.843-.076,1.6,1.6,0,0,1-.681-.833c-.115-.479.236-.807.711-.914a3.473,3.473,0,0,1,.751-.042q4.261,0,8.523,0c1.074,0,1.514.291,1.5.953s-.442.908-1.544.912C803.633,824.8,802.231,824.791,800.828,824.791Z" transform="translate(-121.434 -204.625)" fill="#122253" stroke="#122253" stroke-width="1"/>
    <path id="Trazado_994736" data-name="Trazado 994736" d="M800.981,841.113c-1.439,0-2.878,0-4.317,0a1.673,1.673,0,0,1-.841-.09,1.258,1.258,0,0,1-.579-.791,1.183,1.183,0,0,1,.494-.845,1.738,1.738,0,0,1,.934-.151c2.842-.01,5.684-.006,8.526-.006.144,0,.289-.006.431.007.72.066,1.078.385,1.078.95s-.367.908-1.087.919c-1.547.023-3.094.007-4.641.007Z" transform="translate(-121.567 -217.403)" fill="#122253" stroke="#122253" stroke-width="1"/>
    <path id="Trazado_994737" data-name="Trazado 994737" d="M860.007,631.747c-.854,0-1.568.018-2.281,0-.8-.026-1.207-.368-1.2-.951s.417-.924,1.209-.94c.972-.021,1.946-.024,2.918,0,.889.023,1.179.3,1.2,1.16.027,1.008.022,2.018,0,3.027-.015.761-.4,1.209-.95,1.186-.512-.021-.861-.439-.888-1.149S860.007,632.639,860.007,631.747Z" transform="translate(-169.586 -53.317)" fill="#122253" stroke="#122253" stroke-width="1"/>
    <path id="Trazado_994738" data-name="Trazado 994738" d="M713.593,631.753c0,.86.017,1.575,0,2.289-.023.782-.385,1.218-.943,1.192-.515-.024-.876-.449-.891-1.145-.024-1.046-.03-2.093,0-3.139.024-.741.332-1.058,1.064-1.083,1.081-.036,2.164-.019,3.246,0a.919.919,0,0,1,1.01.909c.046.559-.343.937-1.052.972C715.273,631.781,714.516,631.753,713.593,631.753Z" transform="translate(-56.127 -53.327)" fill="#122253" stroke="#122253" stroke-width="1"/>
    <path id="Trazado_994739" data-name="Trazado 994739" d="M860.034,772.029c0-.848-.014-1.525,0-2.2.024-.92.307-1.276.958-1.257.613.018.875.353.889,1.209.016.969.021,1.939,0,2.907-.021.87-.246,1.122-1.067,1.145-1.076.03-2.153,0-3.23.008a.883.883,0,0,1-1.02-.863c-.05-.568.328-.916,1.046-.942C858.357,772.007,859.106,772.029,860.034,772.029Z" transform="translate(-169.616 -162.034)" fill="#122253" stroke="#122253" stroke-width="1"/>
    <path id="Trazado_994740" data-name="Trazado 994740" d="M713.587,772.03c.915,0,1.664-.021,2.411.006s1.086.347,1.079.917-.351.868-1.106.884c-1.041.022-2.084.026-3.124,0-.794-.021-1.064-.263-1.09-1.019-.036-1.076-.032-2.156,0-3.233.021-.7.39-1.048.979-1.006.636.045.847.459.85,1.03C713.591,770.357,713.587,771.107,713.587,772.03Z" transform="translate(-56.124 -162.036)" fill="#122253" stroke="#122253" stroke-width="1"/>
    <path id="Trazado_994741" data-name="Trazado 994741" d="M831.26,753.1c-.938,0-1.876.017-2.813-.006-.7-.017-1.118-.382-1.114-.911a1.014,1.014,0,0,1,1.116-.931q2.867-.036,5.734,0c.7.01,1.107.407,1.109.933s-.4.891-1.111.908C833.208,753.12,832.234,753.1,831.26,753.1Z" transform="translate(-146.712 -148.45)" fill="#122253" stroke="#122253" stroke-width="1"/>
    <path id="Trazado_994742" data-name="Trazado 994742" d="M736.139,753.1c-.9,0-1.8,0-2.7,0-.6,0-1.085-.159-1.162-.845-.065-.574.374-1,1.128-1.007q2.7-.04,5.4,0c.716.011,1.1.372,1.113.913.015.591-.377.915-1.186.932C737.866,753.112,737,753.1,736.139,753.1Z" transform="translate(-72.221 -148.445)" fill="#122253" stroke="#122253" stroke-width="1"/>
    <path id="Trazado_994743" data-name="Trazado 994743" d="M795.957,753.152c-.646,0-1.292.014-1.937-.006a.842.842,0,0,1-.928-.84.861.861,0,0,1,.909-.98c1.326-.034,2.654-.025,3.981,0a.858.858,0,0,1,.886.9.875.875,0,0,1-.972.921C797.249,753.157,796.6,753.153,795.957,753.152Z" transform="translate(-119.879 -148.504)" fill="#122253" stroke="#122253" stroke-width="1"/>
    <path id="Trazado_994744" data-name="Trazado 994744" d="M777.741,751.455a.87.87,0,0,1,.933.9.84.84,0,0,1-.859.9.9.9,0,0,1-.075-1.8Z" transform="translate(-107.175 -148.622)" fill="#122253" stroke="#122253" stroke-width="1"/>
    <path id="Trazado_994745" data-name="Trazado 994745" d="M927.832,641.293q0-5.136,0-10.272c0-1.466.13-1.588,1.624-1.592,1.225,0,2.45-.017,3.675.007.874.017,1.137.294,1.206,1.171.017.215.005.432.005.648q0,10,0,20c0,.252.016.507-.009.756-.079.8-.35,1.082-1.167,1.1q-2.053.037-4.107,0c-.985-.015-1.212-.238-1.221-1.225-.019-2.018-.007-4.037-.007-6.055Q927.832,643.564,927.832,641.293Zm4.539,9.951V631.3h-2.625v19.939Z" transform="translate(-225.464 -52.993)" fill="#122253" stroke="#122253" stroke-width="1"/>
    <path id="Trazado_994746" data-name="Trazado 994746" d="M971.273,640.561q0,5.139,0,10.278a2.062,2.062,0,0,1-.069.955,1.517,1.517,0,0,1-.84.67.764.764,0,0,1-.931-.689,4.364,4.364,0,0,1-.044-.862q0-10.332,0-20.664a4.573,4.573,0,0,1,.04-.862.855.855,0,0,1,.921-.742.841.841,0,0,1,.889.775,5.114,5.114,0,0,1,.033.863Q971.274,635.422,971.273,640.561Z" transform="translate(-258.03 -52.385)" fill="#122253" stroke="#122253" stroke-width="1"/>
    <path id="Trazado_994747" data-name="Trazado 994747" d="M931.13,748.611c.753,0,1.506,0,2.259,0a.866.866,0,0,1,.98.9.852.852,0,0,1-.965.914c-1.47.01-2.94.031-4.409,0-.739-.016-1.074-.372-1.041-.947.031-.552.392-.843,1.134-.865.681-.02,1.362,0,2.044,0Z" transform="translate(-225.56 -146.386)" fill="#122253" stroke="#122253" stroke-width="1"/>
    <path id="Trazado_994748" data-name="Trazado 994748" d="M970.434,750.463a.847.847,0,0,1-.937-.813.906.906,0,0,1,.9-.975.891.891,0,0,1,.933.935A.836.836,0,0,1,970.434,750.463Z" transform="translate(-258.112 -146.443)" fill="#122253" stroke="#122253" stroke-width="1"/>
    <path id="Trazado_994749" data-name="Trazado 994749" d="M666.123,640.5q0-5.193,0-10.386c0-1.083.285-1.511.961-1.486.64.024.917.433.918,1.437q.006,10.494,0,20.988c0,.285.044.654-.109.836a1.453,1.453,0,0,1-.921.542c-.26.006-.619-.321-.767-.592a2.132,2.132,0,0,1-.079-.954Q666.12,645.694,666.123,640.5Z" transform="translate(-20.376 -52.372)" fill="#122253" stroke="#122253" stroke-width="1"/>
    <path id="Trazado_994750" data-name="Trazado 994750" d="M668.1,749.59a.842.842,0,0,1-.834.877.892.892,0,1,1-.182-1.774A.919.919,0,0,1,668.1,749.59Z" transform="translate(-20.495 -146.454)" fill="#122253" stroke="#122253" stroke-width="1"/>
  </g>
</svg>
