<svg xmlns="http://www.w3.org/2000/svg" width="75.826" height="83.361" viewBox="0 0 75.826 83.361">
  <g id="Grupo_1178234" data-name="Grupo 1178234" transform="translate(-509.096 -601.633)">
    <path id="Trazado_995119" data-name="Trazado 995119" d="M547.074,601.633h35.679c1.818,0,2.163.345,2.163,2.176q0,12.815,0,25.63c0,1.821-.358,2.178-2.179,2.179-3.5,0-7,.027-10.5-.018a2.592,2.592,0,0,0-2.066.858c-2.243,2.292-2.287,2.3-4.553-.032a2.615,2.615,0,0,0-2.081-.822q-16.428.034-32.857-.007a2.737,2.737,0,0,0-2.451,1.017,8.583,8.583,0,0,1-1.116,1.116c-.665.6-1.5.691-1.989-.025-1.447-2.1-3.485-2.213-5.741-2.115-2.742.119-5.494.033-8.241.027-1.619,0-2.041-.406-2.041-1.975q-.007-13.041,0-26.082c0-1.516.422-1.926,1.956-1.926Q529.064,601.631,547.074,601.633Zm-35.254,27.336c2.931,0,5.751.026,8.57-.009,2.155-.026,4.385-.349,5.59,2.144a6.561,6.561,0,0,0,.807-.739,3.8,3.8,0,0,1,3.45-1.425q15.977.08,31.955.018c2.159,0,4.38-.331,5.594,2.16a9.3,9.3,0,0,0,.879-.84,3.406,3.406,0,0,1,3.149-1.335c1.838.106,3.687.027,5.531.027h4.812V604.317H511.819Z" transform="translate(0 0)" fill="#122253"/>
    <path id="Trazado_995120" data-name="Trazado 995120" d="M525.249,792.452c.306-2.146.281-2.108-1.347-3.145a12.585,12.585,0,0,1-6.285-10.941c-.061-4.365-.023-8.732-.01-13.1a5.319,5.319,0,0,1,5.2-5.428,4.18,4.18,0,0,0,1.776-.522,14.42,14.42,0,0,1,21.742,12.436c.017,3.689,0,7.377,0,11.066,0,1.211-.455,1.857-1.3,1.88s-1.328-.624-1.379-1.816c-.02-.466-.07-.931-.13-1.712-.612,1.354-1.021,2.422-1.561,3.42a12.452,12.452,0,0,1-4.592,4.717c-1.647,1-1.652,1-1.36,3.144,1.094,0,2.21,0,3.327,0a6.661,6.661,0,0,1,7,7.034q0,2.033,0,4.065c0,1.294-.477,1.965-1.36,1.946s-1.309-.682-1.314-2c-.006-1.581.03-3.163-.018-4.742a3.811,3.811,0,0,0-3.391-3.63,1.181,1.181,0,0,0-1.4.772q-2.029,4.216-4.2,8.363a2.448,2.448,0,0,1-1.336,1.183c-.974.241-1.662-.916-1.175-1.913,1.154-2.364,2.352-4.707,3.529-7.06.2-.4.38-.808.57-1.213l-.2-.317a7.49,7.49,0,0,0-1.586.833c-.932.816-1.77,1.74-2.651,2.614a1.431,1.431,0,0,1-2.332.007c-.907-.9-1.77-1.854-2.729-2.695a6.221,6.221,0,0,0-1.541-.736l-.191.3q1.758,3.525,3.516,7.05c.184.37.362.743.56,1.106a1.239,1.239,0,0,1-.5,1.908c-.859.452-1.454,0-1.838-.746-.878-1.7-1.721-3.426-2.578-5.141-.6-1.21-1.244-2.405-1.8-3.638a1.061,1.061,0,0,0-1.238-.682,3.8,3.8,0,0,0-3.51,3.632c-.049,1.655-.024,3.312-.013,4.968.006.935-.269,1.667-1.315,1.764-.851.079-1.379-.624-1.356-1.815a40.346,40.346,0,0,1,.234-5.955,6.324,6.324,0,0,1,6.414-5.258C522.783,792.434,523.984,792.452,525.249,792.452Zm-5.093-20.792c0,2.294-.087,4.627.018,6.95a10.5,10.5,0,0,0,7.731,9.612,10.089,10.089,0,0,0,11.334-4.278c2.854-4.9,3.218-8.709-2.213-11.146-.205-.092-.416-.172-.623-.263-2.534-1.113-5.222-.942-7.883-.9-2.1.033-4.162.035-5.635-1.613Zm23.5,2.867c0-.862,0-1.8,0-2.737a11.651,11.651,0,0,0-15.058-11.351,10.95,10.95,0,0,0-4.3,2.324c-.556.518-.162,2.077-.163,3.164,0,2.179.959,3.119,3.178,3.13q2.369.012,4.738,0a12.241,12.241,0,0,1,6.678,1.737C540.445,771.878,541.986,773.248,543.654,774.527Zm-15.5,16.589c-.851,2.462,1.265,3.293,2.471,4.727,1.26-1.444,3.318-2.336,2.483-4.727ZM520.2,768.51c1.319-.853,1.751-3.16,1.088-5.4C520.1,764.025,519.941,764.771,520.2,768.51Z" transform="translate(-4.519 -120.514)" fill="#122253"/>
    <path id="Trazado_995121" data-name="Trazado 995121" d="M704.635,796.765a15.508,15.508,0,0,0-.027-2.2,1.885,1.885,0,0,0-.61-1.174,12.939,12.939,0,0,1-5.89-11.408c.04-2.408,0-4.817.008-7.225a11.682,11.682,0,0,1,11.559-11.835c2.557-.062,5.118-.022,7.677-.007,1.229.007,1.578.387,1.588,1.651.009,1.2,0,2.4,0,3.64a6.6,6.6,0,0,1,4.788,4.13,7.782,7.782,0,0,1,.416,2.417c.051,2.6.03,5.193.016,7.789a12.327,12.327,0,0,1-5.183,10.27,2.615,2.615,0,0,0-1.343,2.763,8.244,8.244,0,0,1,.008,1.186c.776,0,1.472,0,2.169,0a7.961,7.961,0,0,1,8.338,8.289c0,1.016.014,2.032,0,3.048-.019,1.088-.557,1.777-1.371,1.7-.974-.094-1.3-.756-1.294-1.661.009-1.2.024-2.409-.006-3.612a5.1,5.1,0,0,0-5.112-5.089c-2.055-.039-4.123-.234-5.979,1.069a1.9,1.9,0,0,1-1.637-.2,2.564,2.564,0,0,0-3.2.032,1.664,1.664,0,0,1-2.083-.007c-2.209-1.4-4.645-1.081-6.992-.651a4.867,4.867,0,0,0-3.669,4.73c-.038,1.241-.018,2.483-.01,3.725.006.9-.32,1.62-1.293,1.648s-1.4-.655-1.365-1.569a30.317,30.317,0,0,1,.365-5.6,7.625,7.625,0,0,1,7.51-5.85C702.834,796.748,703.658,796.765,704.635,796.765Zm17.011-15.628c.447-1.359-.383-2.377-1.832-3.037-.481-.219-1.084-.6-1.5-.474-4.653,1.421-9.276,1.084-13.924,0a3.063,3.063,0,0,0-1.651.318,3.128,3.128,0,0,0-2.094,3.9,5.88,5.88,0,0,1,.015.9,10.455,10.455,0,0,0,14.537,9.294C719.749,790.049,721.668,786.326,721.646,781.137Zm-.1-4.79c.246-3.679-.812-5.014-4.051-5.615a1.248,1.248,0,0,1-1.1-1.44c.023-1.227.006-2.455.006-3.718-2.566,0-4.98-.153-7.368.031-5.233.4-9.21,5.488-8.215,10.391a4.148,4.148,0,0,0,.768-.455,2.962,2.962,0,0,1,3.184-.563,22.485,22.485,0,0,0,11.368.487C718.016,775.016,719.846,773.956,721.542,776.347Zm-6.456,18.545a13.3,13.3,0,0,1-7.849.021c-.02.424-.044.72-.047,1.017-.017,1.88.769,2.427,2.394,1.43,1.336-.819,2.365-.413,3.511.247.772.444,1.893.035,1.976-.689A18.848,18.848,0,0,0,715.086,794.892Z" transform="translate(-143.235 -124.826)" fill="#122253"/>
    <path id="Trazado_995122" data-name="Trazado 995122" d="M547.155,673.339c-2.406,0-4.812.006-7.218,0-1.152,0-1.87-.547-1.851-1.36s.726-1.309,1.9-1.31q7.275-.007,14.549,0c1.228,0,1.823.463,1.807,1.358s-.6,1.309-1.856,1.312C552.042,673.344,549.6,673.339,547.155,673.339Z" transform="translate(-22.44 -53.435)" fill="#122253"/>
    <path id="Trazado_995123" data-name="Trazado 995123" d="M743.954,670.661c2.444,0,4.887,0,7.331,0,1.167,0,1.88.511,1.891,1.32s-.706,1.349-1.861,1.351q-7.331.009-14.662,0c-.92,0-1.671-.236-1.726-1.325-.043-.861.565-1.341,1.7-1.347C739.067,670.652,741.51,670.661,743.954,670.661Z" transform="translate(-174.811 -53.431)" fill="#122253"/>
    <path id="Trazado_995124" data-name="Trazado 995124" d="M633.454,666.918c-.97-1.557-.71-2.216,1.019-2.687a9.446,9.446,0,0,1,1.189-.333,1.373,1.373,0,0,1,1.665,1.252c.5,2.169.427,2.961-.489,2.978-1.683.031-1.7,1.421-2.523,2.492,1.255,0,2.291-.012,3.326,0,1.094.016,1.772.534,1.7,1.354-.088,1.046-.812,1.328-1.745,1.322-1.727-.011-3.453.009-5.18-.007-1.519-.014-2.086-1.006-1.332-2.313C631.875,669.616,632.672,668.259,633.454,666.918Z" transform="translate(-94.175 -48.183)" fill="#122253"/>
    <path id="Trazado_995125" data-name="Trazado 995125" d="M683.578,675.937c-.636-1.1-1.165-2-1.676-2.9-.43-.762-.559-1.523.315-2.059.9-.553,1.48-.034,1.923.718.914,1.551,1.831,3.1,2.723,4.666.707,1.242.116,2.228-1.339,2.25-1.089.017-2.178,0-3.267,0-.79,0-1.668-.207-2.006.863a.465.465,0,0,1-.255.212c-1.519.653-2.009-.788-2.845-1.456a1.187,1.187,0,0,1-.111-1.808,5.125,5.125,0,0,1,1.558-1.434c.455-.207,1.511-.108,1.639.165.44.937,1.152.769,1.868.78C682.516,675.942,682.927,675.937,683.578,675.937Z" transform="translate(-129.721 -53.499)" fill="#122253"/>
    <path id="Trazado_995126" data-name="Trazado 995126" d="M662.149,628.567c-.608,1.04-1.148,1.969-1.7,2.9-.446.755-1.038,1.281-1.93.757-.851-.5-.827-1.229-.35-2.035.938-1.583,1.819-3.2,2.763-4.78a1.333,1.333,0,0,1,2.486.027c.672,1.129,1.262,2.311,1.983,3.407.233.354.759.522,1.164.752.123.07.3.043.435.1.949.364,1.026,1.166.366,3.2-.288.888-.789,1.323-1.753,1.027-.574-.176-1.168-.3-1.729-.5-.758-.281-1.173-1-.762-1.606.607-.892.114-1.435-.259-2.085C662.666,629.367,662.442,629.035,662.149,628.567Z" transform="translate(-115.142 -17.752)" fill="#122253"/>
    <path id="Trazado_995127" data-name="Trazado 995127" d="M547.291,638.865c-2.485,0-4.97.006-7.455,0-1.118,0-1.818-.521-1.72-1.32.119-.974.792-1.24,1.7-1.237q7.455.028,14.91,0c.9,0,1.616.224,1.621,1.269s-.7,1.294-1.6,1.289C552.261,638.857,549.776,638.865,547.291,638.865Z" transform="translate(-22.457 -26.84)" fill="#122253"/>
    <path id="Trazado_995128" data-name="Trazado 995128" d="M743.945,638.867c-2.447,0-4.894.006-7.342,0-1.192,0-1.739-.427-1.69-1.313.058-1.053.773-1.24,1.657-1.239q7.455.014,14.909,0c.919,0,1.642.3,1.655,1.265s-.7,1.306-1.621,1.3C748.991,638.854,746.468,638.867,743.945,638.867Z" transform="translate(-174.799 -26.842)" fill="#122253"/>
    <path id="Trazado_995129" data-name="Trazado 995129" d="M547.3,653.614c2.485,0,4.97-.006,7.455,0,1.184,0,1.741.436,1.688,1.318-.062,1.049-.776,1.242-1.66,1.24q-7.455-.013-14.91,0c-.918,0-1.641-.3-1.651-1.271s.7-1.306,1.623-1.3C542.328,653.626,544.813,653.614,547.3,653.614Z" transform="translate(-22.545 -40.233)" fill="#122253"/>
    <path id="Trazado_995130" data-name="Trazado 995130" d="M743.919,656.185c-2.447,0-4.895-.008-7.342,0-.881,0-1.6-.184-1.664-1.236-.053-.885.5-1.321,1.683-1.322q7.4-.009,14.8,0c1.127,0,1.837.5,1.759,1.285-.1,1.047-.835,1.289-1.778,1.279C748.889,656.168,746.4,656.185,743.919,656.185Z" transform="translate(-174.798 -40.247)" fill="#122253"/>
    <path id="Trazado_995131" data-name="Trazado 995131" d="M560.872,690.692c-1.164,0-2.327,0-3.49,0-.883,0-1.61-.236-1.636-1.267s.664-1.337,1.563-1.339c2.4,0,4.8.005,7.206-.005.924,0,1.618.382,1.6,1.327s-.731,1.3-1.645,1.286C563.274,690.678,562.073,690.692,560.872,690.692Z" transform="translate(-36.11 -66.92)" fill="#122253"/>
    <path id="Trazado_995132" data-name="Trazado 995132" d="M757.292,690.7c-1.2,0-2.4-.008-3.6,0-.875.008-1.54-.372-1.566-1.252-.027-.947.645-1.36,1.573-1.358,2.44.006,4.879,0,7.319.007.859,0,1.49.347,1.486,1.3s-.634,1.289-1.493,1.294C759.769,690.7,758.53,690.7,757.292,690.7Z" transform="translate(-188.123 -66.927)" fill="#122253"/>
  </g>
</svg>
