<svg xmlns="http://www.w3.org/2000/svg" width="93" height="88.488" viewBox="0 0 93 88.488">
  <g id="Grupo_1177672" data-name="Grupo 1177672" transform="translate(-502.399 -428.093)">
    <path id="Trazado_994403" data-name="Trazado 994403" d="M506.643,566.317v-3.7c0-1.96-.008-3.92,0-5.88.008-1.5.238-1.737,1.684-1.747q2.939-.02,5.879,0c1.36.01,1.671.295,1.682,1.638.023,2.718.008,5.435.009,8.153,0,.48,0,.959,0,1.518h1.847c.022-.493.062-.962.063-1.431q.007-7.685,0-15.37c0-.356,0-.713.012-1.069a1.135,1.135,0,0,1,1.278-1.215c2.182,0,4.365-.024,6.547.005,1.028.014,1.318.347,1.376,1.384.017.311.005.624.005.936q0,7.618,0,15.236v1.518h1.831c.026-.474.073-.942.074-1.41.006-3.564,0-7.128.005-10.692,0-1.85.259-2.108,2.062-2.112,1.826,0,3.652-.013,5.478,0,1.391.012,1.718.343,1.722,1.752.011,3.653,0,7.306,0,10.959V566.3h1.826c.024-.492.066-.962.066-1.433q.006-9.756,0-19.513c0-1.842.244-2.082,2.073-2.086,1.782,0,3.563-.008,5.345,0,1.555.009,1.865.316,1.866,1.886q.009,9.823,0,19.647v1.581c1.02,0,1.9-.021,2.784.006.984.03,1.491.456,1.461,1.17-.027.67-.5,1.039-1.412,1.083-.311.015-.623,0-.935,0H504.66c-.356,0-.715.019-1.068-.011-.811-.071-1.218-.462-1.191-1.14.031-.781.517-1.084,1.234-1.1.534-.014,1.069,0,1.6-.012C505.672,566.371,506.106,566.342,506.643,566.317Zm40.332-.021V545.715h-4.461V566.3ZM520.114,549.6v16.656h4.592V549.6Zm15.742,4.956h-4.564v11.731h4.564ZM513.5,566.3v-8.892h-4.591c0,3.02-.037,5.954.021,8.892Z" transform="translate(0 -84.403)" fill="#122253"/>
    <path id="Trazado_994404" data-name="Trazado 994404" d="M732.609,616.126c.537.036.926.06,1.315.087,1.066.075,1.414.4,1.43,1.5.027,1.826.007,3.653.012,5.479,0,.264.034.528.062.925.443.029.876.04,1.3.09.923.106,1.28.433,1.292,1.369q.047,3.741,0,7.483c-.012.923-.486,1.326-1.431,1.392-.177.012-.356,0-.534,0q-11.49,0-22.979,0c-1.731,0-2-.272-2-2.017,0-1.069-.068-2.143.015-3.206.122-1.572-.712-3.5.442-4.627,1.1-1.068,2.986-.282,4.52-.408.521-.043,1.049-.007,1.653-.007v-5.7c-.685,0-1.3.034-1.908-.008-.98-.068-1.286-.352-1.3-1.321q-.042-3.808,0-7.617c.012-.938.355-1.266,1.337-1.269q7.682-.029,15.364,0c1.028,0,1.374.406,1.4,1.533.031,1.648.009,3.3.01,4.944Zm2.919,15.906v-5.5H713.5v5.5Zm-5.344-15.9v-5.444H716.821v5.444Zm-9.98,7.958h12.688v-5.515H720.2Z" transform="translate(-152.807 -132.032)" fill="#122253"/>
    <path id="Trazado_994405" data-name="Trazado 994405" d="M658.6,454.953c.357,1.269.681,2.509,1.072,3.729a1.307,1.307,0,0,0,.631.6,3.542,3.542,0,0,1,1.778,2.238c.846,3,1.676,6,2.469,9a3.284,3.284,0,0,1-2.05,4.1,17.429,17.429,0,0,1-3.319.972,3.5,3.5,0,0,1-3.729-2.771c-.561-1.92-1.074-3.854-1.6-5.784-.282-1.029-.556-2.06-.83-3.091a3.252,3.252,0,0,1,.469-2.8,1.5,1.5,0,0,0,.17-1.494c-.338-1.005-.606-2.033-.865-2.92-1.648-.224-3.143-.414-4.632-.641a1.637,1.637,0,0,1-.974-.375,1.829,1.829,0,0,1-.462-1.247c.051-.3.566-.665.932-.748a3.083,3.083,0,0,1,1.3.186,11.912,11.912,0,1,0-8.828-9.114c.046.218.095.435.135.654.158.846-.13,1.413-.794,1.572a1.169,1.169,0,0,1-1.424-1.056,21.378,21.378,0,0,1-.456-4.229,14.248,14.248,0,0,1,28.3-1.681c.829,6.073-1.395,10.777-6.349,14.27C659.265,454.527,658.97,454.712,658.6,454.953Zm-.277,6.315c-.528.158-1.342.371-2.134.647a1.189,1.189,0,0,0-.909,1.642c.182.821.454,1.622.679,2.433.544,1.965,1.067,3.937,1.632,5.9.388,1.345.772,1.543,2.137,1.194a14.357,14.357,0,0,0,1.657-.487c.878-.34,1.1-.738.9-1.649s-.486-1.8-.734-2.694c-.532-1.923-1.054-3.848-1.6-5.767A1.39,1.39,0,0,0,658.328,461.267ZM655.1,456.3l.941,3.183,1.326-.423-.976-3.228Z" transform="translate(-99.075 0)" fill="#122253"/>
    <path id="Trazado_994406" data-name="Trazado 994406" d="M526.857,488.511c1.658-1.5,3.317-3.044,5.023-4.531.543-.474.3-.952.221-1.459a3.853,3.853,0,0,1,4.5-4.493,3.809,3.809,0,0,1,3.246,3.546c.028.393,0,.791,0,1.264l4.567,2.739a4.406,4.406,0,0,1,4.3-.621c.2.087.65-.179.877-.395,1.518-1.438,3-2.913,4.51-4.361a1.1,1.1,0,0,0,.362-1.169,3.951,3.951,0,0,1,4.844-4.747,1.185,1.185,0,0,0,.955-.152c1.5-1.393,2.953-2.834,4.416-4.265.309-.3.594-.628,1.06-1.125-.665-.042-1.124-.049-1.577-.1-.7-.086-1.264-.636-1.187-1.2a1.154,1.154,0,0,1,1.165-1.083c1.556-.037,3.115-.043,4.671.009a1.047,1.047,0,0,1,1.071,1.136c.01,1.513.031,3.027-.006,4.54-.019.775-.5,1.248-1.13,1.205a1.11,1.11,0,0,1-1.1-1.121c-.047-.478-.052-.959-.094-1.8l-5.814,5.635c.6,1.761.752,3.5-.74,4.927-1.44,1.376-3.111,1.32-4.947.545l-5.234,5.709a4.234,4.234,0,0,1-.672,3.876,3.963,3.963,0,0,1-2.766,1.437c-2.474.235-4.1-1.637-4.225-4.909-.7-.435-1.451-.906-2.208-1.358s-1.534-.892-2.363-1.372a4.019,4.019,0,0,1-4.637.406c-1.719,1.553-3.385,3.086-5.088,4.578-.472.414-.351.82-.264,1.317a3.835,3.835,0,0,1-3.25,4.672,3.887,3.887,0,0,1-3.857-5.939,3.807,3.807,0,0,1,3.887-1.771C525.858,488.171,526.314,488.348,526.857,488.511Zm9.2-8.241a1.63,1.63,0,0,0-1.709,1.5,1.567,1.567,0,0,0,1.428,1.629,1.6,1.6,0,0,0,1.778-1.415A1.637,1.637,0,0,0,536.057,480.269ZM526.375,491.9a1.619,1.619,0,0,0-1.675-1.543,1.67,1.67,0,0,0-1.534,1.571,1.632,1.632,0,0,0,1.63,1.6A1.576,1.576,0,0,0,526.375,491.9Zm20.769-1.794a1.61,1.61,0,0,0,1.593-1.615,1.721,1.721,0,0,0-1.579-1.537,1.62,1.62,0,0,0-1.63,1.587A1.532,1.532,0,0,0,547.144,490.1Zm11.141-10.433a1.613,1.613,0,0,0,1.6-1.622,1.6,1.6,0,0,0-3.2.01A1.6,1.6,0,0,0,558.285,479.67Z" transform="translate(-13.528 -28.022)" fill="#122253"/>
    <path id="Trazado_994407" data-name="Trazado 994407" d="M731.005,619.3v-1.831c0-7.256.021-14.512-.022-21.767a3.358,3.358,0,0,1,1.13-2.688c1.97-1.866,3.861-3.815,5.785-5.73.221-.22.434-.448.671-.65a1.026,1.026,0,0,1,1.547.028,1.113,1.113,0,0,1,.05,1.573,8.022,8.022,0,0,1-.734.774c-1.762,1.761-3.5,3.549-5.3,5.265a2.618,2.618,0,0,0-.866,2.1c.027,7.523.015,15.045.015,22.568,0,.312,0,.623,0,.935-.027,1.433-.268,1.664-1.752,1.686-.134,0-.267,0-.4,0q-14.352,0-28.7,0a7.615,7.615,0,0,1-1.2-.043.972.972,0,0,1-.87-1.019.983.983,0,0,1,.872-1.143,9.345,9.345,0,0,1,1.331-.058q13.351,0,26.7,0Z" transform="translate(-145.067 -115.941)" fill="#122253"/>
    <path id="Trazado_994408" data-name="Trazado 994408" d="M664.209,462.479a7.152,7.152,0,0,0,7.744-7.207,7.048,7.048,0,0,0-5.354-7,7.24,7.24,0,0,0-8.083,3.235,6.979,6.979,0,0,0-.989,4.6,4.017,4.017,0,0,1,.055.8.981.981,0,0,1-1.012,1.026,2.09,2.09,0,0,1-1.154-.674c-.185-.183-.184-.579-.218-.884a9.562,9.562,0,1,1,8.411,8.38,4.881,4.881,0,0,1-1.176-.236,1.048,1.048,0,0,1-.714-1.271.972.972,0,0,1,1.025-.867C663.233,462.385,663.72,462.444,664.209,462.479Z" transform="translate(-111.935 -12.93)" fill="#122253"/>
    <path id="Trazado_994409" data-name="Trazado 994409" d="M779.215,733.255a4.765,4.765,0,0,1-4.745-4.766,4.787,4.787,0,1,1,4.745,4.766Zm.067-2.308a2.425,2.425,0,1,0-2.445-2.424A2.376,2.376,0,0,0,779.282,730.947Z" transform="translate(-199.384 -216.675)" fill="#122253"/>
    <path id="Trazado_994410" data-name="Trazado 994410" d="M718.285,733.252a4.716,4.716,0,0,1-4.706-4.78,4.766,4.766,0,1,1,4.706,4.78Zm-.009-2.307a2.426,2.426,0,1,0-2.37-2.514A2.423,2.423,0,0,0,718.277,730.945Z" transform="translate(-154.761 -216.671)" fill="#122253"/>
    <path id="Trazado_994411" data-name="Trazado 994411" d="M521.149,479.184q-2.863,0-5.726,0a5.874,5.874,0,0,1-1.061-.05,1.023,1.023,0,0,1-.893-1.139.975.975,0,0,1,.88-1.008,4.848,4.848,0,0,1,.8-.047q5.993,0,11.985,0a4,4,0,0,1,.794.056c.558.114.92.518.791,1.041a2.029,2.029,0,0,1-.8,1.059c-.248.172-.687.086-1.04.087C524.967,479.188,523.058,479.185,521.149,479.184Z" transform="translate(-8.112 -35.794)" fill="#122253"/>
    <path id="Trazado_994412" data-name="Trazado 994412" d="M517.418,500.225c-.89,0-1.781.027-2.671-.007s-1.359-.461-1.3-1.163c.068-.768.569-1.057,1.284-1.058,1.78,0,3.561-.021,5.341.008.865.014,1.381.5,1.3,1.167a1.121,1.121,0,0,1-1.292,1.055C519.2,500.217,518.308,500.225,517.418,500.225Z" transform="translate(-8.095 -51.223)" fill="#122253"/>
  </g>
</svg>
