<svg xmlns="http://www.w3.org/2000/svg" width="73.357" height="83.531" viewBox="0 0 73.357 83.531">
  <g id="Grupo_1177674" data-name="Grupo 1177674" transform="translate(-534.98 -431.162)">
    <path id="Trazado_994413" data-name="Trazado 994413" d="M540.226,459.854v-2.425q0-11.431,0-22.862c0-2.529.877-3.4,3.4-3.4q5.547,0,11.094,0,8.059,0,16.118,0c2.535,0,3.358.837,3.362,3.407,0,.558,0,1.116,0,1.738h2.663c.873-2.29,1.209-2.515,3.741-2.517,3.553,0,4.116.564,4.116,4.141v6.262h7.793a4.751,4.751,0,0,1,6.508-2.276,2.6,2.6,0,0,1,1.4,2.627c-.017,4.678-.007,9.356-.007,14.034v1.361c.76,0,1.427,0,2.094,0,3.72.017,5.823,2.111,5.825,5.831q.008,20.2,0,40.4c0,1.019.018,2.038,0,3.056a5.227,5.227,0,0,1-5.519,5.453q-31.132.02-62.263,0a5.211,5.211,0,0,1-5.55-5.533q-.029-21.843,0-43.687C535,462.334,536.648,460.579,540.226,459.854Zm31.446,52.355q15.39,0,30.779,0c2.5,0,3.389-.9,3.39-3.419q0-21.5,0-42.99c0-2.482-.929-3.41-3.417-3.41q-30.779,0-61.559,0c-2.476,0-3.389.928-3.389,3.437q0,21.5,0,42.99c0,2.507.892,3.391,3.417,3.392Q556.282,512.21,571.671,512.208Zm-28.934-52.351h13.19V433.723h-13.19ZM558.545,433.7v26.139h13.13V433.7Zm23.633,26.191V436.268H579.43c0,1.346.024,2.619-.009,3.89a1.125,1.125,0,0,1-1.18,1.238c-.8.015-1.145-.461-1.207-1.2-.034-.406-.056-.812-.084-1.239h-2.685v20.918h2.746v-1.259q0-6.106,0-12.212a2.708,2.708,0,0,1,.107-1.22c.2-.371.663-.846,1-.838a1.817,1.817,0,0,1,1.192.766c.207.287.13.8.131,1.21q.011,6.163,0,12.325v1.248Zm10.446-.023v-13.09h-7.836v13.09Zm5.226.023V444.137h-2.593v15.757Z" fill="#122253"/>
    <path id="Trazado_994414" data-name="Trazado 994414" d="M656.991,601.919c-2.3,0-4.6.057-6.9-.014-3.3-.1-5.328-2.651-4.542-5.676a4.2,4.2,0,0,1,3.355-3.154,1.5,1.5,0,0,1,1.3.689c.126.42-.29,1-.484,1.512-.02.052-.128.072-.195.106-1.4.72-1.882,1.43-1.66,2.467.228,1.067,1.112,1.628,2.634,1.63q6.564.009,13.128,0a6.11,6.11,0,0,0,.678-.02,2.089,2.089,0,0,0,2.011-2.049,2.046,2.046,0,0,0-2.044-2c-1.166-.062-2.338-.027-3.507-.029-1.962,0-3.924.007-5.885-.007-.854-.006-1.671-.195-1.616-1.276.05-.962.779-1.167,1.62-1.164,3.093.011,6.187-.024,9.28.015a4.472,4.472,0,0,1,.293,8.94c-.15.014-.3.033-.451.033Q660.5,601.921,656.991,601.919Z" transform="translate(-85.412 -125.155)" fill="#122253"/>
    <path id="Trazado_994415" data-name="Trazado 994415" d="M776.768,672.969l-1.494,1.927c-.517.668-1.16,1.07-1.924.479-.7-.545-.543-1.264-.066-1.906,1.19-1.6,2.373-3.207,3.6-4.775.752-.957,1.475-.965,2.227-.01,1.28,1.626,2.51,3.292,3.736,4.959a1.138,1.138,0,0,1-.147,1.709,1.181,1.181,0,0,1-1.79-.242c-.511-.6-.957-1.253-1.583-2.084-.041.507-.087.806-.087,1.106q-.008,4.8,0,9.6c0,.264,0,.527,0,.791,0,.846-.258,1.563-1.224,1.56-.94,0-1.255-.672-1.25-1.541.009-1.694,0-3.389,0-5.083C776.768,677.41,776.768,675.359,776.768,672.969Z" transform="translate(-184.056 -183.219)" fill="#122253"/>
    <path id="Trazado_994416" data-name="Trazado 994416" d="M778.1,762.856c-1.2,0-2.407,0-3.61,0-.827,0-1.424-.3-1.419-1.215,0-.841.569-1.21,1.332-1.217,2.519-.022,5.039-.026,7.557.005a1.173,1.173,0,0,1,1.313,1.238c-.007.846-.555,1.18-1.338,1.185C780.656,762.861,779.377,762.855,778.1,762.856Z" transform="translate(-184.208 -254.735)" fill="#122253"/>
    <path id="Trazado_994417" data-name="Trazado 994417" d="M585.413,514.577c-.792,0-1.585.024-2.375-.007-.776-.03-1.331-.407-1.313-1.239s.569-1.179,1.361-1.18q2.432,0,4.864,0c.782,0,1.334.306,1.354,1.169s-.512,1.22-1.289,1.249C587.148,514.6,586.28,514.577,585.413,514.577Z" transform="translate(-36.165 -62.659)" fill="#122253"/>
    <path id="Trazado_994418" data-name="Trazado 994418" d="M585.548,489.062c.829,0,1.659-.007,2.488,0,.745.009,1.236.338,1.266,1.134.032.859-.483,1.246-1.266,1.26-1.658.029-3.317.024-4.975,0-.773-.009-1.343-.368-1.338-1.207s.539-1.193,1.338-1.2C583.89,489.059,584.719,489.061,585.548,489.062Z" transform="translate(-36.164 -44.796)" fill="#122253"/>
    <path id="Trazado_994419" data-name="Trazado 994419" d="M585.783,465.864c.866,0,1.734-.023,2.6.007a1.083,1.083,0,0,1,1.16,1.232,1.056,1.056,0,0,1-1.151,1.125c-1.77.022-3.545.075-5.307-.051a1.556,1.556,0,0,1-1.052-1.122,1.6,1.6,0,0,1,1.051-1.13,13.535,13.535,0,0,1,2.7-.053Z" transform="translate(-36.404 -26.822)" fill="#122253"/>
    <path id="Trazado_994420" data-name="Trazado 994420" d="M655.047,512.153c.864,0,1.728-.022,2.591.007a1.2,1.2,0,1,1,.022,2.392c-1.726.043-3.455.039-5.182,0a1.13,1.13,0,0,1-1.231-1.192c.006-.82.527-1.2,1.321-1.213.826-.011,1.653,0,2.479,0Z" transform="translate(-89.955 -62.656)" fill="#122253"/>
    <path id="Trazado_994421" data-name="Trazado 994421" d="M655.058,489.05c.826,0,1.652-.009,2.478,0,.786.011,1.322.373,1.335,1.2a1.119,1.119,0,0,1-1.224,1.191q-2.589.052-5.18,0a1.112,1.112,0,0,1-1.22-1.192c.014-.825.542-1.19,1.333-1.2C653.407,489.045,654.233,489.05,655.058,489.05Z" transform="translate(-89.955 -44.785)" fill="#122253"/>
    <path id="Trazado_994422" data-name="Trazado 994422" d="M655.073,468.32c-.863,0-1.726.019-2.589,0a1.183,1.183,0,1,1-.023-2.364q2.588-.035,5.177,0a1.182,1.182,0,1,1,.023,2.362C656.8,468.342,655.936,468.319,655.073,468.32Z" transform="translate(-89.958 -26.903)" fill="#122253"/>
  </g>
</svg>
