<svg xmlns="http://www.w3.org/2000/svg" width="74.973" height="74.758" viewBox="0 0 74.973 74.758">
  <g id="Grupo_1178093" data-name="Grupo 1178093" transform="translate(-742.849 -599.677)">
    <path id="Trazado_994931" data-name="Trazado 994931" d="M764.739,702.214q-9.816,0-19.633,0c-1.806,0-2.251-.454-2.253-2.287,0-4.021-.01-8.043,0-12.065A13.33,13.33,0,0,1,754.013,674.4c.56-.107.723-.318.72-.847-.017-2.34.016-4.68-.031-7.019a1.764,1.764,0,0,0-.523-1.106,15.61,15.61,0,0,1-5.055-11.939c.047-3.911,0-7.824.014-11.736a6.149,6.149,0,0,1,6.473-6.468q9.158-.03,18.316,0a6.192,6.192,0,0,1,6.4,6.45q.031,6.032,0,12.065a15.294,15.294,0,0,1-5.49,11.949,1.838,1.838,0,0,0-.745,1.576c.042,2.01.031,4.021.006,6.032-.008.641.121.943.865,1.061,6.083.959,11.737,6.378,11.607,13.5-.073,4.02-.008,8.043-.015,12.065,0,1.813-.439,2.23-2.3,2.23Q774.5,702.216,764.739,702.214Zm18.663-3.177c.018-.417.047-.774.047-1.13,0-3.326-.085-6.655.021-9.978.156-4.9-3.858-9.589-9.236-10.525a1.483,1.483,0,0,0-1.6.6c-1.914,2.351-3.893,4.65-5.8,7.008a2.543,2.543,0,0,0-.526,1.462c-.042,3.874-.025,7.748-.02,11.623,0,.311.054.621.084.942Zm-20.226.066c0-4.452.013-8.722-.023-12.991a1.817,1.817,0,0,0-.531-1.018c-2.086-2.347-4.221-4.65-6.28-7.02a1.792,1.792,0,0,0-1.9-.654c-4.242.754-7.962,4.382-8.275,8.653-.3,4.106-.149,8.245-.205,12.369-.012.861.616.652,1.082.653q7.4.015,14.792.006Zm13.917-49.166c-1.636,1.662-3.111,3.127-4.545,4.631a2.827,2.827,0,0,1-2.227.94q-5.595-.052-11.191,0a2.8,2.8,0,0,1-2.228-.933c-1.441-1.534-2.924-3.027-4.389-4.537l-.284.146c0,1.3-.042,2.6.008,3.892a12.045,12.045,0,0,0,6.477,10.73,11.8,11.8,0,0,0,12.608-.346C776.618,661.151,777.722,656.023,777.094,649.938Zm-12.418,32.749c2.077-2.481,4.043-4.825,6-7.178a1.024,1.024,0,0,0,.25-.582c.018-2.182.011-4.364.011-6.676a16.179,16.179,0,0,1-13.086-.316c0,2.42-.007,4.669.012,6.918a.987.987,0,0,0,.273.573C760.273,677.814,762.424,680.192,764.676,682.687Zm-12.437-38.2h24.92a32.28,32.28,0,0,0-.026-3.532,2.95,2.95,0,0,0-2.854-2.575q-9.536-.058-19.072,0a3.059,3.059,0,0,0-2.954,2.859C752.182,642.284,752.239,643.342,752.239,644.485Zm22.616,3.323H754.516c1.558,1.538,2.918,2.91,4.321,4.237a1.546,1.546,0,0,0,.978.319q4.88.035,9.761.005a1.462,1.462,0,0,0,.921-.213C771.938,650.768,773.336,649.336,774.856,647.808Z" transform="translate(0 -27.78)" fill="#122253"/>
    <path id="Trazado_994932" data-name="Trazado 994932" d="M957.645,720.417q6.746,0,13.493,0c1.708,0,2.153.439,2.154,2.138q.006,11.847,0,23.7c0,1.688-.457,2.157-2.155,2.158q-13.493.012-26.986,0c-1.6,0-2.11-.508-2.112-2.1q-.013-11.9,0-23.8c0-1.606.5-2.08,2.113-2.082Q950.9,720.412,957.645,720.417ZM945.254,745.21H970.1V723.565h-3.091v1.253c0,3.034.006,6.067,0,9.1,0,1.753-.93,2.4-2.539,1.769-2-.787-3.986-1.63-6-2.376a2.383,2.383,0,0,0-1.524-.015c-2.054.755-4.07,1.613-6.111,2.406-1.552.6-2.523-.055-2.531-1.7-.012-2.6,0-5.19,0-7.785v-2.65h-3.006v15.525h3.472c3.911,0,7.822-.009,11.733.006,1.32.005,2.15.941,1.786,1.983a1.666,1.666,0,0,1-1.819,1.093c-4.678-.017-9.357-.008-14.036-.008h-1.173Zm6.23-21.682v8.53c1.789-.7,3.459-1.42,5.181-1.983a3.518,3.518,0,0,1,2.059.007c1.721.566,3.391,1.289,5.109,1.961v-8.515Z" transform="translate(-155.472 -94.243)" fill="#122253"/>
    <path id="Trazado_994933" data-name="Trazado 994933" d="M976.984,882.53c-.438,0-.879.033-1.314-.006a2.978,2.978,0,0,0-3.139,1.4,4.493,4.493,0,0,1-7.541-.553,1.5,1.5,0,0,0-1.551-.85c-1.715.041-3.432.026-5.148.007-1.152-.012-1.744-.539-1.755-1.5s.6-1.543,1.716-1.56c1.789-.028,3.578-.025,5.367,0a1.258,1.258,0,0,0,1.3-.7,4.657,4.657,0,0,1,8.231.049,1.5,1.5,0,0,0,1.071.61c1.787.063,3.578.017,5.367.034,1.195.011,1.866.579,1.876,1.532s-.666,1.515-1.852,1.532C978.736,882.54,977.86,882.53,976.984,882.53Zm-7.971-.011a1.521,1.521,0,0,0,1.533-1.51,1.576,1.576,0,0,0-1.528-1.539,1.54,1.54,0,0,0-1.568,1.588A1.473,1.473,0,0,0,969.013,882.519Z" transform="translate(-166.792 -215.932)" fill="#122253"/>
    <path id="Trazado_994934" data-name="Trazado 994934" d="M1063.132,610.654q0-4.278,0-8.556a7.884,7.884,0,0,1,.037-.985,1.424,1.424,0,0,1,1.45-1.371,1.442,1.442,0,0,1,1.58,1.352,6.124,6.124,0,0,1,.047.984q0,8.556,0,17.112a5.956,5.956,0,0,1-.077,1.09,1.521,1.521,0,0,1-2.989-.085,8.146,8.146,0,0,1-.046-1.094Q1063.128,614.877,1063.132,610.654Z" transform="translate(-249.996 -0.05)" fill="#122253"/>
    <path id="Trazado_994935" data-name="Trazado 994935" d="M949.191,610.488c0-2.92-.008-5.84,0-8.76,0-1.312.605-2.063,1.592-2.047s1.564.784,1.565,2.1c.005,5.876.019,11.753-.024,17.63a2.427,2.427,0,0,1-.617,1.643,1.671,1.671,0,0,1-1.575.188,2.2,2.2,0,0,1-.9-1.555C949.148,616.621,949.192,613.554,949.191,610.488Z" transform="translate(-161.052 -0.003)" fill="#122253"/>
    <path id="Trazado_994936" data-name="Trazado 994936" d="M1009.3,609.761c0,2.632.005,5.263-.005,7.895a4.539,4.539,0,0,1-.13,1.187,1.518,1.518,0,0,1-2.958-.232,20.453,20.453,0,0,1-.046-2.19q0-7.127,0-14.255a7.354,7.354,0,0,1,.038-1.094,1.451,1.451,0,0,1,1.479-1.346,1.411,1.411,0,0,1,1.513,1.167,4.5,4.5,0,0,1,.1,1.083C1009.3,604.57,1009.3,607.165,1009.3,609.761Z" transform="translate(-205.521 -0.037)" fill="#122253"/>
    <path id="Trazado_994937" data-name="Trazado 994937" d="M1037.745,608.949c0,2.482.006,4.965,0,7.447,0,1.3-.534,1.947-1.549,1.935-1-.012-1.526-.675-1.528-1.971q-.009-7.337,0-14.675c0-1.253.562-1.982,1.508-2.008.994-.027,1.568.708,1.571,2.044C1037.749,604.131,1037.745,606.54,1037.745,608.949Z" transform="translate(-227.773 0)" fill="#122253"/>
    <path id="Trazado_994938" data-name="Trazado 994938" d="M980.784,607.417c0,1.972.011,3.945,0,5.917-.009,1.225-.539,1.864-1.506,1.883-.985.02-1.594-.692-1.6-1.919q-.012-5.862,0-11.724c0-1.153.6-1.87,1.519-1.9.962-.027,1.575.7,1.584,1.933C980.794,603.546,980.784,605.482,980.784,607.417Z" transform="translate(-183.29)" fill="#122253"/>
    <path id="Trazado_994939" data-name="Trazado 994939" d="M980.82,679.257a1.517,1.517,0,0,1-1.56,1.487,1.57,1.57,0,0,1-1.522-1.544,1.632,1.632,0,0,1,1.632-1.568A1.59,1.59,0,0,1,980.82,679.257Z" transform="translate(-183.341 -60.846)" fill="#122253"/>
    <path id="Trazado_994940" data-name="Trazado 994940" d="M1037.778,693.609a1.472,1.472,0,0,1-1.483,1.54,1.507,1.507,0,0,1-1.582-1.561,1.488,1.488,0,0,1,1.549-1.476A1.449,1.449,0,0,1,1037.778,693.609Z" transform="translate(-227.814 -72.151)" fill="#122253"/>
    <path id="Trazado_994941" data-name="Trazado 994941" d="M776.035,879.451c-.948,0-1.9.023-2.843-.006a1.559,1.559,0,1,1,.02-3.11c2-.027,4.011-.03,6.015,0a1.554,1.554,0,1,1-.021,3.106C778.15,879.476,777.092,879.45,776.035,879.451Z" transform="translate(-22.392 -215.928)" fill="#122253"/>
    <path id="Trazado_994942" data-name="Trazado 994942" d="M829.109,752.982a27.762,27.762,0,0,1-3.172-1.6,1.529,1.529,0,0,1,1.848-2.435,1.889,1.889,0,0,0,2.57.01,1.438,1.438,0,0,1,2.137.269,1.361,1.361,0,0,1-.23,2.119A26.576,26.576,0,0,1,829.109,752.982Z" transform="translate(-64.355 -116.235)" fill="#122253"/>
    <path id="Trazado_994943" data-name="Trazado 994943" d="M818.72,659.5c-1.021,0-2.043.025-3.063-.008a1.566,1.566,0,0,1-1.639-1.549,1.589,1.589,0,0,1,1.672-1.521q3.008-.039,6.018,0a1.57,1.57,0,0,1,1.68,1.5,1.549,1.549,0,0,1-1.713,1.573C820.69,659.522,819.7,659.5,818.72,659.5Z" transform="translate(-55.55 -44.279)" fill="#122253"/>
  </g>
</svg>
