<svg xmlns="http://www.w3.org/2000/svg" width="85" height="84.752" viewBox="0 0 85 84.752">
  <g id="Grupo_1178095" data-name="Grupo 1178095" transform="translate(-625.398 -556.118)">
    <path id="Trazado_994944" data-name="Trazado 994944" d="M640.371,731.842c-3.42-1.027-5.719-3.132-6.275-6.712-.578-3.723,1.006-6.52,4.187-8.53l-6.435-26.579c-1.089,0-2.106,0-3.123,0a3.24,3.24,0,0,1-2.284-.82,3.033,3.033,0,0,1-.9-3.245,2.752,2.752,0,0,1,2.524-2.19,29.641,29.641,0,0,1,5.561.044,4.913,4.913,0,0,1,4.253,4.071c.478,1.915.913,3.84,1.374,5.759.082.34.2.673.336,1.145h1.393q19.1,0,38.2,0a13.721,13.721,0,0,1,1.535.082,3.189,3.189,0,0,1,2.6,4.126c-1.036,3.19-2,6.405-2.986,9.611-.745,2.414-1.5,4.825-2.229,7.243a8.145,8.145,0,0,1-6.13,5.981,9.97,9.97,0,0,1-2.349.217q-13.287.022-26.574.013a7.062,7.062,0,0,0-1.3.075,1.678,1.678,0,0,0-1.369,1.448,1.655,1.655,0,0,0,.9,1.78,1.51,1.51,0,0,0,1.857-.133,7.372,7.372,0,0,1,9.212,0,1.822,1.822,0,0,0,1.072.363c3.519.027,7.039,0,10.558.032a2.39,2.39,0,0,0,1.469-.644,7.252,7.252,0,0,1,10.322,1.889,6.907,6.907,0,0,1,.361,7.423,6.833,6.833,0,0,1-6.238,3.837,7.156,7.156,0,0,1-7.289-5.57c-.04-.152-.1-.3-.177-.52h-7.46a7.492,7.492,0,0,1-3.217,4.912,7.211,7.211,0,0,1-4.381,1.189C644,738.026,641.676,735.976,640.371,731.842Zm40.445-34.223c-.719-.028-1.18-.062-1.641-.062q-19.743,0-39.486,0c-.356,0-.712.013-1.067-.006a1.363,1.363,0,0,1-1.478-1.108c-.2-.64-.338-1.3-.5-1.949-.462-1.917-.9-3.842-1.385-5.753a2.572,2.572,0,0,0-2.947-2.31c-1.028-.01-2.055,0-3.083,0a2.233,2.233,0,0,0-.7.047c-.149.052-.345.258-.341.389a.559.559,0,0,0,.352.384,3.168,3.168,0,0,0,.823.051c.988,0,1.976-.007,2.964,0,1.32.016,1.745.337,2.072,1.636.569,2.257,1.112,4.52,1.66,6.782q1.741,7.19,3.474,14.381c.554,2.3,1.108,4.6,1.636,6.911a1.314,1.314,0,0,1-.744,1.67c-.2.117-.43.2-.644.3a5.371,5.371,0,0,0-1.144,8.982,6.335,6.335,0,0,0,1.526.88c.439.191.655-.079.653-.58-.359-.2-.745-.391-1.11-.617a4.406,4.406,0,0,1-1.975-4.8,4.343,4.343,0,0,1,4.353-3.479c3-.031,6.008-.009,9.012-.009q9.19,0,18.379,0a6.758,6.758,0,0,0,3.1-.628,5.959,5.959,0,0,0,2.977-3.933c1.378-4.529,2.8-9.043,4.2-13.565C680.1,700.111,680.418,698.982,680.816,697.618Zm-28.562,33.367a4.535,4.535,0,1,0-9.068-.193,4.535,4.535,0,1,0,9.068.193Zm17.427-4.654a4.617,4.617,0,0,0-4.558,4.519,4.585,4.585,0,1,0,4.558-4.519Zm-14.979,2.1c-.02.61.21.871.769.853.668-.022,1.337,0,2.005,0,1.455,0,2.91-.008,4.364,0,.554,0,.94-.123.806-.851Z" transform="translate(0 -97.276)" fill="#122253"/>
    <path id="Trazado_994945" data-name="Trazado 994945" d="M799.071,556.119h22.178c.277,0,.553,0,.83,0,1.469.017,1.806.344,1.807,1.827q.008,11.03,0,22.059c0,1.573-.374,1.942-1.974,1.942q-17.671.006-35.342,0-5.1,0-10.2,0a6.351,6.351,0,0,1-.947-.03,1.289,1.289,0,0,1-1.2-1.254,9.586,9.586,0,0,1-.026-1.066q0-10.615,0-21.229c0-2.059.191-2.251,2.22-2.251Zm22.087,2.733c-3.026-.245-43.335-.13-44.195.11V579.1h44.195Z" transform="translate(-113.491 0)" fill="#122253"/>
    <path id="Trazado_994946" data-name="Trazado 994946" d="M857.256,713.159a3.212,3.212,0,0,1,.543.443,1.348,1.348,0,0,1-1.779,2c-.531-.339-1.009-.76-1.508-1.148-.686-.534-1.382-1.055-2.049-1.61-1.022-.851-1.011-1.692.038-2.535s2.109-1.665,3.179-2.476c.857-.649,1.546-.651,2.107-.049.531.57.451,1.208-.257,2.082a.709.709,0,0,0-.078.211,76.786,76.786,0,0,0,10.546.006v-1.358q0-13.933,0-27.866a7.541,7.541,0,0,1,.043-1.183,1.317,1.317,0,0,1,2.6.028,5.69,5.69,0,0,1,.038.946q0,15.119,0,30.237a7,7,0,0,1-.02.829,1.2,1.2,0,0,1-1.228,1.192,8.961,8.961,0,0,1-.948.02h-11.14Z" transform="translate(-172.607 -93.421)" fill="#122253"/>
    <path id="Trazado_994947" data-name="Trazado 994947" d="M702.747,598.2h-8.931v1.331q0,9.724,0,19.448a5.921,5.921,0,0,1-.056,1.181,1.309,1.309,0,0,1-1.4,1.029,1.288,1.288,0,0,1-1.2-1.1,5.767,5.767,0,0,1-.045-.946q0-10.85,0-21.7c0-.2-.008-.4.008-.593.079-.967.43-1.319,1.417-1.4.314-.026.632-.011.948-.011q4.032,0,8.064,0c.378,0,.756-.031,1.246-.053a9.48,9.48,0,0,1-.641-.818,1.245,1.245,0,0,1,.171-1.626,1.323,1.323,0,0,1,1.526-.287,1.84,1.84,0,0,1,.4.243c1.156.895,2.325,1.774,3.457,2.7a1.339,1.339,0,0,1,.071,2.3c-1.182.986-2.406,1.926-3.649,2.835a1.293,1.293,0,0,1-2.014-.42,1.1,1.1,0,0,1-.012-1.23C702.293,598.791,702.511,598.523,702.747,598.2Z" transform="translate(-50.119 -27.771)" fill="#122253"/>
    <path id="Trazado_994948" data-name="Trazado 994948" d="M699.081,745.872q9.192,0,18.384,0c2.127,0,2.539.557,1.917,2.573-1.442,4.675-2.874,9.354-4.335,14.023a4.439,4.439,0,0,1-4.677,3.4q-12.869.012-25.738,0c-1.438,0-1.7-.206-2.042-1.6-1.332-5.443-2.643-10.891-3.994-16.329-.328-1.32.416-2.1,1.746-2.1C686.588,745.9,692.835,745.872,699.081,745.872Zm16.474,5.7.882-2.915h-7.721a9.051,9.051,0,0,0,.047,2.915Zm-26.354-.018v-2.813a40.331,40.331,0,0,0-7.556.047l.711,2.767Zm-.066,2.8h-6.118l.686,2.9h5.432Zm19.548,2.912h5.06a9.727,9.727,0,0,0,.812-2.906h-5.872Zm-11.208-8.6h-5.408v2.88h5.408Zm2.871,2.861h5.45a12.184,12.184,0,0,0-.092-2.932c-.927,0-1.792-.005-2.656,0-.891.007-1.782.025-2.7.039Zm-8.287,5.712h5.4v-2.9h-5.4Zm8.3,0h5.394v-2.9h-5.394Zm-8.324,5.854h5.5c0-.741.006-1.406,0-2.071,0-.266-.038-.532-.056-.779a19.333,19.333,0,0,0-5.44.06Zm13.705.011v-2.924h-5.376v2.924ZM684.4,760.095l.738,3.017h3.993v-3.017H684.4Zm24.308,2.976c2.929.358,3.731-.186,4.043-2.912H708.7Z" transform="translate(-40.515 -144.713)" fill="#122253"/>
    <path id="Trazado_994949" data-name="Trazado 994949" d="M707.379,866.818a3.758,3.758,0,1,1,.049,7.516,3.758,3.758,0,1,1-.049-7.516Zm1,3.8a1.009,1.009,0,0,0-1.015-1.051,1.027,1.027,0,0,0-.049,2.052A1.009,1.009,0,0,0,708.375,870.614Z" transform="translate(-59.65 -236.975)" fill="#122253"/>
    <path id="Trazado_994950" data-name="Trazado 994950" d="M799.934,866.8a3.762,3.762,0,1,1,.021,7.524,3.762,3.762,0,1,1-.021-7.524Zm1.041,3.754a1.04,1.04,0,0,0-1.075-1.005,1.075,1.075,0,0,0-.977.993,1.026,1.026,0,1,0,2.052.013Z" transform="translate(-130.248 -236.964)" fill="#122253"/>
    <path id="Trazado_994951" data-name="Trazado 994951" d="M811.424,572.841h15.882c.355,0,.712-.009,1.066.021a1.228,1.228,0,0,1,1.233,1.076,1.826,1.826,0,0,0,1.708,1.787c.818.123,1.1.6,1.116,1.56.021,1.462.007,2.923.007,4.385,0,1.5.014,3-.006,4.5-.014,1.1-.321,1.516-1.393,1.7a1.553,1.553,0,0,0-1.351,1.285c-.375,1.39-.573,1.538-2.066,1.539q-7.527.007-15.053,0-8.534,0-17.068,0a6.55,6.55,0,0,1-1.064-.037,1.238,1.238,0,0,1-1.158-1.024c-.167-1.046-.6-1.724-1.794-1.823-.688-.057-1.023-.671-1.036-1.508-.02-1.264-.006-2.529-.007-3.793,0-1.659-.006-3.319,0-4.978.007-1.35.169-1.589,1.441-1.886a1.555,1.555,0,0,0,1.263-1.234c.405-1.478.557-1.572,2.159-1.573Q803.365,572.838,811.424,572.841Zm15.667,2.789H795.713a4.562,4.562,0,0,1-2.137,2.339c-.45.224-.4.633-.4,1.025q0,2.253,0,4.505v1.851a4.826,4.826,0,0,1,2.567,2.535h31.428a4.95,4.95,0,0,1,2.433-2.554V578.2A5.516,5.516,0,0,1,827.091,575.63Z" transform="translate(-125.877 -12.755)" fill="#122253"/>
    <path id="Trazado_994952" data-name="Trazado 994952" d="M864.7,592.133c-.156-.22-.33-.429-.464-.66a2.9,2.9,0,0,1,.811-3.9,3.284,3.284,0,0,0,1.051-1.055,1.273,1.273,0,0,1,2.239.04,2.871,2.871,0,0,0,.984.964,3.228,3.228,0,0,1,.533.465c1.155,1.215,1.089,2-.29,3.034.2.22.423.424.607.655a2.762,2.762,0,0,1-.77,4.269,2.9,2.9,0,0,0-1.108.979,1.273,1.273,0,0,1-2.181-.024,3.092,3.092,0,0,0-1.077-1.017,3.462,3.462,0,0,1-.923-.9C863.234,593.741,863.389,593.02,864.7,592.133Z" transform="translate(-181.65 -22.694)" fill="#122253"/>
    <path id="Trazado_994953" data-name="Trazado 994953" d="M820.025,607.453c-.63,0-1.261.027-1.889-.006a1.42,1.42,0,0,1-1.472-1.371,1.34,1.34,0,0,1,1.4-1.3c1.376-.044,2.756-.049,4.131,0a1.216,1.216,0,0,1,1.316,1.344,1.294,1.294,0,0,1-1.366,1.321C821.444,607.484,820.734,607.452,820.025,607.453Z" transform="translate(-145.881 -37.087)" fill="#122253"/>
    <path id="Trazado_994954" data-name="Trazado 994954" d="M915.813,604.794c.668,0,1.339-.038,2,.01a1.326,1.326,0,0,1,1.357,1.336,1.364,1.364,0,0,1-1.387,1.324c-1.375.04-2.753.044-4.128,0a1.245,1.245,0,0,1-1.314-1.354c0-.805.427-1.25,1.345-1.309.705-.045,1.415-.009,2.123-.009Z" transform="translate(-218.858 -37.112)" fill="#122253"/>
  </g>
</svg>
