<svg xmlns="http://www.w3.org/2000/svg" width="85" height="83.572" viewBox="0 0 85 83.572">
  <g id="Grupo_1178258" data-name="Grupo 1178258" transform="translate(-608.78 -536.864)">
    <path id="Trazado_995231" data-name="Trazado 995231" d="M785.481,574.28c-1.874,0-3.623,0-5.372,0-2.918-.006-3.91-1.007-3.911-3.953,0-6.083.029-12.166-.008-18.249-.055-9.148-.439-8.528,8.539-8.477.718,0,1.436,0,1.995,0,.14-1.93.192-3.717.424-5.481a1.269,1.269,0,0,1,2.208-.824c1.594,1.851,3.784,2.5,5.921,3.317,1.418.544,2.8,1.187,4.1,1.746,2.19-.868,4.451-1.669,6.624-2.663a33.828,33.828,0,0,0,3.236-2.086c.484-.293,1.135-.693,1.577-.569a1.837,1.837,0,0,1,1.008,1.309c.221,1.686.261,3.4.38,5.251H817.6c.65,0,1.3-.011,1.951,0a2.975,2.975,0,0,1,3.182,3.257c.014,5.547,0,11.094,0,16.642,0,2.41,0,4.82,0,7.231-.006,2.385-1.118,3.533-3.511,3.539-6.312.017-12.625.033-18.937-.02a3.528,3.528,0,0,0-2.64,1.042c-3.108,2.891-6.266,5.727-9.4,8.585-.574.522-1.136,1.09-2.013.666-.818-.395-.749-1.153-.748-1.886C785.484,579.919,785.481,577.175,785.481,574.28Zm22-22.84c2.412,0,4.926,0,7.439,0,1.66,0,2.119.5,2,2.145a17.454,17.454,0,0,1-34.841.321c-.11-2.227.115-2.467,2.319-2.468h7.034c-1.169-1.683-2.291-3.338-3.469-4.951a1.277,1.277,0,0,0-.907-.289c-2.372-.023-4.745.02-7.117-.029-.876-.018-1.1.307-1.1,1.137q.036,11.594-.006,23.187c0,.953.337,1.164,1.2,1.144,2.142-.048,4.285-.027,6.428-.01,1.216.01,1.65.441,1.667,1.67.024,1.76.007,3.52.008,5.28,0,.5,0,1,0,1.808,3.085-2.809,5.893-5.341,8.667-7.911a3.06,3.06,0,0,1,2.257-.869c6.581.03,13.162.014,19.744.019.676,0,1.27.078,1.266-.952q-.045-11.766-.009-23.532c0-.653-.175-.981-.907-.972-2.487.03-4.974,0-7.461.031a1.179,1.179,0,0,0-.809.44C809.743,548.2,808.643,549.789,807.478,551.44Zm-22.236,5.394a1.875,1.875,0,0,0,.352-.035c.284-.111.56-.245.848-.348,3.617-1.294,7.259-1.57,10.8.135,2.455,1.182,3.01,3.6,1.276,5.7a29.638,29.638,0,0,1-3.661,3.245c-.292.253-.594.495-.946.786a14.414,14.414,0,0,0,14.433-1.812,1.139,1.139,0,0,0,.313-.873q-.2-2.052-.508-4.091c-.194-1.276-.4-1.33-1.678-1.131a6.21,6.21,0,0,1-2.766.041,8.431,8.431,0,0,1-4.528-3.52,1.572,1.572,0,0,0-1.546-.854c-3.9.032-7.8.013-11.695.018-.366,0-.732.039-1.241.068Zm13.309-5.619a33.164,33.164,0,0,0,.448-3.79,3.27,3.27,0,0,0-1.91-3.166c-2.481-1.106-5.026-2.066-7.564-3.095C789.256,545.61,793.242,550.881,798.55,551.215Zm3.113-.156c4.573-1.153,8.025-5.476,7.694-9.869q-1.742.708-3.475,1.412c-1.343.543-2.7,1.055-4.022,1.644-.287.128-.653.539-.64.8C801.318,547.042,801.5,549.032,801.663,551.059Zm-15.375,8.359a14.542,14.542,0,0,0,4.99,5.591c1.066-.818,2.017-1.507,2.92-2.253a22.019,22.019,0,0,0,2.183-2c.652-.706.568-1.435-.37-1.833C792.745,557.532,789.568,557.909,786.288,559.418Zm15.946-5.239c1,.924,1.789,2.19,3.374,1.753,3.062-.843,4.672.174,5.2,3.293.127.749.225,1.5.355,2.38a12.329,12.329,0,0,0,2.887-7.427Z" transform="translate(-128.955)" fill="#122253"/>
    <path id="Trazado_995232" data-name="Trazado 995232" d="M639.346,666.34c.759.194,1.462.353,2.152.554a5.926,5.926,0,0,1,4.643,5.5c.25,3.653.185,7.334.109,11a3.375,3.375,0,0,1-3.5,3.126c-1.158-.031-1.466.491-1.9,1.411a18.087,18.087,0,0,1-2.458,3.815c-1.11,1.329-1.333,2.7-.1,3.969a7.746,7.746,0,0,0,2.48,1.559c2.347,1.008,4.793,1.8,7.1,2.881a7.771,7.771,0,0,1,4.711,7.73c-.032,1.912.005,3.825-.009,5.738-.015,2.079-.789,2.9-2.823,2.9q-19.05.016-38.1,0c-2.071,0-2.835-.8-2.841-2.855-.005-1.8.08-3.6-.017-5.393-.234-4.3,1.889-7.027,5.674-8.629,2.108-.892,4.272-1.651,6.416-2.456a4.274,4.274,0,0,0,3-3.045,1.78,1.78,0,0,0-.584-2.025,9.328,9.328,0,0,1-3.027-4.64,1.124,1.124,0,0,0-1.282-.938c-2.579,0-4-1.48-4.012-4.081-.012-2.754.1-5.513-.023-8.262-.282-6.526,4.331-10.61,9.289-11.9a24.121,24.121,0,0,1,5.093-.649c2.674-.1,5.354-.016,8.032-.033,1.15-.007,2.247.063,2.859,1.246a2.519,2.519,0,0,1-.591,2.943A3.654,3.654,0,0,0,639.346,666.34ZM623.03,699.183c-.48.188-.9.35-1.324.519-2.41.964-4.847,1.866-7.218,2.917a4.271,4.271,0,0,0-2.822,3.391c-.2,2.57-.054,5.169-.054,7.818h7.118c0-.922,0-1.79,0-2.658,0-.923.332-1.613,1.361-1.609s1.337.725,1.342,1.63c.005.867,0,1.734,0,2.619H640c0-.989,0-1.9,0-2.81.005-.839.339-1.438,1.26-1.443.959-.005,1.349.578,1.347,1.485s0,1.814,0,2.768H649.9c0-2.063-.049-4.046.012-6.026a5.137,5.137,0,0,0-3.175-5.242c-2.74-1.231-5.565-2.273-8.329-3.387C634.331,705.221,626.585,704.707,623.03,699.183Zm15.9-17.682c0-1.148.017-2.3,0-3.443-.023-1.231-.594-1.853-1.826-1.849a7.148,7.148,0,0,1-4.278-1.387c-1.78-1.254-2.551-1.246-4.365.023a7.1,7.1,0,0,1-4.172,1.36c-1.351,0-1.912.62-1.92,2-.013,1.99-.016,3.979,0,5.969a8.063,8.063,0,0,0,5.977,7.777,8.388,8.388,0,0,0,9.584-3.854C639.115,686.009,638.939,683.751,638.932,681.5Zm-1.549-17.228c-1.084,0-1.984-.023-2.883,0a74.958,74.958,0,0,0-8.454.345c-6.026.877-9.249,5.47-8.369,11.545a4.439,4.439,0,0,1,.9-.092A2.178,2.178,0,0,0,620.846,675a3.536,3.536,0,0,1,3.212-1.457,4.677,4.677,0,0,0,2.979-.948c2.69-1.848,4.541-1.842,7.264.016a4.549,4.549,0,0,0,2.869.929,3.812,3.812,0,0,1,3.471,1.652,1.722,1.722,0,0,0,1.786.872,8.449,8.449,0,0,1,1.359.109c-.056-1.131-.039-2.2-.176-3.248a3.942,3.942,0,0,0-3.524-3.659c-.714-.125-1.437-.213-2.142-.377a2.2,2.2,0,0,1-1.453-3.224C636.718,665.245,637.007,664.856,637.383,664.273Zm-10.622,29.985c-.464,1.011-.9,1.854-1.229,2.736a1.435,1.435,0,0,0,.043,1.1,6.122,6.122,0,0,0,10.222.024,1.2,1.2,0,0,0,.177-.914c-.4-.975-.892-1.912-1.393-2.954A12.1,12.1,0,0,1,626.761,694.259Zm-7.085-10.527v-4.864c-1.755-.218-2.1.062-2.107,1.663q0,.8,0,1.606C617.58,683.719,617.981,684.03,619.676,683.732Zm21.98-4.916v4.923c1.717.263,2.057-.014,2.064-1.626,0-.5,0-.991,0-1.486C643.716,678.931,643.5,678.723,641.656,678.815Z" transform="translate(0 -96.093)" fill="#122253"/>
  </g>
</svg>
