<svg xmlns="http://www.w3.org/2000/svg" width="85" height="76.256" viewBox="0 0 85 76.256">
  <g id="Grupo_1177678" data-name="Grupo 1177678" transform="translate(-628.239 -572.945)">
    <path id="Trazado_994427" data-name="Trazado 994427" d="M672.233,627.888v11.406h21.182c0-1.708-.01-3.372,0-5.036.013-1.56.419-1.967,1.96-1.977,2.043-.013,4.086-.011,6.128-.02a1.327,1.327,0,0,0,.3-.093v-2.736c-2.113,0-4.188.005-6.262,0-1.774-.006-2.121-.333-2.125-2.048q-.013-6.435,0-12.87c0-1.6.453-2.053,2.029-2.061,2.081-.011,4.162,0,6.338,0V609.7H696c-2.338,0-2.587-.252-2.588-2.613q0-6.067,0-12.135c0-1.941.285-2.229,2.185-2.234,2.036-.005,4.073,0,6.194,0v-2.848c-2.087,0-4.158,0-6.23,0-1.779,0-2.146-.367-2.148-2.161q-.008-6.374,0-12.748c0-1.651.369-2.008,2.025-2.01q7.906-.007,15.812,0c1.616,0,1.971.341,1.974,1.922q.014,6.558,0,13.116c0,1.466-.429,1.87-1.921,1.878-2.118.011-4.236,0-6.435,0v2.848c2.062,0,4.1,0,6.128,0,1.946,0,2.229.276,2.231,2.174q.007,6.312,0,12.625c0,1.775-.4,2.177-2.142,2.182-2.039.006-4.077,0-6.207,0v2.749c1.958,0,3.943,0,5.927,0,2.119,0,2.422.3,2.423,2.393q0,6.251,0,12.5c0,1.764-.317,2.078-2.073,2.085-2.076.008-4.151,0-6.3,0v2.848h5.062c.613,0,1.227-.022,1.838.011a1.36,1.36,0,0,1,1.459,1.467q.017,6.987,0,13.973c0,1.008-.581,1.469-1.565,1.469h-16.67a1.411,1.411,0,0,1-1.568-1.608c-.007-1.389-.062-2.781.013-4.166.055-1.008-.26-1.32-1.294-1.313-6.823.044-13.647.023-20.47.022-2.109,0-2.387-.282-2.387-2.417,0-4.043,0-8.085,0-12.182-2.32,1.049-4.217-.188-6.143-1-1.458-.618-2.844-1.327-3.028-3.3a2.2,2.2,0,0,0-2.135-1.746A2.308,2.308,0,0,1,656,620.062c-.641-1.407-1.307-2.806-1.864-4.246a3.139,3.139,0,0,1,.312-3.337c.738-.955.443-2.042-.084-3.118a3.643,3.643,0,0,1-.4-2.251A25.369,25.369,0,0,1,655.5,603a3.485,3.485,0,0,1,2.888-2.462c1.126-.133,1.649-1.138,1.977-2.254a3.165,3.165,0,0,1,1.245-1.771,24.594,24.594,0,0,1,4.453-1.959,14.676,14.676,0,0,1,3.162-.31V582.83H648.061c0,1.646.005,3.261,0,4.876-.008,1.791-.373,2.157-2.15,2.161-2.04,0-4.081,0-6.217,0v2.848c.9,0,1.828-.01,2.753,0,6.492.081,5.55-.915,5.612,5.669.029,3.064.011,6.128,0,9.193-.005,1.675-.442,2.111-2.1,2.118-2.075.009-4.149,0-6.293,0v2.749c2.063,0,4.092,0,6.121,0,1.866,0,2.269.384,2.272,2.191q.01,6.374,0,12.748c0,1.675-.359,2.032-2.009,2.041-2.115.011-4.23,0-6.4,0v2.848q3.11,0,6.208,0c1.857,0,2.2.344,2.2,2.233q.007,6.313,0,12.625c0,1.735-.34,2.06-2.1,2.061q-7.845,0-15.69,0c-1.681,0-2.02-.332-2.023-2q-.011-6.435,0-12.87c0-1.7.368-2.047,2.118-2.05,2.04,0,4.081,0,6.221,0v-2.848c-1.963,0-3.95,0-5.936,0-2.192,0-2.4-.21-2.405-2.368q0-6.251,0-12.5c0-1.685.42-2.1,2.089-2.11,2.073-.008,4.146,0,6.285,0V609.7c-2.123,0-4.2.005-6.267,0-1.682-.006-2.1-.42-2.107-2.093q-.01-6.435,0-12.87c0-1.676.338-2.007,2.017-2.015,2.078-.01,4.156,0,6.328,0v-2.848c-2.068,0-4.139,0-6.209,0-1.8,0-2.135-.343-2.137-2.156q-.007-6.374,0-12.748c0-1.683.334-2.013,2.005-2.014q7.906-.007,15.812,0c1.643,0,1.987.357,2,2.041.01,1.625,0,3.249,0,5.024h1.585q10.174,0,20.348,0c1.839,0,2.2.367,2.2,2.235q0,5.577,0,11.154v.835a15.987,15.987,0,0,1,3.227.312,40.236,40.236,0,0,1,4.27,1.786,2.394,2.394,0,0,1,1.51,2.053,2.46,2.46,0,0,0,2.246,2.254,2.558,2.558,0,0,1,2.128,1.6c.6,1.293,1.187,2.592,1.7,3.919a3.286,3.286,0,0,1-.281,3.565,2.342,2.342,0,0,0,.144,2.975,2.3,2.3,0,0,1,.391,2.4,46.244,46.244,0,0,1-2.16,5.037,3.026,3.026,0,0,1-1.764,1.261,3.2,3.2,0,0,0-2.505,2.524,2.848,2.848,0,0,1-1.18,1.679,31.992,31.992,0,0,1-4.8,2.064A12.019,12.019,0,0,1,672.233,627.888Zm-15.541-13.311c.246.716.461,1.374.7,2.025a4.1,4.1,0,0,0,2.437,2.627,4.922,4.922,0,0,1,2.647,2.505c.7,2.162,2.4,2.591,4.106,3.159a2.212,2.212,0,0,0,1.479-.149,4.976,4.976,0,0,1,4.387-.3c1.945,1.017,3.448.206,5.016-.621a2.357,2.357,0,0,0,1.061-1.193,5.773,5.773,0,0,1,3.634-3.711c1.7-.647,2.944-3.728,2.158-5.4a4.493,4.493,0,0,1-.266-4.03c1.069-1.962.3-3.528-.577-5.135a2.552,2.552,0,0,0-1.231-1.006c-1.458-.594-2.862-1.416-3.3-2.907-.521-1.794-1.823-2.338-3.272-2.907a3.644,3.644,0,0,0-2.67,0,6,6,0,0,1-3.9.188c-1.966-.882-3.471-.22-5.042.628a2.6,2.6,0,0,0-1.127,1.291,5.818,5.818,0,0,1-3.567,3.628c-1.714.666-3,3.714-2.228,5.372a5.525,5.525,0,0,1-.021,4.959C656.962,613.924,656.83,614.259,656.692,614.577Zm39.622,20.611v11.14H710.4V635.2h-2.851c0,2.266.054,4.43-.037,6.588-.023.553-.4,1.413-.8,1.546a2.578,2.578,0,0,1-1.809-.482,11.419,11.419,0,0,1-1.683-1.584c-.478.55-.847.987-1.23,1.41-.539.6-1.123,1.115-2.015.771-.935-.361-.86-1.179-.859-1.962,0-2.073,0-4.145,0-6.294Zm-51.129-.079a11.306,11.306,0,0,1-1.413-.01c-1.108-.148-1.5.249-1.439,1.405a49.792,49.792,0,0,1-.011,5.387,1.883,1.883,0,0,1-.779,1.449,2.17,2.17,0,0,1-1.716-.388,11.417,11.417,0,0,1-1.654-1.935,15.286,15.286,0,0,1-1.9,2.112,1.874,1.874,0,0,1-1.549.223,1.689,1.689,0,0,1-.755-1.226,25.243,25.243,0,0,1-.039-2.936q0-1.991,0-3.985h-2.806V646.37h14.064Zm65.187-8.537v-11.15h-2.823c0,2.191.056,4.307-.035,6.416a2.481,2.481,0,0,1-.771,1.733c-.733.525-1.489.031-2-.627-.4-.513-.712-1.089-1.064-1.638l-.6.239a8.675,8.675,0,0,1-1.45,1.638,2.344,2.344,0,0,1-1.737.373c-.357-.1-.645-.85-.747-1.353a9.98,9.98,0,0,1-.033-1.953c0-1.612,0-3.224,0-4.8H696.3v11.126Zm-76.445-11.139h-2.811v11.139h14.057V615.417h-2.815c0,2.227.061,4.383-.04,6.532a2.109,2.109,0,0,1-.871,1.625,2.364,2.364,0,0,1-1.787-.565,9.718,9.718,0,0,1-1.463-1.873c-.7.869-1.072,1.352-1.465,1.819-.538.64-1.274,1.147-2.006.628a2.469,2.469,0,0,1-.766-1.732C633.872,619.74,633.927,617.624,633.927,615.432Zm-2.851-8.729h14.077V595.6h-2.794c0,2.293.056,4.493-.04,6.686a1.98,1.98,0,0,1-.864,1.513,2.195,2.195,0,0,1-1.69-.47,12.011,12.011,0,0,1-1.66-1.847,17.858,17.858,0,0,1-1.89,2.112,1.652,1.652,0,0,1-1.419.232,2.051,2.051,0,0,1-.831-1.192,4.307,4.307,0,0,1-.036-1.336c0-1.9,0-3.8,0-5.722h-2.851Zm72.315-5.139a15.872,15.872,0,0,1-1.827,1.907,1.85,1.85,0,0,1-1.5.37,1.984,1.984,0,0,1-.9-1.376,26.792,26.792,0,0,1-.045-3.3c0-1.2,0-2.405,0-3.566h-2.823v11.12h14.085V595.568h-2.831c0,2.3.057,4.534-.042,6.763a1.406,1.406,0,0,1-2.5,1.047A12.3,12.3,0,0,1,703.391,601.564Zm-7.072-25.8v11.2H710.38V575.78h-2.831c0,2.228-.013,4.383.007,6.536.007.788-.075,1.632-.953,1.734a2.753,2.753,0,0,1-1.781-.663,9.2,9.2,0,0,1-1.354-1.8,19.461,19.461,0,0,1-2.021,2.194,1.643,1.643,0,0,1-1.418.26,2.333,2.333,0,0,1-.879-1.29,4.194,4.194,0,0,1-.033-1.338c0-1.864,0-3.728,0-5.647Zm-65.237,11.17h14.056V575.777h-2.78c0,2.265-.012,4.458.007,6.652.007.759-.142,1.521-.948,1.621a2.539,2.539,0,0,1-1.7-.57,10.6,10.6,0,0,1-1.462-1.859,14.769,14.769,0,0,1-1.1,1.319c-.667.6-1.168,1.6-2.337,1.153-1.195-.461-.87-1.53-.883-2.428-.027-1.946-.008-3.893-.008-5.89h-2.845Zm8.43-7.621v-3.528h-2.754v3.5A1.742,1.742,0,0,1,639.512,579.312Zm65.21-.019v-3.484h-2.747V579.3A1.747,1.747,0,0,1,704.722,579.293Zm-2.753,16.26v3.52a1.8,1.8,0,0,1,2.721-.085v-3.435Zm-65.225,3.1H639.5V595.59h-2.757Zm2.768,19.758v-2.987H636.79v2.987Zm62.472-3.025v3.459a1.786,1.786,0,0,1,2.719-.066v-3.393Zm-62.43,19.8H636.78v3.019h2.774Zm62.411,0v3.446a1.8,1.8,0,0,1,2.748-.031V635.19Z" fill="#122253"/>
    <path id="Trazado_994428" data-name="Trazado 994428" d="M766.268,693.76l1.3,2.278a7.185,7.185,0,0,0-3.633,6.3,6.792,6.792,0,0,0,2.189,5.026,7.133,7.133,0,0,0,10.031-.229c3.1-3.289,2.55-7.232-1.622-11.181l1.211-2.184c3.455,1.284,5.788,6.091,5.056,10.272a9.943,9.943,0,0,1-19.533.154C760.412,700.077,762.691,695.251,766.268,693.76Z" transform="translate(-100.278 -91.197)" fill="#122253"/>
    <path id="Trazado_994429" data-name="Trazado 994429" d="M796,688.242h2.766V691H796Z" transform="translate(-126.633 -87.032)" fill="#122253"/>
  </g>
</svg>
