<svg xmlns="http://www.w3.org/2000/svg" xmlns:xlink="http://www.w3.org/1999/xlink" width="477.095" height="487" viewBox="0 0 477.095 487">
  <defs>
    <clipPath id="clip-path">
      <path id="SVGID" d="M137.063,261.3s46.54-42.533,82.991-69.864l18.908,21.36s-56.322,77.58-70.378,82.538S133.093,289.571,137.063,261.3Z" transform="translate(-136.581 -191.435)" fill="none"/>
    </clipPath>
  </defs>
  <g id="Grupo_1178365" data-name="Grupo 1178365" transform="translate(-832.905 -8833.175)">
    <g id="Grupo_1178068" data-name="Grupo 1178068" transform="translate(937.04 8833.175)">
      <ellipse id="Elipse_13690" data-name="Elipse 13690" cx="186.48" cy="18.964" rx="186.48" ry="18.964" transform="translate(0 421.507)" fill="#d7e2f7"/>
      <g id="Grupo_1178067" data-name="Grupo 1178067" transform="translate(36.886)">
        <path id="Trazado_994817" data-name="Trazado 994817" d="M308.491,186.474c5.481-4.53,11.057-12.7,10.576-20.158a23.333,23.333,0,0,0-10.617-18.18c3.91,2.039,8.584-2.209,9.231-6.862s-1.336-9.2-3.138-13.486-3.5-9.068-2.278-13.584c1.441-5.334,6.475-8.57,8.819-13.512a14.917,14.917,0,0,0-.374-13.189,12.655,12.655,0,0,0-10.5-6.654c3.134-9.072.9-20.041-5.459-26.84a22.474,22.474,0,0,0-24.82-5.523c-7.757-9.086-21.528-11.248-31.342-4.92-14.543,9.378-17.218,31.787-30.261,43.477-6.344,5.686-14.544,8.272-21.531,12.988-9.8,6.617-21.951,15.911-25.268,26.952s-.6,23.055,7.369,32.621c-6.017.618-11.458,3.821-13.752,8.095s-.5,9.965,3.227,13.607Z" transform="translate(-132.118 -39.942)" fill="#342f3e"/>
        <g id="Grupo_1178036" data-name="Grupo 1178036" transform="translate(164.439 135.519)">
          <path id="Trazado_994818" data-name="Trazado 994818" d="M278.087,156.581s23.513-1.3,37.663,17.16,46.719,68.984,46.719,68.984l-32.04,19.9-37.608-36.78Z" transform="translate(-278.087 -156.561)" fill="#dd3b84"/>
        </g>
        <path id="Trazado_994819" data-name="Trazado 994819" d="M367.954,254.05s22.093,38.1,2.187,50.783c-12.676,8.076-20.24,3.683-20.24,3.683l-8.854-50.529Z" transform="translate(-103.445 -5.243)" fill="#cf6141"/>
        <g id="Grupo_1178037" data-name="Grupo 1178037" transform="translate(0.362 128.335)">
          <path id="Trazado_994820" data-name="Trazado 994820" d="M200.311,150.38s-19.815-.51-33.518,19.861-41.375,103.646-24.729,122.687,31.767,6.111,31.767,6.111L214.32,177.317Z" transform="translate(-136.892 -150.379)" fill="#dd3b84"/>
          <path id="Trazado_994821" data-name="Trazado 994821" d="M203.825,203.222,173.832,293.4s-15.118,12.934-31.771-6.112c-7.472-8.553-6.008-30.051-.883-53,.476-.012,12.887-.337,36.686-10.633,20.3-8.774,19.964-31.329,19.313-38.476C198.154,191.357,201.338,198.4,203.825,203.222Z" transform="translate(-136.892 -144.74)" fill="#b83470"/>
        </g>
        <g id="Grupo_1178038" data-name="Grupo 1178038" transform="translate(48.086 117.829)">
          <path id="Trazado_994822" data-name="Trazado 994822" d="M195.017,205.236v.239c0,1.346,0,2.453.088,3.32.832,8.824-4.606,27.786,0,40.408s3.358,42.531,3.358,42.531h89.92c0-23.569,19.671-30.748,18.721-50.189-.088-1.794-.118-3.47-.088-5.055.074-9.889,1.948-16.272,3.342-19.67a14.944,14.944,0,0,0,1.073-7.049c-2.342-25.485,2.519-45.629.429-46.141-2.17-.508-13.729-4.516-19.879-8.075s-11.2-2.512-13.759,0c0,0-51.994-5.72-58.748-12.622-4.443-4.54-8.053,1.855-13.729,3.8-12.034,4.1-27.784,9.511-27.784,9.511C197.869,162.135,195.165,192.644,195.017,205.236Z" transform="translate(-177.961 -141.338)" fill="#dd3b84"/>
          <path id="Trazado_994823" data-name="Trazado 994823" d="M192.976,240.259c4.606,12.622,3.358,42.531,3.358,42.531h89.92c0-23.569,19.671-30.748,18.721-50.189-.088-1.794-.119-3.47-.088-5.055h-77.6c-13.164,0-29.88-17.118-34.4-31.017,0,1.346,0,2.453.088,3.32C193.808,208.675,188.37,227.637,192.976,240.259Z" transform="translate(-175.831 -132.394)" fill="#b83470"/>
          <path id="Trazado_994824" data-name="Trazado 994824" d="M195.516,202.653l16.931-13.967,21.5,24.662s-12.37,12.622-6.19,15.472l-6.289,1.865-33.3-24.116Z" transform="translate(-176.307 -133.665)" fill="#b83470"/>
        </g>
        <path id="Trazado_994825" data-name="Trazado 994825" d="M178.349,156.838s20.52-15.848,53.874-17.545,80.169,17.819,84.371,26.83-6.625,40.591-6.625,40.591L222.037,202.7l-28.416-32.619Z" transform="translate(-129.812 -23.857)" fill="#dd3b84"/>
        <g id="Grupo_1178039" data-name="Grupo 1178039" transform="translate(8.882 116.251)">
          <path id="Trazado_994826" data-name="Trazado 994826" d="M177.54,156.834c4.138,13.393,6.809,32.133-6.067,41.443-21.327,15.422-13.124,11.421-8.531,27.529,2.817,9.876-9.044,3.83-18.718-2.7" transform="translate(-144.224 -137.249)" fill="none" stroke="#ed8ec2" stroke-miterlimit="10" stroke-width="0.75"/>
          <path id="Trazado_994827" data-name="Trazado 994827" d="M190.476,148.726c5.158,8.99,19.318,20.571,55.2-8.746" transform="translate(-136.728 -139.98)" fill="none" stroke="#ed8ec2" stroke-miterlimit="10" stroke-width="0.75"/>
          <path id="Trazado_994828" data-name="Trazado 994828" d="M231.894,238.051s5.07-31.284,35.787-26.472,26.188,39.939,26.188,39.939" transform="translate(-130.016 -128.458)" fill="none" stroke="#ed8ec2" stroke-miterlimit="10" stroke-width="0.75"/>
          <path id="Trazado_994829" data-name="Trazado 994829" d="M308.8,168.942c-4.893,14.055-5.106,35.435,32.076,45.815" transform="translate(-117.925 -135.286)" fill="none" stroke="#ed8ec2" stroke-miterlimit="10" stroke-width="0.75"/>
          <path id="Trazado_994830" data-name="Trazado 994830" d="M211.707,180.359c4.035-8.979,24.425-16.142,28.43-8.833s11.033,23.589,28.436,16.349,24.622,15.258-3.76,13.2-25.126,16.328-41.026,11.562S206.67,191.568,211.707,180.359Z" transform="translate(-133.716 -135.356)" fill="none" stroke="#ed8ec2" stroke-miterlimit="10" stroke-width="0.75"/>
        </g>
        <g id="Grupo_1178053" data-name="Grupo 1178053" transform="translate(99.961 27.46)">
          <path id="Trazado_994831" data-name="Trazado 994831" d="M242.83,152.878c18.756,2.823,21.094-1.215,21.094-1.215s-3.993-4.685-4.226-6.332c-.116-.765.526-4.117,1.227-7.449.8-3.784,1.694-7.567,1.694-7.567l-26.1-11.155s-.78,3.293-1.636,7.469c-.409,1.921-.818,4.038-1.189,6.1a1.215,1.215,0,0,0-.038.2c-1.083,5.2-8.018,8.933-10.522,10.117a.923.923,0,0,0-.38,1.343C224.042,146.318,228.472,150.716,242.83,152.878Z" transform="translate(-222.602 -54.563)" fill="#e29e79"/>
          <path id="Trazado_994832" data-name="Trazado 994832" d="M254.718,140.238l-.46,2.9a3.976,3.976,0,0,0,2.507,4.345l2.037.772-2.637-3.555a6.191,6.191,0,0,1-1.126-2.624Z" transform="translate(-217.479 -51.148)" fill="#ce7c59"/>
          <path id="Trazado_994833" data-name="Trazado 994833" d="M233.171,126.629c1.792,11.468,5.414,19.075,11.452,21.036,7.226,2.353,13.5-4.01,14.588-9.782.8-3.784,1.694-7.567,1.694-7.567l-26.1-11.155S234.027,122.453,233.171,126.629Z" transform="translate(-220.889 -54.563)" fill="#ce7c59"/>
          <path id="Trazado_994834" data-name="Trazado 994834" d="M287.729,85.759s5.228,41.518-19.829,55.345c-28.6,15.781-45.435-12.128-43.746-31.871a177.434,177.434,0,0,1,4.792-26.368s21.086,2.251,31.308-19.294c0,0,1.6,9.968,11.5,11.255S287.593,81.26,287.729,85.759Z" transform="translate(-222.369 -63.572)" fill="#e29e79"/>
          <g id="Grupo_1178052" data-name="Grupo 1178052" transform="translate(3.872 24.311)">
            <path id="Trazado_994835" data-name="Trazado 994835" d="M253.141,88.962s-1.92,13.747-.668,14.213,4.988,2.474,3.3,6.322a3.952,3.952,0,0,1-4.992,2.178" transform="translate(-221.907 -83.768)" fill="none" stroke="#342e3e" stroke-linecap="round" stroke-linejoin="round" stroke-width="0.748"/>
            <path id="Trazado_994836" data-name="Trazado 994836" d="M242.8,113.862s11.946,4.052,18.866,1.969c0,0-1.641,5.773-9.594,5.768C248.115,121.6,242.465,119.278,242.8,113.862Z" transform="translate(-223.202 -79.733)" fill="#efe7d2"/>
            <g id="Grupo_1178045" data-name="Grupo 1178045" transform="translate(42.712 2.65)">
              <path id="Trazado_994837" data-name="Trazado 994837" d="M269.722,104.326c4.353-1,8.287-.046,8.785,2.127s-2.626,4.745-6.98,5.743-8.287.046-8.785-2.127S265.369,105.324,269.722,104.326Z" transform="translate(-262.689 -83.992)" fill="#ad5b56"/>
              <g id="Grupo_1178044" data-name="Grupo 1178044" transform="translate(3.366)">
                <g id="Grupo_1178043" data-name="Grupo 1178043">
                  <g id="Grupo_1178041" data-name="Grupo 1178041" transform="translate(0.494 9.825)">
                    <g id="Grupo_1178040" data-name="Grupo 1178040">
                      <path id="Trazado_994838" data-name="Trazado 994838" d="M271.991,100.089c-.2,2.552-1.7,4.515-3.343,4.386s-2.816-2.3-2.615-4.855,1.7-4.516,3.342-4.386S272.192,97.537,271.991,100.089Z" transform="translate(-266.011 -95.228)" fill="#342f3e"/>
                    </g>
                  </g>
                  <g id="Grupo_1178042" data-name="Grupo 1178042">
                    <path id="Trazado_994839" data-name="Trazado 994839" d="M267.378,86.955c2.159-.978,6.129,2.168,8.269,4.861a1.488,1.488,0,0,1-.03,2.151s-3.62-3.353-7.383-3.029S265.219,87.933,267.378,86.955Z" transform="translate(-265.586 -86.773)" fill="#342f3e"/>
                  </g>
                </g>
              </g>
            </g>
            <g id="Grupo_1178051" data-name="Grupo 1178051">
              <path id="Trazado_994840" data-name="Trazado 994840" d="M235.095,101.67c-4.143-1.668-8.177-1.342-9.009.726s1.851,5.1,6,6.764,8.177,1.342,9.009-.725S239.238,103.337,235.095,101.67Z" transform="translate(-225.934 -81.881)" fill="#ad5b56"/>
              <g id="Grupo_1178050" data-name="Grupo 1178050" transform="translate(6.926)">
                <g id="Grupo_1178049" data-name="Grupo 1178049">
                  <g id="Grupo_1178047" data-name="Grupo 1178047" transform="translate(1.904 9.504)">
                    <g id="Grupo_1178046" data-name="Grupo 1178046">
                      <path id="Trazado_994841" data-name="Trazado 994841" d="M239.512,97.532c-.2,2.552-1.7,4.516-3.342,4.386s-2.816-2.3-2.615-4.855,1.7-4.515,3.342-4.386S239.713,94.98,239.512,97.532Z" transform="translate(-233.533 -92.671)" fill="#342f3e"/>
                    </g>
                  </g>
                  <g id="Grupo_1178048" data-name="Grupo 1178048">
                    <path id="Trazado_994842" data-name="Trazado 994842" d="M241.445,84.852c-1.98-1.3-6.392,1.182-8.928,3.507a1.486,1.486,0,0,0-.306,2.129s4.1-2.745,7.765-1.837S243.424,86.157,241.445,84.852Z" transform="translate(-231.894 -84.492)" fill="#342f3e"/>
                  </g>
                </g>
              </g>
            </g>
          </g>
          <path id="Trazado_994843" data-name="Trazado 994843" d="M223.014,141.144c2.357,3.392,6.934,2.639,8.024.033,1.012-2.372,2.293-8.964,2.552-10.175-1.1,5.153-8.473,9.135-9.057,9.371Z" transform="translate(-222.535 -52.644)" fill="#ce7c59"/>
        </g>
        <g id="Grupo_1178056" data-name="Grupo 1178056" transform="translate(94.391 111.619)">
          <path id="Trazado_994844" data-name="Trazado 994844" d="M247.506,139.489s3.922,23.02,15.689,23.511,26.967,4.412,31.134,13.238,3.677,12.257,3.677,12.257-76,1.716-77.466,1.226,1.716-45.352,1.716-48.784Z" transform="translate(-217.429 -135.428)" fill="#534c5f"/>
          <path id="Trazado_994845" data-name="Trazado 994845" d="M220.98,158.989s25.876.533,29.637,27.571l-30.355-.858S220.8,160.751,220.98,158.989Z" transform="translate(-217.411 -132.267)" fill="#423c4e"/>
          <path id="Trazado_994846" data-name="Trazado 994846" d="M240.839,143.547s.86,20.46,18.885,22.544a107.636,107.636,0,0,0,20.486.717,60.36,60.36,0,0,0-20.369-4.272c-8.961-.365-13.375-13.831-14.964-20.213Z" transform="translate(-214.076 -134.968)" fill="#423c4e"/>
          <path id="Trazado_994847" data-name="Trazado 994847" d="M264.539,164.018a.912.912,0,1,0,.912-.912A.912.912,0,0,0,264.539,164.018Z" transform="translate(-210.235 -131.6)" fill="#1f1d23"/>
          <path id="Trazado_994848" data-name="Trazado 994848" d="M259.488,163.52a.912.912,0,1,0,.912-.912A.912.912,0,0,0,259.488,163.52Z" transform="translate(-211.054 -131.681)" fill="#1f1d23"/>
          <path id="Trazado_994849" data-name="Trazado 994849" d="M253.889,162.916A.912.912,0,1,0,254.8,162,.912.912,0,0,0,253.889,162.916Z" transform="translate(-211.961 -131.779)" fill="#1f1d23"/>
          <path id="Trazado_994850" data-name="Trazado 994850" d="M248.48,160.482a.912.912,0,1,0,.912-.912A.912.912,0,0,0,248.48,160.482Z" transform="translate(-212.838 -132.173)" fill="#1f1d23"/>
          <path id="Trazado_994851" data-name="Trazado 994851" d="M241.851,151.77a.912.912,0,1,0,.912-.912A.912.912,0,0,0,241.851,151.77Z" transform="translate(-213.912 -133.585)" fill="#1f1d23"/>
          <path id="Trazado_994852" data-name="Trazado 994852" d="M244.213,156.688a.912.912,0,1,0,.912-.912A.912.912,0,0,0,244.213,156.688Z" transform="translate(-213.529 -132.788)" fill="#1f1d23"/>
          <path id="Trazado_994853" data-name="Trazado 994853" d="M273.266,162.608s-5.914,6.941-3.156,18.708h19.508S290.213,168.353,273.266,162.608Z" transform="translate(-209.451 -131.681)" fill="#423c4e"/>
          <path id="Trazado_994854" data-name="Trazado 994854" d="M247.572,136.875c-4.042-1.048-27.6-2.051-29.319,2.605-1.13,3.062-.03,6.19,2.421,6.681s28.437-.245,29.418,0S254.191,138.591,247.572,136.875Z" transform="translate(-217.808 -135.994)" fill="#fff"/>
          <path id="Trazado_994855" data-name="Trazado 994855" d="M298.26,182.387h2.145s.766-4.444-2.145-4.995-79.029.092-79.4.552-.367,5.63,0,5.757S298.26,182.387,298.26,182.387Z" transform="translate(-217.682 -129.319)" fill="#fff"/>
          <g id="Grupo_1178055" data-name="Grupo 1178055" transform="translate(3.57 28.17)">
            <g id="Grupo_1178054" data-name="Grupo 1178054">
              <path id="Trazado_994856" data-name="Trazado 994856" d="M244.336,182.068q-.04-.328-.085-.65" transform="translate(-217.093 -156.802)" fill="none" stroke="#fff" stroke-miterlimit="10" stroke-width="0.56"/>
              <path id="Trazado_994857" data-name="Trazado 994857" d="M247.665,183.586c-3.39-19.155-20.836-22.644-25.7-23.248" transform="translate(-220.704 -160.218)" fill="none" stroke="#fff" stroke-miterlimit="10" stroke-width="0.56" stroke-dasharray="1.087 1.087"/>
              <path id="Trazado_994858" data-name="Trazado 994858" d="M221.524,160.286c-.416-.041-.644-.051-.644-.051" transform="translate(-220.88 -160.235)" fill="none" stroke="#fff" stroke-miterlimit="10" stroke-width="0.56"/>
            </g>
          </g>
          <path id="Trazado_994859" data-name="Trazado 994859" d="M267.718,161.066s-1.706-.228-2.395,2.917" transform="translate(-210.108 -131.931)" fill="none" stroke="#fff" stroke-linecap="round" stroke-miterlimit="10" stroke-width="0.63"/>
          <path id="Trazado_994860" data-name="Trazado 994860" d="M264.038,160.238a4.244,4.244,0,0,0-3.765,3.333" transform="translate(-210.926 -132.065)" fill="none" stroke="#fff" stroke-linecap="round" stroke-miterlimit="10" stroke-width="0.63"/>
          <path id="Trazado_994861" data-name="Trazado 994861" d="M258.3,159.706a4.242,4.242,0,0,0-3.765,3.333" transform="translate(-211.856 -132.151)" fill="none" stroke="#fff" stroke-linecap="round" stroke-miterlimit="10" stroke-width="0.63"/>
          <path id="Trazado_994862" data-name="Trazado 994862" d="M252.728,157.74s-.3.978-3.463,2.9" transform="translate(-212.71 -132.47)" fill="none" stroke="#fff" stroke-linecap="round" stroke-miterlimit="10" stroke-width="0.63"/>
          <path id="Trazado_994863" data-name="Trazado 994863" d="M249.681,154.073A9.34,9.34,0,0,1,245,156.965" transform="translate(-213.402 -133.064)" fill="none" stroke="#fff" stroke-linecap="round" stroke-miterlimit="10" stroke-width="0.63"/>
          <path id="Trazado_994864" data-name="Trazado 994864" d="M247.07,148.8s-.3,2.682-4.916,3.3" transform="translate(-213.863 -133.918)" fill="none" stroke="#fff" stroke-linecap="round" stroke-miterlimit="10" stroke-width="0.63"/>
          <path id="Trazado_994865" data-name="Trazado 994865" d="M241.7,149.747s4.157-.107,4.34-2.494c0,0,10.149,2.754,9.826-.367s-9.419-.367-9.419-.367,6.525-3.535,4.229-6.2-6.473,5.4-6.473,5.4" transform="translate(-213.937 -135.38)" fill="none" stroke="#fff" stroke-linecap="round" stroke-linejoin="round" stroke-width="0.63"/>
          <path id="Trazado_994866" data-name="Trazado 994866" d="M220.486,182.715" transform="translate(-217.374 -128.422)" fill="#ebae3b"/>
        </g>
        <g id="Grupo_1178059" data-name="Grupo 1178059" transform="translate(11.45 264.133)">
          <path id="Trazado_994867" data-name="Trazado 994867" d="M148.189,335.392c-5.9,21.746,5.616,51.6,50.665,78.176s96.59,10.357,96.59,10.357Z" transform="translate(-146.381 -256.194)" fill="#423c4e"/>
          <path id="Trazado_994868" data-name="Trazado 994868" d="M199.405,271.333c-.679,15.358-27.25,43.562-27.25,81s78.555,51.678,112.583,51.678,75.35-19.584,75.35-19.584,89.378,1.945,88.894-20.423-5.314-35.03-27.055-35.994-56.525,0-56.525,0l-60.786-60.776Z" transform="translate(-142.266 -267.239)" fill="#423c4e"/>
          <g id="Grupo_1178057" data-name="Grupo 1178057" transform="translate(0 60.534)">
            <path id="Trazado_994869" data-name="Trazado 994869" d="M404.44,426.5H317.492a67.149,67.149,0,0,1-7.221-.449c-2.318-2.632-1.931-6.64-.683-11.246,1.694-6.372,4.992-13.909,4.992-20.608,8.706.6,17.116-3.62,25.852-2.243a21.389,21.389,0,0,1,10.4,4.785s.505,1.047,4.16,1.406h.059c2.912.27,7.845.089,16.135-1.406,7.043-1.278,19.9.555,25.936,5.236C407.192,409.774,408.229,423.19,404.44,426.5Z" transform="translate(-120.156 -307.607)" fill="#ce7c59"/>
            <path id="Trazado_994870" data-name="Trazado 994870" d="M323.534,397.06l-4.309,31.854c-14.7,0-39.46-2.73-65.888-8.489,5.729-11.231,12.213-27.892,12.751-46.417C283.737,388.24,304.491,397.06,323.534,397.06Z" transform="translate(-129.11 -310.47)" fill="#ce7c59"/>
            <path id="Trazado_994871" data-name="Trazado 994871" d="M146.459,347.207v.089c-.654,15.314,11.589,25.992,29.864,42.323,21.335,19.052,59.313,32.033,94.348,39.66a118.234,118.234,0,0,0,11.857-36.221,88,88,0,0,0,.891-10.2c-1.723-1.376-3.447-2.811-5.111-4.307-18.631-16.75-49.566-23.748-64.78-45.493s-58.421-15.823-65.286,4.935A32.921,32.921,0,0,0,146.459,347.207Z" transform="translate(-146.434 -319.331)" fill="#534c5f"/>
            <path id="Trazado_994872" data-name="Trazado 994872" d="M146.459,343.4c-.654,15.314,11.589,25.992,29.864,42.323,21.335,19.052,59.313,32.033,94.348,39.66a118.234,118.234,0,0,0,11.857-36.221c-36.61,6.7-93.069-7.148-108.284-18.753C160.634,360,148.005,357.365,146.459,343.4Z" transform="translate(-146.434 -315.431)" fill="#423c4e"/>
          </g>
          <g id="Grupo_1178058" data-name="Grupo 1178058" transform="translate(23.525 60.696)">
            <path id="Trazado_994873" data-name="Trazado 994873" d="M288.4,376.384c9.687,5.336,16.641,14.623,21.514,23.885v.026a107.328,107.328,0,0,1,6.716,15.853c1.1-.314,2.2-.628,3.239-.916,24.278-6.356,45.525-9.34,62.937-20.406,15.244-9.706,41.691-19.384,48.615-36.284.029-.026.029-.026.029-.052a21.826,21.826,0,0,0,1.664-7.481c.951-21.686-7.162-30.346-25.14-31.053-17.948-.732-61.423-.418-61.423-.418,15.957,5.546,24.159,15.748,24.159,15.748l25.139-5.1s-10.638,9.785-47.367,14.886C318.981,349.178,300.587,364.533,288.4,376.384Z" transform="translate(-146.952 -319.471)" fill="#534c5f"/>
            <path id="Trazado_994874" data-name="Trazado 994874" d="M168.7,426.5h86.949a67.168,67.168,0,0,0,7.221-.449c2.318-2.632,1.931-6.64.683-11.246-1.693-6.372-4.992-13.909-4.992-20.608-8.707.6-17.116-3.62-25.852-2.243a21.389,21.389,0,0,0-10.4,4.785s-.505,1.047-4.16,1.406h-.059c-2.912.27-7.845.089-16.135-1.406-7.042-1.278-19.9.555-25.936,5.236C165.953,409.774,164.916,423.19,168.7,426.5Z" transform="translate(-166.679 -307.769)" fill="#e29e79"/>
            <path id="Trazado_994875" data-name="Trazado 994875" d="M191.59,423.274h60.026a67.168,67.168,0,0,0,7.221-.449c2.318-2.632,1.931-6.64.683-11.246C235.094,415.2,200.088,412.028,191.59,423.274Z" transform="translate(-162.642 -304.543)" fill="#ce7c59"/>
            <path id="Trazado_994876" data-name="Trazado 994876" d="M210.973,398.105c9.36,0,13.669-3.05,14.561-6.191a21.389,21.389,0,0,0-10.4,4.785S214.628,397.746,210.973,398.105Z" transform="translate(-159.501 -307.73)" fill="#423c4e"/>
            <path id="Trazado_994877" data-name="Trazado 994877" d="M250.059,429.819c23.089-2.459,51.765-15.355,73.487-21.609-2.586-7.691-6.835-17.893-13.461-26.553-.029-.052-.059-.079-.089-.131a48.4,48.4,0,0,0-14.679-13.08c-2.971,2.877-5.586,5.572-7.875,7.822-11.738,11.485-29.627,20.824-41.691,21.688,0,6.724,3.3,14.257,4.992,20.615C251.991,423.174,252.377,427.2,250.059,429.819Z" transform="translate(-153.865 -311.534)" fill="#e29e79"/>
            <path id="Trazado_994878" data-name="Trazado 994878" d="M249.458,427.977c23.089-2.459,51.765-15.355,73.488-21.609-2.586-7.69-6.835-17.893-13.461-26.553,7.608,12.583-5.021,22.263-27.635,29.483a238.053,238.053,0,0,1-31.707,7.43C251.391,421.332,251.776,425.361,249.458,427.977Z" transform="translate(-153.264 -309.691)" fill="#ce7c59"/>
            <path id="Trazado_994879" data-name="Trazado 994879" d="M306.918,394.82v.026a107.328,107.328,0,0,1,6.716,15.853c1.1-.314,2.2-.628,3.239-.916,24.278-6.356,45.525-9.34,62.937-20.406,15.244-9.706,41.691-19.384,48.615-36.284-7.994,9.287-25.764,5.467-35.569,9.26C380.286,367.247,324.717,387.678,306.918,394.82Z" transform="translate(-143.952 -314.022)" fill="#423c4e"/>
          </g>
        </g>
        <g id="Grupo_1178061" data-name="Grupo 1178061" transform="translate(52.067 217.884)">
          <g id="Grupo_1178060" data-name="Grupo 1178060">
            <rect id="Rectángulo_455090" data-name="Rectángulo 455090" width="137.924" height="128.064" transform="translate(20.4)" fill="#d8993f"/>
            <rect id="Rectángulo_455091" data-name="Rectángulo 455091" width="54.39" height="128.064" transform="translate(158.324)" fill="#f7bd61"/>
            <path id="Trazado_994880" data-name="Trazado 994880" d="M339.711,227.44l-17.49,40.139H181.387l20.4-40.139Z" transform="translate(-181.387 -227.44)" fill="#ffd392"/>
            <path id="Trazado_994881" data-name="Trazado 994881" d="M364.436,227.44l20.256,40.139H364.436Z" transform="translate(-151.722 -227.44)" fill="#d8993f"/>
          </g>
        </g>
        <path id="Trazado_994882" data-name="Trazado 994882" d="M137.063,261.3s46.54-42.533,82.991-69.864l18.908,21.36s-56.322,77.58-70.378,82.538S133.093,289.571,137.063,261.3Z" transform="translate(-136.581 -15.391)" fill="#dd3b84"/>
        <g id="Grupo_1178065" data-name="Grupo 1178065" transform="translate(0 176.044)">
          <g id="Grupo_1178064" data-name="Grupo 1178064">
            <g id="Grupo_1178063" data-name="Grupo 1178063" clip-path="url(#clip-path)">
              <g id="Grupo_1178062" data-name="Grupo 1178062" transform="translate(42.455 6.811)">
                <path id="Trazado_994883" data-name="Trazado 994883" d="M173.115,286.95s5.607-55.614,40.382-50.258" transform="translate(-173.115 -190.97)" fill="none" stroke="#ed8ec2" stroke-miterlimit="10" stroke-width="0.75"/>
                <path id="Trazado_994884" data-name="Trazado 994884" d="M197.906,197.3c-.1.3,22.735,22.2-1.319,25.485s-12.024-17.061-12.024-17.061" transform="translate(-171.747 -197.296)" fill="none" stroke="#ed8ec2" stroke-miterlimit="10" stroke-width="0.75"/>
              </g>
            </g>
          </g>
        </g>
        <path id="Trazado_994885" data-name="Trazado 994885" d="M211.339,195.621l7.415-6.324,11.439,12.469-6.776,7.5Z" transform="translate(-124.466 -15.737)" fill="#e29e79"/>
        <path id="Trazado_994886" data-name="Trazado 994886" d="M256.464,184.9c-1.069,3.114-12.411,14.956-17.733,15.85a24.78,24.78,0,0,0-9.575,4.056l-11.435-12.469s.585-4.4,1.283-7.558l5.278-.043,3.336.051,1.632-.34c-.046.116-.07.186-.081.221.07-.07.337-.383.779-.86l.128-.128c2.3-2.51,8.471-9.1,12.143-11.9,4.59-3.5,4.59,1.255,3.719,2.894,0,0,2.568-2.487,4.706-1.011,2.01,1.394-.291,4.172-.558,4.486.337-.244,3.533-2.533,5.392-1.534,1.976,1.069-2.208,5.415-2.208,5.415S257.533,181.785,256.464,184.9Z" transform="translate(-123.431 -18.779)" fill="#e29e79"/>
        <path id="Trazado_994887" data-name="Trazado 994887" d="M243.222,174.1a38.38,38.38,0,0,1-8.757,8.67" transform="translate(-120.718 -18.201)" fill="none" stroke="#342e3e" stroke-linecap="round" stroke-linejoin="round" stroke-width="0.748"/>
        <path id="Trazado_994888" data-name="Trazado 994888" d="M246.878,177.085s-4.12,5.606-9.37,8.067" transform="translate(-120.225 -17.716)" fill="none" stroke="#342e3e" stroke-linecap="round" stroke-linejoin="round" stroke-width="0.748"/>
        <path id="Trazado_994889" data-name="Trazado 994889" d="M249.334,180.425A41.131,41.131,0,0,1,242,187.646" transform="translate(-119.497 -17.175)" fill="none" stroke="#342e3e" stroke-linecap="round" stroke-linejoin="round" stroke-width="0.748"/>
        <g id="Grupo_1178066" data-name="Grupo 1178066" transform="translate(241.964 270.286)">
          <path id="Trazado_994890" data-name="Trazado 994890" d="M365.805,275.167s-7-4.939-9.357-1.289,6.441,7.73,6.441,7.73-18.122,0-17.972,3.221,2.727,3.435,2.727,3.435-2.88,2.147-2.729,4.509,2.729,2.362,2.729,2.362-3.522,1.5-2.727,4.08,2.727,2.362,2.727,2.362a4.123,4.123,0,0,0,2.148,3.65c2.362,1.5,17.607-.43,19.11-1.718s5.154-8.589,4.509-15.889S365.805,275.167,365.805,275.167Z" transform="translate(-344.8 -272.534)" fill="#e29e79"/>
          <path id="Trazado_994891" data-name="Trazado 994891" d="M347.249,286.071s6.893.79,11.5,0" transform="translate(-344.404 -270.34)" fill="none" stroke="#342e3e" stroke-linecap="round" stroke-linejoin="round" stroke-width="0.748"/>
          <path id="Trazado_994892" data-name="Trazado 994892" d="M347.249,291.984a48.142,48.142,0,0,0,12.5,0" transform="translate(-344.404 -269.382)" fill="none" stroke="#342e3e" stroke-linecap="round" stroke-linejoin="round" stroke-width="0.748"/>
          <path id="Trazado_994893" data-name="Trazado 994893" d="M347.249,297.686a29.227,29.227,0,0,0,12.5-1.142" transform="translate(-344.404 -268.643)" fill="none" stroke="#342e3e" stroke-linecap="round" stroke-linejoin="round" stroke-width="0.748"/>
        </g>
        <path id="Trazado_994894" data-name="Trazado 994894" d="M291.613,189.3s.644,19.686-2.491,30.624l17.261,13.7s-11.04-10.654-12.005-21.138S291.613,189.3,291.613,189.3Z" transform="translate(-111.86 -15.737)" fill="#b83470"/>
      </g>
    </g>
    <g id="Grupo_1178071" data-name="Grupo 1178071" transform="translate(832.905 9109.66)">
      <path id="Trazado_994895" data-name="Trazado 994895" d="M265.827,450.735c0-6.351-56.1-11.5-125.3-11.5s-125.3,5.148-125.3,11.5,56.1,11.5,125.3,11.5S265.827,457.084,265.827,450.735Z" transform="translate(-15.227 -251.718)" fill="#d7e2f7"/>
      <g id="Grupo_1178069" data-name="Grupo 1178069" transform="translate(39.484 74.117)">
        <path id="Trazado_994896" data-name="Trazado 994896" d="M140.12,466.548H53.1a3.9,3.9,0,0,1-3.9-3.9V345.546a3.9,3.9,0,0,1,3.9-3.9h87.021v124.9Z" transform="translate(-49.205 -341.65)" fill="#c27f36"/>
        <path id="Trazado_994897" data-name="Trazado 994897" d="M218.649,466.548H127.441V341.65h91.208a3.9,3.9,0,0,1,3.9,3.9V462.652A3.894,3.894,0,0,1,218.649,466.548Z" transform="translate(-36.526 -341.65)" fill="#ecaf43"/>
        <rect id="Rectángulo_455092" data-name="Rectángulo 455092" width="12.497" height="24.145" transform="translate(34.438 100.753)" fill="#f4e7d3"/>
        <rect id="Rectángulo_455093" data-name="Rectángulo 455093" width="12.497" height="24.145" transform="translate(34.438 0.001)" fill="#f4e7d3"/>
        <rect id="Rectángulo_455094" data-name="Rectángulo 455094" width="11.767" height="11.959" transform="translate(166.412 105.681)" fill="#c27f36"/>
        <rect id="Rectángulo_455095" data-name="Rectángulo 455095" width="11.767" height="11.959" transform="translate(152.797 105.681)" fill="#c27f36"/>
      </g>
      <g id="Grupo_1178070" data-name="Grupo 1178070" transform="translate(71.341)">
        <path id="Trazado_994898" data-name="Trazado 994898" d="M131.424,353.16H78.968a2.349,2.349,0,0,1-2.349-2.349V280.218a2.349,2.349,0,0,1,2.349-2.349h52.457Z" transform="translate(-76.619 -277.869)" fill="#d8993f"/>
        <path id="Trazado_994899" data-name="Trazado 994899" d="M178.763,353.16H123.781V277.87h54.982a2.349,2.349,0,0,1,2.349,2.349v70.594A2.349,2.349,0,0,1,178.763,353.16Z" transform="translate(-68.976 -277.869)" fill="#f7bd61"/>
        <rect id="Rectángulo_455096" data-name="Rectángulo 455096" width="7.532" height="14.555" transform="translate(20.76 60.735)" fill="#f4e7d3"/>
        <rect id="Rectángulo_455097" data-name="Rectángulo 455097" width="7.532" height="14.555" transform="translate(20.76 0.001)" fill="#f4e7d3"/>
        <rect id="Rectángulo_455098" data-name="Rectángulo 455098" width="7.093" height="7.209" transform="translate(100.315 63.706)" fill="#c27f36"/>
        <rect id="Rectángulo_455099" data-name="Rectángulo 455099" width="7.093" height="7.209" transform="translate(92.108 63.706)" fill="#c27f36"/>
      </g>
      <path id="Trazado_994900" data-name="Trazado 994900" d="M80.909,277.87,64.642,292.425h56.107l12.616-14.555Z" transform="translate(-7.219 -277.869)" fill="#ffd392"/>
      <path id="Trazado_994901" data-name="Trazado 994901" d="M178.763,277.87l18,14.555H136.874L123.781,277.87Z" transform="translate(2.365 -277.869)" fill="#ffd392"/>
    </g>
  </g>
</svg>
