<svg xmlns="http://www.w3.org/2000/svg" width="398.446" height="317.463" viewBox="0 0 398.446 317.463">
  <g id="Grupo_1177771" data-name="Grupo 1177771" transform="translate(-180 -3072.165)">
    <path id="Rectángulo_5159" data-name="Rectángulo 5159" d="M35.762,0H220.268A35.762,35.762,0,0,1,256.03,35.762V239.022a75.137,75.137,0,0,1-75.137,75.137H75.137A75.137,75.137,0,0,1,0,239.022V35.762A35.762,35.762,0,0,1,35.762,0Z" transform="translate(180 3073.817)" fill="#1e3a8a"/>
    <path id="Trazado_103528" data-name="Trazado 103528" d="M1029.643,543.512H952.862c-50.076,0-90.818-27.6-90.818-61.514V256.75c0-16.377,19.67-29.7,43.85-29.7h170.717c24.178,0,43.849,13.324,43.849,29.7V482C1120.46,515.917,1079.72,543.512,1029.643,543.512ZM905.894,228.665c-22.864,0-41.464,12.6-41.464,28.085V482c0,33.028,39.67,59.9,88.432,59.9h76.782c48.76,0,88.431-26.87,88.431-59.9V256.75c0-15.486-18.6-28.085-41.463-28.085Z" transform="translate(-658.029 2845.616)" fill="#fe8938" stroke="#fe8938" stroke-width="1"/>
    <g id="Grupo_54253" data-name="Grupo 54253" transform="translate(422.833 3081.443)">
      <g id="Grupo_54252" data-name="Grupo 54252" transform="translate(0 0)">
        <g id="Grupo_54219" data-name="Grupo 54219" transform="translate(3.223)">
          <g id="Grupo_54218" data-name="Grupo 54218">
            <g id="Grupo_54214" data-name="Grupo 54214">
              <g id="Grupo_54213" data-name="Grupo 54213">
                <path id="Trazado_994220" data-name="Trazado 994220" d="M37.564,0C58.4.086,75.353,16.483,75.439,36.624s-16.732,36.4-37.564,36.313S.086,56.454,0,36.313,16.732-.086,37.564,0Z" transform="translate(0 9.168) rotate(-6.98)" fill="#fff"/>
              </g>
            </g>
            <g id="Grupo_54217" data-name="Grupo 54217" transform="translate(3.909 4.19)">
              <g id="Grupo_54216" data-name="Grupo 54216">
                <g id="Grupo_54215" data-name="Grupo 54215">
                  <path id="Trazado_103602" data-name="Trazado 103602" d="M1127.173,274.9s-.072-.8-.166-2.32a17.233,17.233,0,0,0-.316-2.8,25.592,25.592,0,0,0-.782-3.761,34.08,34.08,0,0,0-4.177-9.673,36.69,36.69,0,0,0-9.559-10.3,37.972,37.972,0,0,0-15.807-6.776,38.948,38.948,0,0,0-19.715,1.582,35.648,35.648,0,0,0-9.5,4.932,41.959,41.959,0,0,0-4.257,3.494,41.427,41.427,0,0,0-3.676,4.2,35.073,35.073,0,0,0,0,42.835,41.307,41.307,0,0,0,3.677,4.2,41.806,41.806,0,0,0,4.257,3.5,35.662,35.662,0,0,0,9.5,4.933,38.944,38.944,0,0,0,19.717,1.581,37.957,37.957,0,0,0,15.807-6.778,36.691,36.691,0,0,0,9.558-10.3,34.084,34.084,0,0,0,4.176-9.672,25.622,25.622,0,0,0,.782-3.761,17.233,17.233,0,0,0,.316-2.8c.094-1.52.166-2.319.166-2.319s-.011.8-.076,2.325a16.636,16.636,0,0,1-.273,2.809,25.2,25.2,0,0,1-.746,3.786,33.955,33.955,0,0,1-4.13,9.755,36.8,36.8,0,0,1-9.582,10.419,38.223,38.223,0,0,1-15.931,6.887,39.279,39.279,0,0,1-19.927-1.559,36.061,36.061,0,0,1-9.61-4.976,42.238,42.238,0,0,1-4.31-3.531,41.705,41.705,0,0,1-3.724-4.246,35.45,35.45,0,0,1,0-43.339,41.814,41.814,0,0,1,3.723-4.245,42.475,42.475,0,0,1,4.31-3.53,36.022,36.022,0,0,1,9.609-4.975,39.271,39.271,0,0,1,19.925-1.559,38.2,38.2,0,0,1,15.931,6.885,36.771,36.771,0,0,1,9.583,10.419,33.914,33.914,0,0,1,4.13,9.756,25.325,25.325,0,0,1,.746,3.786,16.636,16.636,0,0,1,.273,2.809C1127.162,274.1,1127.173,274.9,1127.173,274.9Z" transform="translate(-1051.472 -238.305)" fill="#1a2e35"/>
                </g>
              </g>
            </g>
          </g>
        </g>
        <g id="Grupo_54226" data-name="Grupo 54226" transform="translate(19.987 16.925)">
          <g id="Grupo_54225" data-name="Grupo 54225">
            <g id="Grupo_54221" data-name="Grupo 54221" transform="translate(0.456 0.048)">
              <g id="Grupo_54220" data-name="Grupo 54220">
                <path id="Trazado_103603" data-name="Trazado 103603" d="M1087.284,249.4c-13.593,0-24.652,10.681-24.652,23.81s11.059,23.81,24.652,23.81,24.652-10.681,24.652-23.81S1100.877,249.4,1087.284,249.4Z" transform="translate(-1062.632 -249.401)" fill="none"/>
              </g>
            </g>
            <g id="Grupo_54224" data-name="Grupo 54224">
              <g id="Grupo_54223" data-name="Grupo 54223">
                <g id="Grupo_54222" data-name="Grupo 54222">
                  <path id="Trazado_103604" data-name="Trazado 103604" d="M1087.357,249.407a19.888,19.888,0,0,1,6.07.543,24.712,24.712,0,0,1,13.832,8.636,23.351,23.351,0,0,1,3.732,22.909,22.585,22.585,0,0,1-3.409,6.161,23.3,23.3,0,0,1-5.335,5.154,25.68,25.68,0,0,1-29.778,0,23.339,23.339,0,0,1-5.337-5.155,22.616,22.616,0,0,1-3.41-6.162,23.361,23.361,0,0,1,3.734-22.911,24.719,24.719,0,0,1,13.832-8.635,19.9,19.9,0,0,1,6.07-.541,50.33,50.33,0,0,0-5.963.952,24.7,24.7,0,0,0-13.308,8.69,22.961,22.961,0,0,0-4.485,9.856,22.65,22.65,0,0,0,1.093,12.249,21.748,21.748,0,0,0,3.3,5.887,22.353,22.353,0,0,0,5.127,4.916,24.648,24.648,0,0,0,28.476,0,22.371,22.371,0,0,0,5.125-4.916,21.7,21.7,0,0,0,3.3-5.886,22.642,22.642,0,0,0,1.094-12.246,22.958,22.958,0,0,0-4.485-9.857,24.7,24.7,0,0,0-13.307-8.691A50.418,50.418,0,0,0,1087.357,249.407Z" transform="translate(-1062.249 -249.36)" fill="#ff735d"/>
                </g>
              </g>
            </g>
          </g>
        </g>
        <g id="Grupo_54233" data-name="Grupo 54233" transform="translate(36.789 33.134)">
          <g id="Grupo_54232" data-name="Grupo 54232">
            <g id="Grupo_54228" data-name="Grupo 54228" transform="translate(0.48 0.09)">
              <g id="Grupo_54227" data-name="Grupo 54227">
                <path id="Trazado_103605" data-name="Trazado 103605" d="M1084.564,263.507a7.563,7.563,0,1,0,7.825,7.559A7.7,7.7,0,0,0,1084.564,263.507Z" transform="translate(-1076.738 -263.507)" fill="none"/>
              </g>
            </g>
            <g id="Grupo_54231" data-name="Grupo 54231">
              <g id="Grupo_54230" data-name="Grupo 54230">
                <g id="Grupo_54229" data-name="Grupo 54229">
                  <path id="Trazado_103606" data-name="Trazado 103606" d="M1084.641,263.519a3.965,3.965,0,0,1,1.963.033,7.857,7.857,0,0,1,4.57,2.722,7.683,7.683,0,0,1,1.3,7.547,8.408,8.408,0,0,1-15.669,0,7.683,7.683,0,0,1,1.3-7.548,7.854,7.854,0,0,1,4.57-2.721,3.964,3.964,0,0,1,1.963-.033c0,.1-.7.106-1.857.442a7.841,7.841,0,0,0-4.045,2.778,6.981,6.981,0,0,0-.96,6.741,7.41,7.41,0,0,0,13.724,0,6.984,6.984,0,0,0-.96-6.741,7.837,7.837,0,0,0-4.046-2.778C1085.337,263.625,1084.638,263.618,1084.641,263.519Z" transform="translate(-1076.336 -263.429)" fill="#ff735d"/>
                </g>
              </g>
            </g>
          </g>
        </g>
        <g id="Grupo_54239" data-name="Grupo 54239" transform="translate(4.883 40.783)">
          <g id="Grupo_54235" data-name="Grupo 54235" transform="translate(0.003 0)">
            <g id="Grupo_54234" data-name="Grupo 54234">
              <path id="Trazado_103607" data-name="Trazado 103607" d="M1049.589,296.334c13.037-8.781,27.172-17.485,40.209-26.266" transform="translate(-1049.589 -270.068)" fill="#f5f5f5"/>
            </g>
          </g>
          <g id="Grupo_54238" data-name="Grupo 54238">
            <g id="Grupo_54237" data-name="Grupo 54237">
              <g id="Grupo_54236" data-name="Grupo 54236">
                <path id="Trazado_103608" data-name="Trazado 103608" d="M1089.8,270.069c.07.1-8.876,6.061-19.977,13.312s-20.162,13.054-20.231,12.955,8.874-6.059,19.979-13.313S1089.726,269.97,1089.8,270.069Z" transform="translate(-1049.587 -270.068)" fill="#1a2e35"/>
              </g>
            </g>
          </g>
        </g>
        <g id="Grupo_54242" data-name="Grupo 54242" transform="translate(0 64.074)">
          <g id="Grupo_54241" data-name="Grupo 54241">
            <g id="Grupo_54240" data-name="Grupo 54240">
              <path id="Trazado_103609" data-name="Trazado 103609" d="M1054.8,290.72a50.158,50.158,0,0,1-9.31-.327,50.165,50.165,0,0,1,9.31.327Z" transform="translate(-1045.493 -290.285)" fill="#1a2e35"/>
            </g>
          </g>
        </g>
        <g id="Grupo_54245" data-name="Grupo 54245" transform="translate(7.693 64.349)">
          <g id="Grupo_54244" data-name="Grupo 54244">
            <g id="Grupo_54243" data-name="Grupo 54243">
              <path id="Trazado_103610" data-name="Trazado 103610" d="M1051.978,296.6a21.667,21.667,0,0,1,1.356-6.074,21.745,21.745,0,0,1-1.356,6.074Z" transform="translate(-1051.943 -290.524)" fill="#1a2e35"/>
            </g>
          </g>
        </g>
        <g id="Grupo_54248" data-name="Grupo 54248" transform="translate(9.968 63.372)">
          <g id="Grupo_54247" data-name="Grupo 54247">
            <g id="Grupo_54246" data-name="Grupo 54246">
              <path id="Trazado_103611" data-name="Trazado 103611" d="M1053.89,296.033a23.516,23.516,0,0,1,1.184-6.357,23.4,23.4,0,0,1-1.184,6.357Z" transform="translate(-1053.85 -289.676)" fill="#1a2e35"/>
            </g>
          </g>
        </g>
        <g id="Grupo_54251" data-name="Grupo 54251" transform="translate(4.654 61.886)">
          <g id="Grupo_54250" data-name="Grupo 54250">
            <g id="Grupo_54249" data-name="Grupo 54249">
              <path id="Trazado_103612" data-name="Trazado 103612" d="M1049.4,288.416a24.672,24.672,0,0,1,6.376,1.453,24.662,24.662,0,0,1-6.376-1.453Z" transform="translate(-1049.395 -288.386)" fill="#1a2e35"/>
            </g>
          </g>
        </g>
      </g>
    </g>
    <g id="Grupo_54268" data-name="Grupo 54268" transform="translate(475 3194.645)">
      <g id="Grupo_54257" data-name="Grupo 54257" transform="translate(7.985 14.376)">
        <g id="Grupo_54256" data-name="Grupo 54256">
          <g id="Grupo_54255" data-name="Grupo 54255">
            <g id="Grupo_54254" data-name="Grupo 54254">
              <path id="Trazado_103613" data-name="Trazado 103613" d="M1096.272,403.9a1.025,1.025,0,0,1,.115.324,4.945,4.945,0,0,1,.135.985,7.292,7.292,0,0,1-.922,3.635,19.092,19.092,0,0,1-3.737,4.52l-5.31,5.361-.168.169-.194-.151-5.7-4.419c-1.969-1.545-4.283-3.191-5.479-5.776a5.835,5.835,0,0,1-.124-5.055,6.023,6.023,0,0,1,3.825-3.117,5.827,5.827,0,0,1,7.043,4.31l-.5.027a5.764,5.764,0,0,1,3.867-4.7,5.545,5.545,0,0,1,4.772.608,5.445,5.445,0,0,1,2.059,2.264,3.658,3.658,0,0,1,.272.75.768.768,0,0,1,.044.27c-.04.01-.123-.352-.452-.954a5.6,5.6,0,0,0-2.078-2.09,5.249,5.249,0,0,0-4.475-.474,5.343,5.343,0,0,0-3.5,4.37l-.159,1.647-.342-1.621a5.177,5.177,0,0,0-2.238-3.145,5.1,5.1,0,0,0-4.153-.718,5.455,5.455,0,0,0-3.437,2.821,5.292,5.292,0,0,0,.136,4.571c1.1,2.4,3.318,4.014,5.294,5.569l5.667,4.455-.363.02,5.377-5.3a19.578,19.578,0,0,0,3.768-4.358,7.525,7.525,0,0,0,1.038-3.488C1096.366,404.362,1096.23,403.911,1096.272,403.9Z" transform="translate(-1074.371 -399.719)" fill="#ff735d"/>
            </g>
          </g>
        </g>
      </g>
      <g id="Grupo_54262" data-name="Grupo 54262">
        <g id="Grupo_54261" data-name="Grupo 54261">
          <g id="Grupo_54260" data-name="Grupo 54260">
            <g id="Grupo_54259" data-name="Grupo 54259">
              <g id="Grupo_54258" data-name="Grupo 54258">
                <path id="Trazado_103614" data-name="Trazado 103614" d="M1067.678,391.133s.029.245.06.7q.047.717.129,2.021c.106,1.789.26,4.385.457,7.713.375,6.682.914,16.3,1.579,28.149l-.235-.205,25.657-1.283.269-.014.014.259c.2,3.72.408,7.693.624,11.779l-.491-.169,11.574-12.378.082-.088.123-.006,28.126-1.369,8.629-.416-.287.308c-.7-13.644-1.364-26.64-1.978-38.6l.293.256-53.683,2.463c-6.578.288-11.794.515-15.393.672l-4.109.166-1.066.036a3.584,3.584,0,0,1-.372,0,2.572,2.572,0,0,1,.339-.032l1.033-.066,4.05-.229,15.323-.813,53.853-2.737.279-.014.014.271c.627,11.958,1.308,24.954,2.024,38.6l.016.293-.3.015-8.63.418-28.126,1.353.205-.093-11.6,12.359-.459.488-.033-.659c-.206-4.085-.408-8.06-.6-11.779l.283.247-25.662,1.2-.225.01-.01-.215c-.567-11.909-1.027-21.577-1.347-28.293-.148-3.31-.262-5.89-.341-7.67q-.052-1.28-.079-1.984C1067.673,391.349,1067.678,391.133,1067.678,391.133Z" transform="translate(-1067.677 -387.241)" fill="#ff735d"/>
              </g>
            </g>
          </g>
        </g>
      </g>
      <g id="Grupo_54267" data-name="Grupo 54267" transform="translate(35.062 14.74)">
        <g id="Grupo_54263" data-name="Grupo 54263" transform="translate(0 3.643)">
          <path id="Trazado_103615" data-name="Trazado 103615" d="M1104.145,406.707l-3.146.152.153,2.958-.746.036-.152-2.958-3.147.152-.036-.687,3.147-.153-.155-2.975.745-.036.155,2.975,3.147-.152Z" transform="translate(-1097.072 -403.197)" fill="#1a2e35"/>
        </g>
        <g id="Grupo_54264" data-name="Grupo 54264" transform="translate(7.846 0.973)">
          <path id="Trazado_103616" data-name="Trazado 103616" d="M1107.326,400.88l.581,11.2-.845.04-.542-10.461-2.832.137-.039-.736Z" transform="translate(-1103.65 -400.88)" fill="#1a2e35"/>
        </g>
        <g id="Grupo_54265" data-name="Grupo 54265" transform="translate(14.735 0.526)">
          <path id="Trazado_103617" data-name="Trazado 103617" d="M1109.438,406.4c-.182-3.5,1.577-5.768,4.243-5.9s4.651,1.957,4.832,5.46-1.577,5.767-4.244,5.9S1109.619,409.9,1109.438,406.4Zm8.23-.4c-.162-3.12-1.763-4.854-3.949-4.748s-3.6,1.985-3.436,5.1,1.762,4.852,3.948,4.746S1117.831,409.116,1117.668,406Z" transform="translate(-1109.425 -400.492)" fill="#1a2e35"/>
        </g>
        <g id="Grupo_54266" data-name="Grupo 54266" transform="translate(25.636)">
          <path id="Trazado_103618" data-name="Trazado 103618" d="M1118.577,405.938c-.18-3.5,1.577-5.768,4.244-5.9s4.649,1.956,4.832,5.458-1.578,5.768-4.244,5.9S1118.76,409.44,1118.577,405.938Zm8.232-.4c-.162-3.12-1.763-4.854-3.949-4.748s-3.6,1.985-3.438,5.1,1.763,4.853,3.949,4.748S1126.969,408.658,1126.808,405.54Z" transform="translate(-1118.564 -400.035)" fill="#1a2e35"/>
        </g>
      </g>
    </g>
    <g id="Grupo_54287" data-name="Grupo 54287" transform="translate(495 3140.923)">
      <g id="Grupo_54283" data-name="Grupo 54283" transform="translate(0 4.356)">
        <g id="Grupo_54270" data-name="Grupo 54270" transform="translate(63.458 3.311)">
          <g id="Grupo_54269" data-name="Grupo 54269">
            <rect id="Rectángulo_5162" data-name="Rectángulo 5162" width="11.368" height="43.71" fill="#fe8938"/>
          </g>
        </g>
        <g id="Grupo_54272" data-name="Grupo 54272" transform="translate(44.768)">
          <g id="Grupo_54271" data-name="Grupo 54271">
            <rect id="Rectángulo_5163" data-name="Rectángulo 5163" width="11.368" height="47.021" fill="#fe8938"/>
          </g>
        </g>
        <g id="Grupo_54274" data-name="Grupo 54274" transform="translate(26.645 5.823)">
          <g id="Grupo_54273" data-name="Grupo 54273">
            <rect id="Rectángulo_5164" data-name="Rectángulo 5164" width="11.368" height="41.199" fill="#fe8938"/>
          </g>
        </g>
        <g id="Grupo_54276" data-name="Grupo 54276" transform="translate(8.245 12.256)">
          <g id="Grupo_54275" data-name="Grupo 54275">
            <rect id="Rectángulo_5165" data-name="Rectángulo 5165" width="11.368" height="34.765" fill="#fe8938"/>
          </g>
        </g>
        <g id="Grupo_54279" data-name="Grupo 54279" transform="translate(0 46.758)">
          <g id="Grupo_54278" data-name="Grupo 54278">
            <g id="Grupo_54277" data-name="Grupo 54277">
              <path id="Trazado_103619" data-name="Trazado 103619" d="M1161.707,361.327c0,.233-18.682.422-41.722.422s-41.724-.189-41.724-.422,18.677-.422,41.724-.422S1161.707,361.094,1161.707,361.327Z" transform="translate(-1078.261 -360.905)" fill="#1a2e35"/>
            </g>
          </g>
        </g>
        <g id="Grupo_54282" data-name="Grupo 54282" transform="translate(5.897 5.677)">
          <g id="Grupo_54281" data-name="Grupo 54281">
            <g id="Grupo_54280" data-name="Grupo 54280">
              <path id="Trazado_103620" data-name="Trazado 103620" d="M1156.009,325.583c-.009.085-1.3-.13-3.637-.008a22.149,22.149,0,0,0-9.343,2.717,19.968,19.968,0,0,0-5.2,4.132c-1.62,1.766-3.068,3.9-4.8,6.028a17.946,17.946,0,0,1-6.743,5.506,25.131,25.131,0,0,1-9.3,1.765c-3.234.111-6.366-.043-9.364.089a44.478,44.478,0,0,0-8.545,1.123c-5.344,1.265-9.689,3.967-12.144,7.2a15.125,15.125,0,0,0-3.392,8.726,23.006,23.006,0,0,0,.344,3.479,9.006,9.006,0,0,1-.683-3.482,15,15,0,0,1,3.237-9.082,18.483,18.483,0,0,1,5.093-4.582,26.392,26.392,0,0,1,7.344-3.017,44.531,44.531,0,0,1,8.709-1.2c3.05-.144,6.188,0,9.37-.106a24.511,24.511,0,0,0,8.973-1.675,17.29,17.29,0,0,0,6.467-5.236c1.718-2.079,3.2-4.214,4.887-6.009a20.3,20.3,0,0,1,5.439-4.187,21.565,21.565,0,0,1,9.632-2.525,19.071,19.071,0,0,1,2.721.15A3.993,3.993,0,0,1,1156.009,325.583Z" transform="translate(-1083.205 -325.246)" fill="#1a2e35"/>
            </g>
          </g>
        </g>
      </g>
      <g id="Grupo_54286" data-name="Grupo 54286" transform="translate(1.066 0)">
        <g id="Grupo_54285" data-name="Grupo 54285">
          <g id="Grupo_54284" data-name="Grupo 54284">
            <path id="Trazado_103621" data-name="Trazado 103621" d="M1079.591,316.538c.241,0,.437,11.727.437,26.189s-.2,26.191-.437,26.191-.437-11.724-.437-26.191S1079.35,316.538,1079.591,316.538Z" transform="translate(-1079.155 -316.538)" fill="#1a2e35"/>
          </g>
        </g>
      </g>
    </g>
    <g id="Grupo_54300" data-name="Grupo 54300" transform="translate(468.357 3246.631)">
      <g id="Grupo_54289" data-name="Grupo 54289" transform="translate(0 6.999)">
        <g id="Grupo_54288" data-name="Grupo 54288">
          <path id="Trazado_103622" data-name="Trazado 103622" d="M1100.272,471.859a8.7,8.7,0,0,1-11.142,4.713,8.221,8.221,0,0,1-4.88-10.761,8.7,8.7,0,0,1,11.142-4.713A8.22,8.22,0,0,1,1100.272,471.859Z" transform="translate(-1083.659 -460.526)" fill="#fe8938"/>
        </g>
      </g>
      <g id="Grupo_54291" data-name="Grupo 54291" transform="translate(28.706)">
        <g id="Grupo_54290" data-name="Grupo 54290">
          <path id="Trazado_103623" data-name="Trazado 103623" d="M1124.338,465.783A8.7,8.7,0,0,1,1113.2,470.5a8.219,8.219,0,0,1-4.879-10.761,8.7,8.7,0,0,1,11.142-4.712A8.219,8.219,0,0,1,1124.338,465.783Z" transform="translate(-1107.725 -454.45)" fill="#fe8938"/>
        </g>
      </g>
      <g id="Grupo_54293" data-name="Grupo 54293" transform="translate(15.329 32.156)">
        <g id="Grupo_54292" data-name="Grupo 54292">
          <path id="Trazado_103624" data-name="Trazado 103624" d="M1113.227,494.333a9.088,9.088,0,0,1-11.418,5.394,8.585,8.585,0,0,1-4.6-11.442,9.087,9.087,0,0,1,11.418-5.394A8.585,8.585,0,0,1,1113.227,494.333Z" transform="translate(-1096.51 -482.362)" fill="#fe8938"/>
        </g>
      </g>
      <g id="Grupo_54296" data-name="Grupo 54296" transform="translate(5.487 15.842)">
        <g id="Grupo_54295" data-name="Grupo 54295">
          <g id="Grupo_54294" data-name="Grupo 54294">
            <path id="Trazado_103625" data-name="Trazado 103625" d="M1104.847,491.574c-.539.357-4.678-4.583-9.242-11.031s-7.828-11.968-7.288-12.324,4.677,4.582,9.243,11.033S1105.388,491.218,1104.847,491.574Z" transform="translate(-1088.259 -468.201)" fill="#fe8938"/>
          </g>
        </g>
      </g>
      <g id="Grupo_54299" data-name="Grupo 54299" transform="translate(10.137 6.969)">
        <g id="Grupo_54298" data-name="Grupo 54298">
          <g id="Grupo_54297" data-name="Grupo 54297">
            <path id="Trazado_103626" data-name="Trazado 103626" d="M1117.872,460.662c.184.606-5.424,2.727-12.522,4.736s-13.005,3.149-13.189,2.543,5.421-2.727,12.523-4.737S1117.689,460.057,1117.872,460.662Z" transform="translate(-1092.157 -460.5)" fill="#fe8938"/>
          </g>
        </g>
      </g>
    </g>
    <g id="Grupo_54336" data-name="Grupo 54336" transform="translate(475 3295.268)">
      <g id="Grupo_54305" data-name="Grupo 54305">
        <g id="Grupo_54304" data-name="Grupo 54304">
          <g id="Grupo_54303" data-name="Grupo 54303">
            <g id="Grupo_54302" data-name="Grupo 54302">
              <g id="Grupo_54301" data-name="Grupo 54301">
                <path id="Trazado_103627" data-name="Trazado 103627" d="M1112.546,537.538a5.81,5.81,0,0,1-.156-1.337,10.683,10.683,0,0,0-.186-1.606,15.3,15.3,0,0,0-.437-2.158,19.819,19.819,0,0,0-2.32-5.551,21.011,21.011,0,0,0-5.344-5.945,21.617,21.617,0,0,0-8.894-4.006,22.134,22.134,0,0,0-11.179.674,20.2,20.2,0,0,0-5.428,2.675,23.756,23.756,0,0,0-2.451,1.922,23.5,23.5,0,0,0-2.131,2.327,19.843,19.843,0,0,0-.61,24.185,18.986,18.986,0,0,0,4.365,4.46,20.109,20.109,0,0,0,5.289,2.927,22.115,22.115,0,0,0,11.132,1.2,21.677,21.677,0,0,0,9.084-3.585,21.1,21.1,0,0,0,5.636-5.688,19.9,19.9,0,0,0,2.6-5.435,15.25,15.25,0,0,0,.545-2.134,10.665,10.665,0,0,0,.265-1.6,5.866,5.866,0,0,1,.224-1.327,5.6,5.6,0,0,1,.017,1.348,9.061,9.061,0,0,1-.155,1.631,14.27,14.27,0,0,1-.446,2.2,19.435,19.435,0,0,1-2.479,5.659,21.363,21.363,0,0,1-5.706,6.006,22.341,22.341,0,0,1-9.422,3.869,23,23,0,0,1-11.692-1.151,21.125,21.125,0,0,1-5.591-3.047,24.777,24.777,0,0,1-2.489-2.135,24.519,24.519,0,0,1-2.134-2.548,20.855,20.855,0,0,1,.643-25.527,20.174,20.174,0,0,1,4.852-4.458,21.239,21.239,0,0,1,5.736-2.782,23.023,23.023,0,0,1,11.735-.6,22.266,22.266,0,0,1,9.218,4.305,21.243,21.243,0,0,1,5.4,6.266,19.354,19.354,0,0,1,2.191,5.768,14.238,14.238,0,0,1,.336,2.218,9.149,9.149,0,0,1,.073,1.636A5.659,5.659,0,0,1,1112.546,537.538Z" transform="translate(-1068.404 -515.513)" fill="#fe8938"/>
              </g>
            </g>
          </g>
        </g>
      </g>
      <g id="Grupo_54310" data-name="Grupo 54310" transform="translate(5.607 8.074)">
        <g id="Grupo_54309" data-name="Grupo 54309">
          <g id="Grupo_54308" data-name="Grupo 54308">
            <g id="Grupo_54307" data-name="Grupo 54307">
              <g id="Grupo_54306" data-name="Grupo 54306">
                <path id="Trazado_103628" data-name="Trazado 103628" d="M1107.284,523.332c.048.065-.345.4-1.1.939-.415.289-.88.612-1.4.972-.278.183-.569.391-.892.586l-1.072.541a25.253,25.253,0,0,1-12.8,3.114l-1.937-.083-1.861-.281c-.3-.05-.607-.089-.9-.146l-.868-.224c-.572-.153-1.137-.284-1.675-.449a28.587,28.587,0,0,1-5.431-2.417c-2.919-1.705-4.339-3.255-4.229-3.355.118-.13,1.7,1.168,4.644,2.642a33.32,33.32,0,0,0,5.346,2.113c.521.146,1.067.257,1.615.393l.835.2.866.127,1.777.252,1.846.071a27.28,27.28,0,0,0,12.4-2.688l1.084-.455c.33-.167.631-.346.92-.5l1.486-.792C1106.752,523.473,1107.236,523.268,1107.284,523.332Z" transform="translate(-1073.104 -522.521)" fill="#fe8938"/>
              </g>
            </g>
          </g>
        </g>
      </g>
      <g id="Grupo_54315" data-name="Grupo 54315" transform="translate(4.945 28.291)">
        <g id="Grupo_54314" data-name="Grupo 54314">
          <g id="Grupo_54313" data-name="Grupo 54313">
            <g id="Grupo_54312" data-name="Grupo 54312">
              <g id="Grupo_54311" data-name="Grupo 54311">
                <path id="Trazado_103629" data-name="Trazado 103629" d="M1072.554,546.235c-.048-.065.345-.394,1.1-.939l1.4-.971c.278-.184.569-.392.892-.588l1.072-.542a25.254,25.254,0,0,1,12.8-3.113l1.937.083,1.861.281c.3.05.607.089.9.146l.868.224c.572.153,1.137.282,1.675.449a28.514,28.514,0,0,1,5.431,2.417c2.919,1.7,4.34,3.254,4.229,3.354-.117.13-1.7-1.167-4.642-2.642a33.58,33.58,0,0,0-5.347-2.113c-.521-.146-1.067-.257-1.615-.393l-.835-.2-.866-.125-1.777-.252-1.846-.073a27.265,27.265,0,0,0-12.4,2.689l-1.084.455c-.33.166-.631.346-.92.5l-1.486.791C1073.086,546.1,1072.6,546.3,1072.554,546.235Z" transform="translate(-1072.55 -540.07)" fill="#fe8938"/>
              </g>
            </g>
          </g>
        </g>
      </g>
      <g id="Grupo_54320" data-name="Grupo 54320" transform="translate(0.589 21.231)">
        <g id="Grupo_54319" data-name="Grupo 54319">
          <g id="Grupo_54318" data-name="Grupo 54318">
            <g id="Grupo_54317" data-name="Grupo 54317">
              <g id="Grupo_54316" data-name="Grupo 54316">
                <path id="Trazado_103630" data-name="Trazado 103630" d="M1112.439,535.224c-.008.319-9.763.349-21.784.067s-21.766-.77-21.758-1.089,9.761-.349,21.787-.067S1112.447,534.905,1112.439,535.224Z" transform="translate(-1068.897 -533.942)" fill="#fe8938"/>
              </g>
            </g>
          </g>
        </g>
      </g>
      <g id="Grupo_54325" data-name="Grupo 54325" transform="translate(21.086 0.482)">
        <g id="Grupo_54324" data-name="Grupo 54324">
          <g id="Grupo_54323" data-name="Grupo 54323">
            <g id="Grupo_54322" data-name="Grupo 54322">
              <g id="Grupo_54321" data-name="Grupo 54321">
                <path id="Trazado_103631" data-name="Trazado 103631" d="M1086.351,557.971c-.33-.007-.361-9.425-.069-21.033s.8-21.015,1.127-21.007.361,9.424.069,21.035S1086.681,557.979,1086.351,557.971Z" transform="translate(-1086.081 -515.931)" fill="#fe8938"/>
              </g>
            </g>
          </g>
        </g>
      </g>
      <g id="Grupo_54330" data-name="Grupo 54330" transform="translate(10.525 0.469)">
        <g id="Grupo_54329" data-name="Grupo 54329">
          <g id="Grupo_54328" data-name="Grupo 54328">
            <g id="Grupo_54327" data-name="Grupo 54327">
              <g id="Grupo_54326" data-name="Grupo 54326">
                <path id="Trazado_103632" data-name="Trazado 103632" d="M1088.059,557.941c-.082.122-2.481-1.448-5.25-5.006a28.039,28.039,0,0,1-3.892-6.825,24.575,24.575,0,0,1-1.684-9.423,23.444,23.444,0,0,1,2.2-9.329,29.114,29.114,0,0,1,4.254-6.614c2.932-3.423,5.351-4.94,5.432-4.818.117.131-2.073,1.853-4.765,5.321a31.247,31.247,0,0,0-3.908,6.534,23.556,23.556,0,0,0-2.013,8.927,24.818,24.818,0,0,0,1.524,9.034,29.972,29.972,0,0,0,3.546,6.719C1086.02,556.047,1088.18,557.815,1088.059,557.941Z" transform="translate(-1077.227 -515.92)" fill="#fe8938"/>
              </g>
            </g>
          </g>
        </g>
      </g>
      <g id="Grupo_54335" data-name="Grupo 54335" transform="translate(21.84 0.481)">
        <g id="Grupo_54334" data-name="Grupo 54334">
          <g id="Grupo_54333" data-name="Grupo 54333">
            <g id="Grupo_54332" data-name="Grupo 54332">
              <g id="Grupo_54331" data-name="Grupo 54331">
                <path id="Trazado_103633" data-name="Trazado 103633" d="M1087.774,515.937c.081-.122,2.481,1.448,5.25,5.006a28.018,28.018,0,0,1,3.891,6.825,24.576,24.576,0,0,1,1.685,9.422,23.436,23.436,0,0,1-2.2,9.328,29.1,29.1,0,0,1-4.252,6.615c-2.933,3.423-5.351,4.94-5.432,4.818-.118-.131,2.073-1.853,4.765-5.321a31.227,31.227,0,0,0,3.907-6.535,23.513,23.513,0,0,0,2.013-8.927,24.8,24.8,0,0,0-1.523-9.036,29.982,29.982,0,0,0-3.546-6.718C1089.813,517.831,1087.653,516.064,1087.774,515.937Z" transform="translate(-1086.713 -515.93)" fill="#fe8938"/>
              </g>
            </g>
          </g>
        </g>
      </g>
    </g>
    <g id="Grupo_54341" data-name="Grupo 54341" transform="translate(333.223 3299.475)">
      <g id="Grupo_54338" data-name="Grupo 54338" transform="translate(0 0)">
        <g id="Grupo_54337" data-name="Grupo 54337">
          <path id="Trazado_103634" data-name="Trazado 103634" d="M904.117,460.308h0c-18.9,0-34.22-14.8-34.22-33.051h0c0-18.253,15.32-33.052,34.22-33.052h0c18.9,0,34.219,14.8,34.219,33.052h0C938.336,445.51,923.016,460.308,904.117,460.308Z" transform="translate(-869.897 -394.205)" fill="#53bced"/>
        </g>
      </g>
      <g id="Grupo_54340" data-name="Grupo 54340" transform="translate(12.405 11.981)">
        <g id="Grupo_54339" data-name="Grupo 54339">
          <path id="Trazado_103635" data-name="Trazado 103635" d="M902.111,404.605c-12.047,0-21.814,9.434-21.814,21.071s9.767,21.069,21.814,21.069,21.815-9.433,21.815-21.069S914.159,404.605,902.111,404.605Zm0,3.665a18.323,18.323,0,0,1,10.987,3.639,22.012,22.012,0,0,1-9.065,6.46,80.64,80.64,0,0,0-6.34-9.546A18.467,18.467,0,0,1,902.111,408.27Zm-8.129,1.893a78.164,78.164,0,0,1,6.429,9.449,59.728,59.728,0,0,1-15.788,1.941A17.581,17.581,0,0,1,893.982,410.163Zm-9.891,15.511c0-.15.021-.3.024-.447A62.993,62.993,0,0,0,902.2,422.9q.635,1.249,1.218,2.515A27.962,27.962,0,0,0,888.265,436.8,16.968,16.968,0,0,1,884.091,425.674Zm18.02,17.407a18.314,18.314,0,0,1-11.058-3.691,24.369,24.369,0,0,1,13.811-10.583,67.037,67.037,0,0,1,3.716,13.1A18.475,18.475,0,0,1,902.111,443.08Zm10-2.938a70.359,70.359,0,0,0-3.489-12.109,37.534,37.534,0,0,1,11.268.346A17.367,17.367,0,0,1,912.114,440.143Zm-4.944-15.577c-.442-.988-.9-1.975-1.394-2.949a25.747,25.747,0,0,0,10.088-7.167,17.018,17.018,0,0,1,4.219,10.245A40.3,40.3,0,0,0,907.17,424.566Z" transform="translate(-880.297 -404.605)" fill="#1e3a8a"/>
        </g>
      </g>
    </g>
    <g id="Grupo_54355" data-name="Grupo 54355" transform="translate(219.738 3145.215)">
      <g id="Grupo_54354" data-name="Grupo 54354" transform="translate(0 0)">
        <g id="Grupo_54347" data-name="Grupo 54347">
          <g id="Grupo_54346" data-name="Grupo 54346">
            <g id="Grupo_54345" data-name="Grupo 54345">
              <g id="Grupo_54344" data-name="Grupo 54344">
                <g id="Grupo_54343" data-name="Grupo 54343">
                  <g id="Grupo_54342" data-name="Grupo 54342">
                    <path id="Trazado_103636" data-name="Trazado 103636" d="M908.224,335.113l-3.991,2.112-15.361-7.113-4.365-7.695s-6.377,2.9.064,12.59,4.2,7.54,4.2,7.54-13.071,6.982-13.535,8.657c-.339,1.218,6.433,13.973,10.163,20.86a8.8,8.8,0,0,0,9.629,4.567,6.582,6.582,0,0,0,1.514-.562c3.267-1.729,18.5-13.129,18.5-13.129l6.894-3.649Z" transform="translate(-875.227 -322.417)" fill="#53bced"/>
                  </g>
                </g>
              </g>
            </g>
          </g>
        </g>
        <g id="Grupo_54353" data-name="Grupo 54353" transform="translate(34.235 4.536)">
          <g id="Grupo_54352" data-name="Grupo 54352">
            <g id="Grupo_54351" data-name="Grupo 54351">
              <g id="Grupo_54350" data-name="Grupo 54350">
                <g id="Grupo_54349" data-name="Grupo 54349">
                  <g id="Grupo_54348" data-name="Grupo 54348">
                    <path id="Trazado_103637" data-name="Trazado 103637" d="M912.916,326.355l12.5,27.663-6.835,3.617L903.928,331.8Z" transform="translate(-903.928 -326.355)" fill="#53bced"/>
                  </g>
                </g>
              </g>
            </g>
          </g>
        </g>
      </g>
    </g>
    <g id="Grupo_1177770" data-name="Grupo 1177770" transform="translate(-177.701 2944.457)">
      <g id="Grupo_1177764" data-name="Grupo 1177764" transform="translate(409.566 147.107)">
        <g id="Grupo_1177685" data-name="Grupo 1177685" transform="translate(63.769 20.674)">
          <path id="Trazado_994430" data-name="Trazado 994430" d="M478.329,164.231c-2.495,12.8,10.6,27.29,10.6,27.29s-12.584,10.719-20.187,8.5-3.6-23-3.6-23Z" transform="translate(-464.083 -164.231)" fill="#6baace"/>
        </g>
        <g id="Grupo_1177686" data-name="Grupo 1177686" transform="translate(182.096 27.452)">
          <path id="Trazado_994431" data-name="Trazado 994431" d="M571.839,196.52a91.092,91.092,0,0,1,.308-10.827c.7-7.6,2.338-12.429,4.857-14.357a4.568,4.568,0,0,1,4.382-.659c1.579.5,2.646,2.027,3.008,4.3.884,5.565-2.581,14.723-12.276,21.677l-.264.189Zm5.377-24.906c-5.425,4.153-5.115,21.922-5.038,24.564,9.373-6.842,12.729-15.733,11.869-21.145-.339-2.136-1.323-3.564-2.767-4.022a5.172,5.172,0,0,0-1.565-.258A4.02,4.02,0,0,0,577.216,171.614Z" transform="translate(-571.795 -170.4)" fill="#fff"/>
        </g>
        <g id="Grupo_1177687" data-name="Grupo 1177687" transform="translate(150.891 28.096)">
          <path id="Trazado_994432" data-name="Trazado 994432" d="M543.389,414.486h3.5v-215.3a24.7,24.7,0,1,1,49.394,0v215.3h3.5v-215.3a28.2,28.2,0,1,0-56.4,0Z" transform="translate(-543.389 -170.987)" fill="#fff"/>
        </g>
        <g id="Grupo_1177689" data-name="Grupo 1177689" transform="translate(22.141 107.239)">
          <g id="Grupo_1177688" data-name="Grupo 1177688">
            <path id="Trazado_994433" data-name="Trazado 994433" d="M427.215,268.706c2.518-11.172,11.792-24.949,11.885-25.087l-.87-.59c-.094.14-9.478,14.077-12.041,25.446Z" transform="translate(-426.189 -243.03)" fill="#fff"/>
          </g>
        </g>
        <g id="Grupo_1177690" data-name="Grupo 1177690" transform="translate(123.086 59.057)">
          <path id="Trazado_994434" data-name="Trazado 994434" d="M523.911,199.17l3.988,4.024a3.91,3.91,0,0,1-3.988-.282c-2.153-1.376-4.008-2.487-5.833-.891l1.245-2.532Z" transform="translate(-518.078 -199.17)" fill="#e099b4"/>
        </g>
        <g id="Grupo_1177691" data-name="Grupo 1177691" transform="translate(122.487 56.975)">
          <path id="Trazado_994435" data-name="Trazado 994435" d="M521.424,197.275l9.6,3.141s-.007,2.5-6.283.882c-1.235-.317-5.45-1.2-7.208,1.66l1.456-4.624Z" transform="translate(-517.533 -197.275)" fill="#eaa9bf"/>
        </g>
        <g id="Grupo_1177699" data-name="Grupo 1177699" transform="translate(122.957 52.286)">
          <g id="Grupo_1177692" data-name="Grupo 1177692" transform="translate(31.724 10.049)">
            <rect id="Rectángulo_455074" data-name="Rectángulo 455074" width="38.38" height="16.915" transform="translate(36.524 27.886) rotate(-162.111)" fill="#fff"/>
          </g>
          <g id="Grupo_1177693" data-name="Grupo 1177693" transform="translate(29.006)">
            <path id="Trazado_994436" data-name="Trazado 994436" d="M544.365,196.338l30.764-3.331,23.165,20.737Zm11.7,1.2,31.974,10.321-13.734-12.3Z" transform="translate(-544.365 -193.007)" fill="#c33e5d"/>
          </g>
          <g id="Grupo_1177695" data-name="Grupo 1177695" transform="translate(0 1.367)">
            <g id="Grupo_1177694" data-name="Grupo 1177694">
              <path id="Trazado_994437" data-name="Trazado 994437" d="M517.961,205.357l9.794,22.887,7.894-2.12-1.364,4.227.022.008L527.06,252.81l56.847,18.349,8.612-26.679,5.168,6.336,21.326-12.842-7.9-14.622a38.616,38.616,0,0,0-18.917-17.206,17.917,17.917,0,0,1-33.846-10.928,38.632,38.632,0,0,0-25.429,2.895Z" transform="translate(-517.961 -194.251)" fill="#eebb48"/>
            </g>
          </g>
          <g id="Grupo_1177696" data-name="Grupo 1177696" transform="translate(39.214 29.901)">
            <path id="Trazado_994438" data-name="Trazado 994438" d="M569.706,223.647a5.663,5.663,0,0,0-6.142,1.347,5.664,5.664,0,0,0-4.3-4.588c-4.034-1.251-10.176,3.867-.23,19.182C575.9,232.595,573.74,224.9,569.706,223.647Z" transform="translate(-553.657 -220.225)" fill="#fff"/>
          </g>
          <g id="Grupo_1177697" data-name="Grupo 1177697" transform="translate(74.149 36.947)">
            <path id="Trazado_994439" data-name="Trazado 994439" d="M585.458,241.983l7.886-8.457-.256-.239-6.812,7.306,4.469-13.847-.333-.108Z" transform="translate(-585.458 -226.639)" fill="#fff"/>
          </g>
          <g id="Grupo_1177698" data-name="Grupo 1177698" transform="translate(16.2 18.603)">
            <path id="Trazado_994440" data-name="Trazado 994440" d="M534.161,225.393l4.953-15.344-.333-.108-4.47,13.847-1.255-9.91-.348.044Z" transform="translate(-532.707 -209.941)" fill="#fff"/>
          </g>
        </g>
        <g id="Grupo_1177700" data-name="Grupo 1177700" transform="translate(106.679 54.667)">
          <path id="Trazado_994441" data-name="Trazado 994441" d="M503.143,213.666s9.3-14.235,19.088-18.492l9.5,1.464s-.178,2.319-3.805,1.962c-1.726-.169-4.729-.483-4.729-.483s-4.962,4.407-5.2,7.737,4.578-.237,6.48-.594,1.784,1.07,1.784,1.07-2.557,3.687-4.46,4.162-8.085,2.913-8.085,2.913L508.9,224.227Z" transform="translate(-503.143 -195.174)" fill="#ffc5d4"/>
        </g>
        <g id="Grupo_1177701" data-name="Grupo 1177701" transform="translate(72.965 52.661)">
          <path id="Trazado_994442" data-name="Trazado 994442" d="M474.651,193.348c16.255,6.658,18.033,35.929,18.033,35.929l13.484-15.431s8.123,3.341,9.713,16.7c0,0-12.428,22.534-28.882,24.153l-14.546-7.768v-30.95Z" transform="translate(-472.453 -193.348)" fill="#a2c6db"/>
        </g>
        <g id="Grupo_1177702" data-name="Grupo 1177702" transform="translate(80.16 74.727)">
          <path id="Trazado_994443" data-name="Trazado 994443" d="M479,246.417h7.97l0-.178c0-.23-.421-23.04-2.294-32.8l-.345.066c1.781,9.276,2.242,30.4,2.285,32.566H479Z" transform="translate(-479.003 -213.435)" fill="#fff"/>
        </g>
        <g id="Grupo_1177703" data-name="Grupo 1177703" transform="translate(16.516 176.046)">
          <path id="Trazado_994444" data-name="Trazado 994444" d="M442.936,411.569c-4.075-2.061-7.539-3.511-7.539-3.511s9.7-26.187,16.59-46.327c1.005-2.95,1.954-5.767,2.8-8.357a240.126,240.126,0,0,0,7.284-30.079c1.783-9.74,2.673-16.919,2.673-16.919l-29.7-.712.946,14.54.655,10.066.5,7.614c-2.663,2.856-5.01,9.674-7.032,18.251-4.622,19.61-7.53,48.429-8.591,60.223-.3,3.349-.453,5.326-.453,5.326h34.768C455.837,418.7,448.759,414.512,442.936,411.569Z" transform="translate(-421.069 -305.664)" fill="#ffc5d4"/>
        </g>
        <g id="Grupo_1177704" data-name="Grupo 1177704" transform="translate(16.969 226.518)">
          <path id="Trazado_994445" data-name="Trazado 994445" d="M442.9,407.041c-4.075-2.061-7.539-3.511-7.539-3.511s7.55-20.375,14.057-39c.392-1.121.781-2.239,1.163-3.342.466-1.349.925-2.68,1.37-3.984a48.285,48.285,0,0,0-21.874-5.595q-.442,1.887-.866,3.875-.367,1.719-.714,3.5c-3.711,18.874-6.076,42.461-7.011,52.847Z" transform="translate(-421.481 -351.608)" fill="#fff"/>
        </g>
        <g id="Grupo_1177705" data-name="Grupo 1177705" transform="translate(74.059 190.429)">
          <path id="Trazado_994446" data-name="Trazado 994446" d="M473.449,318.757l.624,2.568,2.183,8.962,1.535,6.307c-.855,3.335.038,12.442,1.6,23.079,3.1,21.1,8.858,48.2,8.858,48.2-1.783,3.641-1.275,12.516-1.275,12.516h36.755c-1.255-4.191-22-13.287-22.7-13.595l-.018-.008s.515-12.508,1.027-38.542c.069-3.527.08-6.986.048-10.329-.2-21.331-2.169-37.97-2.169-37.97l-19.972-.9Z" transform="translate(-473.449 -318.757)" fill="#ffc5d4"/>
        </g>
        <g id="Grupo_1177706" data-name="Grupo 1177706" transform="translate(80.004 229.123)">
          <path id="Trazado_994447" data-name="Trazado 994447" d="M478.861,356.2c.208,1.394.424,2.817.649,4.257q.272,1.724.557,3.473c3.185,19.431,7.651,40.475,7.651,40.475-1.783,3.641-1.275,12.516-1.275,12.516H523.2c-1.255-4.191-22-13.287-22.7-13.595l-.018-.008s.515-12.508,1.027-38.542c.018-.963.034-1.922.042-2.876.018-1.188.024-2.368.024-3.532q0-1.986-.018-3.921S489.492,352.611,478.861,356.2Z" transform="translate(-478.861 -353.979)" fill="#fff"/>
        </g>
        <g id="Grupo_1177707" data-name="Grupo 1177707" transform="translate(74.683 186.504)" opacity="0.2">
          <path id="Trazado_994448" data-name="Trazado 994448" d="M474.017,321.678l2.183,8.962c5.774-.858,16.625-3.349,23.661-10.336l-9.1-5.119-10.876,4.22Z" transform="translate(-474.017 -315.184)" fill="#c33e5d"/>
        </g>
        <g id="Grupo_1177708" data-name="Grupo 1177708" transform="translate(25.927 47.965)">
          <path id="Trazado_994449" data-name="Trazado 994449" d="M429.979,333.874s18.286.89,37.6,1.114c16.56.2,33.875-.1,41.089-1.857,0,0-1.131-10.168-3.543-24.085-.16-.915-.322-1.847-.493-2.793-.246-1.367-.5-2.768-.771-4.191q-.264-1.383-.536-2.793-.405-2.07-.845-4.19-.278-1.383-.581-2.789-.447-2.081-.922-4.187-.31-1.394-.642-2.789c-4.11-17.547-9.828-35.605-17.343-45.833-.27-.371-.544-.729-.821-1.079a18.481,18.481,0,0,0,1.3-1.416c3.518-4.169,12.263-17.2,2.056-34.424-.375-.631-.774-1.272-1.2-1.913v0a55.263,55.263,0,0,0-5.462-6.878c-2.445-2.645-12.628-4.691-12.628-4.691a28.186,28.186,0,0,0-8.36,1.359,62.772,62.772,0,0,0-16.678,7.877s-1.2,32.56,11.234,40.091a26.849,26.849,0,0,0-3.938,4.309l0,0c-4.738,6.142-12.537,19.5-16.454,44.217q-.221,1.382-.421,2.813c-.2,1.37-.378,2.779-.549,4.22-.105.921-.211,1.86-.309,2.813q-.211,2.065-.386,4.218c-.077.925-.147,1.86-.21,2.81-.094,1.377-.179,2.782-.246,4.215q-.068,1.386-.122,2.809C429.542,317.873,429.577,325.538,429.979,333.874Z" transform="translate(-429.635 -189.073)" fill="#c33e5d"/>
        </g>
        <g id="Grupo_1177709" data-name="Grupo 1177709" transform="translate(54.175 47.965)">
          <path id="Trazado_994450" data-name="Trazado 994450" d="M455.349,190.437a22.213,22.213,0,0,0,3.594,4.657c9.033,9.4,25.792,10.725,17.393-1.325-2.445-2.645-12.628-4.691-12.628-4.691A28.186,28.186,0,0,0,455.349,190.437Z" transform="translate(-455.349 -189.073)" fill="#ffc5d4"/>
        </g>
        <g id="Grupo_1177710" data-name="Grupo 1177710" transform="translate(31.439 190.586)" opacity="0.2">
          <path id="Trazado_994451" data-name="Trazado 994451" d="M434.653,318.9l.655,10.066s17.957-1.121,25.427-6.976Z" transform="translate(-434.653 -318.9)" fill="#c33e5d"/>
        </g>
        <g id="Grupo_1177711" data-name="Grupo 1177711" transform="translate(44.791 93.56)">
          <path id="Trazado_994452" data-name="Trazado 994452" d="M483.547,230.578h-36.74v8.046l36.74.684Z" transform="translate(-446.807 -230.578)" fill="#fff"/>
        </g>
        <g id="Grupo_1177712" data-name="Grupo 1177712" transform="translate(25.926 101.609)">
          <path id="Trazado_994453" data-name="Trazado 994453" d="M429.979,329.062s18.286.89,37.6,1.114C455.889,312.3,431.395,268.552,448.5,237.9,441.357,247.161,427.257,272.833,429.979,329.062Z" transform="translate(-429.635 -237.905)" fill="#b53a5a"/>
        </g>
        <g id="Grupo_1177713" data-name="Grupo 1177713" transform="translate(36.992 104.645)">
          <path id="Trazado_994454" data-name="Trazado 994454" d="M447.881,254.983A18.518,18.518,0,0,1,450.1,260.1c.654,2.731,2.986,1.175,2.4-1.274a10.437,10.437,0,0,1,.934,3.033,1.29,1.29,0,0,0,2.556.216,1.406,1.406,0,0,0,1.5,1.06c1.205-.13,1.441-1.724,1.443-2.277,0,0,2.743.712,1.832-4.16s-3.411-10.487-10.8-14.629c-5.084-2.85-8.648-.82-9.714,1.391C438.317,247.472,441.694,253.544,447.881,254.983Z" transform="translate(-439.708 -240.668)" fill="#ffc5d4"/>
          <path id="Trazado_994455" data-name="Trazado 994455" d="M451.55,257.692c-1.015-4.076-2.183-5.517-2.183-5.517" transform="translate(-438.756 -239.534)" fill="none" stroke="#c33e5d" stroke-miterlimit="10" stroke-width="0.5"/>
          <path id="Trazado_994456" data-name="Trazado 994456" d="M454.789,260.973c-.932-6.684-2.874-9.115-2.874-9.115" transform="translate(-438.505 -239.566)" fill="none" stroke="#c33e5d" stroke-miterlimit="10" stroke-width="0.5"/>
          <path id="Trazado_994457" data-name="Trazado 994457" d="M457.464,259.845a21.122,21.122,0,0,0-2.815-8.9" transform="translate(-438.235 -239.655)" fill="none" stroke="#c33e5d" stroke-miterlimit="10" stroke-width="0.5"/>
        </g>
        <g id="Grupo_1177714" data-name="Grupo 1177714" transform="translate(78.4 208.092)">
          <rect id="Rectángulo_455075" data-name="Rectángulo 455075" width="3.642" height="0.35" fill="#c33e5d"/>
        </g>
        <g id="Grupo_1177715" data-name="Grupo 1177715" transform="translate(32.592 208.091)">
          <rect id="Rectángulo_455076" data-name="Rectángulo 455076" width="3.543" height="0.35" fill="#c33e5d"/>
        </g>
        <g id="Grupo_1177716" data-name="Grupo 1177716" transform="translate(87.535 292.066)">
          <rect id="Rectángulo_455077" data-name="Rectángulo 455077" width="39.26" height="4.347" transform="translate(39.26 4.347) rotate(180)" fill="#fff"/>
        </g>
        <g id="Grupo_1177717" data-name="Grupo 1177717" transform="translate(15.965 292.066)">
          <rect id="Rectángulo_455078" data-name="Rectángulo 455078" width="36.806" height="4.347" transform="translate(36.806 4.347) rotate(180)" fill="#fff"/>
        </g>
        <g id="Grupo_1177718" data-name="Grupo 1177718" transform="translate(87.519 278.464)">
          <path id="Trazado_994458" data-name="Trazado 994458" d="M485.769,412.5h39.207c-.932-6.241-24.424-13.374-25.157-13.595l-.018-.008s-7.886,5.511-12.757,1.086C485.261,403.621,485.769,412.5,485.769,412.5Z" transform="translate(-485.702 -398.894)" fill="#eebb48"/>
        </g>
        <g id="Grupo_1177719" data-name="Grupo 1177719" transform="translate(15.965 278.44)">
          <path id="Trazado_994459" data-name="Trazado 994459" d="M435.446,398.872c-8.532,4.167-13.078,0-13.078,0s-1.8,9.279-1.8,13.626h36.806a26.831,26.831,0,0,0-10.872-9.04A74.016,74.016,0,0,0,435.446,398.872Z" transform="translate(-420.567 -398.872)" fill="#eebb48"/>
        </g>
        <g id="Grupo_1177720" data-name="Grupo 1177720" transform="translate(87.535 283.67)">
          <path id="Trazado_994460" data-name="Trazado 994460" d="M495.846,412.04l.349-.023a8.308,8.308,0,0,0-4.236-6.33,12.937,12.937,0,0,0-6.243-2.054v.35C488.361,403.983,495.48,406.461,495.846,412.04Z" transform="translate(-485.716 -403.633)" fill="#fff"/>
        </g>
        <g id="Grupo_1177721" data-name="Grupo 1177721" transform="translate(16.957 282.852)">
          <path id="Trazado_994461" data-name="Trazado 994461" d="M433.787,412.173l.32-.142c-.04-.09-4.1-9.014-12.631-9.143l-.005.35C429.774,403.365,433.747,412.085,433.787,412.173Z" transform="translate(-421.47 -402.888)" fill="#fff"/>
        </g>
        <g id="Grupo_1177722" data-name="Grupo 1177722" transform="translate(99.2 272.379)">
          <path id="Trazado_994462" data-name="Trazado 994462" d="M496.335,400.8a7.635,7.635,0,0,1,5.762-7.442l-1.431,6.69a4.275,4.275,0,0,1-2.01.751A6.031,6.031,0,0,1,496.335,400.8Z" transform="translate(-496.335 -393.355)" fill="#eebb48"/>
        </g>
        <g id="Grupo_1177723" data-name="Grupo 1177723" transform="translate(28.122 272.379)">
          <path id="Trazado_994463" data-name="Trazado 994463" d="M431.633,400.8a7.635,7.635,0,0,1,5.763-7.442l-1.431,6.69a4.283,4.283,0,0,1-2.011.751A6.033,6.033,0,0,1,431.633,400.8Z" transform="translate(-431.633 -393.355)" fill="#eebb48"/>
        </g>
        <g id="Grupo_1177724" data-name="Grupo 1177724" transform="translate(0 48.617)">
          <path id="Trazado_994464" data-name="Trazado 994464" d="M463.042,189.667c9.215,22.7,1.04,59.417,1.04,59.417l-20.708-8.815,1.022-20.325-15.708,8.434,21.54,11.892s-2.623,16.226-10.936,16.664c0,0-30.478-15.286-33.1-26.515s28.726-31.812,35.581-34.853A69.872,69.872,0,0,1,463.042,189.667Z" transform="translate(-406.034 -189.667)" fill="#b5d6eb"/>
        </g>
        <g id="Grupo_1177725" data-name="Grupo 1177725" transform="translate(51.847 49.296)">
          <path id="Trazado_994465" data-name="Trazado 994465" d="M453.566,246.506c8.943-29.593.088-55.958,0-56.221l-.332.113c.09.263,8.908,26.526,0,56.006Z" transform="translate(-453.23 -190.285)" fill="#fff"/>
        </g>
        <g id="Grupo_1177726" data-name="Grupo 1177726" transform="translate(38.029 60.715)">
          <path id="Trazado_994466" data-name="Trazado 994466" d="M440.652,219.209l.408-.191a11.436,11.436,0,0,0,5.226-6.409l-.328-.12a11.7,11.7,0,0,1-4.629,5.974c.833-2.171,4.211-11.5,3.367-17.783l-.347.046c.943,7.022-3.48,17.957-3.525,18.067Z" transform="translate(-440.652 -200.68)" fill="#fff"/>
        </g>
        <g id="Grupo_1177727" data-name="Grupo 1177727" transform="translate(16.721 83.64)">
          <path id="Trazado_994467" data-name="Trazado 994467" d="M427.593,225.545l-2.54-4-.3.188,2.026,3.189-5.423-1.7-.1.334Z" transform="translate(-421.255 -221.548)" fill="#fff"/>
        </g>
        <g id="Grupo_1177728" data-name="Grupo 1177728" transform="translate(89.887 88.415)">
          <path id="Trazado_994468" data-name="Trazado 994468" d="M488.116,229.66l3.448-3.766h-3.235v.35h2.439l-2.911,3.179Z" transform="translate(-487.858 -225.894)" fill="#fff"/>
        </g>
        <g id="Grupo_1177729" data-name="Grupo 1177729" transform="translate(101.207 79.16)">
          <path id="Trazado_994469" data-name="Trazado 994469" d="M508.795,234.872l.339-.086c-.027-.111-2.879-11.1-10.755-17.316l-.218.275C505.942,223.889,508.767,234.762,508.795,234.872Z" transform="translate(-498.162 -217.47)" fill="#fff"/>
        </g>
        <g id="Grupo_1177730" data-name="Grupo 1177730" transform="translate(27.54 95.267)">
          <path id="Trazado_994470" data-name="Trazado 994470" d="M431.343,249.868a35.411,35.411,0,0,0,9.869-17.2l6.461,3.566.169-.307-6.881-3.8-.044.239a34.915,34.915,0,0,1-9.813,17.241Z" transform="translate(-431.104 -232.132)" fill="#fff"/>
        </g>
        <g id="Grupo_1177732" data-name="Grupo 1177732" transform="translate(27.914 144.208)">
          <g id="Grupo_1177731" data-name="Grupo 1177731">
            <path id="Trazado_994471" data-name="Trazado 994471" d="M431.444,281.114l69.357-1.642q-.31-1.394-.642-2.789L431.865,278.3Q431.644,279.683,431.444,281.114Z" transform="translate(-431.444 -276.682)" fill="#fff"/>
          </g>
        </g>
        <g id="Grupo_1177734" data-name="Grupo 1177734" transform="translate(27.056 151.183)">
          <g id="Grupo_1177733" data-name="Grupo 1177733">
            <path id="Trazado_994472" data-name="Trazado 994472" d="M430.663,287.521l71.718-1.7q-.278-1.383-.581-2.789l-70.828,1.675C430.866,285.628,430.761,286.567,430.663,287.521Z" transform="translate(-430.663 -283.032)" fill="#fff"/>
          </g>
        </g>
        <g id="Grupo_1177736" data-name="Grupo 1177736" transform="translate(26.461 158.163)">
          <g id="Grupo_1177735" data-name="Grupo 1177735">
            <path id="Trazado_994473" data-name="Trazado 994473" d="M430.121,293.923l73.694-1.746q-.264-1.383-.536-2.793l-72.948,1.728C430.254,292.038,430.184,292.973,430.121,293.923Z" transform="translate(-430.121 -289.385)" fill="#fff"/>
          </g>
        </g>
        <g id="Grupo_1177738" data-name="Grupo 1177738" transform="translate(26.093 165.146)">
          <g id="Grupo_1177737" data-name="Grupo 1177737">
            <path id="Trazado_994474" data-name="Trazado 994474" d="M429.786,300.321l75.327-1.786c-.16-.915-.322-1.847-.493-2.793l-74.712,1.77Q429.84,298.9,429.786,300.321Z" transform="translate(-429.786 -295.742)" fill="#fff"/>
          </g>
        </g>
        <g id="Grupo_1177740" data-name="Grupo 1177740" transform="translate(58.24 59.543)">
          <g id="Grupo_1177739" data-name="Grupo 1177739">
            <path id="Trazado_994475" data-name="Trazado 994475" d="M459.049,285.233l.774.709c6.611-7.253,13.4-21.383,17.728-36.877.883-3.157,1.762-6.72,2.544-10.62.168-.816.328-1.65.483-2.495a137.949,137.949,0,0,0,2.056-34.424c-.375-.631-.774-1.272-1.2-1.913a140.584,140.584,0,0,1-4.9,49.168C472.258,264.127,465.556,278.1,459.049,285.233Z" transform="translate(-459.049 -199.613)" fill="#fff"/>
          </g>
        </g>
        <g id="Grupo_1177743" data-name="Grupo 1177743" transform="translate(15.896 114.378)">
          <rect id="Rectángulo_455079" data-name="Rectángulo 455079" width="33.845" height="41.883" rx="5.78" transform="translate(0 31.678) rotate(-69.386)" fill="#40405b"/>
          <g id="Grupo_1177741" data-name="Grupo 1177741" transform="translate(11.228 2.143)">
            <path id="Trazado_994476" data-name="Trazado 994476" d="M455.574,279.793a4.811,4.811,0,0,0,4.5-3.112l5.371-14.278-.327-.124-5.371,14.278a4.458,4.458,0,0,1-5.736,2.6l-20.049-7.54a4.453,4.453,0,0,1-2.6-5.737l5.371-14.277-.328-.124-5.37,14.278a4.8,4.8,0,0,0,2.8,6.187l20.047,7.542A4.785,4.785,0,0,0,455.574,279.793Z" transform="translate(-430.725 -251.479)" fill="#fff"/>
          </g>
          <g id="Grupo_1177742" data-name="Grupo 1177742" transform="translate(24.031 18.974)">
            <path id="Trazado_994477" data-name="Trazado 994477" d="M442.525,268.271a2.268,2.268,0,1,0,2.921-1.325A2.267,2.267,0,0,0,442.525,268.271Z" transform="translate(-442.379 -266.801)" fill="#ffc5d4"/>
          </g>
        </g>
        <g id="Grupo_1177745" data-name="Grupo 1177745" transform="translate(80.653 233.424)">
          <g id="Grupo_1177744" data-name="Grupo 1177744">
            <path id="Trazado_994478" data-name="Trazado 994478" d="M479.452,360.073q.272,1.724.557,3.473a76.621,76.621,0,0,1,21.478-2.029c.018-1.188.024-2.368.024-3.532A79.24,79.24,0,0,0,479.452,360.073Z" transform="translate(-479.452 -357.894)" fill="#a2c6db"/>
          </g>
        </g>
        <g id="Grupo_1177747" data-name="Grupo 1177747" transform="translate(23.98 230.392)">
          <g id="Grupo_1177746" data-name="Grupo 1177746">
            <path id="Trazado_994479" data-name="Trazado 994479" d="M427.863,358.636c8.461-.049,17.315,3.787,20.921,5.546.392-1.121.781-2.239,1.163-3.342-3.97-1.917-12.636-5.564-21.37-5.7Q428.21,356.854,427.863,358.636Z" transform="translate(-427.863 -355.135)" fill="#a2c6db"/>
          </g>
        </g>
        <g id="Grupo_1177748" data-name="Grupo 1177748" transform="translate(203.79 65.446)">
          <rect id="Rectángulo_455080" data-name="Rectángulo 455080" width="3.504" height="62.441" fill="#fff"/>
        </g>
        <g id="Grupo_1177749" data-name="Grupo 1177749" transform="translate(199.59 271.595)">
          <rect id="Rectángulo_455081" data-name="Rectángulo 455081" width="11.905" height="24.818" transform="translate(11.905 24.818) rotate(180)" fill="#c33e5d"/>
        </g>
        <g id="Grupo_1177750" data-name="Grupo 1177750" transform="translate(146.691 271.595)">
          <rect id="Rectángulo_455082" data-name="Rectángulo 455082" width="11.905" height="24.818" transform="translate(11.905 24.818) rotate(180)" fill="#c33e5d"/>
        </g>
        <g id="Grupo_1177751" data-name="Grupo 1177751" transform="translate(56.673 37.634)">
          <path id="Trazado_994480" data-name="Trazado 994480" d="M457.623,179.669l.294,9.709.039,1.275,7.491,6.047,6.787-2v-7.743l-1.636-6.527Z" transform="translate(-457.623 -179.669)" fill="#ffc5d4"/>
        </g>
        <g id="Grupo_1177752" data-name="Grupo 1177752" transform="translate(56.673 37.634)" opacity="0.2">
          <path id="Trazado_994481" data-name="Trazado 994481" d="M457.623,179.669l.294,9.709c1.738.3,10.743,1.643,14.316-2.424Z" transform="translate(-457.623 -179.669)" fill="#c33e5d"/>
        </g>
        <g id="Grupo_1177753" data-name="Grupo 1177753" transform="translate(43.278 5.826)">
          <path id="Trazado_994482" data-name="Trazado 994482" d="M445.43,167.141c0,6.86,5.865,8.84,10.189,15.193,4.523,6.755,12.1,10.788,17.816,7.473,4.453-2.583,6.969-8.36,6.472-16.286a35.544,35.544,0,0,0-.494-4.068,47.814,47.814,0,0,0-1.842-7.088,16.425,16.425,0,0,0-32.14,4.775Z" transform="translate(-445.43 -150.715)" fill="#ffc5d4"/>
        </g>
        <g id="Grupo_1177754" data-name="Grupo 1177754" transform="translate(40.654 1.2)">
          <path id="Trazado_994483" data-name="Trazado 994483" d="M476.179,161.154c-1.194,8.68-25.707,12.921-25.707,12.921s-5.059,2.964-7.154-7.005,7.881-26.493,24.882-18.41S479.583,169.5,479.583,169.5Z" transform="translate(-443.041 -146.504)" fill="#6baace"/>
        </g>
        <g id="Grupo_1177755" data-name="Grupo 1177755" transform="translate(32.675 20.882)">
          <path id="Trazado_994484" data-name="Trazado 994484" d="M444.034,165.3c2.582,11.991-10.614,17.922-7.881,27.587s29.12,7.521,29.12,7.521-9.931-21.477-4.581-30.266S444.034,165.3,444.034,165.3Z" transform="translate(-435.778 -164.42)" fill="#6baace"/>
        </g>
        <g id="Grupo_1177756" data-name="Grupo 1177756" transform="translate(48.084)">
          <path id="Trazado_994485" data-name="Trazado 994485" d="M449.8,149.585c14.637-10.4,37.421-.478,29.112,20.023l-7.008-14.838-9.64,1.847Z" transform="translate(-449.805 -145.411)" fill="#6baace"/>
        </g>
        <g id="Grupo_1177757" data-name="Grupo 1177757" transform="translate(50.194 26.3)">
          <path id="Trazado_994486" data-name="Trazado 994486" d="M451.786,171.557a48.257,48.257,0,0,0,7.48-1.876l-.122-.328a48.138,48.138,0,0,1-7.42,1.861Z" transform="translate(-451.725 -169.352)" fill="#93cce5"/>
        </g>
        <g id="Grupo_1177758" data-name="Grupo 1177758" transform="translate(70.888 26.856)">
          <path id="Trazado_994487" data-name="Trazado 994487" d="M471.987,178.2a2.311,2.311,0,0,0,1.832-.727c1.751-2-.431-7.39-.525-7.618l-.324.133c.022.054,2.195,5.418.586,7.255-.556.634-1.532.772-2.9.411l-.09.339A5.646,5.646,0,0,0,471.987,178.2Z" transform="translate(-470.563 -169.858)" fill="#c33e5d"/>
        </g>
        <g id="Grupo_1177759" data-name="Grupo 1177759" transform="translate(59.554 20.685)">
          <path id="Trazado_994488" data-name="Trazado 994488" d="M460.246,169.9a5.656,5.656,0,1,1,5.656,5.656A5.663,5.663,0,0,1,460.246,169.9Zm.7,0a4.956,4.956,0,1,0,4.956-4.956A4.962,4.962,0,0,0,460.947,169.9Z" transform="translate(-460.246 -164.241)" fill="#fff"/>
        </g>
        <g id="Grupo_1177760" data-name="Grupo 1177760" transform="translate(74.087 20.685)">
          <path id="Trazado_994489" data-name="Trazado 994489" d="M473.475,169.9c0-3.172,1.318-5.656,3-5.656s3,2.485,3,5.656-1.319,5.656-3,5.656S473.475,173.069,473.475,169.9Zm.7,0c0,2.686,1.055,4.956,2.3,4.956s2.3-2.27,2.3-4.956-1.055-4.956-2.3-4.956S474.175,167.211,474.175,169.9Z" transform="translate(-473.475 -164.241)" fill="#fff"/>
        </g>
        <g id="Grupo_1177761" data-name="Grupo 1177761" transform="translate(64.802 24.561)">
          <path id="Trazado_994490" data-name="Trazado 994490" d="M466.168,167.769a1.145,1.145,0,0,1,1.146,1.145v1.862a1.145,1.145,0,0,1-2.29,0v-1.862A1.145,1.145,0,0,1,466.168,167.769Z" transform="translate(-465.023 -167.769)" fill="#40405b"/>
        </g>
        <g id="Grupo_1177762" data-name="Grupo 1177762" transform="translate(65.827 37.506)">
          <path id="Trazado_994491" data-name="Trazado 994491" d="M470.036,181.49a6.021,6.021,0,0,0,2.574-.567l-.166-.309a5.478,5.478,0,0,1-6.249-1.061l-.24.255A5.834,5.834,0,0,0,470.036,181.49Z" transform="translate(-465.956 -179.553)" fill="#c33e5d"/>
        </g>
        <g id="Grupo_1177763" data-name="Grupo 1177763" transform="translate(76.189 24.564)">
          <path id="Trazado_994492" data-name="Trazado 994492" d="M475.388,168.914v1.861a1.147,1.147,0,0,0,1.146,1.146,1.121,1.121,0,0,0,.421-.081,35.544,35.544,0,0,0-.494-4.068A1.146,1.146,0,0,0,475.388,168.914Z" transform="translate(-475.388 -167.772)" fill="#40405b"/>
        </g>
      </g>
      <g id="Grupo_1177766" data-name="Grupo 1177766" transform="translate(370.201 128.208)">
        <g id="Grupo_1177765" data-name="Grupo 1177765">
          <path id="Trazado_994493" data-name="Trazado 994493" d="M401.2,128.208a31,31,0,0,1,26.376,47.281l5.971,12.269-11.746-5.4a31,31,0,1,1-20.6-54.151Z" transform="translate(-370.201 -128.208)" fill="#fff"/>
        </g>
      </g>
      <g id="Grupo_1177769" data-name="Grupo 1177769" transform="translate(381.974 139.306)">
        <g id="Grupo_1177768" data-name="Grupo 1177768">
          <g id="Grupo_1177767" data-name="Grupo 1177767">
            <path id="Trazado_994494" data-name="Trazado 994494" d="M420.715,158.21c0,.286-.005.57-.019.854a20.046,20.046,0,1,1,.019-.854Z" transform="translate(-380.918 -138.31)" fill="#b5d6eb"/>
            <path id="Trazado_994495" data-name="Trazado 994495" d="M407.515,164.651a2.161,2.161,0,0,1-2.161,2.161H383.229a19.916,19.916,0,0,1,1.66-21.246h15.267a2.16,2.16,0,1,1,0,4.321h-2.643a6.3,6.3,0,0,0,0,12.6h7.841a2.16,2.16,0,0,1,2.161,2.161Z" transform="translate(-380.918 -137.595)" fill="#54b3cd"/>
            <path id="Trazado_994496" data-name="Trazado 994496" d="M409,147.825a2.259,2.259,0,1,1-2.26-2.26A2.259,2.259,0,0,1,409,147.825Z" transform="translate(-378.596 -137.595)" fill="#54b3cd"/>
            <path id="Trazado_994497" data-name="Trazado 994497" d="M418.426,156.736c0,.286-.005.57-.019.854h-12.1a2.159,2.159,0,0,1-2.16-2.16h0a2.159,2.159,0,0,1,2.16-2.159h11.82A20.016,20.016,0,0,1,418.426,156.736Z" transform="translate(-378.629 -136.836)" fill="#54b3cd"/>
            <path id="Trazado_994498" data-name="Trazado 994498" d="M412.292,170.758a19.9,19.9,0,0,1-24.336,0Z" transform="translate(-380.224 -135.112)" fill="#54b3cd"/>
          </g>
        </g>
      </g>
    </g>
  </g>
</svg>
