<svg xmlns="http://www.w3.org/2000/svg" width="89.106" height="76.351" viewBox="0 0 89.106 76.351">
  <g id="Grupo_1177658" data-name="Grupo 1177658" transform="translate(-452.075 -456.007)">
    <path id="Trazado_994383" data-name="Trazado 994383" d="M484.984,470.745H538.6a10.939,10.939,0,0,1,1.2.017,1.348,1.348,0,0,1,1.355,1.406q.038,2.527,0,5.055a1.276,1.276,0,0,1-1.244,1.366,1.33,1.33,0,0,1-1.368-1.381c-.05-1.232-.013-2.467-.013-3.765H485.026l-.445,2.572h48.985a11.978,11.978,0,0,1,1.2.022,1.148,1.148,0,0,1,1.133,1.175c.02.32.013.641.013.962q0,17.814,0,35.628c0,1.989-.2,2.184-2.218,2.184H474.718a10.245,10.245,0,0,1-1.082-.024,1.189,1.189,0,0,1-1.156-1.168c-.038-.4-.024-.8-.025-1.2q0-11.856,0-23.712v-1.469l-2.59.365v1.311q0,9.268,0,18.536a4.694,4.694,0,0,1-.077,1.194,1.245,1.245,0,0,1-1.31,1.026,1.221,1.221,0,0,1-1.216-1.25c-.021-.32-.011-.642-.011-.963q0-9.208,0-18.416v-1.407a16.533,16.533,0,0,1-12.609-7.645,15.727,15.727,0,0,1-2.48-10.324,16.465,16.465,0,0,1,15.473-14.807C474.71,455.638,483.207,460.067,484.984,470.745Zm-9.911,42.574h58.153V478.669c-.3-.022-.5-.048-.693-.048q-23.948,0-47.9-.023a1.3,1.3,0,0,0-1.322.925,15.958,15.958,0,0,1-7.263,7.433A1.665,1.665,0,0,0,475,488.7c.038,7.782.021,15.564.024,23.347C475.021,512.438,475.053,512.831,475.074,513.318Zm-6.555-27.149a13.758,13.758,0,1,0,.012-27.515,13.758,13.758,0,1,0-.012,27.515Z" transform="translate(0 0)" fill="#122253"/>
    <path id="Trazado_994384" data-name="Trazado 994384" d="M543.988,706.435v-4.212h-1.421q-12.515,0-25.031,0a8.05,8.05,0,0,1-1.2-.031,1.285,1.285,0,0,1-1.245-1.362c0-1.685-.007-3.37,0-5.054a1.222,1.222,0,0,1,1.218-1.361,1.316,1.316,0,0,1,1.376,1.363c.053.8.017,1.6.018,2.406,0,.43,0,.86,0,1.412h58.35a11.352,11.352,0,0,1,1.2.02,1.221,1.221,0,0,1,1.189,1.145,1.2,1.2,0,0,1-1.051,1.382,5.434,5.434,0,0,1-1.194.078q-7.341.007-14.681,0h-1.384v4.157c.4.018.824.052,1.246.053,2.126.006,4.252-.022,6.378.011a3.479,3.479,0,0,1,3.725,3.3,3.417,3.417,0,0,1-3.023,3.585,5.9,5.9,0,0,1-.721.025q-15.7,0-31.409,0a3.4,3.4,0,0,1-3.738-3.366,3.456,3.456,0,0,1,3.723-3.539c2.085-.032,4.172-.008,6.258-.008Zm7.993,4.288c5.051,0,10.1.011,15.151-.013.646,0,1.657.352,1.673-.781.015-1.083-.952-.869-1.636-.87q-15.151-.014-30.3,0a2.038,2.038,0,0,0-.944.059c-.3.175-.654.552-.649.836,0,.257.42.59.727.736a2.384,2.384,0,0,0,.95.037Zm-5.264-8.449v4.086h10.613v-4.086Z" transform="translate(-47.839 -180.995)" fill="#122253"/>
    <path id="Trazado_994385" data-name="Trazado 994385" d="M794.842,598.233v-1.574q0-16.731,0-33.462a7.627,7.627,0,0,1,.023-1.082,1.329,1.329,0,0,1,1.383-1.225,1.264,1.264,0,0,1,1.222,1.252,7.615,7.615,0,0,1,.016.962q0,17.755,0,35.509c0,1.9-.338,2.235-2.231,2.24-1.2,0-2.407.006-3.611,0a4.077,4.077,0,0,1-.952-.091,1.178,1.178,0,0,1-1.005-1.3,1.193,1.193,0,0,1,1.24-1.214C792.166,598.2,793.406,598.233,794.842,598.233Z" transform="translate(-256.313 -79.624)" fill="#122253"/>
    <path id="Trazado_994386" data-name="Trazado 994386" d="M597.385,577.606c.1,3.287.21,6.573.294,9.86.038,1.491-.32,1.845-1.818,1.847q-9.324.009-18.648,0c-1.538,0-1.914-.388-1.864-1.94q.323-10.039.664-20.079c.045-1.343.4-1.781,1.75-1.69,1.751.118,2.913-.177,3.8-2.036,1.026-2.142,3.21-2.954,5.6-2.7a5.655,5.655,0,0,1,4.924,3.7,1.346,1.346,0,0,0,1.589,1.019,14.147,14.147,0,0,1,1.563,0c1.395.034,1.7.3,1.766,1.689.154,3.445.28,6.891.417,10.337Zm-19.421,9.014h17.107c-.206-6.2-.408-12.3-.609-18.368H578.6C578.388,574.419,578.177,580.49,577.964,586.62Zm11.667-21.137a3.292,3.292,0,0,0-3.118-2.046,3.055,3.055,0,0,0-2.993,2.046Z" transform="translate(-93.587 -79.576)" fill="#122253"/>
    <path id="Trazado_994387" data-name="Trazado 994387" d="M700.406,580.475c-.058,10.532-10.55,16.734-19.1,12.036-.176-.1-.361-.179-.526-.291a1.28,1.28,0,0,1,.7-2.4,16.167,16.167,0,0,0,2.744-.222,8.635,8.635,0,0,0-1.9-17.07c-.12,0-.241,0-.361.008-.817.067-1.58-.035-1.816-.973-.218-.869.363-1.307,1.05-1.668a12.473,12.473,0,0,1,12.84.183A12.149,12.149,0,0,1,700.406,580.475Zm-13.183-9.527c4.065,2.258,6.383,5.562,6.408,10.181.025,4.649-2.335,7.961-6.451,10.324a10.4,10.4,0,0,0,10.633-10.715A10.276,10.276,0,0,0,687.222,570.948Z" transform="translate(-173.12 -85.178)" fill="#122253"/>
    <path id="Trazado_994388" data-name="Trazado 994388" d="M473.933,488.938a11.109,11.109,0,0,1,11.225-11.188,11.184,11.184,0,1,1-11.225,11.188Zm2.59.023a8.595,8.595,0,1,0,8.52-8.654A8.67,8.67,0,0,0,476.523,488.96Z" transform="translate(-16.595 -16.507)" fill="#122253"/>
    <path id="Trazado_994389" data-name="Trazado 994389" d="M610.217,608.425a8.228,8.228,0,0,1-.8,1.205q-3.855,3.889-7.748,7.74c-.77.763-1.52.837-2.108.273s-.516-1.321.249-2.089q3.906-3.923,7.835-7.823c.441-.439.969-.853,1.589-.453A5.448,5.448,0,0,1,610.217,608.425Z" transform="translate(-111.674 -114.724)" fill="#122253"/>
    <path id="Trazado_994390" data-name="Trazado 994390" d="M603.309,607.222a1.338,1.338,0,0,1,1.332,1.254,1.284,1.284,0,0,1-2.566.095A1.35,1.35,0,0,1,603.309,607.222Z" transform="translate(-113.88 -114.802)" fill="#122253"/>
    <path id="Trazado_994391" data-name="Trazado 994391" d="M630.84,643.12a1.221,1.221,0,0,1,1.3-1.25,1.178,1.178,0,0,1,1.22,1.2,1.219,1.219,0,0,1-1.23,1.323A1.247,1.247,0,0,1,630.84,643.12Z" transform="translate(-135.719 -141.108)" fill="#122253"/>
    <path id="Trazado_994392" data-name="Trazado 994392" d="M517.674,497.92c0,.917.03,1.837-.008,2.752-.041.956-.577,1.5-1.374,1.474-.772-.021-1.21-.5-1.222-1.453q-.035-2.872,0-5.745c.013-.9.522-1.437,1.261-1.437a1.369,1.369,0,0,1,1.329,1.417c.047,1,.011,1.994.011,2.992Z" transform="translate(-47.812 -28.473)" fill="#122253"/>
  </g>
</svg>
