<svg xmlns="http://www.w3.org/2000/svg" width="75.263" height="74.981" viewBox="0 0 75.263 74.981">
  <g id="Grupo_1178372" data-name="Grupo 1178372" transform="translate(-1236.368 -9069.938)">
    <g id="Grupo_1177662" data-name="Grupo 1177662" transform="translate(719.879 8642.021)">
      <path id="Trazado_994396" data-name="Trazado 994396" d="M552.868,490.76v-2.327H540.879V449.759h-7.471c-.212,1.991-.44,4-.637,6.009-.5,5.158-.991,10.318-1.5,15.476a2.276,2.276,0,0,0,2.3,2.609h4.763V476.3c-1.785,0-3.57,0-5.354,0-.815,0-.815.011-1.037.885,4.777,2.6,7.2,6.556,6.214,12.027-.784,4.359-3.6,7.129-7.927,8.5l-.554-2.159a24.792,24.792,0,0,0,3.23-1.947,8.354,8.354,0,0,0-2.346-14.243,1.3,1.3,0,0,0-.924.045,4.893,4.893,0,0,1-4.314-.008,1.33,1.33,0,0,0-.921-.034,8.476,8.476,0,0,0-5.414,7.771,8.572,8.572,0,0,0,5.146,7.766c.369.153.743.295,1.2.476l-.542,2.176c-3.533-.409-7.23-4.206-7.978-8.208a10.875,10.875,0,0,1,6.2-12.1c.1-.735-.232-.977-.967-.962-1.758.035-3.517.011-5.365.011v-2.436h3.387c-1.2-11.23-2.391-22.324-3.585-33.464,1.137-.388,2.208-.792,3.3-1.112.536-.156.662-.4.626-.939a22.463,22.463,0,0,1-.1-3.947,7.255,7.255,0,0,1,9.453-6.135,1.891,1.891,0,0,0,1.121-.019,4.167,4.167,0,0,1,4.148.492c4.543,3.371,9.189,6.618,13.565,10.195,2.82,2.306,5.234,5.108,7.833,7.685,1.01,1,1.868,2.389,3.087,2.884,1.256.51,2.866.156,4.322.166s2.915,0,4.373,0c2.67.014,4.13,1.479,4.144,4.171.011,2.237,0,4.475,0,6.712v1.084c1.054.337,1.6.141,1.743-.986.118-.932.528-1.824.677-2.755.135-.844.565-1.02,1.319-.957.7.059,1.411.012,2.247.012v-9.681h2.431c.131-1.991-.325-4.105,1.65-5.418,1.358-.9,2.856-.555,4.374-.592v2.384c-.71,0-1.382-.025-2.052.006-1.075.049-1.464.435-1.514,1.5-.03.638-.005,1.278-.005,2.033h2.372V456.9h3.413c.447,1.74.871,3.4,1.3,5.056.068.261.077.6.246.762,1.223,1.2,1.187,2.722,1.182,4.266-.02,5.695-.006,11.389-.008,17.084,0,2.926-1.365,4.3-4.281,4.318-1.787.009-3.575,0-5.4,0v2.292c1.516.077,3,.061,4.464.245a5.971,5.971,0,0,1-.115,11.858,11.411,11.411,0,0,1-1.416.11q-18.711.009-37.422.008c-2.637,0-4.76-.889-6.052-3.324a6,6,0,0,1,4.232-8.632,14.129,14.129,0,0,1,2.122-.174C549.5,490.742,551.122,490.76,552.868,490.76Zm16.987-4.883c.026-.33.066-.594.066-.857q0-15.554,0-31.107c0-1.443-.368-1.8-1.81-1.8-5.219-.005-10.437.021-15.655-.022a2.109,2.109,0,0,0-2.153,1.3c-2.189,4.278-4.444,8.522-6.645,12.794a3.511,3.511,0,0,0-.383,1.533c-.026,5.727-.018,11.453-.015,17.18,0,.325.031.65.048.981Zm-43.537-47.065c1.739,0,3.364.023,4.987-.022.278-.008.776-.287.788-.466a18.279,18.279,0,0,0,.068-4.137,4.733,4.733,0,0,0-7.113-3.155c-2.233,1.348-2.612,3.471-2.374,5.834q1.377,13.7,2.756,27.4c.206,2.043.427,4.084.632,6.041h2.861l2.044-20.664h-4.649ZM555.9,449.589c-.274-.31-.454-.537-.658-.741-2.321-2.32-4.626-4.659-6.991-6.934a2.512,2.512,0,0,0-1.571-.641c-5.62-.046-11.241-.029-16.862-.026-.355,0-.711.035-1.057.053v5.939h12.041a3.707,3.707,0,0,1,2.2-3.273,3.567,3.567,0,0,1,5.04,3.14c.067,1.631.012,3.268.012,4.9C549.9,448.614,553.13,450,555.9,449.589Zm23.665,38.893h-24.13v2.21h24.13Zm2.5-24.2v21.589H584.4V464.279Zm4.872.042v21.555c2.016.193,2.374-.124,2.374-2.04q0-8.793,0-17.585C589.317,464.4,588.884,464.043,586.944,464.321Zm-7.39,7.062V464.3h-7.125v7.083Zm-57.022,2.4.312.016a9.906,9.906,0,0,0,.854-2.194,10.33,10.33,0,0,0-.18-2.424q-.983-9.757-1.972-19.513c-.271-2.682-.544-5.364-.826-8.149-.678.412-1.711.031-1.559,1.378.987,8.785,1.91,17.576,2.857,26.365C522.181,470.769,522.361,472.275,522.532,473.782Zm42.526,23.083a3.656,3.656,0,0,0-3.6-3.65,3.632,3.632,0,1,0,3.6,3.65Zm-9.7-.062a3.65,3.65,0,0,0-3.658-3.587,3.632,3.632,0,1,0,3.658,3.587Zm29.1-.011a3.623,3.623,0,1,0-7.246.1,3.623,3.623,0,1,0,7.246-.1Zm-13.177-3.574a3.631,3.631,0,1,0,3.455,3.767A3.609,3.609,0,0,0,571.277,493.218Zm-27.952-32.1.208.024c.482-.927.908-1.889,1.462-2.771a5,5,0,0,0,.709-2.884c-.045-2.5-.01-5-.02-7.5a1.974,1.974,0,0,0-.147-1.08c-.272-.359-.755-.791-1.128-.773s-.777.507-1.072.868c-.139.17-.075.521-.075.791q-.005,6.287,0,12.575C543.262,460.619,543.3,460.871,543.325,461.122ZM572.451,473.9v11.953h2.256V473.9Zm4.791,0v11.955h2.3V473.9ZM544.069,438.81l.085-.233-10.725-8.017c.437,1.347.858,2.7,1.325,4.04a1.618,1.618,0,0,0,.556.674q2.094,1.6,4.223,3.157a1.776,1.776,0,0,0,.909.362C541.65,438.834,542.86,438.81,544.069,438.81Zm32.3,22.9h11.361c-.18-.732-.311-1.386-.518-2.015a.684.684,0,0,0-.538-.306c-3.24-.019-6.479-.013-9.762-.013ZM527.5,472.674a2.406,2.406,0,0,0-.068,4.811,2.406,2.406,0,1,0,.068-4.811Zm55.659-15.759v-7.162h-2.253v7.162Zm-36.294,43.516a6.275,6.275,0,0,1-.075-7.143,3.531,3.531,0,0,0-3.517,3.459A3.6,3.6,0,0,0,546.867,500.432Zm38.813.072a3.8,3.8,0,0,0,3.313-2.218,3.4,3.4,0,0,0-.5-3.7,2.706,2.706,0,0,0-2.664-1.155A6.2,6.2,0,0,1,585.679,500.5Z" transform="translate(0 0)" fill="#122253"/>
      <path id="Trazado_994397" data-name="Trazado 994397" d="M681.86,558.85v28.863H660.125c-.02-.379-.055-.738-.055-1.1,0-4.711-.011-9.421.01-14.132a3.269,3.269,0,0,1,.292-1.463q3.1-5.884,6.289-11.721a1.155,1.155,0,0,1,.81-.55c4.71-.027,9.42-.011,14.131,0A1.044,1.044,0,0,1,681.86,558.85Zm-19.409,26.44h16.914V573.346a1.94,1.94,0,0,0-.368-.089c-5.279-.007-10.558,0-15.837-.022-.624,0-.72.293-.715.813.017,1.895.006,3.79.006,5.685C662.451,581.553,662.451,583.374,662.451,585.29Zm16.9-14.544v-9.575c-3.547,0-7-.016-10.457.029a1.3,1.3,0,0,0-.851.656c-1.52,2.757-3,5.535-4.485,8.312a2.652,2.652,0,0,0-.15.578Z" transform="translate(-114.377 -104.213)" fill="#122253"/>
      <path id="Trazado_994398" data-name="Trazado 994398" d="M567.232,458.107v2.281h-2.34v-2.281Z" transform="translate(-38.559 -24.051)" fill="#e8ebf3"/>
      <path id="Trazado_994399" data-name="Trazado 994399" d="M731.736,763.475V761.2h2.344v2.274Z" transform="translate(-171.472 -265.504)" fill="#e8ebf3"/>
      <path id="Trazado_994400" data-name="Trazado 994400" d="M684.184,761.1h2.265v2.3h-2.265Z" transform="translate(-133.591 -265.425)" fill="#e8ebf3"/>
      <path id="Trazado_994401" data-name="Trazado 994401" d="M827.267,761.068h2.253v2.3h-2.253Z" transform="translate(-247.575 -265.398)" fill="#e8ebf3"/>
      <path id="Trazado_994402" data-name="Trazado 994402" d="M779.518,761.041h2.311v2.294h-2.311Z" transform="translate(-209.536 -265.377)" fill="#e8ebf3"/>
    </g>
  </g>
</svg>
