<svg xmlns="http://www.w3.org/2000/svg" width="80.143" height="73.261" viewBox="0 0 80.143 73.261">
  <g id="Grupo_1178192" data-name="Grupo 1178192" transform="translate(-597.28 -703.128)">
    <path id="Trazado_995096" data-name="Trazado 995096" d="M741.962,716.754c0-.927.014-1.763-.01-2.6-.005-.185-.1-.481-.226-.531-1.25-.491-1.1-1.552-1.1-2.565.005-2.026-.011-4.051.007-6.077.013-1.379.459-1.847,1.813-1.848q13.734-.015,27.467,0c1.317,0,1.757.427,1.776,1.75.033,2.321.019,4.642,0,6.963,0,.368-.016.914-.24,1.073-1.471,1.041-.724,2.481-.837,3.411a37.762,37.762,0,0,1,5.252,2.442,6.9,6.9,0,0,1,3.119,6.041c-.006,14.517.025,29.035-.02,43.552-.014,4.423-3.75,7.922-8.466,7.981-5.737.071-11.476.024-17.214.024-3.839,0-7.68.04-11.518-.024a8.539,8.539,0,0,1-8.033-5.7,9.781,9.781,0,0,1-.392-2.983c-.024-14.053.058-28.107-.058-42.159a8.6,8.6,0,0,1,7.607-8.63C741.181,716.833,741.475,716.808,741.962,716.754Zm-5.732,39.194c0,4.017-.008,7.81,0,11.6.009,3.293,1.7,5.268,4.97,5.8a10.331,10.331,0,0,0,1.633.144c8.9.009,17.8-.008,26.7.013,3.4.008,6.709-1.737,6.647-6.606-.175-13.837-.059-27.679-.063-41.519a5.18,5.18,0,0,0-3.977-5.325,10.826,10.826,0,0,0-2.361-.376c-1.738-.1-2.122-.435-2.168-2.2-.031-1.207-.006-2.415-.006-3.667H744.957c0,.937,0,1.811,0,2.686,0,2.809-.16,2.98-2.9,3.188-2.846.215-5.32,1.738-5.557,3.958a79.525,79.525,0,0,0-.068,8.293h1.342c3.586,0,7.172-.009,10.757.006,1.478.006,1.939.432,1.943,1.862q.023,10.127,0,20.253c0,1.416-.483,1.875-1.941,1.885-3.333.022-6.665.008-10,.009Zm.078-17.047h1.349c1.687,0,3.374-.008,5.062,0,1.437.009,2.078.471,2.031,1.488-.058,1.265-.948,1.442-1.96,1.429-.422-.005-.844,0-1.265,0h-5.191v5.107h1.48c1.814,0,3.628-.006,5.441.008a1.327,1.327,0,0,1,1.493,1.485c-.021.931-.6,1.338-1.49,1.359-.464.011-.928.008-1.392.009h-5.535v3.163h11.112v-18.06H736.307ZM768.753,706.1H743.616v4.58h25.137Z" transform="translate(-101.567 0)" fill="#fff3ea"/>
    <path id="Trazado_995097" data-name="Trazado 995097" d="M621.225,817.782c.492.669.718,1.234,1.134,1.5a4.348,4.348,0,0,1,2.278,3.835c.014,8.816.028,17.633-.005,26.45a4.213,4.213,0,0,1-4.4,4.378q-9.3.033-18.6,0a4.131,4.131,0,0,1-4.331-4.286c-.031-8.858-.007-17.717-.012-26.576a4.4,4.4,0,0,1,1.943-3.639,6.6,6.6,0,0,0,1.056-1.488c-2.441-.731-2.442-.731-2.442-2.982,0-2.025-.011-4.05,0-6.075.01-1.418.472-1.881,1.9-1.882q11.2-.012,22.395,0c1.439,0,1.9.443,1.919,1.886.031,2.067.012,4.134.009,6.2C624.069,817.247,623.844,817.5,621.225,817.782Zm.476,25.755c-2.028,0-3.839.009-5.65,0-1.244-.008-2.037-.572-1.961-1.46.1-1.2.968-1.445,2-1.438,1.561.011,3.124.031,4.683-.023.318-.011.625-.33.937-.508-.307-.182-.611-.515-.923-.523-1.982-.049-3.966-.036-5.949-.023-1.03.007-1.787-.346-1.769-1.486.017-1.075.759-1.4,1.73-1.388,1.688.013,3.378.047,5.063-.02a8.708,8.708,0,0,0,1.84-.474c-.361-1.108-1.279-.5-1.9-.529-2.191-.091-4.387-.034-6.581-.042a1.446,1.446,0,0,1-1.627-1.416c-.033-1,.657-1.517,1.641-1.525,2.363-.02,4.726-.008,7.089-.009h1.406c0-3.1.006-6.011,0-8.921-.005-1.679-.333-2.007-2-2.008q-8.8-.007-17.6,0c-1.607,0-1.979.388-1.98,2.046q-.006,12.6,0,25.2c0,1.615.472,2.074,2.133,2.085,1.983.013,3.967,0,5.95,0q5.76,0,11.52,0c.948,0,1.886-.182,1.932-1.341C621.757,847.718,621.7,845.7,621.7,843.537Zm-.618-33.5H600.845v4.58h20.237Zm-18.059,8.631h15.47c.312-.847-.062-1.019-.756-1.017q-7.015.02-14.03,0C602.923,817.645,602.751,817.951,603.023,818.666Z" transform="translate(0 -77.576)" fill="#fff3ea"/>
    <path id="Trazado_995098" data-name="Trazado 995098" d="M872.223,935.131c0,4.534-2.338,7.539-6.739,8.658a5.328,5.328,0,0,1-.992.164c-.894.053-1.6-.408-1.553-1.251a2.414,2.414,0,0,1,1.106-1.559c.65-.406,1.539-.408,2.244-.751a4.751,4.751,0,0,0,2.955-4.59c-.009-.673-.031-1.349.016-2.019.063-.895.462-1.559,1.466-1.55,1.047.009,1.481.649,1.494,1.636C872.226,934.289,872.222,934.71,872.223,935.131Z" transform="translate(-198.392 -171.094)" fill="#fff3ea"/>
    <path id="Trazado_995099" data-name="Trazado 995099" d="M617.028,953.584c-.632,0-1.266.028-1.9-.005a4.222,4.222,0,0,1-4.071-3.917,23.559,23.559,0,0,1-.019-2.653,1.357,1.357,0,0,1,1.416-1.462c.971-.015,1.44.586,1.47,1.529.02.632.007,1.264.01,1.9a1.559,1.559,0,0,0,1.706,1.747c1.137.025,2.275.016,3.413.013.964,0,1.581.49,1.575,1.424a1.392,1.392,0,0,1-1.581,1.433h-2.023Z" transform="translate(-10.257 -181.038)" fill="#fff3ea"/>
  </g>
</svg>
