<svg xmlns="http://www.w3.org/2000/svg" width="45.335" height="93.205" viewBox="0 0 45.335 93.205">
  <g id="Grupo_1178194" data-name="Grupo 1178194" transform="translate(-660.19 -676.595)">
    <path id="Trazado_995100" data-name="Trazado 995100" d="M705.355,712.552c-1.184.128-2.863-.187-2.866,1.6s1.684,1.474,2.94,1.614v8.781c-1.239.189-3.013-.169-2.937,1.716.066,1.644,1.626,1.482,3.01,1.473v1.451c0,9.777-.064,19.554.022,29.331a10.863,10.863,0,0,1-11.173,11.28q-11.527-.291-23.066,0a10.779,10.779,0,0,1-11.1-11.078c.034-3.389,0-6.779.009-10.168,0-.382.038-.764.06-1.19,1.245-.158,2.933.158,2.948-1.607.015-1.792-1.65-1.511-2.932-1.621v-8.779c1.19-.238,3,.18,2.934-1.71-.056-1.663-1.617-1.481-3.013-1.474v-1.433q0-12.449,0-24.9c0-3.928,1.626-6.386,5.265-7.814.77-.3.781-.773.78-1.4q-.016-5.931,0-11.863c.015-5.057,3.085-8.145,8.1-8.151q8.6-.011,17.2,0a7.491,7.491,0,0,1,7.908,7.815c.039,4.084.027,8.169-.006,12.254a1.237,1.237,0,0,0,.97,1.4,6.789,6.789,0,0,1,4.879,5.881C705.572,706.779,705.355,709.652,705.355,712.552Zm-22.423-11.938c-4.951,0-9.9-.014-14.854.005a4.463,4.463,0,0,0-4.784,4.813c-.011,7.646,0,15.292-.016,22.938a1.527,1.527,0,0,0,.833,1.542c2.592,1.573,3.021,5.328.6,7.055a3.215,3.215,0,0,0-1.386,3.494,2.153,2.153,0,0,0,.774,1.4,4.543,4.543,0,0,1,0,7.746,2.006,2.006,0,0,0-.769,1.4c-.072,2.735-.055,5.473-.029,8.21a7.436,7.436,0,0,0,7.478,7.587q12.052.113,24.105,0a7.437,7.437,0,0,0,7.521-7.677c.022-9.21,0-18.42.022-27.63a1.566,1.566,0,0,0-.858-1.535,4.43,4.43,0,0,1-.088-7.523,3.056,3.056,0,0,0,.016-4.533c-2.494-1.686-2.9-5.24-.521-7a3.406,3.406,0,0,0,1.443-3.48c-.043-.605,0-1.216-.008-1.824-.016-3.225-1.768-4.977-5.011-4.983Q690.164,700.6,682.933,700.615ZM669.342,697.5H696.3V685.615H690.28c-1.069,3.454-3.214,5.667-6.851,5.9-4.247.274-6.78-2.039-8.039-5.886h-6.048Zm.387-14.959h26.233a4.074,4.074,0,0,0-3.992-2.987q-9.114-.078-18.23,0A4.112,4.112,0,0,0,669.729,682.538Zm9.008,3.061a4.381,4.381,0,0,0,4.218,3.013,4.172,4.172,0,0,0,3.933-3.013Z" transform="translate(0 0)" fill="#fff3ea"/>
    <path id="Trazado_995101" data-name="Trazado 995101" d="M722.217,818.924q0,11.6,0,23.2c0,2.708-1.086,3.8-3.782,3.8q-9.774.007-19.548,0c-2.7,0-3.786-1.095-3.787-3.8q0-23.332,0-46.664c0-2.62,1.1-3.723,3.715-3.724q9.839-.005,19.678,0c2.621,0,3.722,1.1,3.723,3.719Q722.221,807.193,722.217,818.924Zm-3.1-24.04H698.2v25.172l.279.016.24-3.8a10.471,10.471,0,0,0,9.948-4.2,10.565,10.565,0,0,0,9.937,4.214l.243,3.767.273-.021ZM707.11,827.919c0,.5.006.888,0,1.275a4.448,4.448,0,0,1-4.532,4.668c-.824.034-1.65,0-2.475.015-1.325.026-2.02.559-1.95,1.542.085,1.186.9,1.448,1.923,1.446q7.1-.013,14.2,0c1.055,0,1.874-.368,1.9-1.486.022-1.039-.741-1.422-1.734-1.543-2.773-.34-4.18-1.98-4.231-4.817-.006-.34-.036-.68-.059-1.1Zm12.03,9.237c-.113,0-.241-.027-.257,0-1.181,2.285-3.167,2.809-5.563,2.771-5.018-.079-10.038-.024-15.106-.024v2.877H719.14Zm-10.48-20.728a13.167,13.167,0,0,1-6.348,2.772,1.036,1.036,0,0,0-.725.558c-.539,1.677-1.012,3.376-1.5,5.057H701.2c1.438-3.966,3.858-5.915,7.344-5.949,3.6-.034,5.963,1.807,7.591,5.943h1.11c-.5-1.665-.968-3.32-1.5-4.956a1.035,1.035,0,0,0-.649-.633A13.328,13.328,0,0,1,708.66,816.428Zm4.628,11.492c-.3,1.845.031,2.793,1.2,2.88a5.262,5.262,0,0,1,4.642,3.242V827.92Zm-.54-3.08c-.285-1.776-2.561-3.116-4.267-3.023a4.113,4.113,0,0,0-3.862,3.023ZM698.2,830.863c1.292,0,2.411,0,3.529,0,2.169,0,2.736-.723,2.267-2.936h-5.8Z" transform="translate(-25.809 -85.129)" fill="#fff3ea"/>
    <path id="Trazado_995102" data-name="Trazado 995102" d="M718.524,814.865h14.909v8.991H718.524Zm11.864,3.152h-8.8v2.761h8.8Z" transform="translate(-43.128 -102.225)" fill="#fff3ea"/>
  </g>
</svg>
