<svg xmlns="http://www.w3.org/2000/svg" width="55.739" height="81.892" viewBox="0 0 55.739 81.892">
  <g id="Grupo_1178110" data-name="Grupo 1178110" transform="translate(-726.801 -579.183)">
    <path id="Trazado_994959" data-name="Trazado 994959" d="M727.743,620.1c-1.266-2.24-1.047-4.591-.5-6.968a2.2,2.2,0,0,0,.111-.745,24.418,24.418,0,0,1-.447-2.994c-.044-5.88,0-11.76-.042-17.64a2.461,2.461,0,0,1,1.168-2.285c1.571-1.08,3.065-2.274,4.631-3.362a1.656,1.656,0,0,0,.836-1.6c-.058-1.257-.013-2.519-.013-3.779a1.35,1.35,0,0,1,1.535-1.549q5.1.016,10.195,0a1.285,1.285,0,0,1,1.479,1.463,15.014,15.014,0,0,1-.022,2.4,3.463,3.463,0,0,0,1.978,3.895,27.272,27.272,0,0,1,3.766,2.789,2.587,2.587,0,0,1,.863,1.695c.06,6.414.124,12.831-.03,19.242-.034,1.428-.077,2.823.018,4.256.116,1.751.454,3.624-.829,5.085a9.446,9.446,0,0,1,.476,7.171,1.636,1.636,0,0,0-.063.638,21.121,21.121,0,0,1,.445,2.879c.037,7.751.025,15.5.019,23.253,0,4.414-2.644,7.068-7.038,7.075-4.2.007-8.4.014-12.6,0a6.467,6.467,0,0,1-6.787-6.754q-.03-12.256.01-24.513a10.99,10.99,0,0,1,.348-1.766,2.077,2.077,0,0,0,.025-.836C726.654,624.74,726.489,622.365,727.743,620.1ZM742.649,658.4a1.421,1.421,0,0,0,.094-.3q.013-4.122.019-8.243c0-1.387.41-1.974,1.344-1.957.909.016,1.3.613,1.308,2.008.005,1.718,0,3.435,0,5.153v3.256c3.129.526,5.306-1.226,5.313-4.2.02-7.939.007-15.878.005-23.817,0-.258-.028-.517-.045-.815H729.481c0,8.44-.051,16.8.03,25.149.025,2.632,2.535,4.29,5.258,3.654v-1.222c0-2.443-.006-4.886,0-7.328,0-1.248.472-1.85,1.382-1.833.889.016,1.324.624,1.333,1.884.006.84,0,1.679,0,2.519v6.1ZM729.473,610.73h21.263c0-6.2.011-12.3-.028-18.4a1.653,1.653,0,0,0-.645-1.081q-2.489-1.923-5.064-3.734a2.561,2.561,0,0,0-1.347-.45c-2.365-.044-4.731-.04-7.1,0a2.348,2.348,0,0,0-1.25.394q-2.662,1.882-5.251,3.866a1.491,1.491,0,0,0-.557,1C729.464,598.431,729.473,604.535,729.473,610.73Zm10.7,2.805h-7.559c-3.157,0-3.157,0-3.143,3.174.007,1.664.44,2.11,2.086,2.111q7.9.005,15.8,0c3.4,0,3.437-.043,3.373-3.461-.026-1.418-.424-1.82-1.858-1.824C745.977,613.53,743.075,613.536,740.174,613.536Zm-.145,13.143h7.559c3.166,0,3.166,0,3.148-3.172-.01-1.694-.414-2.112-2.084-2.113q-7.9-.005-15.8,0c-3.4,0-3.428.024-3.375,3.455.022,1.416.425,1.825,1.853,1.829C734.227,626.684,737.128,626.678,740.03,626.679Zm4.035-44.828H736.2V584.4h7.866Z" fill="#122253"/>
    <path id="Trazado_994960" data-name="Trazado 994960" d="M854.876,619.966c-1.161-2.122-.947-4.474-.407-6.849a2.165,2.165,0,0,0,.151-.635c-.153-1.454-.467-2.9-.483-4.357-.059-5.421.007-10.844-.049-16.265a2.626,2.626,0,0,1,1.279-2.458c1.607-1.1,3.165-2.266,4.686-3.478a2,2,0,0,0,.654-1.292c.087-1.292.047-2.594.027-3.892-.016-1.041.441-1.56,1.505-1.556q5.1.016,10.194,0c1.069,0,1.516.556,1.514,1.571,0,1.26-.07,2.526.037,3.777a2.335,2.335,0,0,0,.746,1.478c1.6,1.293,3.327,2.435,4.916,3.742a2.53,2.53,0,0,1,.862,1.692c.061,6.376.141,12.755-.038,19.126-.043,1.51-.041,2.986.039,4.491.092,1.722.4,3.546-.866,4.968,1.3,2.327,1.094,4.677.544,7.055a2.158,2.158,0,0,0-.106.745,22.378,22.378,0,0,1,.445,2.88c.038,7.712-.092,15.427.066,23.137a6.9,6.9,0,0,1-7.218,7.223c-4.116-.179-8.245-.03-12.369-.043-4.172-.013-6.882-2.714-6.888-6.879q-.015-12.142.015-24.283a10.266,10.266,0,0,1,.409-1.974,1.81,1.81,0,0,0,.06-.531c-.154-1.575-.433-3.148-.439-4.723A10.565,10.565,0,0,1,854.876,619.966Zm23.081,9.488H856.769a3.987,3.987,0,0,0-.068.495c0,8.13-.031,16.26.01,24.389.014,2.794,2.29,4.49,5.3,3.966v-1.2c0-2.443-.005-4.885,0-7.328,0-1.3.416-1.875,1.31-1.888.909-.013,1.337.565,1.34,1.847.006,2.4,0,4.809,0,7.214v1.441h5.273v-1.179q0-3.779,0-7.557c0-.933.236-1.7,1.339-1.758.879-.049,1.369.564,1.377,1.717.015,2.328,0,4.656.005,6.985v1.763c3.393.344,5.292-1.343,5.295-4.549q.007-8.416,0-16.832Zm0-18.663c0-6.253.009-12.39-.026-18.527a1.507,1.507,0,0,0-.6-.982c-1.664-1.276-3.345-2.533-5.068-3.728a3.006,3.006,0,0,0-1.562-.487c-2.25-.052-4.5-.058-6.753,0a3.238,3.238,0,0,0-1.654.554c-1.633,1.124-3.191,2.355-4.811,3.5a1.739,1.739,0,0,0-.809,1.614c.031,5.647.017,11.294.017,16.941v1.113Zm-10.612,2.744h-7.559c-3.1,0-3.1,0-3.093,3.11.007,1.773.4,2.175,2.136,2.176q7.845,0,15.69,0c3.47,0,3.51-.041,3.437-3.511-.028-1.357-.43-1.768-1.794-1.773C873.225,613.529,870.285,613.536,867.346,613.536Zm-.091,13.143h7.559c3.158,0,3.158,0,3.144-3.175-.007-1.665-.44-2.109-2.087-2.11q-7.9-.005-15.8,0c-3.4,0-3.434.036-3.372,3.459.026,1.421.421,1.821,1.856,1.825C861.452,626.684,864.353,626.679,867.255,626.679Zm-3.884-42.294h7.864v-2.557h-7.864Z" transform="translate(-98.076)" fill="#122253"/>
    <path id="Trazado_994961" data-name="Trazado 994961" d="M749.813,806.6c-1.26,0-2.52-.005-3.78,0-.853,0-1.443-.362-1.462-1.246-.021-.945.576-1.336,1.487-1.333q3.78.012,7.56,0c.848,0,1.432.335,1.453,1.243.022.971-.576,1.337-1.478,1.334C752.333,806.6,751.073,806.6,749.813,806.6Z" transform="translate(-13.698 -173.32)" fill="#122253"/>
    <path id="Trazado_994962" data-name="Trazado 994962" d="M798.984,806.582c-.628-.3-1.371-.421-1.663-.852a1.837,1.837,0,0,1,.169-1.6c.366-.593,2.687-.588,3.047.008a1.845,1.845,0,0,1,.151,1.611C800.39,806.18,799.638,806.291,798.984,806.582Z" transform="translate(-54.267 -173.062)" fill="#122253"/>
    <path id="Trazado_994963" data-name="Trazado 994963" d="M876.873,806.6c-1.255,0-2.511-.008-3.766,0-.863.007-1.449-.42-1.463-1.253-.015-.9.584-1.332,1.5-1.328,2.51.012,5.021.008,7.531,0,.892,0,1.507.337,1.5,1.307s-.657,1.278-1.534,1.273C879.383,806.594,878.128,806.6,876.873,806.6Z" transform="translate(-111.652 -173.315)" fill="#122253"/>
    <path id="Trazado_994964" data-name="Trazado 994964" d="M925.83,806.472c-.341-.018-.777.089-1-.082-.414-.314-1-.819-.969-1.194a2.023,2.023,0,0,1,1.04-1.246,3.274,3.274,0,0,1,1.459-.065c.865.008,1.388.44,1.376,1.317-.011.821-.527,1.218-1.332,1.25-.19.008-.38,0-.57,0Z" transform="translate(-151.899 -173.173)" fill="#122253"/>
  </g>
</svg>
