<svg xmlns="http://www.w3.org/2000/svg" width="83.04" height="82.798" viewBox="0 0 83.04 82.798">
  <g id="Grupo_1178112" data-name="Grupo 1178112" transform="translate(-615.219 -528.775)">
    <path id="Trazado_994965" data-name="Trazado 994965" d="M634.115,606.406c-3.042-.306-6.012-.4-8.892-.957a38.1,38.1,0,0,1-7.313-2.327,4.388,4.388,0,0,1-2.692-4.485q.087-24.447,0-48.895a4.731,4.731,0,0,1,2.574-4.475,22,22,0,0,1,8.3-2.537,51.417,51.417,0,0,1,21.259,1.2c0-1.214.048-2.355-.011-3.49a4.939,4.939,0,0,1,2.139-4.546,1.308,1.308,0,0,0,.544-.659c.406-2.116,2.015-3.063,3.747-3.838a30.764,30.764,0,0,1,9.554-2.243,57.709,57.709,0,0,1,18.4.782A32.756,32.756,0,0,1,687.612,532a4.22,4.22,0,0,1,2.611,3.16,1.465,1.465,0,0,0,.588.753,4.972,4.972,0,0,1,2.076,4.338c-.052,9.981-.024,19.962-.024,29.942v1.4a6.459,6.459,0,0,1,4.4,3.2,8.44,8.44,0,0,1,.941,3.51c.077,8.821.059,17.644.034,26.466a6.6,6.6,0,0,1-6.726,6.779q-25.4.036-50.8,0a6.634,6.634,0,0,1-6.419-4.7C634.222,606.653,634.133,606.451,634.115,606.406Zm33.414-34.982c-.1-3.331,1.277-5.171,3.824-5.23,2.679-.062,4.087,1.723,4.078,5.207h9.326a2.587,2.587,0,0,0,.078-.407c.005-5.528.018-11.057,0-16.585,0-1.228-.474-1.586-1.908-1.587q-12.775,0-25.551,0c-1.591,0-1.981.392-1.981,1.984q-.005,7.789,0,15.577c0,.327.036.653.059,1.041Zm-1.349,2.765q-12.555,0-25.109,0a4.045,4.045,0,0,0-4.42,4.376q-.034,7.622,0,15.244c.011,2.768,1.617,4.373,4.406,4.375q25.053.018,50.106,0c2.852,0,4.4-1.6,4.4-4.473q.009-7.4,0-14.8c0-3.216-1.513-4.73-4.727-4.731Q678.511,574.186,666.181,574.189Zm-13.449-2.764v-1.268q0-7.735,0-15.471c0-2.948,1.624-4.558,4.594-4.56q12.837-.008,25.673,0c2.905,0,4.5,1.6,4.5,4.509.006,5.194,0,10.389.007,15.583,0,.413.071.826.105,1.2h2.506V543.909a56.2,56.2,0,0,1-40-.018v27.534Zm-18.107,3.741c2.139-2.934,3.6-3.675,7.159-3.676h3.986c-3.908-4.8-12.127-7.207-19.257-3.477-6.9,3.613-10.342,12.068-7.783,19.187,2.416,6.722,9.7,11.924,15.224,10.815v-2.382c-4.055-.375-7.173-2.173-8.657-6.076-1.493-3.926-.508-7.4,2.415-10.357-3.457-1.812-4.828-4.231-4.305-7.711,1.385,0,2.8.039,4.205-.008A7.159,7.159,0,0,1,634.626,575.165ZM618,558.046v14.331c3.443-5.045,7.945-8.044,13.812-8.716a18.616,18.616,0,0,1,15.463,5.3v-9.817C637.39,561.527,627.662,561.713,618,558.046Zm65.592-20.1c1.192-.61,2.267-1.109,3.288-1.7.782-.454.819-1.1.005-1.537a16.756,16.756,0,0,0-3.437-1.565A53.036,53.036,0,0,0,658.4,532.7a20.379,20.379,0,0,0-4.682,1.771c-1.262.619-1.22,1.247-.049,2a9.7,9.7,0,0,0,1.595.8,34.819,34.819,0,0,0,10.271,2.043c1.574.133,3.169.022,4.755.022a3.6,3.6,0,0,1,2.562-4.453,10.744,10.744,0,0,1,7.453-.18A4.551,4.551,0,0,1,683.595,537.944Zm-49.768,14.87a39.911,39.911,0,0,0,12.785-1.754,1.163,1.163,0,0,0,.709-.676c.561-3.078,0-3.883-3.07-4.5-.037-.007-.074-.01-.111-.018a49.238,49.238,0,0,0-16.712-.633,21.88,21.88,0,0,0-8.241,2.327c-1.624.926-1.625,1.544-.059,2.5.466.283.974.5,1.5.758a4.765,4.765,0,0,1,2.968-2.68,10.736,10.736,0,0,1,7.246-.047C633.332,548.944,634.115,550.174,633.827,552.813Zm55.2-14.806a18.409,18.409,0,0,1-7.885,3.165,61.693,61.693,0,0,1-18.089.577c-4.157-.459-8.309-1.111-11.812-3.715-1.54,1.055-1.582,1.8-.094,2.9a16.423,16.423,0,0,0,6.511,2.586,59.746,59.746,0,0,0,24.921.008,16.177,16.177,0,0,0,6.6-2.641C690.6,539.817,690.549,539.134,689.024,538.007ZM617.988,552.7c-.143,1.821.019,2.206,1.572,2.938a16.991,16.991,0,0,0,3.136,1.176,46.283,46.283,0,0,0,22.518,0c2.675-.664,2.1-.232,2.1-2.879a.158.158,0,0,0-.068-.1C637.385,556.15,627.648,556.379,617.988,552.7Zm15.965,26.8a6.683,6.683,0,0,0-5.947,3.765,6.63,6.63,0,0,0,5.947,9.567Zm.059,24.277c0-.854-.035-1.37.008-1.88.064-.739-.162-1.027-.975-1.073a18.407,18.407,0,0,1-14.324-7.814c-.2-.27-.412-.532-.8-1.025,0,2.414.074,4.506-.029,6.59a2.073,2.073,0,0,0,1.383,2.285,32.09,32.09,0,0,0,5.5,1.795C627.767,603.193,630.815,603.406,634.013,603.776Zm16.12-2.853v7.886h5.174v-7.886Zm18.661,7.916c0-2.5.012-4.952-.023-7.4a.757.757,0,0,0-.509-.536c-1.555-.043-3.112-.025-4.707-.025v7.961Zm8.114-.037h5.2v-7.852h-5.2Zm13.374-.044c2.416.441,4.529-.448,4.97-2.53a39.652,39.652,0,0,0,.4-6.244l-5.372,1.159Zm-48.363.069V600.95a10.071,10.071,0,0,1-5.273-1.2c0,1.524,0,2.967,0,4.411C636.655,607.514,638.425,609.12,641.918,608.826Zm18.792.021v-7.885h-2.516v7.885Zm26.716.007v-7.871c-2.579-.358-2.579-.358-2.579,2.051v5.819Zm-42.726-.049h2.561v-7.933a12.406,12.406,0,0,0-1.861.028c-.259.041-.666.387-.67.6C644.683,603.917,644.7,606.333,644.7,608.805Zm26.891-7.881v7.883h2.463v-7.883Zm1.257-62.79c1.321,1.328,6.614,1.278,7.911-.014C679.159,536.375,674.642,536.356,672.849,538.134Zm-41.476,13.474c-1.9-1.971-6.85-1.886-8.106.157C626,551.843,628.612,553.568,631.373,551.608Zm-5.072,22.7c.844,2.206,2.951,2.972,5.954,2.338C631.3,574.519,629.6,573.835,626.3,574.305Zm46.578-3.81c-.2-1.17-.645-1.636-1.5-1.588a1.159,1.159,0,0,0-1.2,1.314c.03.848.57,1.381,1.383,1.194C672.093,571.294,672.525,570.756,672.878,570.5Z" fill="#122253"/>
    <path id="Trazado_994966" data-name="Trazado 994966" d="M885.975,663.788a4,4,0,0,1-8,.081,4,4,0,1,1,8-.081Zm-4.063-1.3a1.228,1.228,0,0,0-1.217,1.355,1.285,1.285,0,1,0,2.568-.081C883.239,662.976,882.792,662.546,881.912,662.489Z" transform="translate(-203.817 -101.632)" fill="#122253"/>
    <path id="Trazado_994967" data-name="Trazado 994967" d="M806.415,651.982a3.967,3.967,0,0,1,3.936-4.024,4.046,4.046,0,0,1,4.092,4.016,4.1,4.1,0,0,1-4.029,3.99A4.015,4.015,0,0,1,806.415,651.982Zm5.347-.025c-.116-.8-.54-1.33-1.372-1.322a1.218,1.218,0,0,0-1.288,1.257,1.231,1.231,0,0,0,1.279,1.379C811.2,653.294,811.643,652.76,811.762,651.958Z" transform="translate(-148.308 -92.449)" fill="#122253"/>
    <path id="Trazado_994968" data-name="Trazado 994968" d="M749.609,743.02q11.605,0,23.211,0c2.61,0,3.48.881,3.481,3.509q0,6.055,0,12.11c0,2.081-1,3.124-3.079,3.125q-23.66.016-47.32,0c-2.058,0-3.091-1.048-3.1-3.119q-.028-6.223,0-12.447c.008-2.213,1-3.175,3.263-3.177Q737.835,743.013,749.609,743.02Zm23.993,2.747H725.521v13.226H773.6Z" transform="translate(-83.438 -166.187)" fill="#122253"/>
    <path id="Trazado_994969" data-name="Trazado 994969" d="M753.347,766.95c1.269,0,2.538-.023,3.806,0a2.68,2.68,0,0,1,2.82,2.8q.026,1.175,0,2.351a2.722,2.722,0,0,1-2.8,2.856q-3.917.072-7.836,0a2.673,2.673,0,0,1-2.752-2.779,26.849,26.849,0,0,1,.012-2.686,2.579,2.579,0,0,1,2.609-2.538C750.584,766.914,751.966,766.951,753.347,766.95Zm-4.019,2.7v2.544H757.2v-2.544Z" transform="translate(-101.877 -184.74)" fill="#122253"/>
  </g>
</svg>
