<svg xmlns="http://www.w3.org/2000/svg" width="70.79" height="70.789" viewBox="0 0 70.79 70.789">
  <g id="Grupo_1178114" data-name="Grupo 1178114" transform="translate(-658.054 -588.349)">
    <path id="Trazado_994970" data-name="Trazado 994970" d="M706.925,597.351c.585-1.914,1.119-3.654,1.646-5.395.235-.774.474-1.547.683-2.328a1.543,1.543,0,0,1,1.675-1.279c5.458.014,10.917,0,16.375.014,1.283,0,1.788.723,1.424,1.932-1.115,3.7-2.247,7.4-3.342,11.108a5.935,5.935,0,0,0-.2,1.661c-.01,16.378-.083,32.757.041,49.134a6.59,6.59,0,0,1-6.966,6.941c-16.656-.084-33.313-.034-49.97-.038-3.009,0-5.236-1.4-6.194-4.022a8,8,0,0,1-.368-2.69q-.031-24.25.016-48.5a19.781,19.781,0,0,0-1.154-5.536c-.747-2.637-1.573-5.253-2.377-7.874-.448-1.461.029-2.118,1.6-2.119q14.42-.007,28.841,0h13.522c1.869,0,1.994.114,2.529,1.962.6,2.06,1.221,4.112,1.841,6.165C706.62,596.714,706.742,596.93,706.925,597.351Zm-42.793,5.73c-.016.351-.039.63-.039.908q0,24.294,0,48.588c0,2.56,1.5,4.021,4.1,4.022q18.217.005,36.434,0c.337,0,.674-.032,1.022-.05V603.081Zm56.159,53.343a3.91,3.91,0,0,0,2.51-3.889q0-24.3,0-48.593c0-.272-.036-.544-.059-.858H708.161v53.439h2.4c0-3.524-.006-6.971,0-10.418,0-1.44.721-2.026,2.015-1.434a6.146,6.146,0,0,0,5.728-.03,1.713,1.713,0,0,1,.715-.157,1.092,1.092,0,0,1,1.242,1.02,7.6,7.6,0,0,1,.024,1.055C720.291,649.79,720.291,653.02,720.291,656.423ZM660.916,590.9c.869,2.92,1.752,5.77,2.55,8.643.232.835.6,1.065,1.459,1.063q19.59-.046,39.18-.022h1.138l-2.913-9.684Zm50.522-.013-2.9,9.7h12.115c2.358,0,2.383.008,3.08-2.214.773-2.466,1.5-4.948,2.258-7.482Zm6.375,65.651V647.3a4.653,4.653,0,0,1-4.758.054v9.182Z" fill="#122253"/>
    <path id="Trazado_994971" data-name="Trazado 994971" d="M740.766,787.156c-.42-.735-.915-1.237-.968-1.782-.079-.815.673-1.028,1.358-1.18.649-.144,1.289-.332,1.934-.5a1.283,1.283,0,0,1,1.724,1.064,8.931,8.931,0,0,1,.459,1.831c.037.607.056,1.48-.3,1.772-.375.308-1.2.069-1.829.069l-.116-.3-.749,1.392c1.5,0,2.827-.014,4.152,0,1.117.016,1.792.51,1.7,1.276-.12.973-.815,1.195-1.685,1.179-1.966-.036-3.934-.021-5.9-.065-1.464-.033-1.919-.853-1.223-2.152C739.838,788.805,740.376,787.86,740.766,787.156Z" transform="translate(-63.847 -154.018)" fill="#122253"/>
    <path id="Trazado_994972" data-name="Trazado 994972" d="M769.727,742.217a5.44,5.44,0,0,1,.668-.394,1.133,1.133,0,0,1,1.645,1.128,11.828,11.828,0,0,1-.861,3.126c-.164.367-.945.635-1.443.631a8.517,8.517,0,0,1-2.037-.493c-.664-.178-1.431-.4-1.314-1.231.076-.543.578-1.025.889-1.535l.374.1-.779-1.4c-.739,1.294-1.41,2.485-2.1,3.666-.408.7-.879,1.35-1.835.879-.772-.381-.862-1.062-.295-2.067.984-1.743,1.968-3.487,2.976-5.217.771-1.322,1.773-1.311,2.532.009C768.672,740.326,769.179,741.242,769.727,742.217Z" transform="translate(-82.204 -118.365)" fill="#122253"/>
    <path id="Trazado_994973" data-name="Trazado 994973" d="M792.86,787.569h1.454c-.758-1.414-1.486-2.728-2.172-4.064-.429-.836-.2-1.561.54-1.835a1.2,1.2,0,0,1,1.579.677c1.074,1.937,2.15,3.873,3.178,5.834a1.159,1.159,0,0,1-1.083,1.82c-1.152.051-2.307.011-3.461.011l.222.272c-.345.534-.586,1.23-1.073,1.537-.279.176-1.136-.135-1.421-.482-.744-.9-2.439-1.536-1.9-2.872a8.459,8.459,0,0,1,2.7-2.848c.478-.393,1.348.258,1.437.958A8.326,8.326,0,0,1,792.86,787.569Z" transform="translate(-102.978 -152.402)" fill="#122253"/>
    <path id="Trazado_994974" data-name="Trazado 994974" d="M917.719,673.6c0,1.332.012,2.556,0,3.78-.013,1.034-.487,1.616-1.288,1.56-.937-.065-1.216-.7-1.216-1.532V673.64c-.338.161-.568.372-.761.342-.48-.073-1.138-.12-1.357-.434a1.491,1.491,0,0,1,.041-1.413,24.5,24.5,0,0,1,2.59-2.61,1.147,1.147,0,0,1,1.695.162,21.208,21.208,0,0,1,2.273,2.332,1.657,1.657,0,0,1,.1,1.558c-.24.314-1.007.244-1.548.3C918.114,673.887,917.961,673.729,917.719,673.6Z" transform="translate(-201.031 -63.783)" fill="#122253"/>
  </g>
</svg>
