<svg xmlns="http://www.w3.org/2000/svg" width="78.083" height="77.869" viewBox="0 0 78.083 77.869">
  <g id="Grupo_1178133" data-name="Grupo 1178133" transform="translate(-560.83 -453.842)">
    <path id="Trazado_995022" data-name="Trazado 995022" d="M565.859,509.029v-1.3q0-23.652,0-47.3a6.112,6.112,0,0,1,4.087-6.179,6.542,6.542,0,0,1,2.23-.382q30.192-.03,60.384-.01a6.11,6.11,0,0,1,6.342,6.311q.02,27.576,0,55.152a6.163,6.163,0,0,1-6.537,6.349q-21.2.012-42.4,0h-1.433c0,1.905,0,3.744,0,5.582,0,3.081-1.376,4.462-4.444,4.463q-9.537,0-19.074,0c-2.742,0-4.179-1.424-4.182-4.139q-.008-6.976,0-13.951c0-3.107,1.258-4.4,4.394-4.519C565.4,509.091,565.579,509.06,565.859,509.029Zm50.321,9.709V461.811c-.409.11-.752.2-1.094.3-4.254,1.21-8.5,2.455-12.768,3.6a1.3,1.3,0,0,0-1.175,1.527q.046,23.047.022,46.094v1.128Zm2.689-49.7c3.15-.456,4.976,1.128,4.98,4.241q.007,5.013,0,10.025,0,12.1,0,24.19a3.818,3.818,0,0,1-3.184,4.07,10.5,10.5,0,0,1-1.783.016v2.467h17.5V466.419H618.87Zm-50.478,42.775a1.779,1.779,0,0,0-.371-.152c-.908-.011-1.815-.021-2.723-.021-1.639,0-2.009.355-2.01,1.954q-.006,6.864,0,13.729c0,1.525.418,1.942,1.939,1.944q6.1.008,12.2,0c2.324,0,4.649,0,6.973,0,.92,0,1.568-.361,1.569-1.389q.011-7.463,0-14.927a1.13,1.13,0,0,0-1.082-1.27c-1.289-.07-2.585-.02-4-.02v7.476h-12.5Zm10.087-12.759c0-3.819-.048-7.448.035-11.075.02-.854.683-1.7.681-2.546,0-.874-.656-1.742-.678-2.621-.087-3.411-.059-6.825-.027-10.238a3.58,3.58,0,0,1,3.573-3.645c5.47-.048,10.941-.017,16.431-.017v-2.474h-25V499.05ZM607.8,461.533l-.041-.162H568.428v47.651h2.46V463.888h1.264c7.918,0,15.837-.062,23.754.035a23.88,23.88,0,0,0,7.69-1.137C604.99,462.338,606.4,461.948,607.8,461.533ZM585.97,471.4c-1.259,0-2.414-.01-3.568,0a1.344,1.344,0,0,0-1.468,1.51q-.018,4.791,0,9.582a1.281,1.281,0,0,0,1.4,1.441q7.459.007,14.917,0a1.158,1.158,0,0,0,1.31-1.263q.014-5.009,0-10.017a1.113,1.113,0,0,0-1.127-1.223c-1.26-.052-2.524-.015-3.906-.015v4.938H585.97Zm.03,15.124c-1.377,0-2.569-.005-3.762,0a1.171,1.171,0,0,0-1.279,1.209q-.065,5.008-.005,10.018a1.2,1.2,0,0,0,1.34,1.266q7.515,0,15.029-.005a1.114,1.114,0,0,0,1.241-1.211c.015-3.34.042-6.68-.036-10.018a1.574,1.574,0,0,0-.95-1.182,37.837,37.837,0,0,0-4.092-.057v4.937H586Zm-17.353-27.715h67.345a.814.814,0,0,0,.029-.26,1.6,1.6,0,0,0-.168-.4,4.144,4.144,0,0,0-3.809-1.875q-29.641.017-59.281.008a6.035,6.035,0,0,0-.762.012A3.8,3.8,0,0,0,568.648,458.814Zm4.788,50.288h1.3c3.193,0,6.386-.012,9.579,0,2.677.013,4.171,1.5,4.226,4.166.006.274.054.547.081.8,1.8.17,2.4-.118,2.418-1.293.043-3.3.049-6.6-.033-9.9a1.594,1.594,0,0,0-.974-1.189,36.69,36.69,0,0,0-4.063-.057v4.912h-7.512v-4.93c-1.346,0-2.606-.028-3.865.011a1.1,1.1,0,0,0-1.147,1.193C573.425,504.846,573.436,506.875,573.436,509.1Zm47.827-18.725q0-8.448,0-16.9c0-.327.112-.742-.044-.962-.3-.422-.708-.941-1.157-1.043-.672-.152-1.152.327-1.232,1.062a8.156,8.156,0,0,0-.018.871q0,16.842,0,33.684c0,.327-.112.751.049.959.315.408.791.962,1.193.956s.857-.576,1.162-.992c.158-.216.045-.634.045-.961Q621.264,498.717,621.263,490.378Zm-27.769,11.194v12.512h5.018V501.571Zm42.9-40.174h-17.51v2.4h17.51Zm-17.542,57.764c4.8,0,9.47.053,14.141-.031a3.441,3.441,0,0,0,3.14-2.415H618.853Zm-11.143-.007.038-.187c-.751-.22-1.5-.447-2.253-.658-3.091-.866-6.119-1.965-9.442-1.691-2.088.172-4.2.032-6.3.032h-1.132v2.5Zm-29.3-2.562v-4.87h-7.473v4.862h2.535V514.2h2.426v2.39Zm12.561-42.722v-2.412h-2.375v2.412Zm.014,15.063v-2.328H588.6v2.328Zm-9.974,12.71V504h2.421v-2.356Z" fill="#122253"/>
    <path id="Trazado_995023" data-name="Trazado 995023" d="M868.732,544.267q0,8.767,0,17.534a3.765,3.765,0,0,1-6.4,2.761,4.067,4.067,0,0,1-1.174-3.165q.018-9.584.005-19.167c0-5.082-.02-10.165.009-15.247a3.79,3.79,0,0,1,5.058-3.839,3.745,3.745,0,0,1,2.5,3.808Q868.742,535.609,868.732,544.267Zm-5.014-.1q0,8.385,0,16.77c0,1.61.356,2.2,1.305,2.165.89-.033,1.22-.612,1.22-2.154q0-16.661,0-33.323c0-.4.106-.9-.088-1.171a2.07,2.07,0,0,0-1.232-.936c-.369-.022-.856.52-1.133.922-.174.251-.068.7-.068,1.065Q863.717,535.836,863.719,544.167Z" transform="translate(-234.851 -54.021)" fill="#122253"/>
  </g>
</svg>
