<svg xmlns="http://www.w3.org/2000/svg" width="87.62" height="87.514" viewBox="0 0 87.62 87.514">
  <g id="Grupo_1178135" data-name="Grupo 1178135" transform="translate(-645.149 -472.027)">
    <path id="Trazado_995024" data-name="Trazado 995024" d="M716.6,504.092c-5.54-11.976-.464-22.368,5.918-27.365a22.051,22.051,0,0,1,25.452-1.247,21.261,21.261,0,0,1,9.341,12.746,22.116,22.116,0,0,1-1.7,15.866h6.372c2.4,0,4.812-.059,7.212.038a3.535,3.535,0,0,1,1.994.818c1.183,1.01,2.172,2.244,3.353,3.257a2.831,2.831,0,0,1,.931,3.038c-1.063,5.325-2.082,10.66-3.107,15.993-.826,4.3-1.626,8.6-2.458,12.9-.327,1.687-.569,1.87-2.261,1.87q-31.513,0-63.026,0c-1.767,0-2.169-.392-2.17-2.145q-.008-14.609.021-29.219a3.928,3.928,0,0,1,.555-1.875c.723-1.234,1.6-2.377,2.358-3.591a2.218,2.218,0,0,1,2.11-1.1C710.487,504.111,713.478,504.092,716.6,504.092ZM755.151,494a19.033,19.033,0,1,0-19.222,18.881A19.01,19.01,0,0,0,755.151,494Zm-17.575,45.114v-1.436q0-8.346,0-16.693c0-1.8.462-2.276,2.2-2.277q11.008-.006,22.017,0c1.737,0,2.113.394,2.114,2.185q0,8.41,0,16.819V539.1h3.164c.141-.627.285-1.194.4-1.767,1.513-7.9,2.925-15.812,4.592-23.675.49-2.311.274-3.961-1.634-5.485a4.182,4.182,0,0,0-2.885-1.135c-4.259.062-8.52.042-12.779.008a2.079,2.079,0,0,0-1.807.842,21.054,21.054,0,0,1-14.685,7.771c-7.724.671-14.109-2.082-19.164-7.961a1.886,1.886,0,0,0-1.241-.607c-3.12-.051-6.242-.033-9.363-.019-.318,0-.811.018-.926.208-.85,1.4-2.2,2.478-2.181,4.4.072,8.683.031,17.367.031,26.051V539.1h2.911v-1.555q0-8.346,0-16.693c0-1.748.412-2.146,2.178-2.147q10.945-.005,21.89,0c1.892,0,2.29.4,2.291,2.308q.007,8.283,0,16.566v1.532Zm-26.221-17.375V539.1h20.327V521.755H728.8c0,2.285-.025,4.469.011,6.652a1.9,1.9,0,0,1-1.174,2.008c-1.792.836-3.524,1.8-5.328,2.61a2.264,2.264,0,0,1-1.644-.024c-1.656-.725-3.235-1.628-4.888-2.362a2.325,2.325,0,0,1-1.582-2.531c.1-2.092.027-4.193.027-6.372Zm29.306-.031V539.1h20.312V521.736H758.08c0,2.308-.022,4.534.011,6.759a1.843,1.843,0,0,1-1.148,1.9c-1.786.851-3.518,1.818-5.326,2.616a2.442,2.442,0,0,1-1.756-.052c-1.66-.718-3.242-1.613-4.891-2.359a2.383,2.383,0,0,1-1.574-2.563c.09-2.09.024-4.186.024-6.33Zm-23.58.023c0,.823-.008,1.572,0,2.32.016,1.3-.426,2.929.189,3.827.691,1.009,2.341,1.362,3.574,2,.037.02.074.055.112.056a2.662,2.662,0,0,0,1.062,0c1.153-.515,2.277-1.095,3.392-1.689a.951.951,0,0,0,.492-.619c.038-1.966.022-3.932.022-5.9Zm29.346-.015a12.9,12.9,0,0,1-.022,2.392c-.636,3.135.7,4.926,3.67,5.77.8.227,4.784-1.324,5.059-2.113a.389.389,0,0,0,.016-.125c0-1.956,0-3.912,0-5.924Z" transform="translate(-42.805 0)" fill="#122253"/>
    <path id="Trazado_995025" data-name="Trazado 995025" d="M664.141,610.945c1.148-3.479,3.369-5.716,7.237-5.714s6.108,2.211,7.252,5.764h29.461a6.651,6.651,0,0,1,3.408-4.7,10.822,10.822,0,0,1,4.463-1.006c3.1,0,5.484,2.222,6.523,5.73h10.251V613.9h-1.592c-2.573,0-5.147-.027-7.719.03a1.432,1.432,0,0,0-1.095.641c-1.385,3.413-3.846,5.227-7.166,5.177-3.285-.049-5.77-1.993-6.95-5.432a4.064,4.064,0,0,0-.174-.373H678.678a17.952,17.952,0,0,1-.921,2.085,7.01,7.01,0,0,1-6.84,3.692,6.727,6.727,0,0,1-6.211-4.438,1.9,1.9,0,0,0-2.206-1.409c-3.626.076-7.255.032-10.883.026-1.862,0-2.287-.453-2.108-2.248q1.883-18.929,3.777-37.857c.543-5.407,1.117-10.811,1.67-16.218.06-.585.076-1.174.123-1.921h-9.931v-2.92a3.94,3.94,0,0,1,.625-.1c3.5-.007,7-.018,10.5,0,1.5.008,2.042.643,1.893,2.143q-1.71,17.168-3.426,34.335c-.73,7.249-1.491,14.5-2.249,21.842Zm7.278-2.877a4.392,4.392,0,1,0-.067,8.783,4.392,4.392,0,1,0,.067-8.783Zm39.528,4.433a4.348,4.348,0,1,0,4.372-4.432A4.36,4.36,0,0,0,710.947,612.5Z" transform="translate(0 -60.205)" fill="#122253"/>
    <path id="Trazado_995026" data-name="Trazado 995026" d="M776.926,520.958l-1.861-2.021c7.4-8.359,22.7-8.756,30.752.065l-2.019,1.879a19.156,19.156,0,0,0-26.872.076Z" transform="translate(-97.053 -30.255)" fill="#122253"/>
    <path id="Trazado_995027" data-name="Trazado 995027" d="M792.958,542.256l-1.925-1.866c5.554-6.178,16.6-6.482,22.609,0l-2,1.807C805.506,537.271,799.28,537.183,792.958,542.256Z" transform="translate(-108.982 -47.523)" fill="#122253"/>
    <path id="Trazado_995028" data-name="Trazado 995028" d="M822.534,590.348a4.395,4.395,0,1,1,4.584-4.29A4.527,4.527,0,0,1,822.534,590.348Zm.106-2.972c.9-.046,1.454-.477,1.475-1.381a1.412,1.412,0,0,0-2.823-.09A1.33,1.33,0,0,0,822.639,587.376Z" transform="translate(-129.366 -81.827)" fill="#122253"/>
    <path id="Trazado_995029" data-name="Trazado 995029" d="M819.747,563.615c-3.68-2.718-6.488-2.716-10.307.049l-1.93-1.845c3-3.814,10.368-4.366,14.279-.069Z" transform="translate(-121.291 -64.777)" fill="#122253"/>
    <path id="Trazado_995030" data-name="Trazado 995030" d="M766.518,676.831v-2.818h5.658v2.818Z" transform="translate(-90.668 -150.893)" fill="#122253"/>
    <path id="Trazado_995031" data-name="Trazado 995031" d="M888.126,676.878h-5.657v-2.865h5.657Z" transform="translate(-177.289 -150.893)" fill="#122253"/>
  </g>
</svg>
