<svg xmlns="http://www.w3.org/2000/svg" width="78.563" height="78.366" viewBox="0 0 78.563 78.366">
  <g id="Grupo_1178137" data-name="Grupo 1178137" transform="translate(-644.741 -584.703)">
    <path id="Trazado_995032" data-name="Trazado 995032" d="M826.74,751.609a28.531,28.531,0,0,1-3.556.6c-2.186.093-4.378.035-6.568.024-2.844-.013-4.432-1.586-4.44-4.4q-.014-4.757,0-9.514a3.959,3.959,0,0,1,4.272-4.321c.711,0,1.422,0,2.152,0,.155-2.026.212-3.981.469-5.909a28.957,28.957,0,0,1,7.468-16.3c1.934-2.077,2.787-3.965,2.06-6.845-.763-3.022,1.093-4.911,4.231-4.917,2.076,0,4.153-.014,6.229,0,2.806.024,4.654,2.186,3.96,4.877a6.267,6.267,0,0,0,1.7,6.535,29.879,29.879,0,0,1,8.08,21.137c-.008,4.228.008,8.456,0,12.685-.012,4.245-2.686,6.951-6.906,6.966-5.4.019-10.8.039-16.2-.025A14.941,14.941,0,0,1,826.74,751.609Zm6.126-41.314c-.809.193-1.625.136-2,.516a31.018,31.018,0,0,0-8.656,14.6,26.925,26.925,0,0,0-.722,8.567H825.3c0-.244,0-.466,0-.688.04-3.118,1.469-4.52,4.613-4.522q3.283,0,6.567,0c3.062,0,4.515,1.437,4.518,4.471q.007,8.139,0,16.285c.055.03.118.1.182.1,1.622.013,3.245.041,4.867.022a3.989,3.989,0,0,0,4.169-4.23c.016-4.491.145-8.988-.056-13.47a38.563,38.563,0,0,0-1.239-7.9c-1.291-4.974-4.223-9.029-7.682-12.752a2.231,2.231,0,0,0-2.477-.729l2.214,10.016-2.516.6-2.456-10.769-.464.034-2.418,10.719-2.524-.59Zm-1.185-2.491c2.6,0,5.118.015,7.632-.024a.9.9,0,0,0,.665-.535c.224-1.026.385-2.068.507-3.112a1.256,1.256,0,0,0-1.363-1.542c-2.219-.04-4.439-.044-6.658,0a1.353,1.353,0,0,0-1.408,1.732C831.233,705.435,831.453,706.541,831.681,707.8Zm-3.667,31.329h10.352V736.6H828.014ZM814.9,744.355h10.322v-2.508H814.9Zm23.507-2.526H828.016v2.527h10.392Zm-.04,5.24h-10.3c-.317,2.112.058,2.574,2.021,2.576q3.058,0,6.117,0C838.159,749.643,838.546,749.2,838.368,747.068Zm-10.3-13.157h10.309c.171-2.2-.208-2.6-2.343-2.605q-2.939,0-5.879,0C828.125,731.308,827.746,731.77,828.069,733.911Zm-2.818,5.243c.135-2.289-.178-2.623-2.344-2.624h-5.758c-2.128,0-2.479.413-2.175,2.624Zm-.024,7.921h-10.28c-.227,2.218.08,2.568,2.179,2.568h5.881C825.08,749.644,825.424,749.261,825.227,747.076Z" transform="translate(-129.494 -89.188)" fill="#122253"/>
    <path id="Trazado_995033" data-name="Trazado 995033" d="M645.359,736.068a16.927,16.927,0,0,1-.581-3.07c-.059-5.736-.032-11.472-.026-17.208,0-2.924,1.547-4.5,4.436-4.5q12.567-.012,25.133,0c2.886,0,4.489,1.613,4.492,4.49.006,5.736.047,11.473-.039,17.208-.016,1.07-.792,2.132-.8,3.2,0,1.028.781,2.055.8,3.088.085,5.735.045,11.472.039,17.208,0,2.9-1.561,4.457-4.487,4.46q-12.566.011-25.133,0c-2.943,0-4.438-1.508-4.441-4.46-.006-5.7-.032-11.4.025-17.095A20.411,20.411,0,0,1,645.359,736.068Zm7.217-22.119c-1.292,0-2.417-.011-3.542,0-1.249.016-1.705.456-1.707,1.709q-.015,8.716,0,17.432c0,1.26.446,1.7,1.708,1.7q12.734.01,25.469,0c1.254,0,1.622-.369,1.625-1.619q.014-8.772,0-17.545c0-1.315-.365-1.672-1.69-1.675q-5.943-.014-11.885,0c-.217,0-.434.026-.773.049v8.967h-9.2Zm0,23.528c-1.286,0-2.411-.01-3.535,0-1.273.014-1.711.428-1.713,1.69q-.015,8.719,0,17.438c0,1.226.5,1.742,1.7,1.744q12.739.015,25.478,0c1.209,0,1.622-.432,1.624-1.656q.014-8.775,0-17.551c0-1.335-.336-1.661-1.69-1.664q-5.945-.013-11.889,0c-.216,0-.432.03-.767.056v8.975h-9.206Zm2.7-17.07h3.761v-6.377h-3.761Zm.011,17.117v6.384h3.754v-6.384Z" transform="translate(0 -97.9)" fill="#122253"/>
    <path id="Trazado_995034" data-name="Trazado 995034" d="M772.375,613.051l2.521,1.937-1.557,2.072-6.276-4.691,4.7-6.254,2.088,1.554-1.915,2.59c4.738-.822,8.633-5.813,8.726-10.95a11.8,11.8,0,0,0-22.619-4.93,11.966,11.966,0,0,0,6.079,15.517l-.967,2.222c-5.037-1.816-9.55-8-8.551-15.12a14.452,14.452,0,0,1,13.875-12.291,14.292,14.292,0,0,1,14.623,12.056C784.2,602.951,780.9,610.506,772.375,613.051Z" transform="translate(-84.866)" fill="#122253"/>
    <path id="Trazado_995035" data-name="Trazado 995035" d="M904.161,626.31l-6.022,4.515-6.016-4.5,1.559-2.081,3.173,2.352v-4.8c0-1.207,0-2.415,0-3.622-.005-1.634-.374-2.011-1.975-2.016q-3.452-.012-6.9-.021a1.157,1.157,0,0,1-.279-.1V613.6c2.9,0,5.758-.15,8.593.053a3.547,3.547,0,0,1,3.114,3.733c.036,2.6.009,5.207.015,7.811,0,.362.035.724.066,1.326l3.077-2.255Z" transform="translate(-187.908 -22.312)" fill="#122253"/>
    <path id="Trazado_995036" data-name="Trazado 995036" d="M708.561,613.351v2.585H705c-1.284,0-2.567-.009-3.85,0-1.312.012-1.748.446-1.751,1.782q-.013,7.191-.005,14.382c0,.223-.019.445-.032.744H696.9c-.021-.338-.063-.7-.063-1.057q-.007-7.078,0-14.156a3.98,3.98,0,0,1,4.344-4.364c2.3-.013,4.605,0,6.908.006A4.023,4.023,0,0,1,708.561,613.351Z" transform="translate(-40.287 -22.091)" fill="#122253"/>
    <path id="Trazado_995037" data-name="Trazado 995037" d="M790.519,622.918c1.454-1.818,2.877-3.518,4.2-5.3a3.6,3.6,0,0,0,.682-1.911c.078-2.481.031-4.965.031-7.54h2.686c0,3.09.005,6.134-.012,9.179a1.09,1.09,0,0,1-.266.6c-1.734,2.178-3.478,4.348-5.268,6.579Z" transform="translate(-112.749 -18.152)" fill="#122253"/>
  </g>
</svg>
