<svg xmlns="http://www.w3.org/2000/svg" width="74.161" height="73.97" viewBox="0 0 74.161 73.97">
  <g id="Grupo_1178002" data-name="Grupo 1178002" transform="translate(-617.949 -597.712)">
    <path id="Trazado_994717" data-name="Trazado 994717" d="M655.028,671.682H620.4c-2.089,0-2.455-.369-2.455-2.472q0-34.515,0-69.029c0-2.1.363-2.467,2.458-2.467h69.246c2.091,0,2.456.367,2.456,2.471q0,34.515,0,69.029c0,2.1-.367,2.469-2.459,2.469Zm13.9-70.833v1.428q0,10.528,0,21.055c0,.792-.046,1.521-.871,1.938s-1.444-.011-2.075-.471c-3.333-2.425-6.693-4.815-9.994-7.283a1.358,1.358,0,0,0-1.944.033c-3.34,2.477-6.718,4.9-10.088,7.339-1.094.792-2.12.724-2.6-.226a3.153,3.153,0,0,1-.218-1.364q-.019-10.581-.009-21.163v-1.249H633.37c0,3.638,0,7.18,0,10.723q0,3.039-.006,6.078a1.428,1.428,0,0,1-1.443,1.57,1.489,1.489,0,0,1-1.594-1.548c-.024-.288-.01-.579-.01-.868q0-7.38,0-14.76v-1.224h-3.094v1.235q0,6.783,0,13.566c0,.724.037,1.451-.023,2.169a1.444,1.444,0,0,1-1.591,1.428,1.419,1.419,0,0,1-1.436-1.467c-.013-.325-.01-.651-.01-.977q0-7.38,0-14.76c0-.384-.031-.768-.05-1.183H621.1V637.8h1.235c3.039,0,6.078-.008,9.116,0,1.309.006,1.917.521,1.9,1.545-.016,1-.655,1.515-1.947,1.519-3.039.008-6.078,0-9.116,0H621.1v7.693h1.247c1.954,0,3.907-.008,5.861,0,1.4.008,2.077.508,2.1,1.5.023,1.018-.7,1.556-2.138,1.568-1.266.01-2.533,0-3.8,0h-3.245v16.9h67.837V600.858H685.9c0,.886,0,1.708,0,2.529,0,4.7.023,9.406-.034,14.109a2.08,2.08,0,0,1-.757,1.509,1.64,1.64,0,0,1-1.566-.066,2.5,2.5,0,0,1-.674-1.687c-.05-5.064-.029-10.129-.029-15.194v-1.195h-3.094v1.25q0,7.109,0,14.218a11.466,11.466,0,0,1-.041,1.625,1.4,1.4,0,0,1-1.6,1.289,1.359,1.359,0,0,1-1.4-1.375c-.022-.325-.018-.651-.018-.977q0-7.434,0-14.869c0-.381-.035-.763-.055-1.175Zm-24.709,6.145h13.092c1.3,0,2.605-.023,3.907.015a1.378,1.378,0,0,1,1.49,1.505,1.435,1.435,0,0,1-1.491,1.526c-.287.026-.578.011-.868.011H644.263v10.765c.406-.279.7-.473.987-.68,2.811-2.036,5.638-4.05,8.419-6.126a2.007,2.007,0,0,1,2.735.005c2.873,2.134,5.785,4.216,8.685,6.313.213.154.456.266.73.423V600.876h-21.6Z" transform="translate(0 0)" fill="#122253"/>
    <path id="Trazado_994718" data-name="Trazado 994718" d="M740.746,787.7q-10.414,0-20.828,0c-1.941,0-2.321-.391-2.321-2.366q0-14.59,0-29.18c0-1.9.449-2.353,2.359-2.354q20.828,0,41.655,0c1.87,0,2.3.429,2.3,2.285q0,14.7,0,29.4c0,1.85-.367,2.217-2.23,2.218Q751.214,787.708,740.746,787.7Zm20.013-3.159V756.991h-40.01v27.555Z" transform="translate(-78.015 -122.205)" fill="#122253"/>
    <path id="Trazado_994719" data-name="Trazado 994719" d="M676.522,714.475a1.557,1.557,0,0,1-1.528-1.507,1.513,1.513,0,0,1,1.573-1.546,1.435,1.435,0,0,1,1.446,1.538A1.488,1.488,0,0,1,676.522,714.475Z" transform="translate(-44.66 -89.025)" fill="#122253"/>
    <path id="Trazado_994720" data-name="Trazado 994720" d="M890.117,714.477a1.493,1.493,0,0,1-1.509-1.5,1.434,1.434,0,0,1,1.43-1.554,1.511,1.511,0,0,1,1.589,1.528A1.556,1.556,0,0,1,890.117,714.477Z" transform="translate(-211.902 -89.027)" fill="#122253"/>
    <path id="Trazado_994721" data-name="Trazado 994721" d="M648.149,711.431a1.515,1.515,0,0,1,1.5,1.511,1.567,1.567,0,0,1-1.5,1.539,1.525,1.525,0,0,1-1.538-1.588A1.462,1.462,0,0,1,648.149,711.431Z" transform="translate(-22.444 -89.032)" fill="#122253"/>
    <path id="Trazado_994722" data-name="Trazado 994722" d="M919.948,712.986a1.521,1.521,0,0,1-1.526,1.492,1.558,1.558,0,0,1-1.508-1.529,1.517,1.517,0,0,1,1.6-1.521A1.459,1.459,0,0,1,919.948,712.986Z" transform="translate(-234.063 -89.028)" fill="#122253"/>
    <path id="Trazado_994723" data-name="Trazado 994723" d="M864.5,848.263c-.94,0-1.88.016-2.82,0-1.2-.025-1.754-.531-1.773-1.708-.032-1.952-.017-3.9,0-5.857a1.466,1.466,0,0,1,1.509-1.638q3.142-.078,6.287.01a1.426,1.426,0,0,1,1.451,1.574c.02,1.988.033,3.977,0,5.965-.02,1.115-.583,1.625-1.717,1.652C866.449,848.281,865.472,848.263,864.5,848.263Zm-1.47-6.081v2.967h3.012v-2.967Z" transform="translate(-189.413 -188.922)" fill="#122253"/>
    <path id="Trazado_994724" data-name="Trazado 994724" d="M807.528,791.566c-.976,0-1.953.024-2.928,0-1.07-.031-1.655-.547-1.676-1.579q-.061-3.035,0-6.073a1.454,1.454,0,0,1,1.6-1.539q3.036-.031,6.073,0a1.446,1.446,0,0,1,1.565,1.57c.033,2.024.041,4.049-.006,6.073a1.46,1.46,0,0,1-1.594,1.547C809.553,791.577,808.541,791.565,807.528,791.566Zm-1.475-6.081V788.4h3v-2.911Z" transform="translate(-144.796 -144.559)" fill="#122253"/>
    <path id="Trazado_994725" data-name="Trazado 994725" d="M864.519,782.374c1.012,0,2.025-.019,3.036.006a1.455,1.455,0,0,1,1.576,1.561c.033,2.024.038,4.049,0,6.072a1.452,1.452,0,0,1-1.582,1.555q-3.036.027-6.072,0A1.452,1.452,0,0,1,859.9,790c-.039-2.023-.036-4.048,0-6.072a1.454,1.454,0,0,1,1.584-1.553C862.495,782.355,863.507,782.373,864.519,782.374Zm1.508,6.072v-2.916H863v2.916Z" transform="translate(-189.404 -144.568)" fill="#122253"/>
    <path id="Trazado_994726" data-name="Trazado 994726" d="M806.045,842.05v3.1c1.548,0,3.051-.011,4.554,0a1.433,1.433,0,0,1,1.551,1.355,1.45,1.45,0,0,1-1.021,1.6,2.1,2.1,0,0,1-.748.086c-1.881.007-3.762.017-5.643,0-1.253-.012-1.8-.539-1.818-1.779q-.039-2.821,0-5.643c.015-1.231.547-1.781,1.807-1.807,1.88-.038,3.762-.035,5.643,0,1.179.021,1.832.639,1.8,1.582-.03.927-.711,1.486-1.886,1.5C808.915,842.063,807.544,842.05,806.045,842.05Z" transform="translate(-144.802 -188.858)" fill="#122253"/>
    <path id="Trazado_994727" data-name="Trazado 994727" d="M752.15,842.054c-1.5,0-2.935,0-4.373,0a1.569,1.569,0,0,1-1.736-1.436,1.528,1.528,0,0,1,1.631-1.635c1.989-.048,3.98-.052,5.969,0a1.511,1.511,0,0,1,1.655,1.726q.038,2.876,0,5.753a1.562,1.562,0,0,1-1.75,1.738q-2.876.032-5.753,0a1.6,1.6,0,0,1-1.765-1.511,1.58,1.58,0,0,1,1.736-1.534c1.439-.021,2.878-.005,4.388-.005Z" transform="translate(-100.273 -188.864)" fill="#122253"/>
    <path id="Trazado_994728" data-name="Trazado 994728" d="M749.095,785.39v3.068c1.459,0,2.893-.02,4.325.006,1.117.021,1.856.695,1.756,1.616a1.47,1.47,0,0,1-1.582,1.448c-2.022.013-4.045.028-6.067-.006a1.5,1.5,0,0,1-1.609-1.653q-.053-2.924,0-5.85a1.519,1.519,0,0,1,1.693-1.682q2.978-.049,5.958,0a1.477,1.477,0,0,1,1.618,1.517,1.551,1.551,0,0,1-1.636,1.523C752.112,785.415,750.672,785.39,749.095,785.39Z" transform="translate(-100.168 -144.527)" fill="#122253"/>
  </g>
</svg>
