<svg xmlns="http://www.w3.org/2000/svg" width="71.043" height="78.313" viewBox="0 0 71.043 78.313">
  <g id="Grupo_1178089" data-name="Grupo 1178089" transform="translate(-670.971 -538.203)">
    <path id="Trazado_994923" data-name="Trazado 994923" d="M723.754,588.71h1.6q7.234,0,14.469,0c1.87,0,2.2.318,2.2,2.141q0,11.839,0,23.677c0,1.667-.318,1.986-1.975,1.986H672.955c-1.667,0-1.983-.315-1.983-1.977q0-37.159,0-74.318c0-1.725.3-2.016,2.053-2.016h50.422c1.811,0,2.095.282,2.095,2.09,0,7.892-.01,15.784.025,23.677a2.441,2.441,0,0,0,.554,1.534,15.135,15.135,0,0,1-1.672,22.626C724.307,588.243,724.171,588.362,723.754,588.71Zm-46.361-44.14v65.547h11.339v-1.277q0-9.044,0-18.088c0-1.7.348-2.041,2.065-2.042q7.235,0,14.471,0c.368,0,.735-.034,1.3-.062-6.569-4.961-7.934-12.563-5.309-18.625,2.337-5.4,8.735-10.636,17.886-8.665V544.6H707.794c0,.771.021,1.461-.005,2.149a1.4,1.4,0,0,1-1.572,1.552q-8.606.022-17.211,0c-1.034,0-1.519-.523-1.556-1.566-.025-.715,0-1.431,0-2.217-3.191,0-6.22,0-9.249,0C677.948,544.518,677.7,544.549,677.393,544.57Zm37.768,44.135a12.634,12.634,0,1,0-12.612-12.715A12.653,12.653,0,0,0,715.161,588.705Zm24.2,2.639h-5.014v1.129c0,3.214,0,6.427,0,9.641,0,1.7-.745,2.151-2.283,1.413-1.344-.644-2.694-1.78-4.039-1.776s-2.7,1.144-4.04,1.792c-1.486.717-2.3.218-2.3-1.458-.013-2.775,0-5.551,0-8.326,0-.792,0-1.584,0-2.409h-5.016v22.632h22.7Zm-30.314-.013v1.281c0,3.14.007,6.28,0,9.42-.006,1.754-.8,2.249-2.345,1.488-1.047-.516-2.115-.994-3.129-1.569a1.566,1.566,0,0,0-1.724-.017c-1.083.6-2.213,1.118-3.33,1.655-1.347.648-2.119.18-2.125-1.31-.014-3.25,0-6.5,0-9.749v-1.174h-5.005v22.614h22.684v-22.64ZM688.7,612.771h-1.165q-5.371,0-10.742,0c-1.657,0-2-.337-2-1.982q-.007-6.577,0-13.153,0-26.745,0-53.49c0-1.949.254-2.2,2.226-2.2h10.44l-.077-1.212H673.645v73.244H688.7Zm1.4-67.128h15v-4.918h-15Zm8.827,45.67v9.245c.955-.465,1.822-.828,2.629-1.3a2.081,2.081,0,0,1,2.259-.016c.83.464,1.709.843,2.6,1.274v-9.207Zm32.9.049h-7.482v9.176c.958-.472,1.822-.854,2.641-1.316a2.017,2.017,0,0,1,2.163.016c.836.469,1.725.845,2.677,1.3ZM722.9,540.743H707.86v1.2c4,0,7.942,0,11.882,0,1.609,0,1.93.317,1.931,1.911,0,5.809.02,11.619-.017,17.428-.006.921.238,1.458,1.24,1.555Z" fill="#122253"/>
    <path id="Trazado_994924" data-name="Trazado 994924" d="M721.816,599.384h5.047c0-.761-.013-1.48,0-2.2.025-1.112.427-1.578,1.494-1.591,2.374-.029,4.748-.015,7.122-.006a1.31,1.31,0,0,1,1.483,1.483c-.01,2.41-.006,4.821,0,7.231a1.27,1.27,0,0,1-1.425,1.422q-3.616.021-7.231,0c-.99-.006-1.45-.561-1.443-1.535.005-.723,0-1.445,0-2.233h-5.046c0,.622,0,1.261,0,1.9-.012,1.462-.417,1.861-1.905,1.876-.58.006-1.159,0-1.834,0v5.07c.755,0,1.475.014,2.2,0a1.319,1.319,0,0,1,1.534,1.44q.038,3.615,0,7.231a1.343,1.343,0,0,1-1.457,1.441q-3.615.037-7.231,0a1.329,1.329,0,0,1-1.45-1.528q.022-3.561,0-7.122a1.273,1.273,0,0,1,1.476-1.461c.724.012,1.448,0,2.243,0v-5.075c-.792,0-1.55.017-2.306,0a1.284,1.284,0,0,1-1.411-1.44q.007-3.616,0-7.232a1.314,1.314,0,0,1,1.5-1.465c2.374-.009,4.748-.023,7.122.007,1.036.013,1.486.523,1.518,1.595C721.832,597.881,721.816,598.574,721.816,599.384Zm-2.684,3.754v-4.909h-4.926v4.909Zm15.27,0V598.2h-4.927v4.941Zm-20.231,15.116h4.958v-4.893h-4.958Z" transform="translate(-31.772 -44.794)" fill="#122253"/>
    <path id="Trazado_994925" data-name="Trazado 994925" d="M867.128,675.751c0-1.2,0-2.407,0-3.61,0-.878.426-1.437,1.3-1.4.82.036,1.181.609,1.166,1.43-.034,1.824,0,3.651-.1,5.472a2.439,2.439,0,0,0,.954,2.381,3.032,3.032,0,0,1,.61.624,1.227,1.227,0,0,1-.024,1.776,1.21,1.21,0,0,1-1.776-.027,18.755,18.755,0,0,1-1.921-1.942,2.127,2.127,0,0,1-.378-1.2c-.049-1.165-.017-2.334-.017-3.5Z" transform="translate(-152.998 -103.477)" fill="#122253"/>
  </g>
</svg>
