<svg xmlns="http://www.w3.org/2000/svg" width="83.157" height="82.805" viewBox="0 0 83.157 82.805">
  <g id="Grupo_1178091" data-name="Grupo 1178091" transform="translate(-670.041 -569.524)">
    <path id="Trazado_994926" data-name="Trazado 994926" d="M750.279,594.791c2.369,1.731,2.935,4.107,2.919,6.849-.064,10.442-.024,20.886-.027,31.328,0,3.9-2.128,6.048-6.019,6.059-3.331.01-6.662,0-9.994,0h-1.313v5.206c4.83,1.9,5.589,3.066,5.193,8.094H672.79c-.019-.335-.053-.661-.053-.986q0-9.264,0-18.528c0-2.841,1.6-4.435,4.449-4.452.82,0,1.64,0,2.46,0l.271-.328a3.175,3.175,0,0,1-.678-.292,21.614,21.614,0,0,1-9.179-17.965c-.035-3.069-.013-6.138,0-9.208a17.318,17.318,0,0,1,16.954-17.627c3.726-.15,7.4-.021,10.836,1.744a17.6,17.6,0,0,1,7.987,8.063c.24.488.43.86,1.117.856,5.165-.034,10.331-.018,15.5-.022a5.737,5.737,0,0,0,.636-.084A16.075,16.075,0,0,1,721.9,580.31a15.589,15.589,0,0,1,6.01-7.9,16.023,16.023,0,0,1,19.227.662,15.766,15.766,0,0,1,5.854,10.265A16.26,16.26,0,0,1,750.279,594.791Zm-13.2-22.587a13.363,13.363,0,1,0,13.412,13.3A13.387,13.387,0,0,0,737.075,572.2Zm-9.04,26.726a23.149,23.149,0,0,1-2.042-1.808,2.556,2.556,0,0,0-2.156-.871c-5.091.043-10.183.021-15.275.021h-1.432c.167.951.312,1.779.452,2.577,3.671.356,5.311,1.488,5.332,3.844a5.161,5.161,0,0,1-.791,2.605c-1,1.614-2.733,1.753-4.531,1.677,0,3.778.055,7.4-.026,11.028a24.3,24.3,0,0,1-.577,4.649,17.26,17.26,0,0,1-1.24,2.965h44.619a1.494,1.494,0,0,0,.109-.36c0-8.424.023-16.847-.019-25.271a3.484,3.484,0,0,0-1.891-3.071c-.881.68-1.666,1.384-2.546,1.935a1.754,1.754,0,0,0-.91,1.722c.033,7.038.019,14.077.019,21.116v1.236h-29.4V598.93Zm22.441,29.432H748.9c-14.523,0-29.046.042-43.568-.05a7.991,7.991,0,0,0-4.851,1.785,10.871,10.871,0,0,1,5.867,5.367,1.506,1.506,0,0,0,1.619.969q19.482-.039,38.964-.023a6.425,6.425,0,0,0,1.446-.126,2.582,2.582,0,0,0,2.079-2.356C750.521,632.138,750.476,630.344,750.476,628.362ZM723.588,606.89v-5.161h-5.156v18.52H723.7v-5.2H737.07v5.192h5.267V601.723h-5.273v5.167Zm-18.768,10.732V607.069H688.8v7.92c-.472,0-.839-.014-1.2,0a2.673,2.673,0,1,0-.073,5.344,1.594,1.594,0,0,1,1.046.6,7.956,7.956,0,0,1,1.3,6.291c-.076.341-.092.7-.15,1.154,4.277-.213,8.683.9,12.2-2.616-4.76-1.246-7.233-4.493-6.188-8.141Zm-32.08-10.586c0,1.183-.012,2.3,0,3.409A19.3,19.3,0,0,0,685.9,628.209c.627.2.884.034,1.084-.526a5.284,5.284,0,0,0-.046-4.042,1.76,1.76,0,0,0-.916-.838,5.352,5.352,0,0,1-.5-10.134c.253-.119.588-.423.595-.65.051-1.636.027-3.275.027-4.983Zm21.727,35c.832-.757,1.564-1.39,2.25-2.069a1.287,1.287,0,0,0,.416-.822c-.069-1.484-.214-2.964-.323-4.447a3.878,3.878,0,0,0-4.63-3.549,1.152,1.152,0,0,0-.7.837c-.041,3.065.128,6.14-.049,9.2a5.315,5.315,0,0,0,1.949,4.487c3.675,3.462,8.113,4.4,12.958,4.056.907-.065,1.254-.7,1.254-1.562,0-1.458,0-2.917,0-4.375,0-1.734-.351-2.041-2.121-2.087-2.009-.052-4.016-.185-6.025-.233a1.285,1.285,0,0,0-.832.425c-.675.727-1.3,1.5-1.941,2.258l-.237-.33ZM683.48,631.063c-2.057,0-4.109-.005-6.162,0-1.56.005-1.87.326-1.871,1.933q0,7.8,0,15.594c0,.36.034.72.05,1.062h7.982Zm21.379-32.135a15.317,15.317,0,0,0-5.187-9.9c-5.134-4.651-15.927-4.564-21-.557-5.514,4.356-6.508,10-5.743,15.777h2.522c0-1.069-.018-2.073,0-3.075a13.41,13.41,0,0,1,26.317-3.1c.1.324.407.782.671.821A17.28,17.28,0,0,0,704.859,598.928Zm-5.831-.033c-.618-4.2-5.825-9.069-12.3-7.76-5.706,1.154-9.63,6.519-8.463,13.1h3.875v-7.866h2.8v7.918l.316.047c.813-1.979,2.756-3.487,2.241-6.032a12.653,12.653,0,0,1-.025-2.463V593.68h2.733v5.459l2.636-.308v-2.5h2.607c.049.885.094,1.717.141,2.565Zm14.965,40.2a5.759,5.759,0,0,1,4.4,5.23h14.58V639.1Zm24.316,10.594c-.083-1.737-1.136-2.643-3.01-2.644q-12.008-.008-24.016,0c-.323,0-.646.042-.98.065l-.129,2.58Zm-49.955-45.429c.4.027.58.05.762.05q9.643,0,19.285,0a3.007,3.007,0,0,0,.669-.04,1.273,1.273,0,0,0,1.163-1.4,1.219,1.219,0,0,0-1.334-1.222c-5.718,0-11.436-.031-17.154.031C690.159,601.694,689.1,602.67,688.354,604.261Zm-2.127,45.423h2.515a5.339,5.339,0,0,0,.1-.7q.008-8.08,0-16.16a1.835,1.835,0,0,0-.228-1.07,1.6,1.6,0,0,0-1.068-.632,1.78,1.78,0,0,0-1.184.63,2.064,2.064,0,0,0-.191,1.181q-.016,7.856,0,15.712C686.158,648.975,686.2,649.3,686.227,649.684Zm13.122-17.035c.065,1.623.13,3.276.2,4.929.031.756.342,1.356,1.151,1.393,1.323.061,2.651.016,3.984.016A7.723,7.723,0,0,0,699.349,632.649Zm27.108-28.4h7.824V601.7h-7.824Zm0,16h7.865v-2.538h-7.865Zm-27.917.125c.85,2.037,3.453,3.282,5.235,2.614a.689.689,0,0,0,.384-.356c.238-.719.435-1.451.67-2.259Zm11.63,21.482.168,2.538c1.674,0,3.239,0,4.8,0a1.927,1.927,0,0,0,.414-.092Q715.181,640.858,710.167,641.851Zm-16.034,7.829-2.589-1.981v1.981Z" transform="translate(0 0)" fill="#122253"/>
    <path id="Trazado_994927" data-name="Trazado 994927" d="M946.773,614.942,934.086,627.7l-4.823-4.868,1.989-1.739,2.606,3.333L945,613.02Z" transform="translate(-201 -33.727)" fill="#122253"/>
    <path id="Trazado_994928" data-name="Trazado 994928" d="M983.254,844.844a1.222,1.222,0,0,1-1.334,1.333,1.29,1.29,0,1,1,1.334-1.333Z" transform="translate(-240.842 -212.515)" fill="#122253"/>
    <path id="Trazado_994929" data-name="Trazado 994929" d="M1005.874,843.543a1.3,1.3,0,1,1-1.366,1.306A1.225,1.225,0,0,1,1005.874,843.543Z" transform="translate(-259.344 -212.473)" fill="#122253"/>
    <path id="Trazado_994930" data-name="Trazado 994930" d="M771.734,748.5h2.5c.733,1.917,1.47,2.563,2.875,2.543,1.377-.019,2.155-.731,2.742-2.548h2.53a5.017,5.017,0,0,1-2.247,4.268,5.323,5.323,0,0,1-8.4-4.264Z" transform="translate(-78.853 -138.775)" fill="#122253"/>
  </g>
</svg>
