<svg xmlns="http://www.w3.org/2000/svg" width="39.216" height="75.418" viewBox="0 0 39.216 75.418">
  <g id="Grupo_1178108" data-name="Grupo 1178108" transform="translate(-834.953 -588.459)">
    <path id="Trazado_994955" data-name="Trazado 994955" d="M848.029,596.41c-2.164-.746-2.565-1.3-2.57-3.461-.01-3.99.483-4.489,4.432-4.488q5.294,0,10.588,0c2.184,0,3.173.982,3.191,3.135,0,.451,0,.9,0,1.352-.005,2.169-.4,2.711-2.568,3.46,0,3.871-.024,7.77.033,11.668a2.166,2.166,0,0,0,.735,1.3c1.714,1.627,3.56,3.122,5.208,4.812a23.771,23.771,0,0,1,7.012,16.71c.137,9.61.055,19.222.036,28.834A3.964,3.964,0,0,1,870,663.86q-15.431.033-30.862,0A3.963,3.963,0,0,1,835,659.732c-.018-9.611-.119-19.225.04-28.834a24.1,24.1,0,0,1,8.379-18.045c1.281-1.157,2.6-2.277,3.836-3.478a2.318,2.318,0,0,0,.739-1.411C848.056,604.138,848.029,600.309,848.029,596.41Zm23.362,57a4.125,4.125,0,0,0,.066-.461c0-7.581.043-15.163-.034-22.743a20.219,20.219,0,0,0-2.837-9.727,1.306,1.306,0,0,0-1.307-.791q-12.723.035-25.446,0a1.307,1.307,0,0,0-1.3.807,21.468,21.468,0,0,0-2.868,10.629q0,10.584,0,21.168c0,.36.038.721.061,1.12Zm.072,2.686h-33.8c0,1.128,0,2.176,0,3.224.006,1.6.291,1.881,1.918,1.881q11.883,0,23.766,0c2.178,0,4.355.011,6.533,0,1.18-.008,1.557-.382,1.577-1.541S871.464,657.338,871.464,656.1ZM865.879,617l.168-.272c-1.851-1.689-3.649-3.44-5.569-5.045a5.191,5.191,0,0,1-2.036-4.617c.064-.955.011-1.919.011-2.914H850.7c0,1.188-.028,2.308.007,3.427a4.523,4.523,0,0,1-1.671,3.756c-1.5,1.3-2.976,2.635-4.437,3.982-.52.479-.966,1.039-1.556,1.683ZM858.414,596.4h-7.656v5h7.656Zm-10.327-5.22V593.6h12.957v-2.415Z" transform="translate(0)" fill="#122253"/>
    <path id="Trazado_994956" data-name="Trazado 994956" d="M870.99,788.555c-.176.228-.3.362-.394.515-1.13,1.8-2.255,3.607-3.533,5.652,1.414,0,2.619-.008,3.825,0a19.405,19.405,0,0,1,2.353.084,1.065,1.065,0,0,1,1.016,1.343c-.137.467-.712,1.12-1.119,1.14a59.237,59.237,0,0,1-6.628.014,2.433,2.433,0,0,1-1.738-3.821c1.023-1.743,2.131-3.437,3.2-5.154.235-.377.461-.759.782-1.288-.574.086-1.052.306-1.394.174-.522-.2-1.256-.589-1.334-1a1.689,1.689,0,0,1,.854-1.411,16.716,16.716,0,0,1,3.609-.786,2.252,2.252,0,0,1,2.589,1.819c.279,1.009.463,2.043.7,3.063.192.81-.008,1.459-.854,1.674a1.268,1.268,0,0,1-1.671-1.065C871.182,789.222,871.1,788.94,870.99,788.555Z" transform="translate(-22.786 -151.482)" fill="#122253"/>
    <path id="Trazado_994957" data-name="Trazado 994957" d="M913.1,755.134c.556-1.8,1.024-2.283,1.95-1.949,1.318.476.885,1.532.706,2.475-.14.735-.275,1.473-.452,2.2a2.421,2.421,0,0,1-2.85,1.925c-1.035-.165-2.063-.371-3.09-.582-.847-.174-1.384-.665-1.189-1.579.18-.844.812-1.1,1.633-.967.327.054.657.087,1.22.159l-4.755-7.609c-.7,1.089-1.334,2.074-1.97,3.057-.162.251-.293.656-.51.711a2.652,2.652,0,0,1-1.693.107,1.57,1.57,0,0,1-.336-1.507,31.989,31.989,0,0,1,2.612-4.187,2.382,2.382,0,0,1,3.99.305c1.377,2.1,2.68,4.243,4.017,6.366C912.578,754.372,912.791,754.675,913.1,755.134Z" transform="translate(-51.699 -122.391)" fill="#122253"/>
    <path id="Trazado_994958" data-name="Trazado 994958" d="M922.985,818.861c.409.455.646.682.84.942.461.618.563,1.379-.076,1.792a1.831,1.831,0,0,1-1.686.011A16.476,16.476,0,0,1,919.436,819a2.28,2.28,0,0,1,.185-3.174c.681-.748,1.424-1.439,2.137-2.158.6-.6,1.291-.889,1.972-.236.7.675.521,1.411-.13,2.065-.153.154-.288.326-.537.612h6.718c-.481-.794-.914-1.517-1.356-2.235s-.464-1.4.264-1.874a1.259,1.259,0,0,1,1.921.475c.539.856,1.113,1.694,1.6,2.58a2.469,2.469,0,0,1-2.2,3.795C927.762,818.893,925.513,818.861,922.985,818.861Z" transform="translate(-65.016 -172.973)" fill="#122253"/>
  </g>
</svg>
