<svg xmlns="http://www.w3.org/2000/svg" width="288.987" height="508.146" viewBox="0 0 288.987 508.146">
  <g id="Grupo_1178376" data-name="Grupo 1178376" transform="translate(-1068.509 -6475.203)">
    <g id="Grupo_1178171" data-name="Grupo 1178171" transform="translate(876.985 6360.743)">
      <g id="Grupo_1178143" data-name="Grupo 1178143" transform="translate(236.507 316.608)">
        <g id="Grupo_1178139" data-name="Grupo 1178139" transform="translate(66.077 270.591)">
          <path id="Trazado_995038" data-name="Trazado 995038" d="M327.708,439.426a10.919,10.919,0,0,0-10.877-10.961l-22.726-.088.05-13.214-31.873-.123-.115,29.672a3.608,3.608,0,0,0,3.594,3.622l28.266.109h0l33.644.13Z" transform="translate(-262.122 -415.04)" fill="#ed7951"/>
          <rect id="Rectángulo_455100" data-name="Rectángulo 455100" width="4.821" height="65.52" transform="translate(0 34.693) rotate(-89.777)" fill="#fff"/>
        </g>
        <g id="Grupo_1178142" data-name="Grupo 1178142">
          <g id="Grupo_1178141" data-name="Grupo 1178141">
            <g id="Grupo_1178140" data-name="Grupo 1178140" transform="translate(5.13 270.464)">
              <path id="Trazado_995039" data-name="Trazado 995039" d="M289.072,448.069l-.046-9.147a10.917,10.917,0,0,0-10.973-10.863l-22.726.115-.066-13.214-31.873.16.149,29.672a3.609,3.609,0,0,0,3.627,3.591l27.558-.138h0Z" transform="translate(-223.387 -414.959)" fill="#f98958"/>
              <rect id="Rectángulo_455101" data-name="Rectángulo 455101" width="65.52" height="4.821" transform="translate(0.143 30.022) rotate(-0.286)" fill="#fff"/>
            </g>
            <path id="Trazado_995040" data-name="Trazado 995040" d="M279.791,244.238h0a1.244,1.244,0,0,1-1.253,1.249l-49.142,24.271s-9.161,225.115-9.27,244.9a1.233,1.233,0,0,0,1.246,1.238l39.843-.058a1.235,1.235,0,0,0,1.228-1.063c1.392-9.9,8.8-87.2,15.347-156.443a1.244,1.244,0,0,1,2.482.113l.659,156.843c0,.359,34.244-.387,40.59-.527a1.2,1.2,0,0,0,1.172-1.071c2.023-18.274,11.558-249.981,11.558-249.981l-53.186-20.721A1.24,1.24,0,0,0,279.791,244.238Z" transform="translate(-220.125 -242.991)" fill="#013035"/>
          </g>
        </g>
      </g>
      <path id="Trazado_995041" data-name="Trazado 995041" d="M270.71,176.309" transform="translate(45.354 35.425)" fill="#ffa06c"/>
      <g id="Grupo_1178157" data-name="Grupo 1178157" transform="translate(191.523 204.753)">
        <g id="Grupo_1178147" data-name="Grupo 1178147" transform="translate(19.408)">
          <g id="Grupo_1178146" data-name="Grupo 1178146">
            <g id="Grupo_1178144" data-name="Grupo 1178144">
              <path id="Trazado_995042" data-name="Trazado 995042" d="M225.969,220.063l.237-.436Z" transform="translate(-191.203 -144.517)" fill="#ffac79"/>
              <path id="Trazado_995043" data-name="Trazado 995043" d="M227.921,176.417a20.371,20.371,0,0,0-11.2,9.709,30.593,30.593,0,0,1,2.252-2.985A28.678,28.678,0,0,1,227.921,176.417Z" transform="translate(-196.499 -169.266)" fill="#ffac79"/>
              <path id="Trazado_995044" data-name="Trazado 995044" d="M352.032,199.192c-2.839-6.653-6.533-13.252-12.418-17.458-8.594-6.14-20.591-6.675-30.714-8.164a187.737,187.737,0,0,0-38.949-1.233c-10.471.665-24.257,1.477-34.665,6.683a28.734,28.734,0,0,0-8.947,6.722,30.535,30.535,0,0,0-2.252,2.985c-3.468,5.137-5.512,11.134-8.035,16.77-3.348,7.48-7.8,14.623-11.665,21.866a4.582,4.582,0,0,0,1.085,5.6l26.241,22.019a2.719,2.719,0,0,0,4.235-1.041l2.683-6.522h0l.237-.436.168-.31-4.312,69.868,112.139,4.4,5.042-79.46,12.915-14.191C360.386,218.008,356.066,208.649,352.032,199.192Z" transform="translate(-203.864 -171.87)" fill="#00ba96"/>
            </g>
            <g id="Grupo_1178145" data-name="Grupo 1178145" transform="translate(31.226 43.798)">
              <path id="Trazado_995045" data-name="Trazado 995045" d="M223.718,237.6l3.471-6.516,14.853-27.932" transform="translate(-223.718 -197.749)" fill="#779caf" stroke="#059176" stroke-linecap="round" stroke-miterlimit="10" stroke-width="0.75"/>
              <path id="Trazado_995046" data-name="Trazado 995046" d="M287.971,199.718l11.406,23.5.23,29.181" transform="translate(-186.917 -199.718)" fill="none" stroke="#059176" stroke-linecap="round" stroke-miterlimit="10" stroke-width="0.75"/>
              <line id="Línea_3268" data-name="Línea 3268" y1="19.055" x2="1.283" transform="translate(2.749 32.342)" fill="none" stroke="#059176" stroke-linecap="round" stroke-miterlimit="10" stroke-width="0.75"/>
            </g>
          </g>
        </g>
        <g id="Grupo_1178154" data-name="Grupo 1178154" transform="translate(0 54.403)">
          <g id="Grupo_1178151" data-name="Grupo 1178151" transform="translate(62.315)">
            <g id="Grupo_1178150" data-name="Grupo 1178150">
              <g id="Grupo_1178149" data-name="Grupo 1178149" transform="translate(0 0.087)">
                <g id="Grupo_1178148" data-name="Grupo 1178148">
                  <rect id="Rectángulo_455102" data-name="Rectángulo 455102" width="83.707" height="81.024" transform="translate(53.122)" fill="#f9b28f"/>
                  <rect id="Rectángulo_455103" data-name="Rectángulo 455103" width="53.301" height="81.024" fill="#f9875a"/>
                </g>
                <rect id="Rectángulo_455104" data-name="Rectángulo 455104" width="54.732" height="16.633" transform="translate(69.756 31.431)" fill="none" stroke="#fceee5" stroke-miterlimit="10" stroke-width="0.75" opacity="0.8" style="isolation: isolate"/>
              </g>
              <rect id="Rectángulo_455105" data-name="Rectángulo 455105" width="15.77" height="24.782" transform="translate(17.726)" fill="none" stroke="#ffa06c" stroke-linecap="round" stroke-miterlimit="10" stroke-width="0.75"/>
              <line id="Línea_3269" data-name="Línea 3269" y2="81.02" transform="translate(53.502 0.05)" fill="none" stroke="#e56b41" stroke-linecap="round" stroke-miterlimit="10" stroke-width="0.75"/>
            </g>
          </g>
          <g id="Grupo_1178153" data-name="Grupo 1178153" transform="translate(0 4.448)">
            <g id="Grupo_1178152" data-name="Grupo 1178152">
              <path id="Trazado_995047" data-name="Trazado 995047" d="M321.2,248.8l1.353-.628a2.9,2.9,0,0,0,1.4-3.834l-.113-.245a2.858,2.858,0,0,0-1.387-1.378l.063-.027a2.9,2.9,0,0,0,1.5-3.8l-.109-.249a2.894,2.894,0,0,0-3.8-1.5l-.451.2c-.1,0-.2,0-.3,0a2.893,2.893,0,0,0,.845-3.385l-.109-.249a2.9,2.9,0,0,0-3.8-1.5l-4.151,1.8a45.21,45.21,0,0,1-11.833,3c2.189-3.727,4.309-8.284,2.425-9.455-3.7-2.3-10.44,6.06-14,11.044A38.674,38.674,0,0,0,279.6,241.3c-.379.171-.744.365-1.118.546-3.325,1.022-6.689,1.917-10.091,2.642a101.577,101.577,0,0,1-33.655,1.57l6.551-11.994a2.675,2.675,0,0,1-2.512-.506l-26.241-22.019a4.511,4.511,0,0,1-1.433-2.246L193.987,245.1a17.5,17.5,0,0,0-2.177,8.763,14.694,14.694,0,0,0,.343,7.167,17.747,17.747,0,0,0,1.861,4.058,18.007,18.007,0,0,0,2.782,3.463,23.9,23.9,0,0,0,6.827,4.531c11.764,5.322,26.793,6.775,39.571,5.948,11.992-.777,31.694-6.31,39.465-8.645l.017.024a27.223,27.223,0,0,0,3.045-.974c.143-.049.239-.082.247-.088l0,0c9.035-3.267,32.079-12.826,32.23-13.035l4.056-2.159a2.573,2.573,0,0,0,1.06-3.469l-.113-.212a2.561,2.561,0,0,0-2.147-1.345l.027-.151C321.127,248.911,321.159,248.856,321.2,248.8Z" transform="translate(-191.523 -209.289)" fill="#ffac79"/>
              <path id="Trazado_995048" data-name="Trazado 995048" d="M225.164,234.9,208.4,233.434l20.064-4.764Z" transform="translate(-181.858 -198.188)" fill="#f96e58" opacity="0.46" style="isolation: isolate"/>
              <line id="Línea_3270" data-name="Línea 3270" x1="12.024" y2="5.207" transform="translate(115.894 27.836)" fill="none" stroke="#f96e58" stroke-linecap="round" stroke-miterlimit="10" stroke-width="0.75"/>
              <line id="Línea_3271" data-name="Línea 3271" x1="12.024" y2="5.206" transform="translate(117.586 33.693)" fill="none" stroke="#f96e58" stroke-linecap="round" stroke-miterlimit="10" stroke-width="0.75"/>
              <line id="Línea_3272" data-name="Línea 3272" x1="11.862" y2="5.566" transform="translate(117.47 39.781)" fill="none" stroke="#f96e58" stroke-linecap="round" stroke-miterlimit="10" stroke-width="0.75"/>
            </g>
          </g>
        </g>
        <g id="Grupo_1178156" data-name="Grupo 1178156" transform="translate(178.645 74.857)">
          <path id="Trazado_995049" data-name="Trazado 995049" d="M339.319,240.281l-3.709-12.2a6.786,6.786,0,0,0-4.526-4.523l-12.807-3.883a4.72,4.72,0,0,0-5.95,3.383l-.675,2.724,8.845-.071-12.623.1a2.069,2.069,0,0,0-1.941,2.74h0a3.64,3.64,0,0,0,2.636,2.37l12.908,2.941-15.023-1.4a1.227,1.227,0,0,0-1.076,1.983h0a17.915,17.915,0,0,0,10.155,6.373l3.49.779A20.255,20.255,0,0,0,322,260.54S341.659,264.986,339.319,240.281Z" transform="translate(-305.111 -219.466)" fill="#f9875a" opacity="0.54" style="isolation: isolate"/>
          <path id="Trazado_995050" data-name="Trazado 995050" d="M340.833,240.281l-3.709-12.2a6.787,6.787,0,0,0-4.526-4.523l-12.807-3.883a4.719,4.719,0,0,0-5.95,3.383l-.675,2.724,8.845-.071-12.623.1a2.069,2.069,0,0,0-1.941,2.74h0a3.64,3.64,0,0,0,2.636,2.37l12.908,2.941-15.023-1.4a1.227,1.227,0,0,0-1.076,1.983h0a17.915,17.915,0,0,0,10.155,6.373l3.49.779a20.255,20.255,0,0,0,2.979,18.942S343.174,264.986,340.833,240.281Z" transform="translate(-304.243 -219.466)" fill="#ffac79"/>
          <g id="Grupo_1178155" data-name="Grupo 1178155" transform="translate(9.039 4.571)">
            <path id="Trazado_995051" data-name="Trazado 995051" d="M310.921,223.069a.548.548,0,0,1,.5-.293l9.19.3a.547.547,0,0,1-.036,1.093l-9.19-.3a.548.548,0,0,1-.528-.565A.536.536,0,0,1,310.921,223.069Z" transform="translate(-310.858 -222.142)" fill="#f96e58"/>
            <path id="Trazado_995052" data-name="Trazado 995052" d="M316.449,227.532a.547.547,0,0,1,1.022.349s-.192,1.1-.429,2.317a.546.546,0,1,1-1.073-.208c.234-1.209.425-2.295.425-2.3A.587.587,0,0,1,316.449,227.532Z" transform="translate(-307.936 -219.586)" fill="#f96e58"/>
            <path id="Trazado_995053" data-name="Trazado 995053" d="M317.284,222.666a.547.547,0,0,1,1.022.349s-.192,1.1-.429,2.315a.546.546,0,1,1-1.073-.208c.234-1.208.425-2.293.425-2.3A.586.586,0,0,1,317.284,222.666Z" transform="translate(-307.457 -222.373)" fill="#f96e58"/>
            <path id="Trazado_995054" data-name="Trazado 995054" d="M314.868,233.2a.547.547,0,0,1,.613-.277,7.99,7.99,0,0,0,1.979.131.546.546,0,1,1,.074,1.09,8.95,8.95,0,0,1-2.312-.159.548.548,0,0,1-.4-.661A.584.584,0,0,1,314.868,233.2Z" transform="translate(-308.597 -216.337)" fill="#f96e58"/>
          </g>
        </g>
      </g>
      <g id="Grupo_1178170" data-name="Grupo 1178170" transform="translate(243.329 114.459)">
        <path id="Trazado_995055" data-name="Trazado 995055" d="M344.09,196.387c-1.815-7.047-8.476-11.656-12.409-17.6-5.13-7.749-2.446-16.144-2.837-24.629a32.368,32.368,0,0,0-3.864-13.559A19.351,19.351,0,0,0,309.555,123.9l-.745-.149a67.465,67.465,0,0,0-10.166-5.3,48.662,48.662,0,0,0-14.4-3.861,27.39,27.39,0,0,0-14.543,2.417,25.418,25.418,0,0,0-7.953,6.447A14.329,14.329,0,1,0,245.521,145.9c-.393.319-.788.632-1.189.931-5.009,3.742-10.978,6.752-14.312,12.08a19.454,19.454,0,0,0-2.208,16.154c1.255,3.877,3.776,7.821,2.557,11.684-.684,2.167-2.444,3.847-3.864,5.665s-2.57,4.147-1.788,6.3c1.036,2.855,4.761,3.839,7.942,4.2,4.791.541,9.619.639,14.439.736,30.633.615,61.221.989,91.825-.252a7.682,7.682,0,0,0,3.281-.621C344.4,201.618,344.688,198.708,344.09,196.387Z" transform="translate(-224.463 -114.459)" fill="#013035"/>
        <path id="Trazado_995056" data-name="Trazado 995056" d="M269.425,198.492l-9.957-.53c-8.147-.434-14.461-6.244-14.1-12.977l.779-12.258c.359-6.733,39.973-6.351,39.615.384l-.934,13.977C284.467,193.819,277.572,198.926,269.425,198.492Z" transform="translate(-212.499 -83.871)" fill="#00ba96" stroke="#059176" stroke-linecap="round" stroke-miterlimit="10" stroke-width="0.75"/>
        <g id="Grupo_1178169" data-name="Grupo 1178169" transform="translate(28.017 23.945)">
          <g id="Grupo_1178158" data-name="Grupo 1178158">
            <path id="Trazado_995057" data-name="Trazado 995057" d="M283.513,129.684l-.48,3.12a17.074,17.074,0,0,1-19.471,14.284l-9.323-1.433,0,.058-2.417-.189a8.77,8.77,0,0,0-9.427,8.059L242.3,154.7a8.77,8.77,0,0,0,8.059,9.427l2.417.189-.28,3.58a22.143,22.143,0,0,0,2.773,12.612L252.4,201.26a13.264,13.264,0,0,0,11.316,14.958l4.737.656a13.264,13.264,0,0,0,14.958-11.316l1.831-13.208a22.26,22.26,0,0,0,19.586-20.366l.063-.8v0l.528-6.75,1.04-13.287.561-7.164-9.08-1.812A19.319,19.319,0,0,1,283.513,129.684Z" transform="translate(-242.277 -129.684)" fill="#ffac79"/>
          </g>
          <g id="Grupo_1178168" data-name="Grupo 1178168" transform="translate(8.295 14.668)">
            <path id="Trazado_995058" data-name="Trazado 995058" d="M267.478,150.806a39.076,39.076,0,0,0,8.87,4.078c4.555,1.313.227,7.92-6.753,6.275S263.782,149.5,267.478,150.806Z" transform="translate(-237.829 -132.321)" fill="#fff"/>
            <path id="Trazado_995059" data-name="Trazado 995059" d="M275.262,143.058" transform="translate(-231.679 -136.692)" fill="none" stroke="#f96e58" stroke-linecap="round" stroke-miterlimit="10" stroke-width="0.75"/>
            <path id="Trazado_995060" data-name="Trazado 995060" d="M271.424,162.713a3.986,3.986,0,0,1,4.4-.8" transform="translate(-233.878 -126.108)" fill="none" stroke="#f96e58" stroke-linecap="round" stroke-miterlimit="10" stroke-width="0.75"/>
            <g id="Grupo_1178165" data-name="Grupo 1178165" transform="translate(28.661)">
              <g id="Grupo_1178164" data-name="Grupo 1178164">
                <g id="Grupo_1178163" data-name="Grupo 1178163">
                  <g id="Grupo_1178160" data-name="Grupo 1178160">
                    <g id="Grupo_1178159" data-name="Grupo 1178159">
                      <path id="Trazado_995061" data-name="Trazado 995061" d="M266.407,142.871a4.958,4.958,0,0,0,2.067-.068c.727-.121,1.458-.223,2.1-.291s1.379-.12,2.114-.154a4.959,4.959,0,0,0,2.03-.365c.525-.291.678-.98-.058-1.73a5.7,5.7,0,0,0-4.506-1.213,5.53,5.53,0,0,0-4.1,2.12C265.514,142.056,265.827,142.7,266.407,142.871Z" transform="translate(-265.775 -139.01)" fill="#013035"/>
                    </g>
                  </g>
                  <g id="Grupo_1178162" data-name="Grupo 1178162" transform="translate(19.405 1.61)">
                    <g id="Grupo_1178161" data-name="Grupo 1178161">
                      <path id="Trazado_995062" data-name="Trazado 995062" d="M284.6,144.188a4,4,0,0,1-1.592-.488c-.538-.247-1.085-.481-1.568-.668s-1.046-.384-1.61-.565a3.974,3.974,0,0,1-1.5-.712c-.346-.337-.321-.9.411-1.332a4.589,4.589,0,0,1,3.756.008,4.45,4.45,0,0,1,2.738,2.512C285.464,143.744,285.087,144.175,284.6,144.188Z" transform="translate(-278.113 -140.034)" fill="#013035"/>
                    </g>
                  </g>
                </g>
              </g>
            </g>
            <path id="Trazado_995063" data-name="Trazado 995063" d="M248.776,143.113l1.868,4.923-3.094,1.129" transform="translate(-247.551 -136.66)" fill="none" stroke="#f96e58" stroke-linecap="round" stroke-miterlimit="10" stroke-width="0.75"/>
            <g id="Grupo_1178166" data-name="Grupo 1178166" transform="translate(23.912 6.354)">
              <path id="Trazado_995064" data-name="Trazado 995064" d="M268.08,149.36a4.383,4.383,0,0,1,4.474-4.272,4.8,4.8,0,0,1,3.2,1.1,6.218,6.218,0,0,0-4.893-3.076,6.9,6.9,0,0,0-1.971.027c-2.839.445-4.715,2.666-5.821,4.553a2.338,2.338,0,0,0,1.609,3.479,30.223,30.223,0,0,0,4.163.385A3.863,3.863,0,0,1,268.08,149.36Z" transform="translate(-262.755 -143.05)" fill="#fff"/>
              <path id="Trazado_995065" data-name="Trazado 995065" d="M266.141,148.619a3.863,3.863,0,0,0,.766,2.192,40.178,40.178,0,0,0,6.645-.381,1.514,1.514,0,0,0,1.3-1.637c-.019-.182-.046-.381-.077-.587a8.132,8.132,0,0,0-.953-2.765,4.807,4.807,0,0,0-3.2-1.1A4.388,4.388,0,0,0,266.141,148.619Z" transform="translate(-260.816 -142.309)" fill="#013035"/>
            </g>
            <g id="Grupo_1178167" data-name="Grupo 1178167" transform="translate(45.868 8.133)">
              <path id="Trazado_995066" data-name="Trazado 995066" d="M287.52,149.072a5.012,5.012,0,0,0-4.253-4.8,5.343,5.343,0,0,0-1.527-.071,6.716,6.716,0,0,0-4.72,3.252,1.813,1.813,0,0,0,1.084,2.768,22.47,22.47,0,0,0,2.417.415,2.973,2.973,0,0,1-.414-1.592,3.566,3.566,0,0,1,7.095.255,2.964,2.964,0,0,1-.379,1.331,1.157,1.157,0,0,0,.727-1.107C287.548,149.388,287.536,149.233,287.52,149.072Z" transform="translate(-276.715 -144.181)" fill="#fff"/>
              <path id="Trazado_995067" data-name="Trazado 995067" d="M282.537,145.309a3.4,3.4,0,0,0-3.663,3.1,2.974,2.974,0,0,0,.414,1.592,30.485,30.485,0,0,0,5.95.093,1.16,1.16,0,0,0,.354-.1,2.965,2.965,0,0,0,.379-1.331A3.4,3.4,0,0,0,282.537,145.309Z" transform="translate(-275.48 -143.537)" fill="#013035"/>
            </g>
            <path id="Trazado_995068" data-name="Trazado 995068" d="M273.773,157.743c1.584.189,2.829.579,4.338-.289a4.278,4.278,0,0,0,2.246-4.229,1.976,1.976,0,0,0-1.486-1.485l-1.494-.357-.326-8.823" transform="translate(-232.532 -136.977)" fill="none" stroke="#f96e58" stroke-linecap="round" stroke-miterlimit="10" stroke-width="0.75"/>
          </g>
          <path id="Trazado_995069" data-name="Trazado 995069" d="M278.729,177.777l-7.453-.583a20.893,20.893,0,0,1-19.2-22.459l.217-2.779-3.21-.252-.28,3.58a22.249,22.249,0,0,0,11.594,21.3,10.581,10.581,0,0,0,20.441,3.213,22.247,22.247,0,0,0,20.289-20.418l.063-.8A20.9,20.9,0,0,1,278.729,177.777Z" transform="translate(-238.578 -117.072)" fill="#f96e58" opacity="0.46" style="isolation: isolate"/>
        </g>
      </g>
    </g>
    <g id="Grupo_1178184" data-name="Grupo 1178184" transform="translate(833.262 6534.926)">
      <g id="Grupo_1178175" data-name="Grupo 1178175" transform="translate(292.086 276.623)">
        <g id="Grupo_1178174" data-name="Grupo 1178174">
          <g id="Grupo_1178173" data-name="Grupo 1178173" transform="translate(0 0.091)">
            <g id="Grupo_1178172" data-name="Grupo 1178172">
              <rect id="Rectángulo_455106" data-name="Rectángulo 455106" width="88.318" height="85.488" fill="#f9b28f"/>
              <rect id="Rectángulo_455107" data-name="Rectángulo 455107" width="56.237" height="85.488" transform="translate(88.129)" fill="#f9875a"/>
            </g>
            <rect id="Rectángulo_455108" data-name="Rectángulo 455108" width="57.747" height="17.55" transform="translate(13.021 33.164)" fill="none" stroke="#fceee5" stroke-miterlimit="10" stroke-width="1" opacity="0.8" style="isolation: isolate"/>
          </g>
          <rect id="Rectángulo_455109" data-name="Rectángulo 455109" width="16.64" height="26.148" transform="translate(109.025)" fill="none" stroke="#ffa06c" stroke-linecap="round" stroke-miterlimit="10" stroke-width="1"/>
          <line id="Línea_3273" data-name="Línea 3273" y2="85.483" transform="translate(87.918 0.052)" fill="none" stroke="#e56b41" stroke-linecap="round" stroke-miterlimit="10" stroke-width="1"/>
        </g>
      </g>
      <g id="Grupo_1178179" data-name="Grupo 1178179" transform="translate(379.867 362.386)">
        <g id="Grupo_1178178" data-name="Grupo 1178178">
          <g id="Grupo_1178177" data-name="Grupo 1178177" transform="translate(0 0.091)">
            <g id="Grupo_1178176" data-name="Grupo 1178176">
              <rect id="Rectángulo_455110" data-name="Rectángulo 455110" width="88.318" height="85.488" fill="#f9b28f"/>
              <rect id="Rectángulo_455111" data-name="Rectángulo 455111" width="56.237" height="85.488" transform="translate(88.129)" fill="#f9875a"/>
            </g>
            <rect id="Rectángulo_455112" data-name="Rectángulo 455112" width="57.747" height="17.55" transform="translate(13.021 33.164)" fill="none" stroke="#fceee5" stroke-miterlimit="10" stroke-width="1" opacity="0.8" style="isolation: isolate"/>
          </g>
          <rect id="Rectángulo_455113" data-name="Rectángulo 455113" width="16.64" height="26.148" transform="translate(109.025)" fill="none" stroke="#ffa06c" stroke-linecap="round" stroke-miterlimit="10" stroke-width="1"/>
          <line id="Línea_3274" data-name="Línea 3274" y2="85.484" transform="translate(87.918 0.052)" fill="none" stroke="#e56b41" stroke-linecap="round" stroke-miterlimit="10" stroke-width="1"/>
        </g>
      </g>
      <g id="Grupo_1178183" data-name="Grupo 1178183" transform="translate(235.247 362.386)">
        <g id="Grupo_1178182" data-name="Grupo 1178182">
          <g id="Grupo_1178181" data-name="Grupo 1178181" transform="translate(0 0.091)">
            <g id="Grupo_1178180" data-name="Grupo 1178180">
              <rect id="Rectángulo_455114" data-name="Rectángulo 455114" width="88.318" height="85.488" fill="#f9b28f"/>
              <rect id="Rectángulo_455115" data-name="Rectángulo 455115" width="56.237" height="85.488" transform="translate(88.129)" fill="#f9875a"/>
            </g>
            <rect id="Rectángulo_455116" data-name="Rectángulo 455116" width="57.747" height="17.55" transform="translate(13.021 33.164)" fill="none" stroke="#fceee5" stroke-miterlimit="10" stroke-width="1" opacity="0.8" style="isolation: isolate"/>
          </g>
          <rect id="Rectángulo_455117" data-name="Rectángulo 455117" width="16.64" height="26.148" transform="translate(109.025)" fill="none" stroke="#ffa06c" stroke-linecap="round" stroke-miterlimit="10" stroke-width="1"/>
          <line id="Línea_3275" data-name="Línea 3275" y2="85.484" transform="translate(87.918 0.052)" fill="none" stroke="#e56b41" stroke-linecap="round" stroke-miterlimit="10" stroke-width="1"/>
        </g>
      </g>
      <line id="Línea_3276" data-name="Línea 3276" x1="87.919" transform="translate(291.949 362.477)" fill="none" stroke="#e56b41" stroke-linecap="round" stroke-miterlimit="10" stroke-width="1"/>
    </g>
  </g>
</svg>
