<svg xmlns="http://www.w3.org/2000/svg" width="78.501" height="78.5" viewBox="0 0 78.501 78.5">
  <g id="Grupo_1178365" data-name="Grupo 1178365" transform="translate(-248 -4360.233)">
    <g id="Grupo_1177309" data-name="Grupo 1177309" transform="translate(248 4360.233)">
      <path id="Trazado_873160" data-name="Trazado 873160" d="M313.261,134.345A39.251,39.251,0,1,1,274.011,95.1,39.251,39.251,0,0,1,313.261,134.345Z" transform="translate(-234.76 -95.096)" fill="#1e3a8a"/>
      <g id="Grupo_1099023" data-name="Grupo 1099023" transform="translate(14.707 16.238)">
        <g id="Grupo_1099019" data-name="Grupo 1099019" transform="translate(0 22.366)">
          <path id="Trazado_873161" data-name="Trazado 873161" d="M245.418,130.119v4.98h.03c.643,4.987,11.37,8.953,24.511,8.953s23.869-3.966,24.512-8.953h.033v-4.98Z" transform="translate(-245.418 -120.396)" fill="#f9951f"/>
          <path id="Trazado_873162" data-name="Trazado 873162" d="M294.5,132.5c0,5.2-10.988,9.426-24.545,9.426s-24.541-4.221-24.541-9.426,10.988-9.426,24.541-9.426S294.5,127.291,294.5,132.5Z" transform="translate(-245.418 -123.073)" fill="#ffb92f"/>
          <path id="Trazado_873163" data-name="Trazado 873163" d="M283.285,131.569c0,3.342-7.048,6.048-15.747,6.048s-15.746-2.706-15.746-6.048,7.05-6.048,15.746-6.048S283.285,128.23,283.285,131.569Z" transform="translate(-242.997 -122.143)" fill="#f9951f"/>
        </g>
        <g id="Grupo_1099020" data-name="Grupo 1099020" transform="translate(0 14.911)">
          <path id="Trazado_873164" data-name="Trazado 873164" d="M245.418,124.716V129.7h.03c.643,4.984,11.37,8.951,24.511,8.951s23.869-3.967,24.512-8.951h.033v-4.981Z" transform="translate(-245.418 -114.993)" fill="#f9951f"/>
          <path id="Trazado_873165" data-name="Trazado 873165" d="M294.5,127.1c0,5.206-10.988,9.426-24.545,9.426s-24.541-4.22-24.541-9.426,10.988-9.426,24.541-9.426S294.5,121.891,294.5,127.1Z" transform="translate(-245.418 -117.67)" fill="#ffb92f"/>
          <path id="Trazado_873166" data-name="Trazado 873166" d="M283.285,126.166c0,3.341-7.048,6.048-15.747,6.048s-15.744-2.707-15.744-6.048,7.048-6.048,15.744-6.048S283.285,122.827,283.285,126.166Z" transform="translate(-242.996 -116.74)" fill="#f9951f"/>
        </g>
        <g id="Grupo_1099021" data-name="Grupo 1099021" transform="translate(0 7.457)">
          <path id="Trazado_873167" data-name="Trazado 873167" d="M245.418,119.313v4.981h.03c.643,4.984,11.37,8.951,24.511,8.951s23.869-3.967,24.512-8.951h.033v-4.981Z" transform="translate(-245.418 -109.592)" fill="#f9951f"/>
          <path id="Trazado_873168" data-name="Trazado 873168" d="M294.5,121.694c0,5.2-10.988,9.425-24.545,9.425s-24.541-4.22-24.541-9.425,10.988-9.426,24.541-9.426S294.5,116.488,294.5,121.694Z" transform="translate(-245.418 -112.268)" fill="#ffb92f"/>
          <path id="Trazado_873169" data-name="Trazado 873169" d="M283.285,120.764c0,3.341-7.048,6.048-15.747,6.048s-15.744-2.707-15.744-6.048,7.048-6.048,15.744-6.048S283.285,117.423,283.285,120.764Z" transform="translate(-242.996 -111.338)" fill="#f9951f"/>
        </g>
        <g id="Grupo_1099022" data-name="Grupo 1099022">
          <path id="Trazado_873170" data-name="Trazado 873170" d="M245.418,113.911v4.98h.03c.643,4.984,11.37,8.951,24.511,8.951s23.869-3.967,24.512-8.951h.033v-4.98Z" transform="translate(-245.418 -104.187)" fill="#f9951f"/>
          <path id="Trazado_873171" data-name="Trazado 873171" d="M294.5,116.293c0,5.2-10.988,9.425-24.545,9.425s-24.541-4.221-24.541-9.425,10.988-9.429,24.541-9.429S294.5,111.084,294.5,116.293Z" transform="translate(-245.418 -106.864)" fill="#ffb92f"/>
          <path id="Trazado_873172" data-name="Trazado 873172" d="M283.285,115.362c0,3.341-7.048,6.047-15.747,6.047s-15.744-2.706-15.744-6.047,7.048-6.049,15.744-6.049S283.285,112.02,283.285,115.362Z" transform="translate(-242.996 -105.934)" fill="#f9951f"/>
        </g>
      </g>
    </g>
  </g>
</svg>
