<svg xmlns="http://www.w3.org/2000/svg" width="89.085" height="84.917" viewBox="0 0 89.085 84.917">
  <g id="Grupo_1178264" data-name="Grupo 1178264" transform="translate(-652.585 -594.015)">
    <path id="Trazado_995240" data-name="Trazado 995240" d="M747.509,629.625v10.92c.469.021.9.058,1.323.058,3.415,0,6.83-.01,10.245.006,4.314.02,6.784,2.509,6.789,6.832q.01,9.1,0,18.2c0,4.589-1.985,6.779-6.538,7.222a4.3,4.3,0,0,0-.521.142c0,1.393.077,2.829-.037,4.25a2.268,2.268,0,0,1-.82,1.634c-.33.183-1.193-.238-1.6-.62-1.616-1.5-3.107-3.141-4.734-4.632a3.1,3.1,0,0,0-1.869-.752c-3.252-.075-6.508-.006-9.761-.044-3.44-.04-5.562-1.707-6.375-5.064-.211-.872-.761-.675-1.273-.676-7.513-.01-15.026.006-22.538-.024a9.181,9.181,0,0,1-2.96-.391,6.116,6.116,0,0,1-4.142-5.909c-.031-4.339-.023-8.678,0-13.017a1.51,1.51,0,0,0-.866-1.6c-1.688-.926-2.15-2.724-1.39-4.723q1.625-4.273,3.263-8.541c.083-.219.159-.44.312-.867-1.713.1-3.288.167-4.861.273-2.2.15-4.4.35-6.608.477a1.4,1.4,0,0,0-1.439.968,3.366,3.366,0,0,1-4.657,2.064c-1.809-.783-2.435-2.585-1.638-4.666q1.719-4.488,3.414-8.97c-3.474-2.351-4.373-4.506-3.039-7.2,1.139-2.3,3.727-3.214,6.627-2.249q1.068-2.767,2.143-5.551c.26-.674.483-1.364.778-2.021a3.408,3.408,0,0,1,4.541-1.751,3.079,3.079,0,0,1,1.772,4.151c-.718,1.686.684,2.12,1.523,3.2.052-.5.107-.794.108-1.084.007-3.053-.015-6.107.011-9.16a6.268,6.268,0,0,1,5.986-6.454c.319-.028.642-.034.963-.034q15.427,0,30.854,0c3.327,0,5.687,1.533,6.6,4.392a12.134,12.134,0,0,1,.33,2.969c.051.916.011,1.836.011,2.874.515.024.938.061,1.36.062,3.817,0,7.633,0,11.45,0,3.114,0,4.658,1.556,4.66,4.677q.005,8.075,0,16.15c0,2.9-1.567,4.468-4.457,4.473q-5.785.011-11.57,0Zm-6-25.3c0-1.118-.053-2.115.015-3.1.071-1.034-.373-1.285-1.343-1.282q-15.125.042-30.25-.006c-1.1,0-1.355.394-1.346,1.4.039,4.66.017,9.32.017,13.98a4.044,4.044,0,0,0,2.7,3.921c2.578,1,5.17,1.973,7.755,2.958a6.934,6.934,0,0,1,4.335,8.371,6.8,6.8,0,0,1-7.953,4.812A41.246,41.246,0,0,1,711,633.957c-.553,1.425-1.186,2.812-1.622,4.258a14.671,14.671,0,0,0-.74,3.84c-.091,4.216,0,8.436-.058,12.653-.016,1.146.309,1.51,1.487,1.5,7.392-.05,14.783-.025,22.175-.028.386,0,.773-.041,1.268-.068,0-.534,0-.969,0-1.4,0-2.692-.039-5.384.02-8.074a5.979,5.979,0,0,1,5.732-5.99c.71-.055,1.424-.07,2.141-.1V629.625c-2.4,0-4.683.006-6.971,0-2.884-.01-4.445-1.581-4.449-4.489q-.01-8.014,0-16.029c0-3.291,1.5-4.781,4.8-4.785C736.973,604.319,739.172,604.321,741.506,604.321Zm5.978,22.871q6.445,0,12.89,0c1.626,0,2.071-.445,2.074-2.083q.012-8.132,0-16.263c0-1.577-.512-2.084-2.1-2.086q-12.89-.011-25.779,0c-1.633,0-2.15.533-2.152,2.177q-.008,8.011,0,16.022c0,1.814.436,2.234,2.3,2.235Q741.1,627.2,747.484,627.192Zm8.568,47.639a3.4,3.4,0,0,0,.241-.456c.021-.761.03-1.522.059-2.282.047-1.243.436-1.623,1.7-1.666.361-.012.723,0,1.084,0,2.854-.028,4.3-1.46,4.308-4.316q.019-9.4,0-18.795c-.006-2.789-1.456-4.259-4.225-4.266q-9.518-.026-19.036,0c-2.844.006-4.215,1.385-4.218,4.208q-.012,9.458,0,18.915c0,2.888,1.374,4.243,4.3,4.252,3.454.011,6.909-.045,10.36.042a3.551,3.551,0,0,1,2.094.862C753.876,672.357,754.872,673.568,756.052,674.831Zm-22.62-16.223h-1.594q-10.971,0-21.941,0c-2.776,0-3.737-.981-3.74-3.8,0-2.612,0-5.224,0-7.836,0-.337-.045-.674-.069-1.012l-.434-.108a5.465,5.465,0,0,0-.5,1.547c-.041,4.179-.025,8.358-.023,12.537,0,3.308,1.379,4.707,4.66,4.71q11.211.008,22.423,0h1.222Zm-33.962-46.721-7.047,18.487c4.2-.294,8.16-.556,12.111-.879.273-.022.619-.453.745-.769,1.007-2.53,1.988-5.07,2.922-7.628a1.34,1.34,0,0,0-.124-1.159C705.239,617.229,702.353,614.568,699.471,611.887Zm7.987,18.042c2.756,1.035,5.312,2.078,7.924,2.95a4.368,4.368,0,0,0,5.549-2.707,4.414,4.414,0,0,0-2.592-5.62c-.774-.326-1.556-.632-2.342-.927-1.777-.668-3.559-1.323-5.386-2Zm-1.715-15.769.413-.116q0-.63,0-1.26c0-3.975-.015-7.95.006-11.925.011-2.108,1.143-3.31,3.132-3.313q15.78-.019,31.56,0a2.882,2.882,0,0,1,3.065,3.006c.042,1,.034,2.008,0,3.011-.023.773.332.865,1,.64,0-1.5.037-2.98-.022-4.454a3.119,3.119,0,0,0-.474-1.339,3.862,3.862,0,0,0-3.625-1.948q-15.78,0-31.56,0a5.547,5.547,0,0,0-.719.062,3.761,3.761,0,0,0-3.386,3.748q-.057,6.2.011,12.407A4.55,4.55,0,0,0,705.743,614.16Zm-6.782-7.847c-.244-.231-.491-.661-.781-.692a1.332,1.332,0,0,0-1.1.425,14.231,14.231,0,0,0-.921,2.212q-4.509,11.785-9.012,23.572c-.266.7-.549,1.459.455,1.788.937.307,1.133-.459,1.379-1.105q4.8-12.576,9.6-25.15C698.694,607.066,698.8,606.765,698.961,606.313Zm7.616,25.891c-1.344,3.545-2.633,6.949-3.927,10.352a1.082,1.082,0,0,0,.6,1.58c.751.3,1.223-.094,1.5-.77.289-.7.565-1.412.835-2.123,1.033-2.719,2.062-5.439,3.118-8.227Zm-15.665-17.071a2.456,2.456,0,0,0-3.649,1.179c-.576,1.407.167,2.776,1.912,3.353Zm54.064,19.906c0-1.519.028-3.039-.024-4.557-.01-.286-.335-.562-.515-.842-.169.29-.48.578-.483.87q-.053,4.617,0,9.235c0,.283.332.563.51.844.171-.291.48-.577.489-.873C745,638.158,744.977,636.6,744.976,635.038Z" transform="translate(-24.199)" fill="#fff3ea"/>
    <path id="Trazado_995241" data-name="Trazado 995241" d="M678.654,641.727a3.472,3.472,0,0,1,.906.879c.587,1.138,1.044,2.342,1.586,3.5a1.214,1.214,0,1,1-2.2,1c-.533-1.166-1.09-2.323-1.586-3.5A1.309,1.309,0,0,1,678.654,641.727Z" transform="translate(-18.705 -36.208)" fill="#fff3ea"/>
    <path id="Trazado_995242" data-name="Trazado 995242" d="M659.6,693.825c.407.366.938.618,1.016.971.092.414-.068,1.176-.363,1.336A31.705,31.705,0,0,1,656,698.042c-.322.117-1.015-.261-1.251-.607a1.29,1.29,0,0,1,.141-1.245C656.377,695.353,657.935,694.642,659.6,693.825Z" transform="translate(-1.567 -75.744)" fill="#fff3ea"/>
    <path id="Trazado_995243" data-name="Trazado 995243" d="M653.6,666.029c1.492.6,2.852,1.07,4.129,1.711a1.4,1.4,0,0,1,.377,1.31c-.143.363-.85.833-1.163.744a24.915,24.915,0,0,1-4-1.536c-.279-.136-.424-.937-.319-1.354C652.707,666.555,653.25,666.32,653.6,666.029Z" transform="translate(0 -54.65)" fill="#fff3ea"/>
    <path id="Trazado_995244" data-name="Trazado 995244" d="M918.073,665.855c0-1.969-.019-3.938.006-5.907.018-1.4.855-1.93,2.055-1.251q5.241,2.963,10.427,6.022c1.149.678,1.14,1.642-.026,2.325q-5.194,3.043-10.442,5.995c-1.192.672-2,.143-2.014-1.277C918.056,669.793,918.073,667.824,918.073,665.855Zm9.643,0-7.158-4.107v8.227Z" transform="translate(-201.47 -48.864)" fill="#fff3ea"/>
    <path id="Trazado_995245" data-name="Trazado 995245" d="M928.531,809.927c.872,0,1.551-.032,2.227.006a3.5,3.5,0,0,1,3.426,3.5c.047,2.691.042,5.383,0,8.074a3.559,3.559,0,0,1-2.943,3.477,7.141,7.141,0,0,1-1.2.1c-4.568.154-9.133-.314-13.707-.025-2.261.143-3.1-.827-3.1-3.124,0-3.053-.009-6.106,0-9.16.008-2.03.827-2.893,2.861-2.846,1.506.034,3.006.265,4.513.352a1.386,1.386,0,0,0,.938-.339,7.358,7.358,0,0,0,2.585-5.128,2.375,2.375,0,0,1,1.977-2.358,2.214,2.214,0,0,1,2.506,1.6,7.581,7.581,0,0,1,.2,4.617C928.74,809.023,928.659,809.367,928.531,809.927Zm-1.715-3.261-.414-.115A10.548,10.548,0,0,1,922,812.643c-.24.152-.324.691-.328,1.052-.027,2.488.041,4.978-.04,7.463-.038,1.153.456,1.492,1.477,1.486,2.368-.014,4.736.009,7.1-.016a4.991,4.991,0,0,0,1.134-.281l-.062-.327c-1.065,0-2.13-.01-3.194,0-.839.01-1.461-.3-1.466-1.2s.6-1.238,1.442-1.232c1,.008,2.008.028,3.009-.022.228-.011.442-.286.663-.439-.209-.131-.414-.366-.629-.375-1-.043-2.006-.022-3.009-.027-.818,0-1.466-.293-1.481-1.207s.631-1.217,1.452-1.222c1-.006,2.008.023,3.009-.028.227-.012.44-.3.659-.454-.212-.124-.42-.347-.638-.356-.961-.041-1.926-.011-2.889-.024-.828-.011-1.588-.209-1.591-1.222s.745-1.2,1.586-1.2c1.052.006,2.1,0,3.156,0l.036-.41a7.655,7.655,0,0,0-1.278-.261c-1.042-.039-2.087.006-3.13-.018-1.549-.036-1.935-.784-1.323-2.2C926.147,809.018,926.44,807.824,926.816,806.667Zm-7.645,5.75h-3.438v10.14h3.438Z" transform="translate(-197.8 -158.157)" fill="#fff3ea"/>
  </g>
</svg>
