<svg xmlns="http://www.w3.org/2000/svg" width="83.711" height="84.256" viewBox="0 0 83.711 84.256">
  <g id="Grupo_1178228" data-name="Grupo 1178228" transform="translate(-653.867 -655.747)">
    <path id="Trazado_995103" data-name="Trazado 995103" d="M667.3,680.474c0-2.572-.009-5.141,0-7.71a16.175,16.175,0,0,1,31.353-5.784,19.046,19.046,0,0,1,.984,5.47c.161,2.675.041,5.366.041,8.227,1.629,0,3.174.028,4.717-.031.225-.009.545-.392.634-.663,3.713-11.308,8.713-17.318,14.982-24.236.432.486.857.967,1.285,1.444a64.379,64.379,0,0,1,10.917,15.793,53.134,53.134,0,0,1,5,29.09,40.388,40.388,0,0,1-12.262,24.6,1.948,1.948,0,0,0-.641,2.026c.422,2.216.736,4.456,1,6.7.327,2.78-1.3,4.535-4.125,4.553-.9.006-1.793.014-2.689,0a3.791,3.791,0,0,1-3.847-4.5q.472-3.471,1.049-6.926a1.792,1.792,0,0,0-.558-1.743c-1.7-1.757-3.3-3.6-5.033-5.52-.136,1.328-.268,2.617-.4,3.9-.051.5-.069,1.013-.16,1.51a3.582,3.582,0,0,0,.9,3.324c2.383,2.611,1.377,6.55-.239,8.629a3.911,3.911,0,0,1-3.344,1.334q-13.093-.03-26.186-.01c-6.547,0-13.1-.127-19.639.046-4.152.11-5.268-1.9-5.871-5.561a5.329,5.329,0,0,1,1.5-4.623,3.166,3.166,0,0,0,.823-2.675q-1.288-13.55-2.538-27.1c-.346-3.683-.766-7.36-1.038-11.049a11.164,11.164,0,0,1,.279-4.027,6.161,6.161,0,0,1,5.955-4.261c2.258-.051,4.518-.036,6.777-.055C667.005,680.645,667.073,680.584,667.3,680.474Zm0,2.894c-2.551,0-4.964-.1-7.364.031a3.781,3.781,0,0,0-3.476,4.207q.319,3.608.662,7.214,1.467,15.528,2.952,31.054c.219,2.248.091,4.276-1.6,6.072-1.3,1.375-.557,3.029.064,4.5.489,1.163,1.617.876,2.562.877q18.471.012,36.942.005c2.884,0,5.768.028,8.651-.026a2.36,2.36,0,0,0,1.554-.564,4.028,4.028,0,0,0,.016-5.159,5.425,5.425,0,0,1-1.422-4.4c.3-3.062.554-6.128.786-9.2a2.761,2.761,0,0,0-.247-1.443c-4.473-8.329-5.712-17.207-4.518-26.492.285-2.218.731-4.416,1.1-6.62h-4.279c0,1.711.009,3.341,0,4.971-.013,2.031-1.052,3.065-3.105,3.086-1.442.015-2.884.007-4.326,0-2.313-.009-3.362-1.051-3.368-3.346,0-1.58,0-3.161,0-4.737H678.291c-.078.086-.126.114-.127.143-.016,1.636-.016,3.272-.043,4.908a2.838,2.838,0,0,1-2.988,3.027c-1.558.03-3.117.017-4.676,0-2.114-.017-3.14-1.048-3.152-3.162C667.3,686.7,667.3,685.074,667.3,683.367Zm56.348,40.816c.481-.5.8-.818,1.1-1.154a38.384,38.384,0,0,0,10.086-25.14,51.926,51.926,0,0,0-6.9-27.279,56.916,56.916,0,0,0-7.862-10.64c-.141.056-.232.064-.278.114a56.527,56.527,0,0,0-9.714,14.351,1.131,1.131,0,0,0,.312,1.514c1.85,1.785,3.663,3.607,5.468,5.438.833.845,1.614,1.74,2.418,2.613l.351-.214V665.879h2.761v13.9l.379.28,3.172-3.667,2.068,1.923c-1.6,1.578-3.143,3.157-4.75,4.673a2.591,2.591,0,0,0-.9,2.129c.061,2.52.021,5.042.021,7.589h-2.775c0-1.348.061-2.628-.029-3.9a2.569,2.569,0,0,0-.633-1.5c-2.332-2.4-4.735-4.736-7.085-7.121-.705-.715-1.318-1.522-2.07-2.4-3.475,8.3-5.291,20.982-1.646,31.44a38.835,38.835,0,0,0,9.209,14.934,61.206,61.206,0,0,1,.946-6.06,4.266,4.266,0,0,0-1.6-4.833c-2.146-1.836-4.053-3.95-6.02-5.9l2.017-2.07,6.478,6.734c.83-4.732.192-9.246.506-13.77h2.733v3.419l6.9-7.116,1.992,1.924c-.232.251-.43.483-.645.7-2.532,2.534-5.086,5.047-7.578,7.619a2.332,2.332,0,0,0-.668,1.592c.354,3.713.786,7.418,1.246,11.12C722.934,719.662,723.3,721.8,723.651,724.183Zm-48.3-35.51v-1.531c0-5.647-.017-11.294.006-16.94a8.142,8.142,0,1,1,16.277-.031c.044,5.724.01,11.449.011,17.174v1.317h5.41v-1.315c0-4.673.012-9.347-.01-14.02a19.657,19.657,0,0,0-.224-2.9,13.523,13.523,0,0,0-26.864,2.179c-.037,5.062-.009,10.125,0,15.188,0,.3.054.59.082.882Zm13.491-18.743h-10.65V680.6h10.65Zm31.294,49.013-.226-.023c-.056.285-.122.569-.165.857-.279,1.846-.552,3.693-.83,5.539-.515,3.423-1.053,6.843-1.536,10.271-.179,1.269.255,1.711,1.534,1.74.778.017,1.559.028,2.336,0,1.1-.045,1.538-.574,1.4-1.655-.095-.732-.234-1.459-.343-2.189Q721.216,726.211,720.135,718.943Zm-31.993-51.775a5.369,5.369,0,0,0-4.793-2.669,5.12,5.12,0,0,0-4.438,2.669Z" fill="#122253"/>
    <path id="Trazado_995104" data-name="Trazado 995104" d="M699.736,874.322l10.594-6.337v12.621l-4.179-2.43c-1.229,1.931-2.533,3.809-3.639,5.8-.506.909.325,1.075,1.065,1.074q5.436,0,10.871,0h1.319v2.763H712.7c-3.078,0-6.157-.006-9.235,0a3.563,3.563,0,0,1-3.4-1.854,3.432,3.432,0,0,1,.3-3.746c1.142-1.757,2.251-3.535,3.443-5.413Zm8.006-1.633-2.756,1.653,2.756,1.566Z" transform="translate(-35.067 -162.611)" fill="#122253"/>
    <path id="Trazado_995105" data-name="Trazado 995105" d="M773.428,900.568l12.39-6.159v4.747c1.694,0,3.28.11,4.84-.041.968-.094.653-.865.306-1.422-1.437-2.313-2.892-4.614-4.337-6.922-.6-.953-1.182-1.912-1.825-2.955l2.154-1.384a5.29,5.29,0,0,1,.524.606c1.946,3.1,3.873,6.2,5.827,9.3a3.452,3.452,0,0,1,.247,3.846,3.566,3.566,0,0,1-3.334,1.766c-1.4-.009-2.791,0-4.3,0v4.824Zm6.069.008,3.666,1.792v-3.612Z" transform="translate(-91.604 -176.743)" fill="#122253"/>
    <path id="Trazado_995106" data-name="Trazado 995106" d="M757.472,825.69c-.531-.8-.968-1.488-1.438-2.154-.815-1.155-1.642-1.146-2.457.054-1.442,2.122-2.857,4.264-4.363,6.517l-2.253-1.439c.636-.968,1.225-1.87,1.82-2.766.926-1.4,1.824-2.81,2.794-4.174a3.847,3.847,0,0,1,6.5,0c.584.816,1.127,1.663,1.731,2.556l4.384-2.573V834.4l-10.617-6.343Zm4.08.72-2.715,1.651,2.715,1.625Z" transform="translate(-71.326 -125.797)" fill="#122253"/>
    <path id="Trazado_995107" data-name="Trazado 995107" d="M777.588,976.207v2.478H752.019v-2.478Z" transform="translate(-75.201 -245.527)" fill="#122253"/>
    <path id="Trazado_995108" data-name="Trazado 995108" d="M693.929,978.593v-2.51h10.706v2.51Z" transform="translate(-30.694 -245.432)" fill="#122253"/>
  </g>
</svg>
