<svg xmlns="http://www.w3.org/2000/svg" width="81.546" height="79.64" viewBox="0 0 81.546 79.64">
  <g id="Grupo_1178230" data-name="Grupo 1178230" transform="translate(-590.419 -620.52)">
    <path id="Trazado_995109" data-name="Trazado 995109" d="M593.756,778.462c-.545.206-1,.391-1.464.55-1.133.386-1.891-.122-1.873-1.334a23.432,23.432,0,0,1,.246-3.4,29.318,29.318,0,0,1,3.508-10.264,14.8,14.8,0,0,1,2.8-3.569,7.535,7.535,0,0,1,.787-.652,1.3,1.3,0,0,1,2.154.725c.964,3.895,3.188,7.084,5.586,10.184.186.24.386.469.56.717a1.325,1.325,0,0,1-.6,2.205c-.341.163-.695.3-1.044.448s-.693.283-1.086.443a13.12,13.12,0,0,0,1.111,3.575,39.73,39.73,0,0,0,17.829,19.82,38.864,38.864,0,0,0,14.841,4.734c.64.07,1.282.128,1.922.2a1.294,1.294,0,0,1,1.292,1.192,1.232,1.232,0,0,1-1.089,1.362,25.632,25.632,0,0,1-2.681.482,38.512,38.512,0,0,1-31.219-9.394,37.664,37.664,0,0,1-11.071-16.529c-.087-.25-.144-.511-.226-.763C593.96,778.984,593.873,778.775,593.756,778.462Zm4.236-15.117c-2.417,2.126-4.832,9.233-4.71,12.383a2.326,2.326,0,0,0,.33-.074c1.484-.567,1.971-.327,2.443,1.135.465,1.441.9,2.9,1.469,4.3a35.7,35.7,0,0,0,16.518,18.282,36.394,36.394,0,0,0,11.817,3.912c.7.112,1.416.153,2.125.226a28.283,28.283,0,0,0-2.929-1.322A42.409,42.409,0,0,1,602.1,779.333a39.216,39.216,0,0,1-1.579-4.859c-.336-1.2-.041-1.649,1.1-2.118.418-.172.829-.359,1.336-.579A37.041,37.041,0,0,1,597.992,763.345Z" transform="translate(0 -107.303)" fill="#122253"/>
    <path id="Trazado_995110" data-name="Trazado 995110" d="M766.4,654.724c-.388-1.168-.685-2.3-1.134-3.374A39.849,39.849,0,0,0,746.9,631.135a37.836,37.836,0,0,0-13.332-4.328c-.978-.122-1.957-.231-2.933-.365-.838-.115-1.254-.5-1.316-1.158-.066-.715.318-1.219,1.18-1.408a35.268,35.268,0,0,1,9.6-.835,41.2,41.2,0,0,1,9.069,1.489,39.229,39.229,0,0,1,13.839,7.171,38.184,38.184,0,0,1,11.609,15.628c.455,1.117.831,2.267,1.272,3.482.49-.176.941-.342,1.4-.5,1.188-.421,1.947.085,1.931,1.359a22.047,22.047,0,0,1-.218,3.061,26.912,26.912,0,0,1-4.653,12.2,16.171,16.171,0,0,1-2.427,2.539,1.281,1.281,0,0,1-2.2-.714c-.886-3.631-2.921-6.632-5.108-9.558-.34-.456-.725-.88-1.049-1.346a1.29,1.29,0,0,1,.555-2.132c.374-.183.767-.326,1.15-.491C765.6,655.08,765.944,654.926,766.4,654.724Zm-24.441-28.866,0,.233c.912.356,1.837.682,2.734,1.072a42.807,42.807,0,0,1,21.68,20.216,32.716,32.716,0,0,1,2.753,7.448c.283,1.205.02,1.643-1.117,2.115a2.945,2.945,0,0,0-1.233.644c.925,1.378,1.869,2.665,2.682,4.03.825,1.386,1.52,2.85,2.273,4.281,2.3-2.3,5.083-9.8,4.578-12.359-.214.087-.421.18-.634.255-1.053.373-1.628.085-1.991-1-.133-.4-.261-.792-.378-1.191a35.243,35.243,0,0,0-9.983-16.152,36.683,36.683,0,0,0-19.912-9.492C742.933,625.887,742.443,625.89,741.959,625.857Z" transform="translate(-107.252 -1.907)" fill="#122253"/>
    <path id="Trazado_995111" data-name="Trazado 995111" d="M714.776,742.874a22.217,22.217,0,0,1-5.619,3.814,18.967,18.967,0,0,1-9.627,1.692c-7.736-.7-13.228-4.654-16.555-11.608a18.386,18.386,0,0,1-1.566-9.991,19.115,19.115,0,0,1,4.694-10.767,7.807,7.807,0,0,0,.508-.737l.581-.643a11.7,11.7,0,0,0,1-.693,19.162,19.162,0,0,1,12.621-4.707,19.485,19.485,0,0,1,18.74,13.286c2.375,7.228.92,13.738-4.026,19.491-.172.2-.331.41-.5.615Zm-13.842,2.969a16.995,16.995,0,1,0-17.012-17.02A17.024,17.024,0,0,0,700.934,745.843Z" transform="translate(-70.171 -68.506)" fill="#122253"/>
    <path id="Trazado_995112" data-name="Trazado 995112" d="M827.679,855.374l.257-.246a14.471,14.471,0,0,1,1.679-.193q11.043-.02,22.087-.008a6.233,6.233,0,0,1,.909.024,1.286,1.286,0,0,1,1.127,1.111,7.023,7.023,0,0,1,.065,1.134q.005,10.815,0,21.631a8.4,8.4,0,0,1-.051,1.136,1.218,1.218,0,0,1-1.275,1.189c-.264.023-.531.011-.8.011H829.594c-.228,0-.456.009-.683-.006a1.316,1.316,0,0,1-1.4-1.439c-.016-.265,0-.531,0-.8q0-10.873.008-21.745C827.511,856.575,827.62,855.974,827.679,855.374ZM851.114,878.5V857.71c-1.782-.218-20.134-.141-20.917.079-.179,2.285-.1,19.8.109,20.707Z" transform="translate(-183.074 -181.005)" fill="#122253"/>
    <path id="Trazado_995113" data-name="Trazado 995113" d="M618.544,646.13l-.581.643-23.21,0c-.3,0-.608.014-.91-.006a1.355,1.355,0,0,1-1.443-1.419c-.017-.226-.006-.455-.006-.682q0-11.038,0-22.076a7.13,7.13,0,0,1,.013-.8,1.282,1.282,0,0,1,1.239-1.244,8.908,8.908,0,0,1,.91-.014c7.32,0,14.641.024,21.961-.018,1.882-.011,2.181.54,2.174,2.18-.034,7.283-.012,14.565-.02,21.848C618.67,645.076,618.588,645.6,618.544,646.13Zm-23.338-22.923c-.232,1-.226,19.844,0,20.813h20.814c.017-.247.04-.43.04-.613q-.02-10.014-.046-20.027c0-.031-.033-.064-.056-.092a.96.96,0,0,0-.088-.081Z" transform="translate(-1.522)" fill="#122253"/>
    <path id="Trazado_995114" data-name="Trazado 995114" d="M722.454,751.937c0,.994,0,1.9,0,2.8a4.228,4.228,0,0,1-.062.9,1.384,1.384,0,0,1-1.254.986,1.284,1.284,0,0,1-1.211-1.018,7.559,7.559,0,0,1-.069-1.246c-.009-.791,0-1.583,0-2.417-.723-.09-1.352-.185-1.984-.245a11.95,11.95,0,0,1-10.379-9.987c-.023-.15-.041-.3-.053-.452-.107-1.323.293-1.791,1.615-1.923a11.923,11.923,0,0,1,10.113,3.644q.2.2.407.392c.022.02.066.016.206.044a6.028,6.028,0,0,0,.011-1.929c-.395-.123-.785-.247-1.177-.365a8.664,8.664,0,1,1,10.818-10.844,8.531,8.531,0,0,1-4.8,10.49c-.654.292-1.359.471-2.11.725v1.971c.239-.2.441-.348.617-.522a12.015,12.015,0,0,1,10.247-3.592c1.164.128,1.622.681,1.49,1.817A11.949,11.949,0,0,1,724.4,751.7C723.8,751.759,723.2,751.846,722.454,751.937Zm-2.972-2.863c-.46-3.5-4.629-7.5-9.194-7.094C711.227,746.238,715.516,749.577,719.482,749.074Zm12.452-7.08c-4.712-.453-8.867,3.918-9.138,7.1C725.836,749.643,731.229,746.746,731.933,741.994Zm-8.8-9.972c.127.1.271.218.426.322a2.845,2.845,0,0,1-.483,4.991c-.649.287-.764.809-1.072,1.34,2.888-.1,5.277-2.938,5.207-6.027-.064-2.828-2.532-5.7-5.316-5.671a5.576,5.576,0,0,0,.622,1.051c.274.3.725.434.993.735a7.611,7.611,0,0,1,1.025,1.466,1.02,1.02,0,0,1-.349,1.317A4.769,4.769,0,0,1,723.13,732.022Zm-2.665-5.107a5.861,5.861,0,0,0-5.337,6.006,5.772,5.772,0,0,0,5.407,5.856,5.846,5.846,0,0,0-2.156-2.087.908.908,0,0,1-.151-.169c-1.161-1.334-1-2.311.554-3.176-.173-.2-.359-.393-.51-.607a2.78,2.78,0,0,1,.617-4.018A6.129,6.129,0,0,0,720.465,726.916Zm-.643,6.951c.567,1.38,1.362,1.614,2.341.795C721.545,734.056,720.722,734.115,719.822,733.867Zm.538-2.842a2.278,2.278,0,0,0,1.913.544C721.687,730.381,721.313,730.259,720.361,731.025Z" transform="translate(-90.349 -80.051)" fill="#122253"/>
    <path id="Trazado_995115" data-name="Trazado 995115" d="M844.012,880.9a9.394,9.394,0,1,1,9.409,9.369A9.366,9.366,0,0,1,844.012,880.9Zm9.362,6.734a6.694,6.694,0,0,0,6.759-6.682,6.751,6.751,0,1,0-6.759,6.682Z" transform="translate(-195.825 -193.848)" fill="#122253"/>
    <path id="Trazado_995116" data-name="Trazado 995116" d="M618.794,656h-6.945c-.266,0-.532,0-.8-.012a1.347,1.347,0,0,1-1.105-2.127c.771-1.124,1.433-2.323,2.145-3.487q2.641-4.318,5.286-8.633c1.041-1.7,1.969-1.71,3-.03q3.568,5.817,7.134,11.636a6.014,6.014,0,0,1,.4.687,1.288,1.288,0,0,1-1.035,1.94,5.729,5.729,0,0,1-.909.027Q622.38,656,618.794,656Zm5.6-2.709c-1.878-3.038-3.608-5.975-5.519-8.948l-5.468,8.948Z" transform="translate(-14.882 -15.396)" fill="#122253"/>
  </g>
</svg>
