<svg xmlns="http://www.w3.org/2000/svg" width="89.435" height="60.983" viewBox="0 0 89.435 60.983">
  <g id="Grupo_1178232" data-name="Grupo 1178232" transform="translate(-679.269 -670.244)">
    <path id="Trazado_995117" data-name="Trazado 995117" d="M682.828,706.847h23.717c0-2.234.023-4.432-.04-6.627-.006-.195-.55-.491-.875-.542A17.46,17.46,0,0,1,691,685.12a15.739,15.739,0,0,1-.151-2.527c.011-1.286.626-1.853,2.007-1.818a17.078,17.078,0,0,1,14.444,8.066c.309.46.58.946.951,1.554.345-.552.623-1.019.923-1.472a17.094,17.094,0,0,1,14.4-8.146c1.566-.052,2.11.525,2.115,2.082A17.311,17.311,0,0,1,711.1,699.608c-.965.135-1.173.478-1.147,1.357.057,1.923.018,3.848.018,5.847h23.711c.023-.457.064-.884.064-1.312q.005-14.616,0-29.232c0-2.05-.427-2.467-2.49-2.468q-7.128,0-14.257,0c-.439,0-1.013.1-1.289-.129a3.4,3.4,0,0,1-1.293-1.674c-.147-.847.53-1.472,1.413-1.68a4.232,4.232,0,0,1,.961-.062c4.913,0,9.827-.014,14.74,0a5.341,5.341,0,0,1,5.739,5.732c.01,3.255,0,6.511,0,9.931h1.353c5.276,0,10.552.012,15.828-.006a6.075,6.075,0,0,1,4.558,1.843q3.91,3.948,7.866,7.848a5.879,5.879,0,0,1,1.824,4.432c-.021,6.764,0,13.529-.011,20.293a5.273,5.273,0,0,1-5.632,5.679c-1.41.008-2.822-.043-4.227.032a1.4,1.4,0,0,0-1.034.652,6.8,6.8,0,0,1-6.535,4.524,6.731,6.731,0,0,1-6.558-4.468c-.094-.22-.192-.438-.323-.739H743.33c-9.062,0-18.123.01-27.185-.018a1.322,1.322,0,0,0-1.475.98,6.941,6.941,0,0,1-10.981,2.542c-.211-.178-.415-.365-.618-.545-4.762,4.359-10.59,1.892-12.12-2.96-1.932,0-3.9,0-5.868,0-3.661-.008-5.809-2.122-5.81-5.741q-.007-22.106,0-44.211c0-3.63,2.147-5.792,5.771-5.8,4.873-.013,9.746,0,14.62,0a5.057,5.057,0,0,1,.844.027,1.75,1.75,0,0,1,.048,3.489,5.622,5.622,0,0,1-1.084.034q-7.249,0-14.5,0c-1.643,0-2.217.537-2.219,2.151q-.017,15.039,0,30.078C682.751,706.266,682.794,706.5,682.828,706.847Zm54.529-17.321V722.55c2.084,0,4.089-.03,6.093.016a1.213,1.213,0,0,0,1.325-.892,6.612,6.612,0,0,1,6.493-4.338,6.767,6.767,0,0,1,6.524,4.51,1.2,1.2,0,0,0,.8.67c1.648.057,3.3.062,4.948-.006a1.561,1.561,0,0,0,1.616-1.505c.082-1.757.024-3.52.024-5.41H763.43c-2.584,0-3.447-.456-3.428-1.809.019-1.31.862-1.747,3.366-1.747h1.777v-6.923H763.77q-5.916,0-11.833,0c-1.951,0-2.444-.491-2.448-2.425-.008-3.944,0-7.887,0-11.831v-1.333Zm-3.708,33.025V710.37H682.776c0,3.563-.042,7.057.025,10.549.021,1.09.843,1.6,1.9,1.62,1.61.026,3.225-.054,4.831.034a1.708,1.708,0,0,0,1.965-1.234,6.606,6.606,0,0,1,7.645-3.828,26.527,26.527,0,0,1,4.159,1.851c-.143.087-.025.043.057-.038a7.031,7.031,0,0,1,11.514,2.587,1.514,1.514,0,0,0,1.187.612c4.711.043,9.422.027,14.133.027Zm31.448-21c.314-2.3.232-2.551-1.278-4.058-2.223-2.218-4.521-4.365-6.639-6.679a4.016,4.016,0,0,0-4.128-1.234v11.971Zm-43.151-17.016c-5.811.165-11.581,6.415-11.618,11.636C716.146,695.607,721.789,689.955,721.946,684.533Zm-27.422,0c.694,6.441,6.807,11.446,11.759,11.566C705.634,689.432,699.19,684.575,694.524,684.53Zm3.318,43.177a3.406,3.406,0,0,0,3.418-3.449,3.524,3.524,0,0,0-3.543-3.495,3.616,3.616,0,0,0-3.453,3.5A3.492,3.492,0,0,0,697.841,727.707Zm56.841-3.467a3.479,3.479,0,0,0-3.418-3.477,3.625,3.625,0,0,0-3.557,3.516,3.5,3.5,0,0,0,3.6,3.427A3.364,3.364,0,0,0,754.682,724.24Zm-42.96.174a3.469,3.469,0,1,0-6.93-.306,3.468,3.468,0,0,0,6.93.306Z" transform="translate(0 0)" fill="#122253"/>
    <path id="Trazado_995118" data-name="Trazado 995118" d="M795.66,672.078a1.7,1.7,0,1,1-3.4.058,1.7,1.7,0,1,1,3.4-.058Z" transform="translate(-85.695 -0.085)" fill="#122253"/>
  </g>
</svg>
