<svg xmlns="http://www.w3.org/2000/svg" width="99.037" height="88.912" viewBox="0 0 99.037 88.912">
  <g id="Grupo_1178253" data-name="Grupo 1178253" transform="translate(-634.018 -558.765)">
    <path id="Trazado_995192" data-name="Trazado 995192" d="M721.557,590.591c.863-1.174,1.747-2.387,2.644-3.59,1.8-2.417,4.677-2.962,6.9-1.316a4.722,4.722,0,0,1,.859,6.871q-4.8,6.68-9.662,13.311a4.711,4.711,0,0,1-6.834,1.141c-4.533-3.233-9.063-6.472-13.532-9.792a4.693,4.693,0,0,1,.55-8.151,4.62,4.62,0,0,1,4.939.373c1.383.949,2.732,1.947,4.1,2.924l.329-.214c-.763-1.724-1.391-3.524-2.31-5.16-6.152-10.944-15.393-17.357-27.989-18.453a34.8,34.8,0,0,0-17.2,66.493c15.853,6.837,33.194,1.908,43.214-12.283,1.973-2.795,5.515-3.173,7.671-.819a4.625,4.625,0,0,1,.4,5.915,44.42,44.42,0,0,1-20.963,16.767,42.042,42.042,0,0,1-22.328,2.538c-16.806-2.725-28.905-11.953-35.142-27.816-8.342-21.219.177-43.942,20.046-55.107,21.353-12,49.624-3.479,60.786,18.363C719.343,585.147,720.362,587.856,721.557,590.591Zm-80.992,12.6a36.783,36.783,0,0,1,3.967-16.881c8.258-16.218,25.94-24.46,43.609-19.765,14.9,3.96,24.04,13.933,27.721,28.894.2.832.37,1.875-.623,2.2a2.822,2.822,0,0,1-2.148-.38c-2.406-1.611-4.715-3.364-7.072-5.048-1.2-.858-2.147-.786-2.788.158-.594.875-.332,1.758.814,2.588q6.442,4.664,12.9,9.308c1.33.955,2.1.844,3.052-.46q4.683-6.427,9.332-12.879c.81-1.122.79-2.092-.014-2.716-.873-.677-1.873-.427-2.715.722-1.475,2.012-2.886,4.075-4.425,6.036a2.271,2.271,0,0,1-1.723.874c-.51-.09-1.08-.84-1.292-1.422-.531-1.459-.8-3.013-1.3-4.482a41.389,41.389,0,0,0-48.576-27c-21.963,4.93-36.211,26.947-31.126,48.968,3.968,17.187,15.016,28.13,32.258,31.7,16.079,3.33,29.67-2,40.412-14.438a25.859,25.859,0,0,0,2.211-3.016,1.614,1.614,0,0,0-.372-2.369,1.562,1.562,0,0,0-2.334.419c-.2.237-.375.5-.555.754a38.065,38.065,0,0,1-69.209-21.771Z" fill="#122253"/>
    <path id="Trazado_995193" data-name="Trazado 995193" d="M719.031,658.885a24.661,24.661,0,0,1-2.49-.013,2.33,2.33,0,0,1-1.868-3.7c1.065-1.749,2.239-3.432,3.344-5.158a2.779,2.779,0,0,1,2.618-1.262c4.815.027,9.631.012,14.446.011h1.64c-1.543-1.757-2.9-3.3-4.259-4.847-1.618-1.838-3.346-3.6-4.026-6.062a11.174,11.174,0,0,1,2-10.579c1.458-1.8,3.022-3.514,4.58-5.229a2.989,2.989,0,0,1,4.675-.025c1.476,1.608,2.913,3.254,4.328,4.917a11.353,11.353,0,0,1-.052,15.043c-1.89,2.188-3.817,4.344-5.963,6.782h1.49c4.771,0,9.542.046,14.312-.026a3.371,3.371,0,0,1,3.279,1.808c.861,1.456,1.831,2.847,2.772,4.255a2.515,2.515,0,0,1,.309,2.869,2.628,2.628,0,0,1-2.5,1.245c-.576,0-1.153,0-1.888,0-.024.546-.062,1.012-.062,1.479,0,4.191,0,8.382,0,12.573,0,2.4-1.1,3.527-3.494,3.53q-14.847.019-29.695,0c-2.441,0-3.491-1.08-3.5-3.514q-.011-6.22,0-12.439Zm16.686,14.508V655.752a11.509,11.509,0,0,0-.845,1.2,3.5,3.5,0,0,1-3.728,1.984c-1.418-.09-2.846-.018-4.27-.018h-4.658v14.477Zm16.773-.006V658.916c-2.87,0-5.666-.094-8.452.032-1.986.09-3.5-.4-4.361-2.3a4.779,4.779,0,0,0-.7-.828v17.568ZM735.756,630.98c.027-.5.076-.887.064-1.27-.034-1.072.32-1.866,1.5-1.971.994-.089,1.566.662,1.578,2.007.015,1.592,0,3.184,0,4.934.329-.167.521-.353.693-.336.69.066,1.553-.026,2.018.352.734.6.424,1.445-.176,2.115a9.391,9.391,0,0,1-1.16,1.287c-1.589,1.211-1.515,2.835-1.252,4.834,1.1-1.263,2.092-2.318,2.99-3.448a8.244,8.244,0,0,0,.274-9.727c-1.484-1.982-3.219-3.777-4.912-5.737-1.692,1.942-3.335,3.754-4.881,5.646a6.069,6.069,0,0,0-1.054,2.137c-1.306,4.565.483,7.446,4.375,10.956-.233-3.354,1.109-6.838-2.2-9.313a1.661,1.661,0,0,1-.681-.953,2.242,2.242,0,0,1,.269-1.572,2.448,2.448,0,0,1,1.543-.453C735.029,630.448,735.34,630.757,735.756,630.98Zm-1.242,20.842c-4.7,0-9.055,0-13.414.011a.966.966,0,0,0-.7.254c-.8,1.145-1.562,2.323-2.47,3.7,4.692,0,9.054.009,13.416-.02a1.232,1.232,0,0,0,.862-.459C732.951,654.262,733.63,653.173,734.514,651.823Zm22.273,3.961c-.747-1.152-1.373-2.012-1.883-2.937a1.878,1.878,0,0,0-1.922-1.049c-3.789.055-7.58.02-11.37.027-.371,0-.743.056-1.319.1.818,1.245,1.5,2.333,2.241,3.374a1.235,1.235,0,0,0,.86.463C747.756,655.792,752.12,655.783,756.787,655.783Z" transform="translate(-58.763 -45.519)" fill="#122253"/>
  </g>
</svg>
