<svg xmlns="http://www.w3.org/2000/svg" width="90.817" height="92.446" viewBox="0 0 90.817 92.446">
  <g id="Grupo_1178255" data-name="Grupo 1178255" transform="translate(-675.616 -579.339)">
    <path id="Trazado_995194" data-name="Trazado 995194" d="M791.291,725.9c-1.681-.267-1.945-1.448-1.929-2.941.044-4.034.987-5.008,5.056-5.014,1.242,0,2.485,0,3.642,0,.13-.2.218-.276.214-.345-.16-3.13,1.35-3.918,4.155-3.782,2.109.1,4.227.016,6.341.022,2.692.007,3.461.743,3.572,3.4.007.167.04.332.087.705,1.328,0,2.648-.044,3.963.015a11.023,11.023,0,0,1,2.663.372,2.906,2.906,0,0,1,2.221,3.1,13.23,13.23,0,0,1-.066,2.577,2.494,2.494,0,0,1-1.085,1.567,1.359,1.359,0,0,0-.886,1.329q-.963,10.627-1.982,21.248a3.67,3.67,0,0,1-3.92,3.605q-8.024.026-16.048,0a3.671,3.671,0,0,1-3.892-3.633C792.7,740.744,792,733.363,791.291,725.9Zm3.1-.009c0,.314-.02.564,0,.81.628,6.946,1.28,13.891,1.874,20.84.094,1.1.692,1.2,1.557,1.2,5-.016,9.995-.039,14.992.015,1.211.013,1.516-.467,1.6-1.589.247-3.478.612-6.947.929-10.42.328-3.59.653-7.18.987-10.851Zm-1.949-3.194h25.745c.19-1.651.143-1.729-1.355-1.73q-11.492-.012-22.984,0C792.324,720.966,792.3,721.017,792.443,722.7Zm16.971-5.479-.249-.355h-7.673l-.25.353c.31.242.613.684.93.693q3.153.093,6.311,0C808.8,717.9,809.1,717.457,809.415,717.216Z" transform="translate(-84.303 -99.658)" fill="#122253"/>
    <path id="Trazado_995195" data-name="Trazado 995195" d="M804.282,611.764a16.213,16.213,0,1,1,16.358-16.075A16.254,16.254,0,0,1,804.282,611.764Zm13.3-16.265a13.263,13.263,0,1,0-13.146,13.336A13.3,13.3,0,0,0,817.585,595.5Z" transform="translate(-83.297)" fill="#122253"/>
    <path id="Trazado_995196" data-name="Trazado 995196" d="M900.556,789.551a16.3,16.3,0,1,1,16.06,16.428A16.282,16.282,0,0,1,900.556,789.551Zm16.313,13.384a13.248,13.248,0,1,0-13.323-13.287A13.259,13.259,0,0,0,916.869,802.935Z" transform="translate(-166.713 -143.856)" fill="#122253"/>
    <path id="Trazado_995197" data-name="Trazado 995197" d="M708.209,789.679a16.3,16.3,0,1,1-16.338-16.241A16.376,16.376,0,0,1,708.209,789.679Zm-16.151-13.235a13.249,13.249,0,1,0,13.157,13.582A13.272,13.272,0,0,0,692.058,776.444Z" transform="translate(0 -143.857)" fill="#122253"/>
    <path id="Trazado_995198" data-name="Trazado 995198" d="M685.813,664.516c1.376-13.85,7.645-24.814,19.236-32.648.889-.6,1.752-.876,2.469.145.755,1.073.056,1.757-.8,2.322A39.769,39.769,0,0,0,692.157,651.4a40.6,40.6,0,0,0-3.413,13.711c-.123,1.547-.662,2.263-1.615,2.182-.97-.083-1.406-.861-1.336-2.385C685.8,664.774,685.806,664.645,685.813,664.516Z" transform="translate(-7.537 -38.535)" fill="#122253"/>
    <path id="Trazado_995199" data-name="Trazado 995199" d="M953.128,664.689c.011.215.013.431.034.645.1,1.055-.288,1.878-1.385,1.941-1.114.064-1.5-.74-1.577-1.785q-1.537-19.885-18-31.156c-1.149-.785-1.4-1.523-.776-2.326.765-.992,1.6-.7,2.483-.111a42.242,42.242,0,0,1,18.06,25.537c.6,2.369.9,4.813,1.34,7.222Z" transform="translate(-189.346 -38.554)" fill="#122253"/>
    <path id="Trazado_995200" data-name="Trazado 995200" d="M792.6,914.906a43.008,43.008,0,0,1-19.226-4.24c-1.658-.782-2.169-1.569-1.681-2.536.464-.92,1.278-.948,2.938-.18,11.832,5.473,23.633,5.426,35.393-.233,1.173-.565,2.1-.445,2.469.415.48,1.122-.126,1.736-1.082,2.247A42.445,42.445,0,0,1,792.6,914.906Z" transform="translate(-71.077 -243.122)" fill="#122253"/>
    <path id="Trazado_995201" data-name="Trazado 995201" d="M836.482,600.239c-.421-.735-.8-1.415-1.195-2.079-.96-1.6-2.3-1.579-3.26.05-.5.852-.995,1.712-1.484,2.573s-1.229,1.3-2.149.813c-.936-.5-.966-1.359-.478-2.226.633-1.126,1.234-2.278,1.966-3.338a4.59,4.59,0,0,1,7.578-.014,14.025,14.025,0,0,1,.927,1.552c.353.662.671,1.13,1.632.985.877-.132,1.435.558,1.41,1.469a19.571,19.571,0,0,1-.287,2.955,1.494,1.494,0,0,1-2.059,1.166c-.657-.2-1.3-.456-1.941-.706C835.252,602.7,835.055,601.826,836.482,600.239Z" transform="translate(-112.647 -10.885)" fill="#122253"/>
    <path id="Trazado_995202" data-name="Trazado 995202" d="M811.291,629.429c-.454.771-.886,1.463-1.276,2.179-.779,1.432-.157,2.6,1.475,2.7,1.072.067,2.152.023,3.229.02.975,0,1.768.316,1.784,1.41.017,1.136-.733,1.549-1.8,1.532-1.162-.019-2.326.022-3.487-.014a4.592,4.592,0,0,1-4.064-6.643,14.177,14.177,0,0,1,.9-1.567,1.3,1.3,0,0,0,.018-1.807c-.64-.791-.2-1.577.624-2.023a18.3,18.3,0,0,1,2.587-1.157,1.38,1.38,0,0,1,2,1.019,18.322,18.322,0,0,1,.448,2.145C814.024,629.235,813.333,629.882,811.291,629.429Z" transform="translate(-97.137 -33.049)" fill="#122253"/>
    <path id="Trazado_995203" data-name="Trazado 995203" d="M851.608,641.315c.906,0,1.724.038,2.537-.008,1.713-.1,2.36-1.255,1.541-2.741-.5-.9-1.047-1.778-1.553-2.677-.473-.839-.574-1.706.354-2.26.956-.572,1.716-.177,2.242.763.567,1.013,1.2,1.99,1.735,3.018a4.592,4.592,0,0,1-3.989,6.843c-.516.016-1.034.03-1.549,0-.723-.041-1.241.025-1.592.875-.375.909-1.283.964-2.086.478a16.158,16.158,0,0,1-2.3-1.654,1.431,1.431,0,0,1-.089-2.265,18.865,18.865,0,0,1,1.666-1.426C850.059,638.995,850.993,639.289,851.608,641.315Z" transform="translate(-126.536 -40.04)" fill="#122253"/>
    <path id="Trazado_995204" data-name="Trazado 995204" d="M949.616,812.162c0-2.436,0-5.273,0-8.11,0-.431,0-.862,0-1.293.011-.946.4-1.625,1.418-1.642,1.061-.017,1.545.616,1.545,1.65q0,4.2,0,8.406v1.375a6.559,6.559,0,0,1,1.62-.193,1.429,1.429,0,0,1,.851,2.319c-.831,1.308-1.7,2.6-2.612,3.849-.843,1.158-1.873,1.13-2.732-.049-.735-1.009-1.424-2.052-2.115-3.093-.489-.737-1.327-1.569-.464-2.385C947.661,812.5,948.628,812.469,949.616,812.162Z" transform="translate(-200.961 -164.372)" fill="#122253"/>
    <path id="Trazado_995205" data-name="Trazado 995205" d="M695.26,813.325c-.694-.761-1.445-1.231-1.625-1.863-.3-1.036.639-1.454,1.462-1.8.913-.38,1.811-.8,2.735-1.151,1.386-.529,2.148-.1,2.421,1.325.186.972.339,1.95.5,2.925q.508,3.03-2.458,2.108c-.8,3.378,2.136,7.305,5.847,7.67a10.686,10.686,0,0,0,3.43-.313c.993-.235,1.727-.146,2.142.809.4.925-.115,1.7-1.31,2.11a10.1,10.1,0,0,1-13.111-7.8A22.82,22.82,0,0,1,695.26,813.325Z" transform="translate(-13.314 -169.692)" fill="#122253"/>
    <path id="Trazado_995206" data-name="Trazado 995206" d="M732.5,807.9a7.089,7.089,0,0,0-8.907-7.581c-.251.057-.494.15-.745.211-.92.223-1.674,0-1.931-.977a1.447,1.447,0,0,1,1.132-1.871,9.862,9.862,0,0,1,10.589,2.437c2.663,2.622,3.4,5.887,2.664,9.58a2.15,2.15,0,0,1,.675.321c.412.442,1.067.932,1.068,1.4A2.116,2.116,0,0,1,736,812.856a22.8,22.8,0,0,1-3.181,1.4c-1.329.517-2.075.113-2.357-1.255-.207-1.01-.393-2.027-.531-3.049C729.652,807.881,730.412,807.258,732.5,807.9Z" transform="translate(-33.523 -161.384)" fill="#122253"/>
  </g>
</svg>
