<svg xmlns="http://www.w3.org/2000/svg" width="82.21" height="73.025" viewBox="0 0 82.21 73.025">
  <g id="Grupo_1178257" data-name="Grupo 1178257" transform="translate(-607.75 -568.064)">
    <path id="Trazado_995207" data-name="Trazado 995207" d="M626.134,687.881c-2.877-3.12-3-3.366-3.645-7.51h-3.227c-1.1,0-2.2.034-3.291-.012a2.48,2.48,0,0,1-2.487-2.435c-.029-.377-.026-.756-.026-1.135q0-20.552,0-41.1c0-.378-.006-.759.032-1.134a2.557,2.557,0,0,1,2.345-2.364,8.047,8.047,0,0,1,.907-.032q20.035,0,40.07,0c.265,0,.531,0,.794.016a2.612,2.612,0,0,1,2.546,2.662c.035,1.551.008,3.1.014,4.655,0,.368.031.736.053,1.223h1.423c5.411,0,10.822.034,16.232-.021a3.685,3.685,0,0,1,3.463,1.876c3.3,5.159,6.668,10.278,10.018,15.406a5.116,5.116,0,0,1,.9,2.875c-.01,5.526.01,11.052-.011,16.578a2.732,2.732,0,0,1-2.989,2.942c-2,.019-4,0-6.1,0a9.367,9.367,0,0,1-3.56,7.421c.488.042.762.085,1.037.086,1.476.008,2.951,0,4.427.009.573,0,.952.274.953.881,0,.586-.4.759-.914.772-.3.008-.605.007-.908.007H619.943c-.34,0-.681,0-1.021-.013-.482-.017-.8-.233-.807-.752a.793.793,0,0,1,.817-.888c.3-.024.6-.013.907-.013Zm32.287-20.564c.033-.3.07-.488.07-.672q0-15.671,0-31.341c0-1.2-.311-1.478-1.6-1.478q-20.093,0-40.185,0c-1.364,0-1.549.194-1.549,1.6q0,15.443,0,30.887c0,.324.051.647.08,1ZM683,678.845c1.84,0,3.725,0,5.611,0s2.035-.156,2.035-1.985c0-5.111-.016-10.222.013-15.332a5.273,5.273,0,0,0-.932-3.078q-4.963-7.464-9.841-14.984a2.017,2.017,0,0,0-1.922-1.065c-5.563.038-11.127.018-16.69.022-.33,0-.661.038-1.113.066v24.449c0,.3.007.606,0,.908-.034.994-.2,1.149-1.226,1.179-.3.009-.606,0-.908,0h-42.87c0,3.041-.01,5.947.008,8.853a.926.926,0,0,0,1.049.953c2.19.013,4.381.005,6.562.005,1.467-4.262,4.3-6.815,8.806-6.817s7.34,2.54,8.728,6.76h25.171c1.866-4.656,4.845-6.878,9.063-6.806C678.415,672.039,681.4,674.437,683,678.845Zm-14.044,9.219a9.287,9.287,0,0,1-3.819-7.4H640.391a9.114,9.114,0,0,1-3.547,7.4Zm-44.7-7.153a7.253,7.253,0,0,0,14.505.032,7.253,7.253,0,1,0-14.505-.032Zm57.188-.1a7.343,7.343,0,0,0-7.307-7.161,7.217,7.217,0,0,0,.1,14.433A7.328,7.328,0,0,0,681.448,680.808Z" transform="translate(-4.021 -49.151)" fill="#122253" stroke="#122253" stroke-width="1"/>
    <path id="Trazado_995208" data-name="Trazado 995208" d="M941.949,880.228c-.718,0-1.435.007-2.152,0a.737.737,0,0,1-.815-.857.708.708,0,0,1,.81-.741q2.209-.008,4.418,0c.526,0,.886.243.889.8s-.356.8-.885.8c-.755.005-1.51,0-2.265,0Z" transform="translate(-255.639 -239.662)" fill="#122253" stroke="#122253" stroke-width="1"/>
    <path id="Trazado_995209" data-name="Trazado 995209" d="M610.333,878.556a5.124,5.124,0,0,1,1.353.03c.29.082.723.484.694.685-.046.315-.4.8-.672.828a12.93,12.93,0,0,1-2.827-.007c-.255-.029-.591-.546-.627-.868-.022-.2.43-.567.725-.645a5.455,5.455,0,0,1,1.354-.029Z" transform="translate(0 -239.584)" fill="#122253" stroke="#122253" stroke-width="1"/>
    <path id="Trazado_995210" data-name="Trazado 995210" d="M943.068,573.054c-.655-.033-1.067-.692-.662-1.179a7.438,7.438,0,0,1,1.585-1.414.786.786,0,0,1,1.162.747A3.522,3.522,0,0,1,943.068,573.054Z" transform="translate(-258.162 -1.377)" fill="#122253" stroke="#122253" stroke-width="1"/>
    <path id="Trazado_995211" data-name="Trazado 995211" d="M843.732,638.927a1.042,1.042,0,0,1-.178.426,7.344,7.344,0,0,1-1.449,1.236,1.242,1.242,0,0,1-1.078-.237c-.382-.313-.24-.741.142-1.055a15.182,15.182,0,0,1,1.3-1.075A.827.827,0,0,1,843.732,638.927Z" transform="translate(-179.75 -53.741)" fill="#122253" stroke="#122253" stroke-width="1"/>
    <path id="Trazado_995212" data-name="Trazado 995212" d="M862.372,623.016a1.058,1.058,0,0,1-.178.43,7.476,7.476,0,0,1-1.438,1.232,1.129,1.129,0,0,1-1.071-.175,1.1,1.1,0,0,1,.1-1.042,5.49,5.49,0,0,1,1.348-1.168A.821.821,0,0,1,862.372,623.016Z" transform="translate(-194.274 -41.432)" fill="#122253" stroke="#122253" stroke-width="1"/>
    <path id="Trazado_995213" data-name="Trazado 995213" d="M632.5,589.409c.393.305.715.436.812.663a.941.941,0,0,1-.063.829,8.689,8.689,0,0,1-1.526,1.306.863.863,0,0,1-.789-.122c-.191-.156-.391-.642-.3-.744C631.188,590.681,631.825,590.086,632.5,589.409Z" transform="translate(-17.278 -16.112)" fill="#122253" stroke="#122253" stroke-width="1"/>
    <path id="Trazado_995214" data-name="Trazado 995214" d="M859.232,638.735a1.484,1.484,0,0,1,.506.26,6.622,6.622,0,0,1,1.124,1.4,1.275,1.275,0,0,1-.145,1.088c-.093.137-.745.087-.966-.094a6.475,6.475,0,0,1-1.268-1.43A.8.8,0,0,1,859.232,638.735Z" transform="translate(-193.313 -54.239)" fill="#122253" stroke="#122253" stroke-width="1"/>
    <path id="Trazado_995215" data-name="Trazado 995215" d="M926.545,568.565a3.713,3.713,0,0,1,1.9,2.081c-.021.561-.677,1.01-1.125.665a6.531,6.531,0,0,1-1.5-1.637A.776.776,0,0,1,926.545,568.565Z" transform="translate(-245.393)" fill="#122253" stroke="#122253" stroke-width="1"/>
    <path id="Trazado_995216" data-name="Trazado 995216" d="M927.3,587.181c0,.551-1.532,1.948-2.083,1.839a1.089,1.089,0,0,1-.7-.478.877.877,0,0,1,.107-.793,7.618,7.618,0,0,1,1.357-1.19A.814.814,0,0,1,927.3,587.181Z" transform="translate(-244.417 -13.78)" fill="#122253" stroke="#122253" stroke-width="1"/>
    <path id="Trazado_995217" data-name="Trazado 995217" d="M651.743,575.647a3.3,3.3,0,0,1-2.122,1.827.729.729,0,0,1-.584-1.213,7.2,7.2,0,0,1,1.514-1.348A.807.807,0,0,1,651.743,575.647Z" transform="translate(-31.374 -4.819)" fill="#122253" stroke="#122253" stroke-width="1"/>
    <path id="Trazado_995218" data-name="Trazado 995218" d="M633.526,572.623a1.434,1.434,0,0,1,.506.268,7.458,7.458,0,0,1,1.078,1.444c.13.256.052.881-.119.967a1.21,1.21,0,0,1-1.066-.077,5.354,5.354,0,0,1-1.106-1.275A.83.83,0,0,1,633.526,572.623Z" transform="translate(-18.86 -3.137)" fill="#122253" stroke="#122253" stroke-width="1"/>
    <path id="Trazado_995219" data-name="Trazado 995219" d="M743.3,593.319c.779.169,1.247.884.859,1.357a5.871,5.871,0,0,1-1.6,1.38c-.594.335-1.418-.365-1.084-.89A11.52,11.52,0,0,1,743.3,593.319Z" transform="translate(-102.915 -19.134)" fill="#122253" stroke="#122253" stroke-width="1"/>
    <path id="Trazado_995220" data-name="Trazado 995220" d="M649.944,594.218a4.032,4.032,0,0,1-1.922-2.07c.017-.483.681-.974,1.05-.677a7.947,7.947,0,0,1,1.642,1.8C650.995,593.7,650.486,594.249,649.944,594.218Z" transform="translate(-30.739 -17.636)" fill="#122253" stroke="#122253" stroke-width="1"/>
    <path id="Trazado_995221" data-name="Trazado 995221" d="M762.736,579c0,.576-1.587,1.936-2.176,1.869a.743.743,0,0,1-.547-1.236,7.236,7.236,0,0,1,1.512-1.323A.813.813,0,0,1,762.736,579Z" transform="translate(-117.154 -7.446)" fill="#122253" stroke="#122253" stroke-width="1"/>
    <path id="Trazado_995222" data-name="Trazado 995222" d="M843.215,620.426a3.269,3.269,0,0,1,1.847,2.062c-.029.536-.588.971-1.019.651a6.673,6.673,0,0,1-1.614-1.778C842.163,620.938,842.686,620.4,843.215,620.426Z" transform="translate(-180.953 -40.086)" fill="#122253" stroke="#122253" stroke-width="1"/>
    <path id="Trazado_995223" data-name="Trazado 995223" d="M759.713,595.257c.6.01,1.979,1.576,1.9,2.147a.747.747,0,0,1-1.274.466,6.805,6.805,0,0,1-1.248-1.433A.723.723,0,0,1,759.713,595.257Z" transform="translate(-116.468 -20.632)" fill="#122253" stroke="#122253" stroke-width="1"/>
    <path id="Trazado_995224" data-name="Trazado 995224" d="M944.378,589.506a.75.75,0,0,1-1.2.643,6.729,6.729,0,0,1-1.4-1.592.719.719,0,0,1,.786-1.077A4,4,0,0,1,944.378,589.506Z" transform="translate(-257.708 -14.613)" fill="#122253" stroke="#122253" stroke-width="1"/>
    <path id="Trazado_995225" data-name="Trazado 995225" d="M744.446,576.454c.662,0,1.934,1.583,1.784,2.223a.754.754,0,0,1-1.258.375,6.572,6.572,0,0,1-1.176-1.374A.779.779,0,0,1,744.446,576.454Z" transform="translate(-104.663 -6.098)" fill="#122253" stroke="#122253" stroke-width="1"/>
    <path id="Trazado_995226" data-name="Trazado 995226" d="M660.511,681.051a25.15,25.15,0,0,0-5.245,6.082c-.2.321-.376.66-.6.962-.286.384-.647.694-1.147.362a.811.811,0,0,1-.257-1.264c.839-1.211,1.6-2.486,2.545-3.612,1.233-1.474,2.608-2.828,3.955-4.268a9.417,9.417,0,0,1-.438-4.266,6.45,6.45,0,0,1,2.113-3.659,14.037,14.037,0,0,1,6.038-2.988c3.881-.965,7.735-.555,11.585.193.445.086.883.208,1.327.3,1.316.271,1.57.542,1.1,1.749a40.649,40.649,0,0,1-2.534,5.672,19.374,19.374,0,0,1-7.418,7.643,7.98,7.98,0,0,1-6.2,1.051,7.856,7.856,0,0,1-3.987-2.862C661.089,681.822,660.845,681.49,660.511,681.051Zm7.723-6.5c.428-1.076.8-2.135,1.274-3.142.234-.493.71-.858,1.3-.438.566.4.427.872.059,1.366a1.981,1.981,0,0,0-.531,1.826c.394-.051.758-.1,1.124-.144.75-.081,1.5-.187,2.252-.222.592-.028,1.086.237,1.082.891,0,.611-.481.737-1.029.8a28.047,28.047,0,0,0-3.679.576,8.789,8.789,0,0,0-3.29,1.36,9.243,9.243,0,0,0,1.274.326c.936.089,1.877.147,2.817.181.525.019.916.2.957.745.042.556-.359.791-.858.859-.224.031-.452.032-.679.041a12.382,12.382,0,0,1-4.962-.991,1.642,1.642,0,0,0-1.153-.075,22.319,22.319,0,0,0-2.17,1.353c1.9,3.845,5.03,4.526,8.232,2.9a18.6,18.6,0,0,0,7.575-7.75c.8-1.389,1.394-2.9,2.168-4.536-1.2-.223-2.147-.417-3.1-.576a21.761,21.761,0,0,0-9.332.18,11.026,11.026,0,0,0-5.4,2.955,4.109,4.109,0,0,0-.752,4.936Z" transform="translate(-34.634 -76.731)" fill="#122253" stroke="#122253" stroke-width="1"/>
    <path id="Trazado_995227" data-name="Trazado 995227" d="M845.028,708.1c-2.952,0-5.9.007-8.856,0-1.842-.006-2.537-.693-2.544-2.543q-.018-5.565,0-11.131c.008-1.821.734-2.581,2.536-2.6,3.292-.029,6.585,0,9.878-.011a2.683,2.683,0,0,1,2.454,1.333q3.671,5.734,7.416,11.419a2.2,2.2,0,0,1,.288,2.438,2.257,2.257,0,0,1-2.2,1.1C851.009,708.085,848.018,708.1,845.028,708.1Zm9.69-1.984c-.207-.39-.381-.79-.615-1.151-2.321-3.581-4.666-7.147-6.966-10.742a1.522,1.522,0,0,0-1.456-.822c-3.061.029-6.122.009-9.184.017-.367,0-.734.064-1.139.1v12.715C836.621,706.587,853.8,706.513,854.718,706.118Z" transform="translate(-174.198 -95.268)" fill="#122253" stroke="#122253" stroke-width="1"/>
    <path id="Trazado_995228" data-name="Trazado 995228" d="M839.712,776c-.677,0-1.355,0-2.032,0a.747.747,0,0,1-.845-.831c.009-.556.34-.807.875-.808,1.393,0,2.785-.007,4.178,0,.511,0,.889.218.912.783.026.636-.38.853-.941.859-.715.008-1.43,0-2.146,0Z" transform="translate(-176.684 -159.069)" fill="#122253" stroke="#122253" stroke-width="1"/>
    <path id="Trazado_995229" data-name="Trazado 995229" d="M678.681,836.176A4.178,4.178,0,1,1,682.86,832,4.15,4.15,0,0,1,678.681,836.176Zm-.034-6.636a2.493,2.493,0,0,0-2.5,2.533,2.594,2.594,0,0,0,2.49,2.47,2.529,2.529,0,0,0,2.544-2.511A2.493,2.493,0,0,0,678.647,829.54Z" transform="translate(-51.181 -200.394)" fill="#122253" stroke="#122253" stroke-width="1"/>
    <path id="Trazado_995230" data-name="Trazado 995230" d="M866.786,836.175a4.178,4.178,0,1,1-.114-8.356,4.3,4.3,0,0,1,4.255,4.146A4.174,4.174,0,0,1,866.786,836.175Zm-.078-6.636a2.49,2.49,0,0,0-2.5,2.528,2.517,2.517,0,0,0,5.034-.039A2.5,2.5,0,0,0,866.708,829.539Z" transform="translate(-196.551 -200.393)" fill="#122253" stroke="#122253" stroke-width="1"/>
  </g>
</svg>
