<svg xmlns="http://www.w3.org/2000/svg" width="40.208" height="65.896" viewBox="0 0 40.208 65.896">
  <g id="Grupo_1177933" data-name="Grupo 1177933" transform="translate(-601.745 -627.216)">
    <path id="Trazado_994627" data-name="Trazado 994627" d="M616.054,639.911c.268-2.1.382-4.135.831-6.116a20.4,20.4,0,0,1,1.675-4.045,3.6,3.6,0,0,1,1.023-1.107,3.529,3.529,0,0,1,4.558.012,7.033,7.033,0,0,1,2.143,3.254,20.709,20.709,0,0,1,1.161,7.3c0,.186,0,.372,0,.467,1.09.867,2.131,1.673,3.144,2.5,3.36,2.75,6.7,5.515,10.074,8.254a1.874,1.874,0,0,1,.789,1.571q-.023,19.526-.014,39.052c0,1.277-.326,1.553-1.863,1.554q-17.743.006-35.485,0c-1.48,0-1.831-.286-1.831-1.483q-.007-19.573-.014-39.145a1.885,1.885,0,0,1,.811-1.563c3.988-3.247,7.949-6.518,11.928-9.773C615.353,640.341,615.788,640.091,616.054,639.911Zm11.4,2.577-.247.153c-.244.907-.452,1.823-.744,2.719a1.352,1.352,0,0,0,.241,1.484,3.154,3.154,0,0,1,.616,1.294c.616,2.379-1.291,4.825-4.134,5.354-3.083.573-6.117-.959-6.8-3.435-.661-2.394,1.194-4.919,4.135-5.425a22.022,22.022,0,0,1,3.5-.03l.591-2.366a5.3,5.3,0,0,0-.649-.093c-2.16-.006-4.321-.032-6.479.019a2.273,2.273,0,0,0-1.235.515c-3.562,2.89-7.086,5.814-10.651,8.7a1.73,1.73,0,0,0-.724,1.483q.025,15.212.014,30.424c0,.329.039.658.061,1h33.808c.024-.322.062-.6.062-.871q0-15.352.016-30.7a1.568,1.568,0,0,0-.7-1.3q-4.09-3.316-8.134-6.67C629.122,644.01,628.3,643.239,627.452,642.488ZM604.94,690.4h33.776v-3.838H604.94Zm19.838-50.5a16.78,16.78,0,0,0-1.6-8.6,9.03,9.03,0,0,0-1.157-1.4c-2.17,1.162-3.878,7.307-2.926,10Zm-5.825,8.939a2.683,2.683,0,0,0,2.987,2.642c1.675-.046,2.9-1.193,2.761-2.581C622.174,650.542,621.392,650.542,618.953,648.841Zm2.908-.7,1.337-1.368h-2.714Z" fill="#122253" stroke="#122253" stroke-width="1"/>
    <path id="Trazado_994628" data-name="Trazado 994628" d="M652.215,823.116c-2.288,1.992-4.345,1.83-5.859-.4a7.783,7.783,0,0,1-.4-7.5c1.213-2.435,3.25-3.127,5.468-1.806.128-.118.277-.276.439-.4.895-.679,1.709-.057,1.748,1.384.037,1.359.009,2.722.01,4.084,0,.363-.008.727,0,1.089.038,1.3.57,2.155,1.362,2.21.825.057,1.451-.791,1.537-2.142a11.336,11.336,0,0,0-2.166-7.947c-2.134-2.712-4.655-3.456-7.36-2.148-2.684,1.3-4.325,4.048-4.713,8.044-.373,3.847,1.195,8.324,4.583,10.075a5.289,5.289,0,0,0,5.711-.386c.476-.318,1.01-.392,1.315.238a3.2,3.2,0,0,1,.235,1.722,1.838,1.838,0,0,1-.824,1.018c-3.462,2.3-7.924,1.148-10.622-2.7-4.827-6.878-2.767-18.262,3.817-21.091,5.071-2.18,10.219,1.452,11.875,8.4a16.164,16.164,0,0,1,.252,6.047c-.508,3.577-3.586,5.2-5.712,3.026C652.682,823.7,652.473,823.421,652.215,823.116Zm-2.819-7.3c-1.049,0-1.943,1.276-1.953,2.78-.011,1.593.888,2.852,2.007,2.812,1.087-.039,1.917-1.27,1.9-2.821C651.339,817.065,650.453,815.809,649.4,815.813Z" transform="translate(-27.497 -150.32)" fill="#122253" stroke="#122253" stroke-width="1"/>
  </g>
</svg>
