<svg xmlns="http://www.w3.org/2000/svg" width="68.579" height="68.457" viewBox="0 0 68.579 68.457">
  <g id="Grupo_1177935" data-name="Grupo 1177935" transform="translate(-552.538 -675.236)">
    <path id="Trazado_994629" data-name="Trazado 994629" d="M586.834,675.247c9,0,17.993.015,26.99-.011a7.049,7.049,0,0,1,5.356,2.084,6.483,6.483,0,0,1,1.917,4.426c.007.2.013.4.013.593q0,27.1.007,54.207a6.94,6.94,0,0,1-1.008,3.86,6.659,6.659,0,0,1-5.456,3.252c-.329.02-.659.02-.988.02q-26.841,0-53.682.014a7.238,7.238,0,0,1-5.4-1.984,6.5,6.5,0,0,1-2.026-4.579c0-.165-.01-.33-.01-.495q0-27.153-.008-54.306a6.827,6.827,0,0,1,2.087-5.154,6.541,6.541,0,0,1,4.33-1.9c.46-.023.922-.023,1.383-.023Zm0,63.858h26.594c.329,0,.66.01.988-.012a2.19,2.19,0,0,0,2.1-2.085c.018-.263.01-.527.01-.791q0-26.758,0-53.515c0-.231.007-.462,0-.692a2.192,2.192,0,0,0-2.115-2.176c-.3-.019-.593-.01-.889-.01H560.13c-.3,0-.594-.009-.89.011a2.178,2.178,0,0,0-2.1,2.083c-.017.263-.009.527-.009.791q0,26.757,0,53.515c0,.3-.011.6.016.89a2.189,2.189,0,0,0,1.9,1.962,9.639,9.639,0,0,0,1.086.029Z" transform="translate(0 0)" fill="#122253"/>
    <path id="Trazado_994630" data-name="Trazado 994630" d="M642.136,759.11c1.03,1.771,2,3.446,2.977,5.119,1.56,2.674,3.062,5.383,4.7,8.006,1.312,2.1-.282,3.872-2.2,3.861q-15.567-.09-31.136-.009a2.406,2.406,0,0,1-2.2-3.849c.739-1.044,1.3-2.21,1.942-3.325.142-.248.263-.509.455-.883h-1.094c-2.834,0-5.667.008-8.5,0a2.2,2.2,0,0,1-2.451-2.44q-.014-12.363,0-24.725c0-1.62.933-2.487,2.644-2.491,4.481-.01,8.962-.021,13.443.014a1.357,1.357,0,0,0,1.477-.924,15.918,15.918,0,1,1,21.846,20.749C643.46,758.509,642.859,758.77,642.136,759.11Zm-22.659,4.317c.2-.314.4-.615.578-.927,2.986-5.152,5.92-10.335,8.99-15.437a6.517,6.517,0,0,0,.687-4.057H609.266v20.421Zm20.252-8.456a11.329,11.329,0,0,0,8.407-10.983,11.45,11.45,0,0,0-9.259-11.163,11.164,11.164,0,0,0-11.967,5.544h1c1.284,0,2.569-.014,3.853,0a2.4,2.4,0,0,1,2.586,2.593c.014,1.384-.025,2.769.02,4.152a2.96,2.96,0,0,0,.355,1.293c.813,1.468,1.68,2.906,2.53,4.353C638.08,752.176,638.913,753.586,639.729,754.971Zm-7.685-4.02-11.993,20.476h23.985Z" transform="translate(-41.786 -42.627)" fill="#122253"/>
  </g>
</svg>
