<svg xmlns="http://www.w3.org/2000/svg" width="85.105" height="84.915" viewBox="0 0 85.105 84.915">
  <g id="Grupo_1177937" data-name="Grupo 1177937" transform="translate(-420.683 -506.056)">
    <path id="Trazado_994631" data-name="Trazado 994631" d="M501.988,548.472a38.873,38.873,0,0,0-24.777-36.011,37.282,37.282,0,0,0-20.822-2.007c-13.959,2.734-23.728,10.8-29.207,23.926a36.532,36.532,0,0,0-2.125,20.81c.247,1.395.687,2.755.959,4.147a2.429,2.429,0,0,1-.123,1.489,1.321,1.321,0,0,1-2.241-.071,3.753,3.753,0,0,1-.366-.936,41.228,41.228,0,0,1,12.272-42.175,40.294,40.294,0,0,1,22.381-10.233,41.48,41.48,0,0,1,43.09,24,39.517,39.517,0,0,1,3.216,23.223c-2.433,14.628-10.484,25.193-23.862,31.558a38.96,38.96,0,0,1-23.2,3.249,40.8,40.8,0,0,1-29.364-19.347c-.744-1.181-.689-1.961.1-2.443s1.528-.154,2.251.988a38.123,38.123,0,0,0,25.171,17.647,38.638,38.638,0,0,0,43.645-22.957A39.764,39.764,0,0,0,501.988,548.472Z" transform="translate(0 0)" fill="#122253" stroke="#122253" stroke-width="2"/>
    <path id="Trazado_994632" data-name="Trazado 994632" d="M485.383,595.6a25.068,25.068,0,0,0,49.172,6.836,23.931,23.931,0,0,0-.286-14.572c-.143-.425-.3-.847-.414-1.28a1.363,1.363,0,0,1,.824-1.637,1.33,1.33,0,0,1,1.712.661,21.15,21.15,0,0,1,.786,2.334,27.752,27.752,0,0,1-12.162,31.333,26.473,26.473,0,0,1-16.94,3.994c-11.39-1.271-19.5-7.252-23.664-17.98-5.5-14.165,1.727-29.937,15.957-35.595a27.972,27.972,0,0,1,31.781,8.532c.66.845.666,1.652.016,2.182a1.491,1.491,0,0,1-2.147-.438,25.086,25.086,0,0,0-42.116,4.687A25.034,25.034,0,0,0,485.383,595.6Z" transform="translate(-47.22 -47.112)" fill="#122253" stroke="#122253" stroke-width="2"/>
    <path id="Trazado_994633" data-name="Trazado 994633" d="M571.593,631.408v-9.25h-20.56c-.022.322-.062.646-.062.971,0,3.181.025,6.363-.007,9.544a13.593,13.593,0,0,0,9.638,12.7,2.756,2.756,0,0,0,1.616-.054,13.955,13.955,0,0,0,7.577-6c.138-.222.258-.456.4-.674A1.374,1.374,0,0,1,572.09,638a1.389,1.389,0,0,1,.459,2.046,24.231,24.231,0,0,1-2.2,3.1,17.132,17.132,0,0,1-7.827,5.023,3.783,3.783,0,0,1-2.525-.034c-6.32-2.227-10.36-6.488-11.654-13.159a14.562,14.562,0,0,1-.173-2.685c-.018-3.63-.011-7.261-.007-10.892,0-1.766.363-2.138,2.085-2.139q11.053-.006,22.106,0c1.734,0,2.108.378,2.11,2.119q0,5.614-.006,11.229c0,1.625-.425,2.034-2.012,1.877a16.022,16.022,0,0,0-6.516.762A15.179,15.179,0,0,1,555.924,635a1.308,1.308,0,0,1-.937-1.471,1.234,1.234,0,0,1,1.151-1.181,1.936,1.936,0,0,1,.869.137,14.648,14.648,0,0,0,9.244-.175A37.326,37.326,0,0,1,571.593,631.408Z" transform="translate(-98.093 -87.006)" fill="#122253" stroke="#122253" stroke-width="2"/>
    <path id="Trazado_994634" data-name="Trazado 994634" d="M556.606,750.092c-3.441-.033-7.931-1.771-11.666-5.338a2.205,2.205,0,0,1-.7-1.516c.094-1.108,1.381-1.444,2.335-.7a37.764,37.764,0,0,0,3,2.324,16.546,16.546,0,0,0,19.583-1.584c.28-.246.538-.52.83-.752a1.389,1.389,0,0,1,2.006.042,1.255,1.255,0,0,1-.159,1.975,31.5,31.5,0,0,1-3.913,2.969C564.994,749.3,561.751,750.1,556.606,750.092Z" transform="translate(-95.049 -182.293)" fill="#122253" stroke="#122253" stroke-width="2"/>
    <path id="Trazado_994635" data-name="Trazado 994635" d="M592.029,652.758c.931,0,1.864-.028,2.794.009a1.323,1.323,0,0,1,1.413,1.276,1.374,1.374,0,0,1-1.38,1.452q-2.9.067-5.811,0a1.384,1.384,0,0,1-1.363-1.474,1.357,1.357,0,0,1,1.442-1.254C590.09,652.731,591.06,652.757,592.029,652.758Z" transform="translate(-128.74 -112.977)" fill="#122253" stroke="#122253" stroke-width="2"/>
    <path id="Trazado_994636" data-name="Trazado 994636" d="M458.193,718.762a1.4,1.4,0,0,1-1.026,1.394,1.231,1.231,0,0,1-1.58-.715,9.321,9.321,0,0,1-.6-2.371,1.253,1.253,0,0,1,1.06-1.378,1.226,1.226,0,0,1,1.548.765A20.3,20.3,0,0,1,458.193,718.762Z" transform="translate(-25.826 -161.756)" fill="#122253" stroke="#122253" stroke-width="2"/>
    <path id="Trazado_994637" data-name="Trazado 994637" d="M485.6,591.713c0,1.016-1.477,3.023-2.173,3.073a1.8,1.8,0,0,1-1.352-.451,1.582,1.582,0,0,1-.194-1.409,6.214,6.214,0,0,1,1.5-1.909,1.668,1.668,0,0,1,1.416-.183C485.193,590.98,485.441,591.523,485.6,591.713Z" transform="translate(-46.62 -64.897)" fill="#122253" stroke="#122253" stroke-width="2"/>
    <path id="Trazado_994638" data-name="Trazado 994638" d="M454.683,652.157c.128-.511.264-1.207.483-1.876a1.3,1.3,0,0,1,1.592-.87,1.337,1.337,0,0,1,1.041,1.5,15.142,15.142,0,0,1-.423,1.961,1.392,1.392,0,0,1-1.606,1.05C455.029,653.749,454.624,653.164,454.683,652.157Z" transform="translate(-25.59 -110.355)" fill="#122253" stroke="#122253" stroke-width="2"/>
    <path id="Trazado_994639" data-name="Trazado 994639" d="M538.323,820.149c-.1,1.024-.762,1.664-1.485,1.456a9.759,9.759,0,0,1-2.507-1.15,1.152,1.152,0,0,1-.3-1.6,1.187,1.187,0,0,1,1.478-.7,10.522,10.522,0,0,1,2.3,1.1C538.117,819.463,538.229,819.977,538.323,820.149Z" transform="translate(-86.987 -241.211)" fill="#122253" stroke="#122253" stroke-width="2"/>
    <path id="Trazado_994640" data-name="Trazado 994640" d="M711.989,588.689c.171-.206.414-.752.812-.909a1.658,1.658,0,0,1,1.414.161,6.354,6.354,0,0,1,1.548,1.88,1.613,1.613,0,0,1-.159,1.4,1.654,1.654,0,0,1-1.237.523C713.636,591.73,712.014,589.728,711.989,588.689Z" transform="translate(-225.15 -62.522)" fill="#122253" stroke="#122253" stroke-width="2"/>
    <path id="Trazado_994641" data-name="Trazado 994641" d="M664.691,819.976a5.629,5.629,0,0,1-1.239-1.137,1.144,1.144,0,0,1,.464-1.563A14.545,14.545,0,0,1,666,816.212a1.243,1.243,0,0,1,1.548.573,1.081,1.081,0,0,1-.08,1.531A28.951,28.951,0,0,1,664.691,819.976Z" transform="translate(-187.393 -239.678)" fill="#122253" stroke="#122253" stroke-width="2"/>
    <path id="Trazado_994642" data-name="Trazado 994642" d="M536.367,551.638c-.025.687-.554,1.062-1.21,1.322-.863.342-1.662,1.157-2.684.447a1.322,1.322,0,0,1,.069-2.184,11.064,11.064,0,0,1,2.1-1.033A1.363,1.363,0,0,1,536.367,551.638Z" transform="translate(-85.502 -33.381)" fill="#122253" stroke="#122253" stroke-width="2"/>
    <path id="Trazado_994643" data-name="Trazado 994643" d="M485.051,780.174a3.063,3.063,0,0,1-.779-.47,12.219,12.219,0,0,1-1.282-1.54,1.345,1.345,0,0,1,.169-1.823,1.39,1.39,0,0,1,1.918.075,10.539,10.539,0,0,1,1.386,1.741A1.376,1.376,0,0,1,485.051,780.174Z" transform="translate(-47.333 -208.561)" fill="#122253" stroke="#122253" stroke-width="2"/>
    <path id="Trazado_994644" data-name="Trazado 994644" d="M745.579,649.935a1.348,1.348,0,0,1-1.238-1.024c-.185-.6-.355-1.216-.481-1.835a1.4,1.4,0,0,1,.959-1.671,1.326,1.326,0,0,1,1.683.9,10.8,10.8,0,0,1,.488,2.062A1.35,1.35,0,0,1,745.579,649.935Z" transform="translate(-249.842 -107.232)" fill="#122253" stroke="#122253" stroke-width="2"/>
    <path id="Trazado_994645" data-name="Trazado 994645" d="M745.582,714.617c.09-.487.163-1.119.328-1.724a1.343,1.343,0,0,1,1.67-1.084,1.275,1.275,0,0,1,1.03,1.581,11.506,11.506,0,0,1-.377,1.849,1.4,1.4,0,0,1-1.578,1.095C745.939,716.193,745.535,715.6,745.582,714.617Z" transform="translate(-251.201 -158.754)" fill="#122253" stroke="#122253" stroke-width="2"/>
    <path id="Trazado_994646" data-name="Trazado 994646" d="M720.013,774.038c.027,1.081-1.468,3.1-2.226,3.131a1.876,1.876,0,0,1-1.338-.518,1.426,1.426,0,0,1-.15-1.3,6.8,6.8,0,0,1,1.468-1.938,1.665,1.665,0,0,1,1.4-.238C719.571,773.312,719.838,773.846,720.013,774.038Z" transform="translate(-228.421 -206.33)" fill="#122253" stroke="#122253" stroke-width="2"/>
    <path id="Trazado_994647" data-name="Trazado 994647" d="M600.9,833.79c.3,0,.6-.023.891,0a1.277,1.277,0,0,1,1.293,1.265,1.3,1.3,0,0,1-1.11,1.441,10.915,10.915,0,0,1-2.333.021A1.32,1.32,0,0,1,598.5,835.1a1.334,1.334,0,0,1,1.293-1.282c.368-.036.742-.006,1.113-.006Z" transform="translate(-137.13 -253.379)" fill="#122253" stroke="#122253" stroke-width="2"/>
    <path id="Trazado_994648" data-name="Trazado 994648" d="M598.627,539.745a9.368,9.368,0,0,1-1-.006,1.364,1.364,0,0,1-.12-2.711,11.025,11.025,0,0,1,2.221-.014,1.323,1.323,0,0,1,1.207,1.472,1.3,1.3,0,0,1-1.306,1.257c-.331.032-.667.005-1,.005Z" transform="translate(-135.463 -23.181)" fill="#122253" stroke="#122253" stroke-width="2"/>
    <path id="Trazado_994649" data-name="Trazado 994649" d="M662.774,550.717c-.03.961-.74,1.675-1.49,1.466a8.629,8.629,0,0,1-2.5-1.146,1.682,1.682,0,0,1-.38-1.367,1.008,1.008,0,0,1,1.224-.886,15.49,15.49,0,0,1,2.805,1.227C662.656,550.129,662.71,550.574,662.774,550.717Z" transform="translate(-183.579 -32.319)" fill="#122253" stroke="#122253" stroke-width="2"/>
  </g>
</svg>
